<svg width="470" height="454" viewBox="0 0 470 454" fill="none" xmlns="http://www.w3.org/2000/svg">
<g clip-path="url(#clip0_860_23461)">
<g clip-path="url(#clip1_860_23461)">
<path d="M202 91V116C202 154.66 170.66 186 132 186H97" stroke="white"/>
<path d="M264 362C264 358.298 262.552 354.748 259.973 352.13C257.395 349.513 253.898 348.042 250.252 348.042H238.209C236.41 348.042 234.684 347.318 233.41 346.029C232.136 344.739 231.417 342.989 231.411 341.163V331.554C231.405 327.162 229.683 322.951 226.621 319.847C223.56 316.743 219.411 315 215.084 315H151.305C146.981 315 142.833 316.744 139.776 319.849C136.718 322.953 135 327.164 135 331.554" stroke="white"/>
<path d="M371 300V300C346.676 300 326.957 280.281 326.957 255.957V165.234C326.957 161.581 326.796 157.893 325.693 154.41C320.412 137.726 303.16 123 281 123" stroke="white"/>
<g opacity="0.96" filter="url(#filter0_f_860_23461)">
<circle cx="235" cy="227" r="148" fill="#090C10" fill-opacity="0.97"/>
</g>
<g clip-path="url(#clip2_860_23461)">
<path opacity="0.5" d="M389.78 69.01C379.94 59.3728 373.947 53.1589 362.5 45.5" stroke="white" stroke-width="1.3" stroke-miterlimit="10" stroke-dasharray="3 3"/>
<path opacity="0.5" d="M451.92 183.08C453.429 190.493 455.257 200.476 456 208" stroke="white" stroke-width="1.3" stroke-miterlimit="10" stroke-dasharray="3 3"/>
<path opacity="0.5" d="M444.87 298.27C449.16 285.505 456 267.5 456 247.5" stroke="white" stroke-width="1.3" stroke-miterlimit="10" stroke-dasharray="3 3"/>
<path opacity="0.5" d="M363.5 410C375.643 401.981 380.014 395.734 390.37 385.51" stroke="white" stroke-width="1.3" stroke-miterlimit="10" stroke-dasharray="3 3"/>
<path opacity="0.5" d="M284.4 443.88C296.5 442 323 433.5 333.5 428" stroke="white" stroke-width="1.3" stroke-miterlimit="10" stroke-dasharray="3 3"/>
<path opacity="0.5" d="M136 427.5C152 436 160 439.5 187.53 444.6" stroke="white" stroke-width="1.3" stroke-miterlimit="10" stroke-dasharray="3 3"/>
<path opacity="0.5" d="M71 378C78.1776 387.955 92.3306 401.782 108 411" stroke="white" stroke-width="1.3" stroke-miterlimit="10" stroke-dasharray="3 3"/>
<path opacity="0.5" d="M12.5 246.5C15.5 273 20.2242 288.139 25.1901 302.08" stroke="white" stroke-width="1.3" stroke-miterlimit="10" stroke-dasharray="3 3"/>
<path opacity="0.5" d="M19.14 172.97C15.5686 187.092 13.7314 193.952 13 208.5" stroke="white" stroke-width="1.3" stroke-miterlimit="10" stroke-dasharray="3 3"/>
<path opacity="0.5" d="M105 45.5C91.209 54.8098 83.8432 63.5337 72.46 75.6699" stroke="white" stroke-width="1.3" stroke-miterlimit="10" stroke-dasharray="3 3"/>
<path opacity="0.5" d="M195 8.5C186.5 10 169.5 11 137 27" stroke="white" stroke-width="1.3" stroke-miterlimit="10" stroke-dasharray="3 3"/>
<path opacity="0.5" d="M332.5 28.5C317 19 280.5 8 268.5 7" stroke="white" stroke-width="1.3" stroke-miterlimit="10" stroke-dasharray="3 3"/>
<path d="M203.71 12.39L202.31 2.28006L203.85 2.06006L205.24 12.1801L203.71 12.39Z" fill="white"/>
<path d="M211.3 11.6299C210.628 11.7167 209.946 11.6552 209.3 11.45C208.735 11.2657 208.237 10.9176 207.87 10.45C207.49 9.96969 207.258 9.38967 207.2 8.77997L208.82 8.59995C208.879 9.11685 209.138 9.59035 209.54 9.91995C209.989 10.2271 210.526 10.377 211.069 10.3462C211.612 10.3155 212.129 10.1058 212.54 9.74997C212.686 9.59938 212.796 9.41767 212.862 9.21851C212.928 9.01935 212.948 8.80788 212.92 8.59995C212.904 8.28865 212.788 7.99081 212.59 7.74997C212.392 7.53904 212.15 7.37503 211.88 7.26996C211.555 7.14828 211.22 7.05133 210.88 6.97995L209.71 6.72995C209.028 6.61086 208.386 6.32583 207.84 5.89996C207.385 5.49601 207.108 4.92778 207.07 4.31995C206.993 3.79416 207.077 3.25745 207.31 2.77997C207.551 2.31687 207.919 1.93186 208.37 1.66995C208.893 1.36428 209.477 1.17658 210.08 1.11997C210.676 1.04315 211.282 1.10474 211.85 1.29996C212.351 1.47331 212.794 1.78124 213.13 2.18994C213.46 2.60791 213.664 3.11063 213.72 3.63996L212.1 3.80997C212.068 3.5488 211.968 3.3006 211.81 3.08997C211.641 2.86208 211.417 2.67994 211.16 2.55997C210.843 2.43193 210.499 2.38717 210.16 2.42996C209.732 2.45492 209.325 2.62814 209.01 2.91995C208.868 3.06211 208.76 3.23547 208.696 3.42636C208.631 3.61726 208.613 3.82048 208.64 4.01996C208.651 4.18966 208.696 4.35536 208.774 4.50675C208.851 4.65813 208.959 4.79197 209.09 4.89997C209.393 5.10449 209.732 5.24721 210.09 5.31995L211.54 5.65994C212.025 5.75865 212.498 5.90954 212.95 6.10996C213.344 6.29925 213.687 6.58048 213.95 6.92996C214.252 7.33771 214.429 7.82389 214.46 8.32996C214.511 8.83255 214.429 9.33976 214.22 9.79996C213.981 10.2849 213.614 10.6961 213.16 10.99C212.602 11.3522 211.963 11.5719 211.3 11.6299V11.6299Z" fill="white"/>
<path d="M220.48 10.8602C219.801 10.9214 219.118 10.8291 218.48 10.5902C217.932 10.3935 217.45 10.047 217.09 9.59019C216.735 9.09137 216.53 8.50151 216.5 7.89018L218.13 7.79017C218.144 8.04545 218.209 8.29537 218.32 8.5254C218.432 8.75544 218.588 8.961 218.78 9.13017C218.997 9.31902 219.252 9.45879 219.529 9.5399C219.805 9.62101 220.095 9.64156 220.38 9.60017C220.881 9.59635 221.364 9.41171 221.74 9.08018C221.894 8.93822 222.014 8.76218 222.088 8.56602C222.163 8.36987 222.191 8.15899 222.17 7.95018C222.164 7.64044 222.063 7.34004 221.88 7.09019C221.687 6.8711 221.448 6.69701 221.18 6.58018C220.858 6.43845 220.523 6.32796 220.18 6.2502C219.81 6.1602 219.42 6.06017 219.02 5.94017C218.342 5.79583 217.71 5.48673 217.18 5.04017C216.746 4.61615 216.497 4.03709 216.49 3.43019C216.43 2.9047 216.535 2.37369 216.79 1.91017C217.048 1.45401 217.429 1.07973 217.89 0.830182C218.429 0.549743 219.023 0.389402 219.63 0.360181C220.229 0.313627 220.83 0.402501 221.39 0.62019C221.887 0.807271 222.318 1.13461 222.633 1.56245C222.947 1.99029 223.13 2.5002 223.16 3.03019L221.53 3.14018C221.511 2.8763 221.425 2.62166 221.28 2.40019C221.116 2.16656 220.896 1.97752 220.64 1.85017C220.29 1.69975 219.906 1.64548 219.528 1.69294C219.15 1.74041 218.792 1.88791 218.49 2.12019C218.34 2.25447 218.225 2.42255 218.154 2.61042C218.082 2.7983 218.057 3.00051 218.08 3.20018C218.08 3.36924 218.117 3.53619 218.188 3.68974C218.259 3.84329 218.362 3.97987 218.49 4.09019C218.786 4.31643 219.127 4.47669 219.49 4.56019L220.92 4.96019C221.404 5.07824 221.873 5.24928 222.32 5.4702C222.717 5.67315 223.06 5.96798 223.32 6.33018C223.6 6.75172 223.757 7.24394 223.77 7.7502C223.803 8.2561 223.695 8.76123 223.46 9.21019C223.205 9.68993 222.82 10.0884 222.35 10.3602C221.775 10.6737 221.134 10.8452 220.48 10.8602Z" fill="white"/>
<path d="M230.12 10.4601C229.432 10.483 228.749 10.3496 228.12 10.0701C227.523 9.79123 227.024 9.33799 226.69 8.77008C226.305 8.08364 226.112 7.30666 226.13 6.52008L226 0.150085H227.55L227.67 6.54007C227.643 6.90203 227.689 7.26571 227.806 7.60934C227.923 7.95298 228.108 8.26952 228.35 8.54007C228.588 8.7491 228.866 8.90887 229.166 9.01013C229.466 9.1114 229.784 9.15216 230.1 9.13007C230.415 9.14138 230.729 9.08872 231.023 8.97528C231.316 8.86184 231.584 8.69 231.81 8.47009C232.04 8.19474 232.212 7.87547 232.315 7.53168C232.418 7.18788 232.451 6.82672 232.41 6.47009L232.29 0.0800781H233.84L233.96 6.45007C234.011 7.23756 233.841 8.02359 233.47 8.72009C233.152 9.30245 232.663 9.77352 232.07 10.0701C231.458 10.3458 230.791 10.4792 230.12 10.4601V10.4601Z" fill="white"/>
<path d="M236.68 10.23L236.93 0.0200195L243.42 0.180023V1.44L238.42 1.32001L238.34 4.50003L242.85 4.61002V5.83002L238.34 5.72003L238.26 9.02002L243.26 9.14001V10.39L236.68 10.23Z" fill="white"/>
<path d="M245.61 10.5001L246.29 0.310059L249.8 0.550049C250.501 0.560655 251.189 0.746283 251.8 1.09006C252.27 1.36213 252.646 1.76999 252.88 2.26004C253.116 2.7833 253.209 3.36 253.15 3.93106C253.09 4.50212 252.879 5.04703 252.54 5.51004C252.128 6.02632 251.547 6.38051 250.9 6.51004L252.79 10.98L251 10.86L249.29 6.62006L247.47 6.50006L247.2 10.61L245.61 10.5001ZM247.51 5.34006L249.38 5.46005C249.657 5.51227 249.941 5.5054 250.215 5.43991C250.489 5.37443 250.747 5.2518 250.97 5.08005C251.148 4.91461 251.291 4.71523 251.39 4.49368C251.49 4.27213 251.544 4.03289 251.55 3.79004C251.577 3.55353 251.557 3.31399 251.49 3.08554C251.423 2.85709 251.31 2.6444 251.16 2.46005C250.958 2.26364 250.718 2.11012 250.455 2.00873C250.192 1.90734 249.912 1.86017 249.63 1.87006L247.77 1.74005L247.51 5.34006Z" fill="white"/>
<path d="M258.41 11.7399C257.737 11.6739 257.086 11.466 256.5 11.1299C255.99 10.8334 255.577 10.3958 255.31 9.86994C255.044 9.31683 254.94 8.6997 255.01 8.08994L256.64 8.26993C256.585 8.78491 256.732 9.30112 257.05 9.70993C257.234 9.92826 257.462 10.1059 257.718 10.2316C257.975 10.3572 258.255 10.4282 258.54 10.4399C259.034 10.5327 259.544 10.4363 259.97 10.1699C260.141 10.0592 260.285 9.9122 260.392 9.73932C260.499 9.56644 260.567 9.372 260.59 9.16992C260.642 8.86268 260.593 8.54688 260.45 8.26993C260.305 8.01953 260.103 7.80706 259.86 7.64994C259.571 7.45893 259.266 7.29172 258.95 7.14994C258.6 6.99994 258.24 6.82994 257.86 6.64994C257.221 6.38489 256.655 5.96984 256.21 5.43991C255.855 4.94933 255.707 4.33848 255.8 3.73993C255.834 3.2108 256.03 2.70484 256.36 2.28992C256.696 1.88968 257.135 1.58886 257.63 1.41992C258.208 1.23681 258.819 1.1822 259.42 1.25992C260.017 1.3142 260.595 1.50219 261.11 1.80994C261.563 2.08296 261.931 2.478 262.17 2.94992C262.404 3.43102 262.497 3.96818 262.44 4.49994L260.82 4.31992C260.85 4.05713 260.809 3.79113 260.7 3.54993C260.583 3.29099 260.4 3.067 260.17 2.89994C259.894 2.70156 259.569 2.58384 259.23 2.55994C258.806 2.48613 258.369 2.56778 258 2.78992C257.83 2.89889 257.689 3.04612 257.586 3.21979C257.484 3.39346 257.423 3.58872 257.41 3.78992C257.375 3.96473 257.38 4.14501 257.423 4.31787C257.466 4.49074 257.547 4.65193 257.66 4.78992C257.915 5.05729 258.221 5.27142 258.56 5.41992L259.9 6.05994C260.35 6.26338 260.779 6.51126 261.18 6.79993C261.539 7.06036 261.831 7.40332 262.03 7.79993C262.236 8.26074 262.305 8.77089 262.23 9.26993C262.177 9.77479 261.987 10.2555 261.68 10.6599C261.348 11.0893 260.901 11.4154 260.39 11.5999C259.751 11.8061 259.072 11.8541 258.41 11.7399V11.7399Z" fill="white"/>
<path d="M391.7 77.73L398.83 71L399.83 72.08L392.7 78.81L391.7 77.73Z" fill="white"/>
<path d="M394.5 80.6899L401.86 74.21L402.86 75.3199L400.57 83.89L406.11 79.0099L407.11 80.12L399.75 86.5999L398.75 85.49L401.04 76.92L395.5 81.8L394.5 80.6899Z" fill="white"/>
<path d="M402.8 90.3802L409.5 84.9902L407.68 82.7302L408.62 81.9702L413.17 87.6302L412.24 88.3902L410.43 86.1402L403.73 91.5302L402.8 90.3802Z" fill="white"/>
<path d="M406.74 95.36L414.61 89.52L418.32 94.52L417.32 95.24L414.49 91.43L412.04 93.25L414.62 96.72L413.62 97.42L411.04 93.95L408.5 95.83L411.33 99.64L410.33 100.36L406.74 95.36Z" fill="white"/>
<path d="M411.83 102.3L419.93 96.79L421.83 99.58C422.225 100.109 422.482 100.727 422.58 101.38C422.654 101.897 422.567 102.424 422.33 102.89C422.095 103.346 421.752 103.737 421.33 104.03C420.846 104.36 420.276 104.541 419.69 104.55C419.055 104.552 418.441 104.324 417.96 103.91L415.7 107.97L414.7 106.55L416.89 102.75L415.89 101.31L412.63 103.53L411.83 102.3ZM416.83 100.68L417.83 102.17C417.957 102.413 418.133 102.627 418.346 102.799C418.559 102.971 418.806 103.097 419.07 103.17C419.536 103.234 420.009 103.116 420.39 102.84C420.585 102.719 420.754 102.561 420.886 102.373C421.018 102.186 421.111 101.974 421.16 101.75C421.19 101.483 421.165 101.212 421.088 100.954C421.011 100.696 420.882 100.457 420.71 100.25L419.71 98.7701L416.83 100.68Z" fill="white"/>
<path d="M416.97 109.82L425.34 104.72L426.25 106.22L422.41 112.45L429.7 111.87L430.61 113.37L422.24 118.47L421.47 117.2L427.65 113.43L421.1 113.91L420.51 112.91L423.91 107.31L417.75 111.07L416.97 109.82Z" fill="white"/>
<path d="M423.44 120.75L432.021 116.03L435.021 121.48L433.97 122.08L431.68 117.93L428.97 119.38L431.06 123.17L430.06 123.74L427.97 119.95L425.2 121.47L427.49 125.63L426.43 126.21L423.44 120.75Z" fill="white"/>
<path d="M427.521 128.29L436.32 123.98L437.72 126.83C438.183 127.695 438.427 128.659 438.43 129.64C438.406 130.449 438.126 131.23 437.63 131.87C437.063 132.569 436.34 133.127 435.521 133.5C434.728 133.919 433.847 134.145 432.95 134.16C432.141 134.165 431.352 133.909 430.7 133.43C429.929 132.824 429.318 132.037 428.92 131.14L427.521 128.29ZM429.3 129.07L430.031 130.54C430.319 131.207 430.769 131.791 431.34 132.24C431.809 132.572 432.377 132.734 432.95 132.7C433.613 132.641 434.258 132.454 434.85 132.15C435.456 131.866 436.003 131.469 436.46 130.98C436.847 130.544 437.076 129.991 437.11 129.41C437.108 128.682 436.922 127.967 436.57 127.33L435.85 125.86L429.3 129.07Z" fill="white"/>
<path d="M432.04 137.72L440.98 133.72L441.58 135.07L432.65 139.07L432.04 137.72Z" fill="white"/>
<path d="M433.49 140.87L443.92 140.48L444.54 141.99L436.84 148.99L436.24 147.54L438.14 145.85L436.62 142.15L434.08 142.28L433.49 140.87ZM437.86 142.13L439.07 145.05L442.59 141.89L437.86 142.13Z" fill="white"/>
<path d="M437.53 150.88L446.75 147.56L447.89 150.73C448.138 151.341 448.234 152.004 448.17 152.66C448.111 153.182 447.895 153.673 447.55 154.07C447.209 154.453 446.775 154.742 446.29 154.91C445.739 155.111 445.141 155.146 444.57 155.01C443.956 154.856 443.419 154.482 443.06 153.96L439.85 157.33L439.27 155.71L442.34 152.58L441.74 150.93L438.03 152.27L437.53 150.88ZM442.8 150.56L443.41 152.25C443.484 152.512 443.611 152.757 443.783 152.968C443.955 153.18 444.168 153.354 444.41 153.48C444.846 153.656 445.334 153.656 445.77 153.48C446.204 153.336 446.563 153.027 446.77 152.62C446.865 152.367 446.908 152.098 446.896 151.828C446.884 151.558 446.817 151.293 446.7 151.05L446.1 149.36L442.8 150.56Z" fill="white"/>
<path d="M440.55 159.5L449.87 156.5L450.33 157.91L441.01 160.91L440.55 159.5Z" fill="white"/>
<path d="M441.82 163.41L451.22 160.65L452.98 166.65L451.82 166.99L450.48 162.44L447.56 163.3L448.77 167.45L447.65 167.78L446.43 163.63L443.43 164.52L444.77 169.08L443.62 169.42L441.82 163.41Z" fill="white"/>
<path d="M444.81 174.83C444.643 174.204 444.612 173.549 444.72 172.91C444.815 172.351 445.073 171.833 445.46 171.42C445.865 170.992 446.387 170.693 446.96 170.56L447.34 172.08C446.857 172.199 446.44 172.505 446.18 172.93C446.046 173.17 445.962 173.434 445.935 173.708C445.907 173.982 445.936 174.258 446.02 174.52C446.11 174.99 446.366 175.412 446.74 175.71C446.903 175.831 447.091 175.914 447.29 175.95C447.49 175.987 447.695 175.976 447.89 175.92C448.181 175.861 448.446 175.715 448.65 175.5C448.825 175.284 448.948 175.031 449.01 174.76C449.087 174.431 449.133 174.097 449.15 173.76C449.15 173.39 449.21 173.01 449.24 172.61C449.26 171.945 449.446 171.295 449.78 170.72C449.938 170.479 450.142 170.272 450.381 170.111C450.62 169.949 450.888 169.837 451.17 169.78C451.659 169.629 452.182 169.629 452.67 169.78C453.141 169.946 453.557 170.24 453.87 170.63C454.228 171.086 454.481 171.615 454.61 172.18C454.766 172.737 454.79 173.322 454.68 173.89C454.585 174.387 454.353 174.847 454.01 175.22C453.658 175.597 453.202 175.861 452.7 175.98L452.32 174.46C452.568 174.401 452.796 174.276 452.98 174.1C453.172 173.903 453.312 173.663 453.39 173.4C453.485 173.073 453.485 172.726 453.39 172.4C453.304 172.005 453.085 171.653 452.77 171.4C452.616 171.284 452.437 171.207 452.248 171.174C452.059 171.141 451.864 171.153 451.68 171.21C451.52 171.237 451.368 171.3 451.235 171.393C451.101 171.487 450.991 171.608 450.91 171.75C450.75 172.06 450.658 172.401 450.64 172.75C450.64 173.16 450.56 173.63 450.51 174.17C450.475 174.643 450.395 175.112 450.27 175.57C450.147 175.982 449.928 176.359 449.63 176.67C449.286 177.013 448.847 177.246 448.37 177.34C447.902 177.47 447.408 177.47 446.94 177.34C446.441 177.184 445.997 176.889 445.66 176.49C445.247 176.013 444.956 175.443 444.81 174.83V174.83Z" fill="white"/>
<path d="M399.47 381.62L389.47 377.46L390.59 376.25L398.98 379.85L394.76 371.75L395.86 370.55L400.79 380.25L399.47 381.62Z" fill="white"/>
<path d="M403.51 377.24L398.16 367.77L399.26 366.48L409.45 370.24L408.39 371.49L405.93 370.54L403.23 373.72L404.56 376L403.51 377.24ZM402.58 372.59L404.71 370.08L400.1 368.33L402.58 372.59Z" fill="white"/>
<path d="M410.97 368.36L402.87 362.08L403.82 360.86L410.91 366.37L413.76 362.71L414.76 363.46L410.97 368.36Z" fill="white"/>
<path d="M416.25 361.39L408.01 355.39L408.97 354.08L417.21 360.08L416.25 361.39Z" fill="white"/>
<path d="M418.97 357.71L410.53 351.98L412.39 349.24C412.934 348.374 413.682 347.656 414.57 347.15C415.316 346.757 416.166 346.61 417 346.73C417.914 346.897 418.783 347.25 419.555 347.766C420.327 348.282 420.986 348.95 421.49 349.73C421.905 350.465 422.076 351.312 421.98 352.15C421.831 353.16 421.436 354.118 420.83 354.94L418.97 357.71ZM418.76 355.71L419.76 354.3C420.217 353.693 420.512 352.981 420.62 352.23C420.684 351.636 420.539 351.038 420.21 350.54C419.817 349.966 419.314 349.477 418.73 349.1C418.161 348.697 417.519 348.409 416.84 348.25C416.252 348.12 415.637 348.198 415.1 348.47C414.438 348.846 413.881 349.382 413.48 350.03L412.48 351.44L418.76 355.71Z" fill="white"/>
<path d="M424.45 349.56L417.73 341.01L418.62 339.57L429.26 341.74L428.41 343.13L425.83 342.57L423.641 346.12L425.31 348.17L424.45 349.56ZM422.83 345.11L424.55 342.3L419.73 341.3L422.83 345.11Z" fill="white"/>
<path d="M431.06 338.54L423.26 334.16L421.781 336.78L420.69 336.17L424.401 329.58L425.49 330.19L424.021 332.81L431.82 337.2L431.06 338.54Z" fill="white"/>
<path d="M436.51 328.72C436.108 329.557 435.49 330.271 434.72 330.79C433.984 331.259 433.133 331.518 432.26 331.54C431.306 331.558 430.362 331.331 429.52 330.88C428.656 330.469 427.909 329.847 427.35 329.07C426.843 328.356 426.545 327.514 426.49 326.64C426.46 325.714 426.663 324.796 427.08 323.969C427.498 323.143 428.117 322.435 428.88 321.91C429.609 321.432 430.459 321.172 431.33 321.16C432.285 321.152 433.227 321.382 434.07 321.83C434.93 322.243 435.676 322.861 436.24 323.63C436.753 324.337 437.052 325.177 437.1 326.05C437.149 326.977 436.945 327.9 436.51 328.72V328.72ZM435.27 328.1C435.574 327.532 435.716 326.892 435.68 326.25C435.632 325.635 435.407 325.048 435.03 324.56C434.582 323.996 434.011 323.541 433.36 323.23C432.725 322.891 432.02 322.706 431.3 322.69C430.686 322.68 430.082 322.846 429.56 323.17C429.034 323.537 428.608 324.028 428.32 324.601C428.032 325.174 427.891 325.809 427.91 326.45C427.954 327.065 428.181 327.653 428.56 328.14C429.009 328.701 429.581 329.152 430.23 329.46C430.865 329.801 431.57 329.989 432.29 330.01C432.905 330.028 433.512 329.861 434.03 329.53C434.568 329.168 434.997 328.667 435.27 328.08V328.1Z" fill="white"/>
<path d="M439.771 321.61L430.44 317.48L431.86 314.26C432.119 313.625 432.523 313.06 433.04 312.61C433.459 312.259 433.976 312.046 434.521 312C435.092 311.956 435.665 312.065 436.18 312.316C436.695 312.568 437.134 312.952 437.45 313.43C437.793 313.993 437.927 314.658 437.83 315.31L442.66 315.08L441.94 316.71L437.38 316.86L436.641 318.53L440.401 320.19L439.771 321.61ZM435.57 318.06L436.33 316.34C436.468 316.097 436.553 315.829 436.581 315.552C436.608 315.274 436.577 314.994 436.49 314.73C436.398 314.505 436.262 314.301 436.09 314.13C435.919 313.958 435.715 313.822 435.49 313.73C435.278 313.623 435.047 313.56 434.81 313.544C434.572 313.529 434.335 313.561 434.11 313.64C433.858 313.763 433.633 313.936 433.448 314.147C433.262 314.358 433.121 314.604 433.031 314.87L432.281 316.58L435.57 318.06Z" fill="white"/>
<path d="M445.09 309.49C444.86 310.126 444.491 310.704 444.01 311.18C443.589 311.593 443.058 311.877 442.48 312C441.878 312.106 441.259 312.044 440.69 311.82L441.28 310.3C441.761 310.494 442.299 310.494 442.78 310.3C443.042 310.184 443.275 310.013 443.465 309.799C443.655 309.585 443.796 309.333 443.88 309.06C444.091 308.606 444.13 308.091 443.99 307.61C443.925 307.411 443.815 307.229 443.67 307.079C443.524 306.928 443.347 306.812 443.15 306.74C442.865 306.612 442.547 306.577 442.24 306.64C441.962 306.716 441.705 306.857 441.49 307.05C441.228 307.274 440.987 307.522 440.77 307.79L440.01 308.71C439.589 309.26 439.04 309.699 438.41 309.99C438.133 310.106 437.836 310.165 437.535 310.165C437.235 310.165 436.937 310.106 436.66 309.99C436.161 309.816 435.725 309.495 435.41 309.07C435.106 308.645 434.933 308.141 434.91 307.62C434.886 307.017 434.987 306.417 435.208 305.855C435.428 305.294 435.763 304.785 436.19 304.36C436.576 304.004 437.048 303.756 437.56 303.64C438.086 303.538 438.631 303.587 439.13 303.78L438.53 305.31C438.287 305.21 438.02 305.178 437.76 305.22C437.478 305.261 437.211 305.379 436.99 305.56C436.732 305.775 436.536 306.054 436.42 306.37C436.236 306.764 436.2 307.212 436.32 307.63C436.381 307.821 436.486 307.995 436.627 308.137C436.768 308.28 436.94 308.387 437.13 308.45C437.287 308.522 437.458 308.56 437.63 308.56C437.803 308.56 437.974 308.522 438.13 308.45C438.455 308.275 438.74 308.037 438.97 307.75L439.97 306.62C440.268 306.253 440.603 305.918 440.97 305.62C441.339 305.316 441.785 305.121 442.259 305.057C442.733 304.994 443.214 305.064 443.65 305.26C444.139 305.449 444.563 305.774 444.875 306.195C445.186 306.616 445.372 307.117 445.41 307.64C445.448 308.273 445.339 308.906 445.09 309.49Z" fill="white"/>
<path d="M194.71 449.94L196.46 439.88L197.98 440.14L196.24 450.21L194.71 449.94Z" fill="white"/>
<path d="M199.21 450.73L200.6 440.61L202.13 440.82L206.13 449.14L207.13 441.52L208.67 441.73L207.27 451.85L205.74 451.64L201.74 443.32L200.74 450.94L199.21 450.73Z" fill="white"/>
<path d="M213.45 452.45L210.57 441.95L212.22 442.09L214.52 450.94L218.33 442.63L219.96 442.77L215.31 452.62L213.45 452.45Z" fill="white"/>
<path d="M221.37 453.08L221.81 442.88L228.3 443.16L228.24 444.41L223.3 444.2L223.17 447.38L227.67 447.57V448.79L223.16 448.6L223.02 451.9L227.96 452.11V453.36L221.37 453.08Z" fill="white"/>
<path d="M234.05 453.58C233.36 453.591 232.677 453.447 232.05 453.16C231.513 452.913 231.06 452.513 230.75 452.01C230.432 451.486 230.272 450.882 230.29 450.27H231.92C231.917 450.787 232.114 451.285 232.47 451.66C232.876 452.024 233.393 452.24 233.937 452.275C234.481 452.309 235.021 452.16 235.47 451.85C235.634 451.718 235.766 451.55 235.856 451.359C235.946 451.169 235.992 450.961 235.99 450.75C236.011 450.444 235.934 450.139 235.77 449.88C235.6 449.643 235.378 449.448 235.12 449.31C234.8 449.144 234.465 449.006 234.12 448.9C233.76 448.78 233.38 448.65 232.99 448.5C232.324 448.304 231.719 447.943 231.23 447.45C231.033 447.225 230.881 446.964 230.785 446.681C230.689 446.398 230.65 446.098 230.67 445.8C230.656 445.269 230.802 444.746 231.09 444.3C231.385 443.862 231.797 443.515 232.28 443.3C232.834 443.058 233.436 442.946 234.04 442.97C234.642 442.967 235.237 443.101 235.78 443.36C236.249 443.584 236.649 443.929 236.94 444.36C237.217 444.814 237.36 445.338 237.35 445.87H235.71C235.717 445.604 235.651 445.341 235.52 445.11C235.38 444.861 235.176 444.654 234.93 444.51C234.626 444.336 234.28 444.25 233.93 444.26C233.498 444.228 233.068 444.352 232.72 444.61C232.569 444.73 232.447 444.882 232.362 445.055C232.278 445.228 232.232 445.418 232.23 445.61C232.218 445.779 232.242 445.948 232.301 446.107C232.359 446.265 232.451 446.41 232.57 446.53C232.859 446.785 233.2 446.972 233.57 447.08L234.97 447.59C235.437 447.75 235.886 447.958 236.31 448.21C236.696 448.441 237.019 448.764 237.25 449.15C237.502 449.59 237.62 450.094 237.59 450.6C237.582 451.106 237.436 451.6 237.17 452.03C236.877 452.489 236.461 452.856 235.97 453.09C235.381 453.412 234.721 453.58 234.05 453.58V453.58Z" fill="white"/>
<path d="M242.35 453.27L242.01 444.27L239.01 444.38V443.13L246.57 442.84V444.1L243.57 444.21L243.91 453.21L242.35 453.27Z" fill="white"/>
<path d="M253.63 452.78C252.703 452.873 251.767 452.718 250.92 452.33C250.134 451.95 249.467 451.362 248.99 450.63C248.498 449.811 248.2 448.89 248.12 447.938C248.041 446.986 248.181 446.029 248.53 445.14C248.875 444.336 249.436 443.644 250.15 443.14C250.916 442.611 251.812 442.304 252.74 442.25C253.665 442.146 254.6 442.301 255.44 442.7C256.229 443.071 256.896 443.661 257.36 444.4C257.851 445.217 258.148 446.136 258.229 447.085C258.311 448.035 258.174 448.991 257.83 449.88C257.488 450.682 256.931 451.374 256.22 451.88C255.453 452.406 254.558 452.716 253.63 452.78V452.78ZM253.51 451.39C254.152 451.355 254.771 451.144 255.3 450.78C255.793 450.411 256.174 449.912 256.4 449.34C256.632 448.66 256.72 447.939 256.66 447.223C256.6 446.507 256.392 445.811 256.05 445.18C255.735 444.647 255.273 444.217 254.72 443.94C254.14 443.67 253.497 443.563 252.86 443.63C252.216 443.672 251.594 443.886 251.06 444.25C250.56 444.611 250.177 445.112 249.96 445.69C249.713 446.367 249.627 447.093 249.71 447.81C249.761 448.512 249.966 449.195 250.31 449.81C250.62 450.344 251.084 450.772 251.64 451.04C252.219 451.328 252.867 451.449 253.51 451.39V451.39Z" fill="white"/>
<path d="M261.4 451.84L260.04 441.71L263.52 441.25C264.188 441.134 264.873 441.179 265.52 441.38C266.035 441.561 266.487 441.887 266.82 442.32C267.132 442.758 267.331 443.266 267.4 443.8C267.483 444.404 267.389 445.019 267.13 445.57C266.83 446.16 266.331 446.624 265.72 446.88L268.45 450.88L266.68 451.12L264.16 447.31L262.35 447.55L262.9 451.63L261.4 451.84ZM262.23 446.39L264.09 446.14C264.37 446.13 264.644 446.062 264.895 445.94C265.147 445.818 265.37 445.644 265.55 445.43C265.69 445.232 265.79 445.008 265.843 444.771C265.896 444.534 265.902 444.289 265.86 444.05C265.84 443.812 265.773 443.58 265.661 443.368C265.549 443.157 265.396 442.971 265.21 442.82C264.972 442.67 264.705 442.568 264.427 442.522C264.149 442.475 263.865 442.485 263.59 442.55L261.74 442.79L262.23 446.39Z" fill="white"/>
<path d="M274.51 450.08C273.848 450.209 273.165 450.192 272.51 450.03C271.938 449.886 271.418 449.585 271.01 449.16C270.602 448.704 270.332 448.143 270.23 447.54L271.84 447.25C271.934 447.757 272.221 448.209 272.64 448.51C273.102 448.777 273.64 448.885 274.169 448.816C274.699 448.748 275.191 448.506 275.57 448.13C275.705 447.97 275.803 447.782 275.857 447.58C275.911 447.377 275.918 447.166 275.88 446.96C275.836 446.651 275.696 446.364 275.48 446.14C275.273 445.937 275.018 445.79 274.74 445.71C274.414 445.606 274.079 445.532 273.74 445.49L272.55 445.31C271.863 445.24 271.204 445.003 270.63 444.62C270.152 444.247 269.839 443.701 269.76 443.1C269.645 442.582 269.69 442.041 269.89 441.55C270.103 441.066 270.45 440.653 270.89 440.36C271.391 440.02 271.962 439.794 272.56 439.7C273.146 439.568 273.754 439.568 274.34 439.7C274.851 439.841 275.314 440.117 275.68 440.5C276.042 440.893 276.281 441.383 276.37 441.91L274.76 442.19C274.719 441.93 274.604 441.687 274.43 441.49C274.243 441.275 274.006 441.11 273.74 441.01C273.417 440.905 273.073 440.885 272.74 440.95C272.311 441.002 271.914 441.204 271.62 441.52C271.488 441.671 271.394 441.851 271.344 442.046C271.293 442.24 271.289 442.443 271.33 442.64C271.35 442.808 271.405 442.971 271.493 443.115C271.581 443.26 271.7 443.385 271.84 443.48C272.147 443.662 272.487 443.784 272.84 443.84L274.31 444.07C274.8 444.139 275.283 444.256 275.75 444.42C276.429 444.692 276.973 445.219 277.267 445.889C277.56 446.558 277.579 447.316 277.32 448C277.116 448.513 276.769 448.958 276.32 449.28C275.788 449.686 275.168 449.96 274.51 450.08V450.08Z" fill="white"/>
<path d="M23.52 310.08L32.98 306.19L34.34 309.5C34.6216 310.128 34.7518 310.813 34.72 311.5C34.6932 312.049 34.4975 312.576 34.1599 313.01C33.8158 313.426 33.3757 313.752 32.8773 313.959C32.379 314.166 31.8375 314.249 31.2999 314.2C30.7578 314.139 30.2478 313.912 29.84 313.55C29.3295 313.077 28.9358 312.491 28.6899 311.84L27.9199 309.96L24.11 311.53L23.52 310.08ZM29.09 309.46L29.84 311.28C29.9992 311.815 30.3569 312.27 30.84 312.55C31.0602 312.633 31.2948 312.672 31.53 312.663C31.7653 312.654 31.9964 312.599 32.21 312.5C32.6539 312.325 33.0124 311.984 33.21 311.55C33.3727 311.007 33.3152 310.421 33.0499 309.92L32.2999 308.11L29.09 309.46Z" fill="white"/>
<path d="M27.25 318.98L36.53 314.69L38.01 317.88C38.3233 318.499 38.4811 319.186 38.47 319.88C38.4603 320.427 38.2822 320.958 37.96 321.4C37.6134 321.854 37.1541 322.209 36.6278 322.43C36.1015 322.651 35.5265 322.73 34.96 322.66C34.3056 322.534 33.7172 322.18 33.2999 321.66L30.2999 325.46L29.5499 323.83L32.45 320.29L31.6899 318.64L27.95 320.37L27.25 318.98ZM32.7 318.17L33.49 319.88C33.5825 320.143 33.729 320.384 33.9202 320.587C34.1113 320.791 34.3429 320.952 34.6 321.06C35.0665 321.207 35.572 321.168 36.01 320.95C36.2362 320.86 36.4415 320.726 36.6135 320.554C36.7855 320.382 36.9205 320.176 37.01 319.95C37.0838 319.677 37.1022 319.393 37.0645 319.113C37.0267 318.833 36.9333 318.563 36.7899 318.32L36.01 316.63L32.7 318.17Z" fill="white"/>
<path d="M33.4898 332.23C33.0411 331.414 32.8201 330.491 32.8498 329.56C32.8918 328.686 33.1756 327.842 33.6698 327.12C34.2173 326.334 34.953 325.698 35.8098 325.27C36.6505 324.811 37.5918 324.567 38.5498 324.56C39.4275 324.563 40.2869 324.813 41.0299 325.28C41.8101 325.768 42.4427 326.46 42.8598 327.28C43.3085 328.097 43.5296 329.019 43.4998 329.95C43.4562 330.822 43.1685 331.664 42.6698 332.38C42.1056 333.151 41.3725 333.782 40.5267 334.226C39.6808 334.67 38.7446 334.914 37.7898 334.94C36.916 334.941 36.0598 334.695 35.3198 334.23C34.5396 333.742 33.907 333.051 33.4898 332.23ZM34.7198 331.59C35.0018 332.165 35.4381 332.649 35.9798 332.99C36.5096 333.31 37.121 333.47 37.7398 333.45C38.4572 333.4 39.1563 333.202 39.7932 332.868C40.43 332.534 40.9907 332.072 41.4398 331.51C41.8063 331.014 42.0247 330.425 42.0698 329.81C42.0892 329.165 41.9374 328.527 41.6298 327.96C41.3415 327.384 40.9026 326.897 40.3598 326.55C39.8305 326.229 39.2188 326.069 38.5998 326.09C37.881 326.132 37.1806 326.333 36.5498 326.68C35.9075 327.004 35.3444 327.465 34.8999 328.03C34.5301 328.527 34.3145 329.122 34.2799 329.74C34.2556 330.385 34.4076 331.025 34.7198 331.59V331.59Z" fill="white"/>
<path d="M38.4102 341.14C37.9586 340.438 37.804 339.586 37.9803 338.77C38.0952 338.369 38.2924 337.997 38.5593 337.677C38.8261 337.357 39.1569 337.095 39.5303 336.91L40.3002 338.26C39.9161 338.46 39.6073 338.78 39.4202 339.17C39.3446 339.378 39.3207 339.602 39.3503 339.821C39.3799 340.04 39.4622 340.249 39.5903 340.43C39.6792 340.631 39.8175 340.806 39.9924 340.939C40.1672 341.072 40.373 341.158 40.5903 341.19C41.0082 341.23 41.4275 341.128 41.7803 340.9L48.2003 337.23L48.9703 338.57L42.5502 342.24C42.2117 342.467 41.8297 342.62 41.4285 342.691C41.0273 342.761 40.6158 342.748 40.2203 342.65C39.8323 342.534 39.4718 342.34 39.1607 342.08C38.8496 341.821 38.5943 341.501 38.4102 341.14V341.14Z" fill="white"/>
<path d="M41.6499 346.24L50.2699 340.75L53.7599 346.24L52.6998 346.91L50.0498 342.73L47.3599 344.44L49.7799 348.25L48.7799 348.91L46.3599 345.1L43.5798 346.87L46.2299 351.05L45.1698 351.73L41.6499 346.24Z" fill="white"/>
<path d="M49.1899 357.96C48.6328 357.223 48.2871 356.348 48.1899 355.43C48.1387 354.576 48.3256 353.724 48.73 352.97C49.1921 352.134 49.8469 351.421 50.64 350.89C51.4124 350.325 52.3062 349.948 53.25 349.79C54.101 349.656 54.9726 349.77 55.76 350.12C56.5746 350.509 57.2665 351.114 57.76 351.87C58.4161 352.697 58.769 353.724 58.76 354.78C58.7092 355.762 58.2917 356.69 57.59 357.38L56.59 355.96C56.9783 355.541 57.2083 355 57.24 354.43C57.2454 353.789 57.034 353.165 56.64 352.66C56.395 352.274 56.0649 351.948 55.6749 351.709C55.285 351.47 54.8455 351.323 54.39 351.28C53.3566 351.229 52.34 351.556 51.53 352.2C50.6546 352.737 50.0069 353.577 49.71 354.56C49.6018 355.005 49.5951 355.469 49.6903 355.917C49.7855 356.366 49.9802 356.787 50.26 357.15C50.6027 357.686 51.107 358.099 51.7 358.33C52.2255 358.51 52.7993 358.489 53.3099 358.27L54.3099 359.68C53.4385 360.086 52.4466 360.15 51.53 359.86C50.5659 359.495 49.7452 358.829 49.1899 357.96V357.96Z" fill="white"/>
<path d="M54.8398 365.35L61.9398 359.86L60.0898 357.47L61.0898 356.7L65.7299 362.7L64.7299 363.47L62.8899 361.09L55.7898 366.57L54.8398 365.35Z" fill="white"/>
<path d="M61.0903 373.4C60.6269 372.894 60.2849 372.288 60.0903 371.63C59.925 371.065 59.925 370.465 60.0903 369.9C60.2735 369.315 60.6205 368.794 61.0903 368.4L62.0903 369.66C61.6929 369.996 61.4419 370.473 61.3903 370.99C61.393 371.524 61.5702 372.043 61.8952 372.468C62.2202 372.892 62.675 373.198 63.1902 373.34C63.3968 373.376 63.6089 373.367 63.8112 373.311C64.0135 373.256 64.201 373.157 64.3603 373.02C64.6098 372.833 64.7922 372.57 64.8803 372.27C64.9402 371.987 64.9402 371.694 64.8803 371.41C64.8049 371.068 64.6977 370.733 64.5602 370.41C64.4202 370.06 64.2703 369.69 64.1203 369.29C63.8403 368.662 63.7168 367.976 63.7603 367.29C63.8456 366.686 64.1654 366.14 64.6503 365.77C65.04 365.408 65.5329 365.178 66.0602 365.11C66.577 365.051 67.1002 365.137 67.5702 365.36C68.1193 365.621 68.6015 366.004 68.9803 366.48C69.4379 366.923 69.7781 367.473 69.9703 368.08C70.1156 368.587 70.1156 369.124 69.9703 369.63C69.8134 370.142 69.5112 370.597 69.1003 370.94L68.1003 369.69C68.2996 369.518 68.451 369.298 68.5402 369.05C68.6346 368.781 68.6587 368.491 68.6103 368.21C68.5446 367.88 68.3928 367.573 68.1702 367.32C67.9129 366.97 67.5354 366.728 67.1103 366.64C66.9139 366.6 66.7108 366.607 66.5178 366.661C66.3247 366.715 66.1473 366.814 66.0003 366.95C65.8611 367.048 65.7457 367.177 65.6627 367.326C65.5796 367.474 65.531 367.64 65.5203 367.81C65.5198 368.18 65.591 368.547 65.7303 368.89C65.8903 369.29 66.0603 369.76 66.2603 370.28C66.4497 370.737 66.5904 371.213 66.6802 371.7C66.7504 372.145 66.7196 372.599 66.5903 373.03C66.4186 373.506 66.113 373.923 65.7103 374.23C65.3265 374.56 64.8595 374.778 64.3603 374.86C63.8211 374.936 63.2714 374.863 62.7703 374.65C62.1109 374.387 61.5317 373.956 61.0903 373.4V373.4Z" fill="white"/>
<path d="M26.6801 164.31L17.3501 161.31L18.3501 158.09C18.5452 157.453 18.8878 156.87 19.3501 156.39C19.7133 156.018 20.1802 155.763 20.6901 155.66C21.1969 155.562 21.7205 155.596 22.2101 155.76C22.7753 155.944 23.2731 156.292 23.6401 156.76C24.0236 157.261 24.2183 157.88 24.1901 158.51L28.79 157.8L28.2601 159.44L23.92 160.04L23.3901 161.71L27.1501 162.92L26.6801 164.31ZM22.3101 161.31L22.8601 159.59C22.9646 159.343 23.0184 159.078 23.0184 158.81C23.0184 158.542 22.9646 158.277 22.8601 158.03C22.6235 157.626 22.2402 157.329 21.79 157.2C21.3543 157.039 20.8726 157.057 20.4501 157.25C20.2225 157.395 20.0259 157.584 19.8715 157.805C19.717 158.027 19.6077 158.276 19.55 158.54L19.0001 160.25L22.3101 161.31Z" fill="white"/>
<path d="M29.5204 155.65L20.3203 152.28L22.4603 146.43L23.5903 146.84L21.9603 151.3L24.8303 152.3L26.3203 148.23L27.4203 148.64L25.9303 152.7L28.9303 153.79L30.5603 149.33L31.7003 149.75L29.5204 155.65Z" fill="white"/>
<path d="M34.3001 143.73C33.9945 144.528 33.4672 145.222 32.7802 145.73C32.1245 146.212 31.3428 146.494 30.5302 146.54C29.6165 146.585 28.705 146.414 27.8701 146.04C27.0169 145.709 26.2579 145.173 25.6601 144.48C25.123 143.842 24.7764 143.066 24.6601 142.24C24.5486 141.347 24.6835 140.441 25.0501 139.62C25.4034 138.688 26.0445 137.893 26.8802 137.35C27.6674 136.871 28.6043 136.7 29.5102 136.87L28.8601 138.42C28.3421 138.354 27.8175 138.475 27.3802 138.76C26.8932 139.104 26.5232 139.589 26.3201 140.15C26.1219 140.558 26.0189 141.006 26.0189 141.46C26.0189 141.914 26.1219 142.362 26.3201 142.77C26.8345 143.595 27.5901 144.242 28.4845 144.623C29.3789 145.004 30.3688 145.101 31.3201 144.9C31.7321 144.759 32.1074 144.528 32.4187 144.223C32.7301 143.919 32.9698 143.549 33.1201 143.14C33.3022 142.779 33.4037 142.383 33.4175 141.979C33.4313 141.575 33.3571 141.173 33.2001 140.8C32.8286 140.085 32.2358 139.51 31.5102 139.16L30.5102 141.61L29.4501 141.17L31.0601 137.34L35.9601 139.39L35.4401 140.64L34.0601 140.2C34.3956 140.674 34.6086 141.224 34.6801 141.8C34.7241 142.465 34.593 143.131 34.3001 143.73V143.73Z" fill="white"/>
<path d="M38.6703 133.98C38.3965 134.575 37.9893 135.098 37.4803 135.51C36.9871 135.901 36.3879 136.134 35.7604 136.18C35.0065 136.211 34.2577 136.042 33.5903 135.69L28.0703 133.08L28.7103 131.74L34.2404 134.39C34.5386 134.567 34.8701 134.681 35.2142 134.724C35.5584 134.767 35.9077 134.738 36.2404 134.64C36.794 134.389 37.2411 133.95 37.5027 133.401C37.7643 132.852 37.8237 132.228 37.6703 131.64C37.5342 131.327 37.3367 131.044 37.0894 130.809C36.842 130.574 36.5499 130.39 36.2303 130.27L30.7003 127.63L31.3403 126.29L36.8604 128.93C37.5559 129.227 38.1574 129.707 38.6003 130.32C38.957 130.849 39.1484 131.472 39.1504 132.11C39.1321 132.761 38.968 133.4 38.6703 133.98V133.98Z" fill="white"/>
<path d="M41.3 128.25L32.6401 123.67L33.3301 122.36L40.9501 126.36L43.04 122.43L44.04 122.97L41.3 128.25Z" fill="white"/>
<path d="M44.8202 121.62L38.1802 113.56L39.0002 112.15L49.2603 114L48.4702 115.36L45.9802 114.88L43.9802 118.33L45.6302 120.27L44.8202 121.62ZM43.1602 117.38L44.7603 114.64L40.1002 113.76L43.1602 117.38Z" fill="white"/>
<path d="M50.9702 111.3L43.7102 106.69L42.1602 109.14L41.1602 108.49L45.0602 102.36L46.0602 103.01L44.5103 105.44L51.7603 110.05L50.9702 111.3Z" fill="white"/>
<path d="M56.9001 102.72C56.398 103.458 55.7075 104.049 54.9001 104.43C54.1392 104.785 53.2929 104.917 52.46 104.81C51.5487 104.696 50.6815 104.352 49.94 103.81C49.1814 103.302 48.5597 102.615 48.13 101.81C47.7509 101.059 47.5849 100.219 47.6501 99.38C47.7367 98.4951 48.0577 97.6494 48.58 96.93C49.0773 96.1849 49.7689 95.5901 50.58 95.21C51.3417 94.8575 52.1881 94.7291 53.0201 94.84C53.9265 94.9607 54.789 95.3042 55.5301 95.84C56.2912 96.3448 56.9134 97.0324 57.34 97.84C57.7326 98.5828 57.9027 99.423 57.83 100.26C57.7515 101.15 57.4298 102.001 56.9001 102.72V102.72ZM55.81 101.95C56.1732 101.455 56.3945 100.871 56.45 100.26C56.4877 99.6675 56.3521 99.0768 56.06 98.56C55.7046 97.9694 55.229 97.4603 54.6639 97.0658C54.0987 96.6712 53.4569 96.4001 52.7801 96.27C52.1986 96.1693 51.6002 96.2423 51.06 96.48C50.5016 96.7458 50.025 97.1568 49.68 97.67C49.3164 98.1681 49.0952 98.7558 49.04 99.37C48.9987 99.9628 49.1345 100.554 49.43 101.07C49.7753 101.665 50.2547 102.172 50.83 102.55C51.3827 102.967 52.0275 103.244 52.71 103.36C53.2925 103.458 53.8908 103.381 54.43 103.14C54.9902 102.877 55.4676 102.465 55.81 101.95V101.95Z" fill="white"/>
<path d="M60.9004 96.8599L53.1504 90.8599L55.2103 88.1899C55.5986 87.6576 56.1052 87.2228 56.6903 86.9199C57.1629 86.6942 57.6921 86.6141 58.2103 86.6899C58.7183 86.7707 59.197 86.9808 59.6003 87.2999C60.0663 87.656 60.4146 88.1437 60.6003 88.6999C60.7972 89.3027 60.7688 89.9565 60.5204 90.5399L65.0903 91.4299L64.0403 92.7899L59.7504 91.8799L58.6803 93.2699L61.8003 95.6799L60.9004 96.8599ZM57.8003 92.5799L58.9103 91.1499C59.0909 90.9546 59.2294 90.7241 59.3171 90.4729C59.4049 90.2218 59.4399 89.9552 59.4203 89.6899C59.3415 89.2266 59.0827 88.8132 58.7003 88.5399C58.5274 88.3897 58.3254 88.2767 58.1069 88.2079C57.8885 88.1391 57.6581 88.1159 57.4303 88.1399C57.1664 88.1938 56.9162 88.3004 56.6946 88.4533C56.4729 88.6062 56.2844 88.8024 56.1404 89.0299L55.0403 90.4499L57.8003 92.5799Z" fill="white"/>
<path d="M68.7301 87.3198C68.317 87.8243 67.8025 88.2366 67.2201 88.5298C66.7097 88.7725 66.1412 88.8661 65.5801 88.7998C64.9847 88.7219 64.4251 88.4716 63.9701 88.0798L64.9701 86.8798C65.3524 87.1985 65.8436 87.3563 66.3401 87.3198C66.6127 87.2883 66.8759 87.201 67.1133 87.0633C67.3507 86.9257 67.5572 86.7407 67.7201 86.5198C68.0531 86.1703 68.2485 85.7121 68.2701 85.2298C68.2718 85.0283 68.2276 84.8292 68.141 84.6473C68.0544 84.4654 67.9276 84.3055 67.7701 84.1798C67.5512 83.9797 67.2747 83.8537 66.9801 83.8198C66.7027 83.7995 66.4245 83.8476 66.17 83.9598C65.8622 84.0836 65.5674 84.2377 65.29 84.4198L64.29 85.0198C63.7362 85.3886 63.1016 85.6184 62.44 85.6898C61.8913 85.6761 61.3673 85.4587 60.9701 85.0798C60.563 84.773 60.2623 84.3463 60.1101 83.8598C59.9698 83.3799 59.9698 82.8698 60.1101 82.3898C60.267 81.8285 60.5471 81.3092 60.93 80.8698C61.2961 80.4235 61.7575 80.0647 62.2801 79.8198C62.7402 79.5971 63.2554 79.5144 63.7621 79.582C64.2687 79.6495 64.7445 79.8644 65.1301 80.1998L64.1301 81.3898C63.933 81.2311 63.6991 81.1245 63.4501 81.0798C63.1785 81.0339 62.8998 81.058 62.6401 81.1498C62.3408 81.2692 62.0785 81.4659 61.8801 81.7198C61.591 82.0195 61.4205 82.4139 61.4001 82.8298C61.3929 83.0229 61.4328 83.2149 61.5165 83.3892C61.6001 83.5634 61.7249 83.7146 61.8801 83.8298C61.997 83.943 62.1372 84.0294 62.2909 84.083C62.4446 84.1365 62.6082 84.1559 62.7701 84.1398C63.126 84.0889 63.4669 83.9628 63.7701 83.7698C64.1201 83.5498 64.5301 83.3098 64.9901 83.0398C65.3927 82.784 65.8219 82.5728 66.2701 82.4098C66.6741 82.2683 67.1058 82.2238 67.5301 82.2798C68.0109 82.3641 68.458 82.5824 68.8201 82.9098C69.1917 83.2228 69.4716 83.6306 69.6301 84.0898C69.7919 84.5843 69.8126 85.1142 69.69 85.6198C69.5177 86.2581 69.1876 86.8426 68.7301 87.3198Z" fill="white"/>
<rect x="75.5" y="67.5" width="319" height="319" rx="119.5" stroke="#20E58F" stroke-width="3"/>
<path opacity="0.4" d="M348.029 24C350.64 24.003 353.18 24.858 355.262 26.4353C357.344 28.0126 358.854 30.2261 359.564 32.7397C360.273 35.2533 360.143 37.9297 359.194 40.3629C358.244 42.796 356.527 44.8528 354.302 46.2212C352.077 47.5896 349.467 48.1948 346.867 47.945C344.267 47.6951 341.82 46.6039 339.897 44.8369C337.973 43.0698 336.679 40.7235 336.21 38.1541C335.741 35.5847 336.123 32.9325 337.299 30.6C338.292 28.6076 339.824 26.9333 341.72 25.7668C343.617 24.6003 345.802 23.9883 348.029 24V24ZM348.029 23C344.843 22.993 341.765 24.1563 339.38 26.2689C336.995 28.3815 335.469 31.2963 335.092 34.46C334.714 37.6236 335.512 40.8156 337.333 43.43C339.154 46.0444 341.871 47.8991 344.969 48.6418C348.068 49.3846 351.331 48.9637 354.139 47.459C356.948 45.9544 359.106 43.4709 360.204 40.48C361.302 37.4891 361.263 34.1991 360.095 31.2348C358.927 28.2705 356.712 25.8383 353.869 24.4C352.058 23.484 350.058 23.0045 348.029 23Z" fill="white"/>
<path d="M352.378 38.1999L343.378 33.6699" stroke="#20E58F"/>
<path d="M349.969 32L352.529 38.89L345.469 40.89" stroke="#20E58F"/>
<path opacity="0.4" d="M456.03 215C458.404 215 460.724 215.704 462.697 217.022C464.67 218.341 466.208 220.215 467.117 222.408C468.025 224.6 468.263 227.013 467.8 229.341C467.337 231.669 466.194 233.807 464.515 235.485C462.837 237.164 460.699 238.306 458.371 238.769C456.044 239.232 453.631 238.995 451.438 238.087C449.245 237.178 447.371 235.64 446.053 233.667C444.734 231.693 444.03 229.373 444.03 227C444.03 223.817 445.295 220.765 447.545 218.515C449.795 216.264 452.848 215 456.03 215V215ZM456.03 214C453.459 214 450.946 214.762 448.808 216.191C446.67 217.619 445.004 219.65 444.02 222.025C443.036 224.401 442.778 227.014 443.28 229.536C443.782 232.058 445.02 234.374 446.838 236.192C448.656 238.01 450.972 239.249 453.494 239.75C456.016 240.252 458.63 239.994 461.005 239.01C463.381 238.026 465.411 236.36 466.839 234.222C468.268 232.085 469.03 229.571 469.03 227C469.03 223.552 467.661 220.246 465.223 217.808C462.785 215.37 459.478 214 456.03 214V214Z" fill="white"/>
<path d="M456.03 231.84V221.78" stroke="#20E58F"/>
<path d="M461.03 226.75L456.03 232.14L451.03 226.75" stroke="#20E58F"/>
<path opacity="0.4" d="M349.985 408.57C352.91 408.569 355.735 409.635 357.928 411.569C360.122 413.504 361.534 416.172 361.898 419.074C362.263 421.976 361.555 424.911 359.909 427.328C358.262 429.744 355.789 431.477 352.955 432.199C350.121 432.921 347.121 432.583 344.518 431.249C341.916 429.915 339.89 427.676 338.821 424.954C337.753 422.232 337.716 419.213 338.716 416.465C339.717 413.716 341.687 411.428 344.255 410.03C346.014 409.073 347.984 408.571 349.985 408.57ZM349.985 407.57C347.138 407.574 344.37 408.511 342.108 410.24C339.845 411.969 338.213 414.392 337.461 417.139C336.709 419.885 336.88 422.802 337.947 425.442C339.015 428.082 340.919 430.299 343.368 431.751C345.817 433.204 348.675 433.812 351.503 433.483C354.331 433.154 356.973 431.905 359.023 429.929C361.073 427.953 362.417 425.358 362.849 422.543C363.282 419.729 362.778 416.851 361.415 414.35C360.296 412.297 358.644 410.583 356.632 409.389C354.621 408.196 352.324 407.568 349.985 407.57V407.57Z" fill="white"/>
<path d="M345.706 422.911L354.536 418.101" stroke="#20E58F"/>
<path d="M352.566 424.86L345.416 423.08L347.755 416.08" stroke="#20E58F"/>
<path opacity="0.4" d="M122.002 408.57C124.644 408.568 127.213 409.437 129.311 411.044C131.408 412.65 132.917 414.904 133.603 417.456C134.289 420.007 134.113 422.714 133.104 425.155C132.094 427.597 130.307 429.637 128.019 430.96C125.732 432.282 123.072 432.812 120.452 432.468C117.833 432.124 115.4 430.926 113.531 429.058C111.662 427.19 110.462 424.758 110.117 422.138C109.772 419.519 110.301 416.858 111.622 414.57C112.674 412.748 114.187 411.234 116.009 410.181C117.831 409.128 119.897 408.572 122.002 408.57V408.57ZM122.002 407.57C118.849 407.57 115.804 408.715 113.433 410.792C111.062 412.87 109.527 415.738 109.113 418.863C108.699 421.988 109.434 425.157 111.183 427.78C112.931 430.404 115.573 432.302 118.617 433.122C121.661 433.943 124.899 433.629 127.729 432.24C130.559 430.851 132.787 428.481 134 425.571C135.212 422.661 135.326 419.41 134.32 416.422C133.315 413.435 131.257 410.914 128.532 409.33C126.549 408.178 124.296 407.571 122.002 407.57V407.57Z" fill="white"/>
<path d="M117.771 418.08L126.471 423.14" stroke="#20E58F"/>
<path d="M119.661 425L117.521 418L124.691 416.38" stroke="#20E58F"/>
<path opacity="0.4" d="M12.9697 215C15.3431 215 17.6632 215.704 19.6366 217.022C21.61 218.341 23.148 220.215 24.0563 222.408C24.9645 224.6 25.2022 227.013 24.7392 229.341C24.2761 231.669 23.1332 233.807 21.455 235.485C19.7767 237.164 17.6386 238.306 15.3108 238.769C12.983 239.232 10.5703 238.995 8.37758 238.087C6.18487 237.178 4.31066 235.64 2.99208 233.667C1.67351 231.693 0.969744 229.373 0.969744 227C0.969744 223.817 2.23408 220.765 4.48451 218.515C6.73495 216.264 9.78715 215 12.9697 215ZM12.9697 214C10.3986 214 7.88517 214.762 5.74733 216.191C3.60949 217.619 1.94331 219.65 0.959368 222.025C-0.0245714 224.401 -0.282108 227.014 0.2195 229.536C0.721108 232.058 1.95928 234.374 3.77736 236.192C5.59544 238.01 7.91186 239.249 10.4336 239.75C12.9554 240.252 15.5692 239.994 17.9446 239.01C20.32 238.026 22.3504 236.36 23.7788 234.222C25.2073 232.085 25.9697 229.571 25.9697 227C25.9697 223.552 24.6001 220.246 22.1621 217.808C19.7242 215.37 16.4176 214 12.9697 214V214Z" fill="white"/>
<path d="M12.9697 222.07V232.14" stroke="#20E58F"/>
<path d="M7.96973 227.17L12.9697 221.78L17.9697 227.17" stroke="#20E58F"/>
<path opacity="0.4" d="M121.986 24.0001C124.911 23.9961 127.737 25.0605 129.932 26.9934C132.128 28.9262 133.542 31.5944 133.908 34.4963C134.275 37.3983 133.569 40.3342 131.923 42.7523C130.277 45.1703 127.805 46.9039 124.971 47.6273C122.137 48.3507 119.136 48.0141 116.532 46.6806C113.929 45.3472 111.902 43.1088 110.833 40.3861C109.764 37.6635 109.726 34.6441 110.727 31.8956C111.727 29.147 113.697 26.8584 116.266 25.4601C118.022 24.5048 119.988 24.0029 121.986 24.0001V24.0001ZM121.986 23.0001C119.14 23.0031 116.373 23.9403 114.111 25.6677C111.848 27.3951 110.215 29.8173 109.463 32.5625C108.71 35.3076 108.879 38.2239 109.944 40.8636C111.009 43.5034 112.911 45.7206 115.358 47.175C117.804 48.6294 120.661 49.2406 123.489 48.9146C126.316 48.5886 128.959 47.3436 131.011 45.3707C133.062 43.3977 134.41 40.8059 134.846 37.9931C135.283 35.1803 134.784 32.302 133.426 29.8001C132.316 27.7354 130.664 26.0118 128.649 24.8139C126.634 23.616 124.331 22.989 121.986 23.0001V23.0001Z" fill="white"/>
<path d="M126.286 33.6802L117.446 38.4802" stroke="#20E58F"/>
<path d="M119.477 31.71L126.597 33.54L124.247 40.54" stroke="#20E58F"/>
</g>
<path fill-rule="evenodd" clip-rule="evenodd" d="M212.991 201.949C212.417 202.535 212.095 203.322 212.095 204.142L212.079 201.029V193.515C212.079 192.527 212.273 191.549 212.652 190.637C213.03 189.725 213.584 188.896 214.283 188.198C214.981 187.5 215.811 186.947 216.723 186.57C217.636 186.192 218.614 185.999 219.602 186H249.011C249.999 185.999 250.977 186.192 251.89 186.57C252.802 186.947 253.632 187.5 254.33 188.198C255.029 188.896 255.583 189.725 255.962 190.637C256.34 191.549 256.534 192.527 256.534 193.515V197.884C256.539 198.713 256.871 199.507 257.459 200.092C258.047 200.676 258.842 201.005 259.672 201.005H265.223C266.075 200.974 266.923 201.115 267.719 201.42C268.514 201.724 269.24 202.186 269.853 202.778C270.466 203.369 270.954 204.078 271.287 204.862C271.62 205.646 271.792 206.489 271.792 207.341C271.792 208.193 271.62 209.036 271.287 209.82C270.954 210.604 270.466 211.313 269.853 211.904C269.24 212.495 268.514 212.957 267.719 213.262C266.923 213.566 266.075 213.708 265.223 213.677H256.526V204.142C256.526 204.139 256.526 204.135 256.526 204.132C256.525 203.723 256.445 203.319 256.288 202.941C256.13 202.561 255.898 202.215 255.606 201.925C255.036 201.361 254.273 201.035 253.471 201.013H215.167C214.347 201.028 213.566 201.364 212.991 201.949ZM212.037 197.868C212.037 198.28 211.956 198.688 211.799 199.068C211.641 199.449 211.41 199.795 211.119 200.086C210.827 200.377 210.481 200.608 210.101 200.766C209.72 200.924 209.312 201.005 208.9 201.005H212.037V197.868ZM263.991 224.148H256.526H226.221V229.38C226.223 231.373 227.017 233.285 228.427 234.694C229.838 236.103 231.75 236.894 233.744 236.894H253.454C254.162 236.903 254.845 237.151 255.393 237.599C255.94 238.046 256.32 238.667 256.468 239.358V248.737C256.415 249.484 256.094 250.186 255.565 250.716C255.202 251.078 254.752 251.341 254.259 251.48H215.134C214.32 251.471 213.541 251.144 212.966 250.568C212.379 249.979 212.048 249.183 212.046 248.351V201.029H204.523C202.529 201.029 200.617 201.821 199.206 203.23C197.796 204.639 197.002 206.55 197 208.544V243.965C197.002 245.959 197.796 247.871 199.206 249.28C200.617 250.689 202.529 251.48 204.523 251.48H208.9C209.727 251.482 210.519 251.81 211.105 252.393C211.691 252.976 212.023 253.766 212.029 254.593V258.995C212.031 260.989 212.825 262.9 214.236 264.309C215.646 265.718 217.558 266.509 219.552 266.509H248.962C250.956 266.509 252.868 265.718 254.279 264.309C255.689 262.9 256.483 260.989 256.485 258.995V254.494C256.51 253.683 256.85 252.913 257.433 252.348C258.015 251.782 258.794 251.465 259.606 251.464H263.983C265.977 251.464 267.889 250.672 269.3 249.263C270.71 247.854 271.504 245.943 271.506 243.949V231.63C271.495 229.643 270.699 227.742 269.291 226.34C267.883 224.938 265.978 224.15 263.991 224.148Z" fill="white"/>
</g>
</g>
<defs>
<filter id="filter0_f_860_23461" x="13" y="5" width="444" height="444" filterUnits="userSpaceOnUse" color-interpolation-filters="sRGB">
<feFlood flood-opacity="0" result="BackgroundImageFix"/>
<feBlend mode="normal" in="SourceGraphic" in2="BackgroundImageFix" result="shape"/>
<feGaussianBlur stdDeviation="37" result="effect1_foregroundBlur_860_23461"/>
</filter>
<clipPath id="clip0_860_23461">
<rect width="469.03" height="453.05" fill="white"/>
</clipPath>
<clipPath id="clip1_860_23461">
<rect width="469.03" height="453.05" fill="white"/>
</clipPath>
<clipPath id="clip2_860_23461">
<rect width="469.03" height="453.59" fill="white"/>
</clipPath>
</defs>
</svg>
