<svg width="622" height="542" viewBox="0 0 622 542" fill="none" xmlns="http://www.w3.org/2000/svg">
<circle cx="311.5" cy="240.5" r="240" stroke="#929292" stroke-dasharray="3 3"/>
<circle cx="311.5" cy="369.5" r="111.5" fill="#0A0A04"/>
<path d="M293.742 313.74V312.2C292.436 312.053 291.389 311.593 290.602 310.82C289.816 310.047 289.416 309.033 289.402 307.78H291.642C291.656 308.407 291.842 308.96 292.202 309.44C292.562 309.907 293.076 310.22 293.742 310.38V305.56C293.636 305.533 293.522 305.5 293.402 305.46C293.296 305.42 293.182 305.38 293.062 305.34C291.982 304.98 291.169 304.513 290.622 303.94C290.089 303.367 289.822 302.613 289.822 301.68C289.809 300.587 290.162 299.693 290.882 299C291.602 298.307 292.556 297.9 293.742 297.78V296.18H295.102V297.8C296.262 297.933 297.196 298.353 297.902 299.06C298.609 299.767 298.969 300.653 298.982 301.72H296.742C296.729 301.28 296.582 300.867 296.302 300.48C296.036 300.08 295.636 299.807 295.102 299.66V303.94C295.209 303.98 295.316 304.02 295.422 304.06C295.529 304.087 295.636 304.12 295.742 304.16C296.436 304.387 297.056 304.66 297.602 304.98C298.149 305.3 298.582 305.72 298.902 306.24C299.236 306.76 299.402 307.42 299.402 308.22C299.402 308.887 299.242 309.513 298.922 310.1C298.602 310.673 298.122 311.153 297.482 311.54C296.842 311.927 296.049 312.153 295.102 312.22V313.74H293.742ZM292.022 301.5C292.022 302.033 292.176 302.447 292.482 302.74C292.789 303.02 293.209 303.267 293.742 303.48V299.6C293.236 299.693 292.822 299.907 292.502 300.24C292.182 300.56 292.022 300.98 292.022 301.5ZM297.162 308.36C297.162 307.707 296.969 307.213 296.582 306.88C296.196 306.533 295.702 306.247 295.102 306.02V310.42C295.756 310.34 296.262 310.113 296.622 309.74C296.982 309.367 297.162 308.907 297.162 308.36ZM305.8 312.24C304.893 312.24 304.067 312.08 303.32 311.76C302.587 311.427 302 310.927 301.56 310.26C301.12 309.593 300.887 308.76 300.86 307.76H302.96C302.987 308.507 303.24 309.14 303.72 309.66C304.213 310.167 304.907 310.42 305.8 310.42C306.653 310.42 307.307 310.187 307.76 309.72C308.213 309.24 308.44 308.647 308.44 307.94C308.44 307.087 308.133 306.453 307.52 306.04C306.92 305.627 306.18 305.42 305.3 305.42H304.26V303.66H305.32C306.107 303.66 306.74 303.473 307.22 303.1C307.713 302.727 307.96 302.2 307.96 301.52C307.96 300.947 307.767 300.48 307.38 300.12C307.007 299.76 306.473 299.58 305.78 299.58C305.06 299.58 304.493 299.793 304.08 300.22C303.667 300.633 303.44 301.153 303.4 301.78H301.3C301.327 300.967 301.527 300.26 301.9 299.66C302.287 299.06 302.813 298.593 303.48 298.26C304.147 297.927 304.913 297.76 305.78 297.76C306.713 297.76 307.493 297.927 308.12 298.26C308.76 298.58 309.24 299.02 309.56 299.58C309.893 300.127 310.06 300.727 310.06 301.38C310.06 302.127 309.853 302.78 309.44 303.34C309.027 303.9 308.473 304.273 307.78 304.46C308.58 304.633 309.24 305.027 309.76 305.64C310.28 306.24 310.54 307.02 310.54 307.98C310.54 308.753 310.36 309.467 310 310.12C309.64 310.76 309.107 311.273 308.4 311.66C307.693 312.047 306.827 312.24 305.8 312.24ZM321.475 312C320.502 312 319.728 311.767 319.155 311.3C318.582 310.82 318.295 309.973 318.295 308.76V303.86H316.595V302.08H318.295L318.555 299.56H320.415V302.08H323.215V303.86H320.415V308.76C320.415 309.307 320.528 309.687 320.755 309.9C320.995 310.1 321.402 310.2 321.975 310.2H323.115V312H321.475ZM325.001 312V302.08H326.881L327.041 303.82C327.348 303.207 327.794 302.727 328.381 302.38C328.981 302.02 329.668 301.84 330.441 301.84C331.641 301.84 332.581 302.213 333.261 302.96C333.954 303.707 334.301 304.82 334.301 306.3V312H332.201V306.52C332.201 304.6 331.414 303.64 329.841 303.64C329.054 303.64 328.401 303.92 327.881 304.48C327.374 305.04 327.121 305.84 327.121 306.88V312H325.001Z" fill="white"/>
<path d="M250.191 334V320H251.871V332.66H258.391V334H250.191ZM263.499 334.24C262.672 334.24 261.986 334.1 261.439 333.82C260.892 333.54 260.486 333.167 260.219 332.7C259.952 332.233 259.819 331.727 259.819 331.18C259.819 330.167 260.206 329.387 260.979 328.84C261.752 328.293 262.806 328.02 264.139 328.02H266.819V327.9C266.819 327.033 266.592 326.38 266.139 325.94C265.686 325.487 265.079 325.26 264.319 325.26C263.666 325.26 263.099 325.427 262.619 325.76C262.152 326.08 261.859 326.553 261.739 327.18H260.019C260.086 326.46 260.326 325.853 260.739 325.36C261.166 324.867 261.692 324.493 262.319 324.24C262.946 323.973 263.612 323.84 264.319 323.84C265.706 323.84 266.746 324.213 267.439 324.96C268.146 325.693 268.499 326.673 268.499 327.9V334H266.999L266.899 332.22C266.619 332.78 266.206 333.26 265.659 333.66C265.126 334.047 264.406 334.24 263.499 334.24ZM263.759 332.82C264.399 332.82 264.946 332.653 265.399 332.32C265.866 331.987 266.219 331.553 266.459 331.02C266.699 330.487 266.819 329.927 266.819 329.34V329.32H264.279C263.292 329.32 262.592 329.493 262.179 329.84C261.779 330.173 261.579 330.593 261.579 331.1C261.579 331.62 261.766 332.04 262.139 332.36C262.526 332.667 263.066 332.82 263.759 332.82ZM275.919 334.24C275.106 334.24 274.379 334.073 273.739 333.74C273.113 333.407 272.633 332.94 272.299 332.34L272.139 334H270.619V319.6H272.299V325.72C272.619 325.24 273.073 324.807 273.659 324.42C274.259 324.033 275.019 323.84 275.939 323.84C276.926 323.84 277.786 324.067 278.519 324.52C279.253 324.973 279.819 325.593 280.219 326.38C280.633 327.167 280.839 328.06 280.839 329.06C280.839 330.06 280.633 330.953 280.219 331.74C279.819 332.513 279.246 333.127 278.499 333.58C277.766 334.02 276.906 334.24 275.919 334.24ZM275.739 332.78C276.406 332.78 276.993 332.627 277.499 332.32C278.006 332 278.406 331.56 278.699 331C278.993 330.44 279.139 329.787 279.139 329.04C279.139 328.293 278.993 327.64 278.699 327.08C278.406 326.52 278.006 326.087 277.499 325.78C276.993 325.46 276.406 325.3 275.739 325.3C275.073 325.3 274.486 325.46 273.979 325.78C273.473 326.087 273.073 326.52 272.779 327.08C272.486 327.64 272.339 328.293 272.339 329.04C272.339 329.787 272.486 330.44 272.779 331C273.073 331.56 273.473 332 273.979 332.32C274.486 332.627 275.073 332.78 275.739 332.78ZM287.238 334.24C286.291 334.24 285.451 334.027 284.718 333.6C283.985 333.16 283.405 332.553 282.978 331.78C282.565 331.007 282.358 330.093 282.358 329.04C282.358 328 282.565 327.093 282.978 326.32C283.391 325.533 283.965 324.927 284.698 324.5C285.445 324.06 286.305 323.84 287.278 323.84C288.238 323.84 289.065 324.06 289.758 324.5C290.465 324.927 291.005 325.493 291.378 326.2C291.751 326.907 291.938 327.667 291.938 328.48C291.938 328.627 291.931 328.773 291.918 328.92C291.918 329.067 291.918 329.233 291.918 329.42H284.018C284.058 330.18 284.231 330.813 284.538 331.32C284.858 331.813 285.251 332.187 285.718 332.44C286.198 332.693 286.705 332.82 287.238 332.82C287.931 332.82 288.511 332.66 288.978 332.34C289.445 332.02 289.785 331.587 289.998 331.04H291.658C291.391 331.96 290.878 332.727 290.118 333.34C289.371 333.94 288.411 334.24 287.238 334.24ZM287.238 325.26C286.438 325.26 285.725 325.507 285.098 326C284.485 326.48 284.131 327.187 284.038 328.12H290.278C290.238 327.227 289.931 326.527 289.358 326.02C288.785 325.513 288.078 325.26 287.238 325.26ZM293.765 334V319.6H295.445V334H293.765ZM297.798 334V319.6H299.478V334H297.798ZM306.292 334.24C305.345 334.24 304.505 334.027 303.772 333.6C303.039 333.16 302.459 332.553 302.032 331.78C301.619 331.007 301.412 330.093 301.412 329.04C301.412 328 301.619 327.093 302.032 326.32C302.445 325.533 303.019 324.927 303.752 324.5C304.499 324.06 305.359 323.84 306.332 323.84C307.292 323.84 308.119 324.06 308.812 324.5C309.519 324.927 310.059 325.493 310.432 326.2C310.805 326.907 310.992 327.667 310.992 328.48C310.992 328.627 310.985 328.773 310.972 328.92C310.972 329.067 310.972 329.233 310.972 329.42H303.072C303.112 330.18 303.285 330.813 303.592 331.32C303.912 331.813 304.305 332.187 304.772 332.44C305.252 332.693 305.759 332.82 306.292 332.82C306.985 332.82 307.565 332.66 308.032 332.34C308.499 332.02 308.839 331.587 309.052 331.04H310.712C310.445 331.96 309.932 332.727 309.172 333.34C308.425 333.94 307.465 334.24 306.292 334.24ZM306.292 325.26C305.492 325.26 304.779 325.507 304.152 326C303.539 326.48 303.185 327.187 303.092 328.12H309.332C309.292 327.227 308.985 326.527 308.412 326.02C307.839 325.513 307.132 325.26 306.292 325.26ZM317.319 334.24C316.332 334.24 315.465 334.013 314.719 333.56C313.985 333.107 313.412 332.487 312.999 331.7C312.599 330.913 312.399 330.02 312.399 329.02C312.399 328.02 312.605 327.133 313.019 326.36C313.432 325.573 314.005 324.96 314.739 324.52C315.472 324.067 316.339 323.84 317.339 323.84C318.152 323.84 318.872 324.007 319.499 324.34C320.125 324.673 320.612 325.14 320.959 325.74V319.6H322.639V334H321.119L320.959 332.36C320.639 332.84 320.179 333.273 319.579 333.66C318.979 334.047 318.225 334.24 317.319 334.24ZM317.499 332.78C318.165 332.78 318.752 332.627 319.259 332.32C319.779 332 320.179 331.56 320.459 331C320.752 330.44 320.899 329.787 320.899 329.04C320.899 328.293 320.752 327.64 320.459 327.08C320.179 326.52 319.779 326.087 319.259 325.78C318.752 325.46 318.165 325.3 317.499 325.3C316.845 325.3 316.259 325.46 315.739 325.78C315.232 326.087 314.832 326.52 314.539 327.08C314.259 327.64 314.119 328.293 314.119 329.04C314.119 329.787 314.259 330.44 314.539 331C314.832 331.56 315.232 332 315.739 332.32C316.259 332.627 316.845 332.78 317.499 332.78ZM335.17 334.24C334.357 334.24 333.63 334.073 332.99 333.74C332.364 333.407 331.884 332.94 331.55 332.34L331.39 334H329.87V319.6H331.55V325.72C331.87 325.24 332.324 324.807 332.91 324.42C333.51 324.033 334.27 323.84 335.19 323.84C336.177 323.84 337.037 324.067 337.77 324.52C338.504 324.973 339.07 325.593 339.47 326.38C339.884 327.167 340.09 328.06 340.09 329.06C340.09 330.06 339.884 330.953 339.47 331.74C339.07 332.513 338.497 333.127 337.75 333.58C337.017 334.02 336.157 334.24 335.17 334.24ZM334.99 332.78C335.657 332.78 336.244 332.627 336.75 332.32C337.257 332 337.657 331.56 337.95 331C338.244 330.44 338.39 329.787 338.39 329.04C338.39 328.293 338.244 327.64 337.95 327.08C337.657 326.52 337.257 326.087 336.75 325.78C336.244 325.46 335.657 325.3 334.99 325.3C334.324 325.3 333.737 325.46 333.23 325.78C332.724 326.087 332.324 326.52 332.03 327.08C331.737 327.64 331.59 328.293 331.59 329.04C331.59 329.787 331.737 330.44 332.03 331C332.324 331.56 332.724 332 333.23 332.32C333.737 332.627 334.324 332.78 334.99 332.78ZM346.549 334.24C345.615 334.24 344.775 334.027 344.029 333.6C343.282 333.173 342.689 332.573 342.249 331.8C341.822 331.013 341.609 330.093 341.609 329.04C341.609 327.987 341.829 327.073 342.269 326.3C342.709 325.513 343.302 324.907 344.049 324.48C344.809 324.053 345.655 323.84 346.589 323.84C347.522 323.84 348.362 324.053 349.109 324.48C349.855 324.907 350.442 325.513 350.869 326.3C351.309 327.073 351.529 327.987 351.529 329.04C351.529 330.093 351.309 331.013 350.869 331.8C350.429 332.573 349.829 333.173 349.069 333.6C348.322 334.027 347.482 334.24 346.549 334.24ZM346.549 332.8C347.122 332.8 347.655 332.66 348.149 332.38C348.642 332.1 349.042 331.68 349.349 331.12C349.655 330.56 349.809 329.867 349.809 329.04C349.809 328.213 349.655 327.52 349.349 326.96C349.055 326.4 348.662 325.98 348.169 325.7C347.675 325.42 347.149 325.28 346.589 325.28C346.015 325.28 345.482 325.42 344.989 325.7C344.495 325.98 344.095 326.4 343.789 326.96C343.482 327.52 343.329 328.213 343.329 329.04C343.329 329.867 343.482 330.56 343.789 331.12C344.095 331.68 344.489 332.1 344.969 332.38C345.462 332.66 345.989 332.8 346.549 332.8ZM353.465 334V324.08H354.985L355.085 325.86C355.405 325.233 355.865 324.74 356.465 324.38C357.065 324.02 357.745 323.84 358.505 323.84C359.678 323.84 360.611 324.2 361.305 324.92C362.011 325.627 362.365 326.72 362.365 328.2V334H360.685V328.38C360.685 326.313 359.831 325.28 358.125 325.28C357.271 325.28 356.558 325.593 355.985 326.22C355.425 326.833 355.145 327.713 355.145 328.86V334H353.465ZM369.01 334.24C368.023 334.24 367.157 334.013 366.41 333.56C365.677 333.107 365.103 332.487 364.69 331.7C364.29 330.913 364.09 330.02 364.09 329.02C364.09 328.02 364.297 327.133 364.71 326.36C365.123 325.573 365.697 324.96 366.43 324.52C367.163 324.067 368.03 323.84 369.03 323.84C369.843 323.84 370.563 324.007 371.19 324.34C371.817 324.673 372.303 325.14 372.65 325.74V319.6H374.33V334H372.81L372.65 332.36C372.33 332.84 371.87 333.273 371.27 333.66C370.67 334.047 369.917 334.24 369.01 334.24ZM369.19 332.78C369.857 332.78 370.443 332.627 370.95 332.32C371.47 332 371.87 331.56 372.15 331C372.443 330.44 372.59 329.787 372.59 329.04C372.59 328.293 372.443 327.64 372.15 327.08C371.87 326.52 371.47 326.087 370.95 325.78C370.443 325.46 369.857 325.3 369.19 325.3C368.537 325.3 367.95 325.46 367.43 325.78C366.923 326.087 366.523 326.52 366.23 327.08C365.95 327.64 365.81 328.293 365.81 329.04C365.81 329.787 365.95 330.44 366.23 331C366.523 331.56 366.923 332 367.43 332.32C367.95 332.627 368.537 332.78 369.19 332.78ZM282.319 356V346.08H283.839L283.959 347.52C284.279 346.987 284.706 346.573 285.239 346.28C285.773 345.987 286.373 345.84 287.039 345.84C287.826 345.84 288.499 346 289.059 346.32C289.633 346.64 290.073 347.127 290.379 347.78C290.726 347.18 291.199 346.707 291.799 346.36C292.413 346.013 293.073 345.84 293.779 345.84C294.966 345.84 295.913 346.2 296.619 346.92C297.326 347.627 297.679 348.72 297.679 350.2V356H296.019V350.38C296.019 349.353 295.813 348.58 295.399 348.06C294.986 347.54 294.393 347.28 293.619 347.28C292.819 347.28 292.153 347.593 291.619 348.22C291.099 348.833 290.839 349.713 290.839 350.86V356H289.159V350.38C289.159 349.353 288.953 348.58 288.539 348.06C288.126 347.54 287.533 347.28 286.759 347.28C285.973 347.28 285.313 347.593 284.779 348.22C284.259 348.833 283.999 349.713 283.999 350.86V356H282.319ZM303.11 356.24C302.283 356.24 301.597 356.1 301.05 355.82C300.503 355.54 300.097 355.167 299.83 354.7C299.563 354.233 299.43 353.727 299.43 353.18C299.43 352.167 299.817 351.387 300.59 350.84C301.363 350.293 302.417 350.02 303.75 350.02H306.43V349.9C306.43 349.033 306.203 348.38 305.75 347.94C305.297 347.487 304.69 347.26 303.93 347.26C303.277 347.26 302.71 347.427 302.23 347.76C301.763 348.08 301.47 348.553 301.35 349.18H299.63C299.697 348.46 299.937 347.853 300.35 347.36C300.777 346.867 301.303 346.493 301.93 346.24C302.557 345.973 303.223 345.84 303.93 345.84C305.317 345.84 306.357 346.213 307.05 346.96C307.757 347.693 308.11 348.673 308.11 349.9V356H306.61L306.51 354.22C306.23 354.78 305.817 355.26 305.27 355.66C304.737 356.047 304.017 356.24 303.11 356.24ZM303.37 354.82C304.01 354.82 304.557 354.653 305.01 354.32C305.477 353.987 305.83 353.553 306.07 353.02C306.31 352.487 306.43 351.927 306.43 351.34V351.32H303.89C302.903 351.32 302.203 351.493 301.79 351.84C301.39 352.173 301.19 352.593 301.19 353.1C301.19 353.62 301.377 354.04 301.75 354.36C302.137 354.667 302.677 354.82 303.37 354.82ZM310.23 356V346.08H311.75L311.89 347.98C312.197 347.327 312.664 346.807 313.29 346.42C313.917 346.033 314.69 345.84 315.61 345.84V347.6H315.15C314.564 347.6 314.024 347.707 313.53 347.92C313.037 348.12 312.644 348.467 312.35 348.96C312.057 349.453 311.91 350.133 311.91 351V356H310.23ZM317.096 356V341.6H318.776V350.26L322.836 346.08H324.896L320.496 350.56L325.456 356H323.316L318.776 350.86V356H317.096ZM330.511 356.24C329.565 356.24 328.725 356.027 327.991 355.6C327.258 355.16 326.678 354.553 326.251 353.78C325.838 353.007 325.631 352.093 325.631 351.04C325.631 350 325.838 349.093 326.251 348.32C326.665 347.533 327.238 346.927 327.971 346.5C328.718 346.06 329.578 345.84 330.551 345.84C331.511 345.84 332.338 346.06 333.031 346.5C333.738 346.927 334.278 347.493 334.651 348.2C335.025 348.907 335.211 349.667 335.211 350.48C335.211 350.627 335.205 350.773 335.191 350.92C335.191 351.067 335.191 351.233 335.191 351.42H327.291C327.331 352.18 327.505 352.813 327.811 353.32C328.131 353.813 328.525 354.187 328.991 354.44C329.471 354.693 329.978 354.82 330.511 354.82C331.205 354.82 331.785 354.66 332.251 354.34C332.718 354.02 333.058 353.587 333.271 353.04H334.931C334.665 353.96 334.151 354.727 333.391 355.34C332.645 355.94 331.685 356.24 330.511 356.24ZM330.511 347.26C329.711 347.26 328.998 347.507 328.371 348C327.758 348.48 327.405 349.187 327.311 350.12H333.551C333.511 349.227 333.205 348.527 332.631 348.02C332.058 347.513 331.351 347.26 330.511 347.26ZM340.626 356C339.72 356 339.006 355.78 338.486 355.34C337.966 354.9 337.706 354.107 337.706 352.96V347.5H335.986V346.08H337.706L337.926 343.7H339.386V346.08H342.306V347.5H339.386V352.96C339.386 353.587 339.513 354.013 339.766 354.24C340.02 354.453 340.466 354.56 341.106 354.56H342.146V356H340.626Z" fill="white" fill-opacity="0.35"/>
<circle cx="312" cy="460" r="21" fill="#20E58F"/>
<path d="M288.923 55.74V54.2C287.616 54.0533 286.569 53.5933 285.783 52.82C284.996 52.0467 284.596 51.0333 284.583 49.78H286.823C286.836 50.4067 287.023 50.96 287.383 51.44C287.743 51.9067 288.256 52.22 288.923 52.38V47.56C288.816 47.5333 288.703 47.5 288.583 47.46C288.476 47.42 288.363 47.38 288.243 47.34C287.163 46.98 286.349 46.5133 285.803 45.94C285.269 45.3667 285.003 44.6133 285.003 43.68C284.989 42.5867 285.343 41.6933 286.063 41C286.783 40.3067 287.736 39.9 288.923 39.78V38.18H290.283V39.8C291.443 39.9333 292.376 40.3533 293.083 41.06C293.789 41.7667 294.149 42.6533 294.163 43.72H291.923C291.909 43.28 291.763 42.8667 291.483 42.48C291.216 42.08 290.816 41.8067 290.283 41.66V45.94C290.389 45.98 290.496 46.02 290.603 46.06C290.709 46.0867 290.816 46.12 290.923 46.16C291.616 46.3867 292.236 46.66 292.783 46.98C293.329 47.3 293.763 47.72 294.083 48.24C294.416 48.76 294.583 49.42 294.583 50.22C294.583 50.8867 294.423 51.5133 294.103 52.1C293.783 52.6733 293.303 53.1533 292.663 53.54C292.023 53.9267 291.229 54.1533 290.283 54.22V55.74H288.923ZM287.203 43.5C287.203 44.0333 287.356 44.4467 287.663 44.74C287.969 45.02 288.389 45.2667 288.923 45.48V41.6C288.416 41.6933 288.003 41.9067 287.683 42.24C287.363 42.56 287.203 42.98 287.203 43.5ZM292.343 50.36C292.343 49.7067 292.149 49.2133 291.763 48.88C291.376 48.5333 290.883 48.2467 290.283 48.02V52.42C290.936 52.34 291.443 52.1133 291.803 51.74C292.163 51.3667 292.343 50.9067 292.343 50.36ZM296.22 54V52.48C297.127 51.76 297.994 51.0333 298.82 50.3C299.647 49.5667 300.38 48.8467 301.02 48.14C301.674 47.42 302.187 46.72 302.56 46.04C302.934 45.3467 303.12 44.68 303.12 44.04C303.12 43.6133 303.047 43.2133 302.9 42.84C302.754 42.4533 302.514 42.1467 302.18 41.92C301.847 41.68 301.4 41.56 300.84 41.56C300 41.56 299.367 41.8267 298.94 42.36C298.527 42.8933 298.327 43.5333 298.34 44.28H296.28C296.294 43.2933 296.5 42.4667 296.9 41.8C297.314 41.1333 297.86 40.6267 298.54 40.28C299.234 39.9333 300.014 39.76 300.88 39.76C302.2 39.76 303.254 40.1333 304.04 40.88C304.84 41.6133 305.24 42.64 305.24 43.96C305.24 44.7467 305.047 45.5267 304.66 46.3C304.287 47.0733 303.794 47.82 303.18 48.54C302.58 49.2467 301.934 49.9133 301.24 50.54C300.547 51.1667 299.887 51.7333 299.26 52.24H305.66V54H296.22ZM308.272 54L313.692 41.82H306.412V40H315.872V41.54L310.492 54H308.272ZM326.295 54C325.321 54 324.548 53.7667 323.975 53.3C323.401 52.82 323.115 51.9733 323.115 50.76V45.86H321.415V44.08H323.115L323.375 41.56H325.235V44.08H328.035V45.86H325.235V50.76C325.235 51.3067 325.348 51.6867 325.575 51.9C325.815 52.1 326.221 52.2 326.795 52.2H327.935V54H326.295ZM329.82 54V44.08H331.7L331.86 45.82C332.167 45.2067 332.614 44.7267 333.2 44.38C333.8 44.02 334.487 43.84 335.26 43.84C336.46 43.84 337.4 44.2133 338.08 44.96C338.774 45.7067 339.12 46.82 339.12 48.3V54H337.02V48.52C337.02 46.6 336.234 45.64 334.66 45.64C333.874 45.64 333.22 45.92 332.7 46.48C332.194 47.04 331.94 47.84 331.94 48.88V54H329.82Z" fill="#090C10"/>
<path d="M243.94 76.24C242.634 76.24 241.487 75.94 240.5 75.34C239.514 74.7267 238.747 73.88 238.2 72.8C237.654 71.7067 237.38 70.4467 237.38 69.02C237.38 67.5933 237.654 66.3333 238.2 65.24C238.76 64.1467 239.547 63.2933 240.56 62.68C241.587 62.0667 242.794 61.76 244.18 61.76C245.754 61.76 247.06 62.14 248.1 62.9C249.154 63.66 249.834 64.7067 250.14 66.04H248.2C248.014 65.2 247.567 64.5333 246.86 64.04C246.167 63.5467 245.274 63.3 244.18 63.3C243.154 63.3 242.26 63.5333 241.5 64C240.74 64.4533 240.147 65.1067 239.72 65.96C239.307 66.8133 239.1 67.8333 239.1 69.02C239.1 70.2067 239.307 71.2267 239.72 72.08C240.134 72.9333 240.707 73.5933 241.44 74.06C242.174 74.5133 243.027 74.74 244 74.74C245.494 74.74 246.62 74.3067 247.38 73.44C248.14 72.56 248.574 71.36 248.68 69.84H244.64V68.52H250.4V76H248.86L248.72 73.7C248.214 74.5133 247.594 75.14 246.86 75.58C246.127 76.02 245.154 76.24 243.94 76.24ZM252.557 76V61.6H254.237V76H252.557ZM261.111 76.24C260.177 76.24 259.337 76.0267 258.591 75.6C257.844 75.1733 257.251 74.5733 256.811 73.8C256.384 73.0133 256.171 72.0933 256.171 71.04C256.171 69.9867 256.391 69.0733 256.831 68.3C257.271 67.5133 257.864 66.9067 258.611 66.48C259.371 66.0533 260.217 65.84 261.151 65.84C262.084 65.84 262.924 66.0533 263.671 66.48C264.417 66.9067 265.004 67.5133 265.431 68.3C265.871 69.0733 266.091 69.9867 266.091 71.04C266.091 72.0933 265.871 73.0133 265.431 73.8C264.991 74.5733 264.391 75.1733 263.631 75.6C262.884 76.0267 262.044 76.24 261.111 76.24ZM261.111 74.8C261.684 74.8 262.217 74.66 262.711 74.38C263.204 74.1 263.604 73.68 263.911 73.12C264.217 72.56 264.371 71.8667 264.371 71.04C264.371 70.2133 264.217 69.52 263.911 68.96C263.617 68.4 263.224 67.98 262.731 67.7C262.237 67.42 261.711 67.28 261.151 67.28C260.577 67.28 260.044 67.42 259.551 67.7C259.057 67.98 258.657 68.4 258.351 68.96C258.044 69.52 257.891 70.2133 257.891 71.04C257.891 71.8667 258.044 72.56 258.351 73.12C258.657 73.68 259.051 74.1 259.531 74.38C260.024 74.66 260.551 74.8 261.111 74.8ZM273.326 76.24C272.513 76.24 271.786 76.0733 271.146 75.74C270.52 75.4067 270.04 74.94 269.706 74.34L269.546 76H268.026V61.6H269.706V67.72C270.026 67.24 270.48 66.8067 271.066 66.42C271.666 66.0333 272.426 65.84 273.346 65.84C274.333 65.84 275.193 66.0667 275.926 66.52C276.66 66.9733 277.226 67.5933 277.626 68.38C278.04 69.1667 278.246 70.06 278.246 71.06C278.246 72.06 278.04 72.9533 277.626 73.74C277.226 74.5133 276.653 75.1267 275.906 75.58C275.173 76.02 274.313 76.24 273.326 76.24ZM273.146 74.78C273.813 74.78 274.4 74.6267 274.906 74.32C275.413 74 275.813 73.56 276.106 73C276.4 72.44 276.546 71.7867 276.546 71.04C276.546 70.2933 276.4 69.64 276.106 69.08C275.813 68.52 275.413 68.0867 274.906 67.78C274.4 67.46 273.813 67.3 273.146 67.3C272.48 67.3 271.893 67.46 271.386 67.78C270.88 68.0867 270.48 68.52 270.186 69.08C269.893 69.64 269.746 70.2933 269.746 71.04C269.746 71.7867 269.893 72.44 270.186 73C270.48 73.56 270.88 74 271.386 74.32C271.893 74.6267 272.48 74.78 273.146 74.78ZM283.485 76.24C282.658 76.24 281.972 76.1 281.425 75.82C280.878 75.54 280.472 75.1667 280.205 74.7C279.938 74.2333 279.805 73.7267 279.805 73.18C279.805 72.1667 280.192 71.3867 280.965 70.84C281.738 70.2933 282.792 70.02 284.125 70.02H286.805V69.9C286.805 69.0333 286.578 68.38 286.125 67.94C285.672 67.4867 285.065 67.26 284.305 67.26C283.652 67.26 283.085 67.4267 282.605 67.76C282.138 68.08 281.845 68.5533 281.725 69.18H280.005C280.072 68.46 280.312 67.8533 280.725 67.36C281.152 66.8667 281.678 66.4933 282.305 66.24C282.932 65.9733 283.598 65.84 284.305 65.84C285.692 65.84 286.732 66.2133 287.425 66.96C288.132 67.6933 288.485 68.6733 288.485 69.9V76H286.985L286.885 74.22C286.605 74.78 286.192 75.26 285.645 75.66C285.112 76.0467 284.392 76.24 283.485 76.24ZM283.745 74.82C284.385 74.82 284.932 74.6533 285.385 74.32C285.852 73.9867 286.205 73.5533 286.445 73.02C286.685 72.4867 286.805 71.9267 286.805 71.34V71.32H284.265C283.278 71.32 282.578 71.4933 282.165 71.84C281.765 72.1733 281.565 72.5933 281.565 73.1C281.565 73.62 281.752 74.04 282.125 74.36C282.512 74.6667 283.052 74.82 283.745 74.82ZM290.605 76V61.6H292.285V76H290.605ZM299.532 76V61.6H301.212V76H299.532ZM308.086 76.24C307.152 76.24 306.312 76.0267 305.566 75.6C304.819 75.1733 304.226 74.5733 303.786 73.8C303.359 73.0133 303.146 72.0933 303.146 71.04C303.146 69.9867 303.366 69.0733 303.806 68.3C304.246 67.5133 304.839 66.9067 305.586 66.48C306.346 66.0533 307.192 65.84 308.126 65.84C309.059 65.84 309.899 66.0533 310.646 66.48C311.392 66.9067 311.979 67.5133 312.406 68.3C312.846 69.0733 313.066 69.9867 313.066 71.04C313.066 72.0933 312.846 73.0133 312.406 73.8C311.966 74.5733 311.366 75.1733 310.606 75.6C309.859 76.0267 309.019 76.24 308.086 76.24ZM308.086 74.8C308.659 74.8 309.192 74.66 309.686 74.38C310.179 74.1 310.579 73.68 310.886 73.12C311.192 72.56 311.346 71.8667 311.346 71.04C311.346 70.2133 311.192 69.52 310.886 68.96C310.592 68.4 310.199 67.98 309.706 67.7C309.212 67.42 308.686 67.28 308.126 67.28C307.552 67.28 307.019 67.42 306.526 67.7C306.032 67.98 305.632 68.4 305.326 68.96C305.019 69.52 304.866 70.2133 304.866 71.04C304.866 71.8667 305.019 72.56 305.326 73.12C305.632 73.68 306.026 74.1 306.506 74.38C306.999 74.66 307.526 74.8 308.086 74.8ZM315.001 76V66.08H316.521L316.621 67.86C316.941 67.2333 317.401 66.74 318.001 66.38C318.601 66.02 319.281 65.84 320.041 65.84C321.215 65.84 322.148 66.2 322.841 66.92C323.548 67.6267 323.901 68.72 323.901 70.2V76H322.221V70.38C322.221 68.3133 321.368 67.28 319.661 67.28C318.808 67.28 318.095 67.5933 317.521 68.22C316.961 68.8333 316.681 69.7133 316.681 70.86V76H315.001ZM329.967 72.88C329.407 72.88 328.893 72.8067 328.427 72.66L327.427 73.6C327.573 73.7067 327.753 73.8 327.967 73.88C328.193 73.9467 328.513 74.0133 328.927 74.08C329.34 74.1333 329.92 74.1933 330.667 74.26C332 74.3533 332.953 74.66 333.527 75.18C334.1 75.7 334.387 76.38 334.387 77.22C334.387 77.7933 334.227 78.34 333.907 78.86C333.6 79.38 333.12 79.8067 332.467 80.14C331.827 80.4733 331 80.64 329.987 80.64C329.093 80.64 328.3 80.52 327.607 80.28C326.913 80.0533 326.373 79.7 325.987 79.22C325.6 78.7533 325.407 78.16 325.407 77.44C325.407 77.0667 325.507 76.66 325.707 76.22C325.907 75.7933 326.28 75.3867 326.827 75C326.533 74.88 326.28 74.7533 326.067 74.62C325.867 74.4733 325.68 74.3133 325.507 74.14V73.68L327.207 72C326.42 71.3333 326.027 70.4533 326.027 69.36C326.027 68.7067 326.18 68.1133 326.487 67.58C326.793 67.0467 327.24 66.6267 327.827 66.32C328.413 66 329.127 65.84 329.967 65.84C330.54 65.84 331.06 65.92 331.527 66.08H335.187V67.34L333.327 67.42C333.713 67.98 333.907 68.6267 333.907 69.36C333.907 70.0133 333.747 70.6067 333.427 71.14C333.12 71.6733 332.673 72.1 332.087 72.42C331.513 72.7267 330.807 72.88 329.967 72.88ZM329.967 71.5C330.673 71.5 331.233 71.32 331.647 70.96C332.073 70.5867 332.287 70.0533 332.287 69.36C332.287 68.68 332.073 68.16 331.647 67.8C331.233 67.4267 330.673 67.24 329.967 67.24C329.247 67.24 328.673 67.4267 328.247 67.8C327.833 68.16 327.627 68.68 327.627 69.36C327.627 70.0533 327.833 70.5867 328.247 70.96C328.673 71.32 329.247 71.5 329.967 71.5ZM327.047 77.28C327.047 77.9467 327.327 78.44 327.887 78.76C328.447 79.0933 329.147 79.26 329.987 79.26C330.813 79.26 331.473 79.08 331.967 78.72C332.473 78.36 332.727 77.88 332.727 77.28C332.727 76.8533 332.553 76.48 332.207 76.16C331.86 75.8533 331.22 75.6733 330.287 75.62C329.553 75.5667 328.92 75.5 328.387 75.42C327.84 75.7133 327.48 76.0267 327.307 76.36C327.133 76.7067 327.047 77.0133 327.047 77.28ZM336.482 70.9V69.48H344.402V70.9H336.482ZM350.456 76C349.549 76 348.836 75.78 348.316 75.34C347.796 74.9 347.536 74.1067 347.536 72.96V67.5H345.816V66.08H347.536L347.756 63.7H349.216V66.08H352.136V67.5H349.216V72.96C349.216 73.5867 349.343 74.0133 349.596 74.24C349.849 74.4533 350.296 74.56 350.936 74.56H351.976V76H350.456ZM358.057 76.24C357.11 76.24 356.27 76.0267 355.537 75.6C354.803 75.16 354.223 74.5533 353.797 73.78C353.383 73.0067 353.177 72.0933 353.177 71.04C353.177 70 353.383 69.0933 353.797 68.32C354.21 67.5333 354.783 66.9267 355.517 66.5C356.263 66.06 357.123 65.84 358.097 65.84C359.057 65.84 359.883 66.06 360.577 66.5C361.283 66.9267 361.823 67.4933 362.197 68.2C362.57 68.9067 362.757 69.6667 362.757 70.48C362.757 70.6267 362.75 70.7733 362.737 70.92C362.737 71.0667 362.737 71.2333 362.737 71.42H354.837C354.877 72.18 355.05 72.8133 355.357 73.32C355.677 73.8133 356.07 74.1867 356.537 74.44C357.017 74.6933 357.523 74.82 358.057 74.82C358.75 74.82 359.33 74.66 359.797 74.34C360.263 74.02 360.603 73.5867 360.817 73.04H362.477C362.21 73.96 361.697 74.7267 360.937 75.34C360.19 75.94 359.23 76.24 358.057 76.24ZM358.057 67.26C357.257 67.26 356.543 67.5067 355.917 68C355.303 68.48 354.95 69.1867 354.857 70.12H361.097C361.057 69.2267 360.75 68.5267 360.177 68.02C359.603 67.5133 358.897 67.26 358.057 67.26ZM364.584 76V66.08H366.104L366.244 67.98C366.55 67.3267 367.017 66.8067 367.644 66.42C368.27 66.0333 369.044 65.84 369.964 65.84V67.6H369.504C368.917 67.6 368.377 67.7067 367.884 67.92C367.39 68.12 366.997 68.4667 366.704 68.96C366.41 69.4533 366.264 70.1333 366.264 71V76H364.584ZM371.449 76V66.08H372.969L373.089 67.52C373.409 66.9867 373.836 66.5733 374.369 66.28C374.902 65.9867 375.502 65.84 376.169 65.84C376.956 65.84 377.629 66 378.189 66.32C378.762 66.64 379.202 67.1267 379.509 67.78C379.856 67.18 380.329 66.7067 380.929 66.36C381.542 66.0133 382.202 65.84 382.909 65.84C384.096 65.84 385.042 66.2 385.749 66.92C386.456 67.6267 386.809 68.72 386.809 70.2V76H385.149V70.38C385.149 69.3533 384.942 68.58 384.529 68.06C384.116 67.54 383.522 67.28 382.749 67.28C381.949 67.28 381.282 67.5933 380.749 68.22C380.229 68.8333 379.969 69.7133 379.969 70.86V76H378.289V70.38C378.289 69.3533 378.082 68.58 377.669 68.06C377.256 67.54 376.662 67.28 375.889 67.28C375.102 67.28 374.442 67.5933 373.909 68.22C373.389 68.8333 373.129 69.7133 373.129 70.86V76H371.449ZM253.59 98.24C252.776 98.24 252.05 98.0733 251.41 97.74C250.783 97.4067 250.303 96.94 249.97 96.34L249.81 98H248.29V83.6H249.97V89.72C250.29 89.24 250.743 88.8067 251.33 88.42C251.93 88.0333 252.69 87.84 253.61 87.84C254.596 87.84 255.456 88.0667 256.19 88.52C256.923 88.9733 257.49 89.5933 257.89 90.38C258.303 91.1667 258.51 92.06 258.51 93.06C258.51 94.06 258.303 94.9533 257.89 95.74C257.49 96.5133 256.916 97.1267 256.17 97.58C255.436 98.02 254.576 98.24 253.59 98.24ZM253.41 96.78C254.076 96.78 254.663 96.6267 255.17 96.32C255.676 96 256.076 95.56 256.37 95C256.663 94.44 256.81 93.7867 256.81 93.04C256.81 92.2933 256.663 91.64 256.37 91.08C256.076 90.52 255.676 90.0867 255.17 89.78C254.663 89.46 254.076 89.3 253.41 89.3C252.743 89.3 252.156 89.46 251.65 89.78C251.143 90.0867 250.743 90.52 250.45 91.08C250.156 91.64 250.01 92.2933 250.01 93.04C250.01 93.7867 250.156 94.44 250.45 95C250.743 95.56 251.143 96 251.65 96.32C252.156 96.6267 252.743 96.78 253.41 96.78ZM264.968 98.24C264.035 98.24 263.195 98.0267 262.448 97.6C261.702 97.1733 261.108 96.5733 260.668 95.8C260.242 95.0133 260.028 94.0933 260.028 93.04C260.028 91.9867 260.248 91.0733 260.688 90.3C261.128 89.5133 261.722 88.9067 262.468 88.48C263.228 88.0533 264.075 87.84 265.008 87.84C265.942 87.84 266.782 88.0533 267.528 88.48C268.275 88.9067 268.862 89.5133 269.288 90.3C269.728 91.0733 269.948 91.9867 269.948 93.04C269.948 94.0933 269.728 95.0133 269.288 95.8C268.848 96.5733 268.248 97.1733 267.488 97.6C266.742 98.0267 265.902 98.24 264.968 98.24ZM264.968 96.8C265.542 96.8 266.075 96.66 266.568 96.38C267.062 96.1 267.462 95.68 267.768 95.12C268.075 94.56 268.228 93.8667 268.228 93.04C268.228 92.2133 268.075 91.52 267.768 90.96C267.475 90.4 267.082 89.98 266.588 89.7C266.095 89.42 265.568 89.28 265.008 89.28C264.435 89.28 263.902 89.42 263.408 89.7C262.915 89.98 262.515 90.4 262.208 90.96C261.902 91.52 261.748 92.2133 261.748 93.04C261.748 93.8667 261.902 94.56 262.208 95.12C262.515 95.68 262.908 96.1 263.388 96.38C263.882 96.66 264.408 96.8 264.968 96.8ZM271.884 98V88.08H273.404L273.504 89.86C273.824 89.2333 274.284 88.74 274.884 88.38C275.484 88.02 276.164 87.84 276.924 87.84C278.098 87.84 279.031 88.2 279.724 88.92C280.431 89.6267 280.784 90.72 280.784 92.2V98H279.104V92.38C279.104 90.3133 278.251 89.28 276.544 89.28C275.691 89.28 274.978 89.5933 274.404 90.22C273.844 90.8333 273.564 91.7133 273.564 92.86V98H271.884ZM287.43 98.24C286.443 98.24 285.576 98.0133 284.83 97.56C284.096 97.1067 283.523 96.4867 283.11 95.7C282.71 94.9133 282.51 94.02 282.51 93.02C282.51 92.02 282.716 91.1333 283.13 90.36C283.543 89.5733 284.116 88.96 284.85 88.52C285.583 88.0667 286.45 87.84 287.45 87.84C288.263 87.84 288.983 88.0067 289.61 88.34C290.236 88.6733 290.723 89.14 291.07 89.74V83.6H292.75V98H291.23L291.07 96.36C290.75 96.84 290.29 97.2733 289.69 97.66C289.09 98.0467 288.336 98.24 287.43 98.24ZM287.61 96.78C288.276 96.78 288.863 96.6267 289.37 96.32C289.89 96 290.29 95.56 290.57 95C290.863 94.44 291.01 93.7867 291.01 93.04C291.01 92.2933 290.863 91.64 290.57 91.08C290.29 90.52 289.89 90.0867 289.37 89.78C288.863 89.46 288.276 89.3 287.61 89.3C286.956 89.3 286.37 89.46 285.85 89.78C285.343 90.0867 284.943 90.52 284.65 91.08C284.37 91.64 284.23 92.2933 284.23 93.04C284.23 93.7867 284.37 94.44 284.65 95C284.943 95.56 285.343 96 285.85 96.32C286.37 96.6267 286.956 96.78 287.61 96.78ZM301.001 85.88C300.668 85.88 300.388 85.7733 300.161 85.56C299.948 85.3333 299.841 85.0533 299.841 84.72C299.841 84.4 299.948 84.1333 300.161 83.92C300.388 83.7067 300.668 83.6 301.001 83.6C301.321 83.6 301.595 83.7067 301.821 83.92C302.048 84.1333 302.161 84.4 302.161 84.72C302.161 85.0533 302.048 85.3333 301.821 85.56C301.595 85.7733 301.321 85.88 301.001 85.88ZM300.161 98V88.08H301.841V98H300.161ZM308.166 98.24C306.98 98.24 305.993 97.94 305.206 97.34C304.42 96.74 303.96 95.9267 303.826 94.9H305.546C305.653 95.42 305.926 95.8733 306.366 96.26C306.82 96.6333 307.426 96.82 308.186 96.82C308.893 96.82 309.413 96.6733 309.746 96.38C310.08 96.0733 310.246 95.7133 310.246 95.3C310.246 94.7 310.026 94.3 309.586 94.1C309.16 93.9 308.553 93.72 307.766 93.56C307.233 93.4533 306.7 93.3 306.166 93.1C305.633 92.9 305.186 92.62 304.826 92.26C304.466 91.8867 304.286 91.4 304.286 90.8C304.286 89.9333 304.606 89.2267 305.246 88.68C305.9 88.12 306.78 87.84 307.886 87.84C308.94 87.84 309.8 88.1067 310.466 88.64C311.146 89.16 311.54 89.9067 311.646 90.88H309.986C309.92 90.3733 309.7 89.98 309.326 89.7C308.966 89.4067 308.48 89.26 307.866 89.26C307.266 89.26 306.8 89.3867 306.466 89.64C306.146 89.8933 305.986 90.2267 305.986 90.64C305.986 91.04 306.193 91.3533 306.606 91.58C307.033 91.8067 307.606 92 308.326 92.16C308.94 92.2933 309.52 92.46 310.066 92.66C310.626 92.8467 311.08 93.1333 311.426 93.52C311.786 93.8933 311.966 94.44 311.966 95.16C311.98 96.0533 311.64 96.7933 310.946 97.38C310.266 97.9533 309.34 98.24 308.166 98.24ZM317.766 98.24C316.58 98.24 315.593 97.94 314.806 97.34C314.02 96.74 313.56 95.9267 313.426 94.9H315.146C315.253 95.42 315.526 95.8733 315.966 96.26C316.42 96.6333 317.026 96.82 317.786 96.82C318.493 96.82 319.013 96.6733 319.346 96.38C319.68 96.0733 319.846 95.7133 319.846 95.3C319.846 94.7 319.626 94.3 319.186 94.1C318.76 93.9 318.153 93.72 317.366 93.56C316.833 93.4533 316.3 93.3 315.766 93.1C315.233 92.9 314.786 92.62 314.426 92.26C314.066 91.8867 313.886 91.4 313.886 90.8C313.886 89.9333 314.206 89.2267 314.846 88.68C315.5 88.12 316.38 87.84 317.486 87.84C318.54 87.84 319.4 88.1067 320.066 88.64C320.746 89.16 321.14 89.9067 321.246 90.88H319.586C319.52 90.3733 319.3 89.98 318.926 89.7C318.566 89.4067 318.08 89.26 317.466 89.26C316.866 89.26 316.4 89.3867 316.066 89.64C315.746 89.8933 315.586 90.2267 315.586 90.64C315.586 91.04 315.793 91.3533 316.206 91.58C316.633 91.8067 317.206 92 317.926 92.16C318.54 92.2933 319.12 92.46 319.666 92.66C320.226 92.8467 320.68 93.1333 321.026 93.52C321.386 93.8933 321.566 94.44 321.566 95.16C321.58 96.0533 321.24 96.7933 320.546 97.38C319.866 97.9533 318.94 98.24 317.766 98.24ZM327.186 98.24C326.013 98.24 325.08 97.8867 324.386 97.18C323.693 96.46 323.346 95.36 323.346 93.88V88.08H325.026V93.7C325.026 95.7667 325.873 96.8 327.566 96.8C328.433 96.8 329.146 96.4933 329.706 95.88C330.28 95.2533 330.566 94.3667 330.566 93.22V88.08H332.246V98H330.726L330.606 96.22C330.3 96.8467 329.84 97.34 329.226 97.7C328.626 98.06 327.946 98.24 327.186 98.24ZM337.912 98.24C337.085 98.24 336.398 98.1 335.852 97.82C335.305 97.54 334.898 97.1667 334.632 96.7C334.365 96.2333 334.232 95.7267 334.232 95.18C334.232 94.1667 334.618 93.3867 335.392 92.84C336.165 92.2933 337.218 92.02 338.552 92.02H341.232V91.9C341.232 91.0333 341.005 90.38 340.552 89.94C340.098 89.4867 339.492 89.26 338.732 89.26C338.078 89.26 337.512 89.4267 337.032 89.76C336.565 90.08 336.272 90.5533 336.152 91.18H334.432C334.498 90.46 334.738 89.8533 335.152 89.36C335.578 88.8667 336.105 88.4933 336.732 88.24C337.358 87.9733 338.025 87.84 338.732 87.84C340.118 87.84 341.158 88.2133 341.852 88.96C342.558 89.6933 342.912 90.6733 342.912 91.9V98H341.412L341.312 96.22C341.032 96.78 340.618 97.26 340.072 97.66C339.538 98.0467 338.818 98.24 337.912 98.24ZM338.172 96.82C338.812 96.82 339.358 96.6533 339.812 96.32C340.278 95.9867 340.632 95.5533 340.872 95.02C341.112 94.4867 341.232 93.9267 341.232 93.34V93.32H338.692C337.705 93.32 337.005 93.4933 336.592 93.84C336.192 94.1733 335.992 94.5933 335.992 95.1C335.992 95.62 336.178 96.04 336.552 96.36C336.938 96.6667 337.478 96.82 338.172 96.82ZM345.032 98V88.08H346.552L346.652 89.86C346.972 89.2333 347.432 88.74 348.032 88.38C348.632 88.02 349.312 87.84 350.072 87.84C351.245 87.84 352.179 88.2 352.872 88.92C353.579 89.6267 353.932 90.72 353.932 92.2V98H352.252V92.38C352.252 90.3133 351.399 89.28 349.692 89.28C348.839 89.28 348.125 89.5933 347.552 90.22C346.992 90.8333 346.712 91.7133 346.712 92.86V98H345.032ZM360.637 98.24C359.691 98.24 358.837 98.0267 358.077 97.6C357.331 97.16 356.737 96.5533 356.297 95.78C355.871 94.9933 355.657 94.08 355.657 93.04C355.657 92 355.871 91.0933 356.297 90.32C356.737 89.5333 357.331 88.9267 358.077 88.5C358.837 88.06 359.691 87.84 360.637 87.84C361.811 87.84 362.797 88.1467 363.597 88.76C364.411 89.3733 364.924 90.1933 365.137 91.22H363.417C363.284 90.6067 362.957 90.1333 362.437 89.8C361.917 89.4533 361.311 89.28 360.617 89.28C360.057 89.28 359.531 89.42 359.037 89.7C358.544 89.98 358.144 90.4 357.837 90.96C357.531 91.52 357.377 92.2133 357.377 93.04C357.377 93.8667 357.531 94.56 357.837 95.12C358.144 95.68 358.544 96.1067 359.037 96.4C359.531 96.68 360.057 96.82 360.617 96.82C361.311 96.82 361.917 96.6533 362.437 96.32C362.957 95.9733 363.284 95.4867 363.417 94.86H365.137C364.937 95.86 364.431 96.6733 363.617 97.3C362.804 97.9267 361.811 98.24 360.637 98.24ZM371.544 98.24C370.597 98.24 369.757 98.0267 369.024 97.6C368.29 97.16 367.71 96.5533 367.284 95.78C366.87 95.0067 366.664 94.0933 366.664 93.04C366.664 92 366.87 91.0933 367.284 90.32C367.697 89.5333 368.27 88.9267 369.004 88.5C369.75 88.06 370.61 87.84 371.584 87.84C372.544 87.84 373.37 88.06 374.064 88.5C374.77 88.9267 375.31 89.4933 375.684 90.2C376.057 90.9067 376.244 91.6667 376.244 92.48C376.244 92.6267 376.237 92.7733 376.224 92.92C376.224 93.0667 376.224 93.2333 376.224 93.42H368.324C368.364 94.18 368.537 94.8133 368.844 95.32C369.164 95.8133 369.557 96.1867 370.024 96.44C370.504 96.6933 371.01 96.82 371.544 96.82C372.237 96.82 372.817 96.66 373.284 96.34C373.75 96.02 374.09 95.5867 374.304 95.04H375.964C375.697 95.96 375.184 96.7267 374.424 97.34C373.677 97.94 372.717 98.24 371.544 98.24ZM371.544 89.26C370.744 89.26 370.03 89.5067 369.404 90C368.79 90.48 368.437 91.1867 368.344 92.12H374.584C374.544 91.2267 374.237 90.5267 373.664 90.02C373.09 89.5133 372.384 89.26 371.544 89.26Z" fill="#090C10" fill-opacity="0.4"/>
<path d="M296.418 520.74V519.2C295.111 519.053 294.065 518.593 293.278 517.82C292.491 517.047 292.091 516.033 292.078 514.78H294.318C294.331 515.407 294.518 515.96 294.878 516.44C295.238 516.907 295.751 517.22 296.418 517.38V512.56C296.311 512.533 296.198 512.5 296.078 512.46C295.971 512.42 295.858 512.38 295.738 512.34C294.658 511.98 293.845 511.513 293.298 510.94C292.765 510.367 292.498 509.613 292.498 508.68C292.485 507.587 292.838 506.693 293.558 506C294.278 505.307 295.231 504.9 296.418 504.78V503.18H297.778V504.8C298.938 504.933 299.871 505.353 300.578 506.06C301.285 506.767 301.645 507.653 301.658 508.72H299.418C299.405 508.28 299.258 507.867 298.978 507.48C298.711 507.08 298.311 506.807 297.778 506.66V510.94C297.885 510.98 297.991 511.02 298.098 511.06C298.205 511.087 298.311 511.12 298.418 511.16C299.111 511.387 299.731 511.66 300.278 511.98C300.825 512.3 301.258 512.72 301.578 513.24C301.911 513.76 302.078 514.42 302.078 515.22C302.078 515.887 301.918 516.513 301.598 517.1C301.278 517.673 300.798 518.153 300.158 518.54C299.518 518.927 298.725 519.153 297.778 519.22V520.74H296.418ZM294.698 508.5C294.698 509.033 294.851 509.447 295.158 509.74C295.465 510.02 295.885 510.267 296.418 510.48V506.6C295.911 506.693 295.498 506.907 295.178 507.24C294.858 507.56 294.698 507.98 294.698 508.5ZM299.838 515.36C299.838 514.707 299.645 514.213 299.258 513.88C298.871 513.533 298.378 513.247 297.778 513.02V517.42C298.431 517.34 298.938 517.113 299.298 516.74C299.658 516.367 299.838 515.907 299.838 515.36ZM305.436 519V507.4L303.176 507.92V506.36L306.276 505H307.636V519H305.436ZM318.799 519C317.826 519 317.053 518.767 316.479 518.3C315.906 517.82 315.619 516.973 315.619 515.76V510.86H313.919V509.08H315.619L315.879 506.56H317.739V509.08H320.539V510.86H317.739V515.76C317.739 516.307 317.853 516.687 318.079 516.9C318.319 517.1 318.726 517.2 319.299 517.2H320.439V519H318.799ZM322.325 519V509.08H324.205L324.365 510.82C324.672 510.207 325.118 509.727 325.705 509.38C326.305 509.02 326.992 508.84 327.765 508.84C328.965 508.84 329.905 509.213 330.585 509.96C331.278 510.707 331.625 511.82 331.625 513.3V519H329.525V513.52C329.525 511.6 328.738 510.64 327.165 510.64C326.378 510.64 325.725 510.92 325.205 511.48C324.698 512.04 324.445 512.84 324.445 513.88V519H322.325Z" fill="#090C10"/>
<path d="M261.529 541.24C260.223 541.24 259.076 540.94 258.089 540.34C257.103 539.727 256.336 538.88 255.789 537.8C255.243 536.707 254.969 535.447 254.969 534.02C254.969 532.593 255.243 531.333 255.789 530.24C256.349 529.147 257.136 528.293 258.149 527.68C259.176 527.067 260.383 526.76 261.769 526.76C263.343 526.76 264.649 527.14 265.689 527.9C266.743 528.66 267.423 529.707 267.729 531.04H265.789C265.603 530.2 265.156 529.533 264.449 529.04C263.756 528.547 262.863 528.3 261.769 528.3C260.743 528.3 259.849 528.533 259.089 529C258.329 529.453 257.736 530.107 257.309 530.96C256.896 531.813 256.689 532.833 256.689 534.02C256.689 535.207 256.896 536.227 257.309 537.08C257.723 537.933 258.296 538.593 259.029 539.06C259.763 539.513 260.616 539.74 261.589 539.74C263.083 539.74 264.209 539.307 264.969 538.44C265.729 537.56 266.163 536.36 266.269 534.84H262.229V533.52H267.989V541H266.449L266.309 538.7C265.803 539.513 265.183 540.14 264.449 540.58C263.716 541.02 262.743 541.24 261.529 541.24ZM270.146 541V531.08H271.666L271.806 532.98C272.113 532.327 272.579 531.807 273.206 531.42C273.833 531.033 274.606 530.84 275.526 530.84V532.6H275.066C274.479 532.6 273.939 532.707 273.446 532.92C272.953 533.12 272.559 533.467 272.266 533.96C271.973 534.453 271.826 535.133 271.826 536V541H270.146ZM281.101 541.24C280.154 541.24 279.314 541.027 278.581 540.6C277.847 540.16 277.267 539.553 276.841 538.78C276.427 538.007 276.221 537.093 276.221 536.04C276.221 535 276.427 534.093 276.841 533.32C277.254 532.533 277.827 531.927 278.561 531.5C279.307 531.06 280.167 530.84 281.141 530.84C282.101 530.84 282.927 531.06 283.621 531.5C284.327 531.927 284.867 532.493 285.241 533.2C285.614 533.907 285.801 534.667 285.801 535.48C285.801 535.627 285.794 535.773 285.781 535.92C285.781 536.067 285.781 536.233 285.781 536.42H277.881C277.921 537.18 278.094 537.813 278.401 538.32C278.721 538.813 279.114 539.187 279.581 539.44C280.061 539.693 280.567 539.82 281.101 539.82C281.794 539.82 282.374 539.66 282.841 539.34C283.307 539.02 283.647 538.587 283.861 538.04H285.521C285.254 538.96 284.741 539.727 283.981 540.34C283.234 540.94 282.274 541.24 281.101 541.24ZM281.101 532.26C280.301 532.26 279.587 532.507 278.961 533C278.347 533.48 277.994 534.187 277.901 535.12H284.141C284.101 534.227 283.794 533.527 283.221 533.02C282.647 532.513 281.941 532.26 281.101 532.26ZM292.087 541.24C291.141 541.24 290.301 541.027 289.567 540.6C288.834 540.16 288.254 539.553 287.827 538.78C287.414 538.007 287.207 537.093 287.207 536.04C287.207 535 287.414 534.093 287.827 533.32C288.241 532.533 288.814 531.927 289.547 531.5C290.294 531.06 291.154 530.84 292.127 530.84C293.087 530.84 293.914 531.06 294.607 531.5C295.314 531.927 295.854 532.493 296.227 533.2C296.601 533.907 296.787 534.667 296.787 535.48C296.787 535.627 296.781 535.773 296.767 535.92C296.767 536.067 296.767 536.233 296.767 536.42H288.867C288.907 537.18 289.081 537.813 289.387 538.32C289.707 538.813 290.101 539.187 290.567 539.44C291.047 539.693 291.554 539.82 292.087 539.82C292.781 539.82 293.361 539.66 293.827 539.34C294.294 539.02 294.634 538.587 294.847 538.04H296.507C296.241 538.96 295.727 539.727 294.967 540.34C294.221 540.94 293.261 541.24 292.087 541.24ZM292.087 532.26C291.287 532.26 290.574 532.507 289.947 533C289.334 533.48 288.981 534.187 288.887 535.12H295.127C295.087 534.227 294.781 533.527 294.207 533.02C293.634 532.513 292.927 532.26 292.087 532.26ZM298.614 541V531.08H300.134L300.234 532.86C300.554 532.233 301.014 531.74 301.614 531.38C302.214 531.02 302.894 530.84 303.654 530.84C304.827 530.84 305.761 531.2 306.454 531.92C307.161 532.627 307.514 533.72 307.514 535.2V541H305.834V535.38C305.834 533.313 304.981 532.28 303.274 532.28C302.421 532.28 301.707 532.593 301.134 533.22C300.574 533.833 300.294 534.713 300.294 535.86V541H298.614ZM319.852 541.24C319.039 541.24 318.312 541.073 317.672 540.74C317.046 540.407 316.566 539.94 316.232 539.34L316.072 541H314.552V526.6H316.232V532.72C316.552 532.24 317.006 531.807 317.592 531.42C318.192 531.033 318.952 530.84 319.872 530.84C320.859 530.84 321.719 531.067 322.452 531.52C323.186 531.973 323.752 532.593 324.152 533.38C324.566 534.167 324.772 535.06 324.772 536.06C324.772 537.06 324.566 537.953 324.152 538.74C323.752 539.513 323.179 540.127 322.432 540.58C321.699 541.02 320.839 541.24 319.852 541.24ZM319.672 539.78C320.339 539.78 320.926 539.627 321.432 539.32C321.939 539 322.339 538.56 322.632 538C322.926 537.44 323.072 536.787 323.072 536.04C323.072 535.293 322.926 534.64 322.632 534.08C322.339 533.52 321.939 533.087 321.432 532.78C320.926 532.46 320.339 532.3 319.672 532.3C319.006 532.3 318.419 532.46 317.912 532.78C317.406 533.087 317.006 533.52 316.712 534.08C316.419 534.64 316.272 535.293 316.272 536.04C316.272 536.787 316.419 537.44 316.712 538C317.006 538.56 317.406 539 317.912 539.32C318.419 539.627 319.006 539.78 319.672 539.78ZM331.231 541.24C330.298 541.24 329.458 541.027 328.711 540.6C327.964 540.173 327.371 539.573 326.931 538.8C326.504 538.013 326.291 537.093 326.291 536.04C326.291 534.987 326.511 534.073 326.951 533.3C327.391 532.513 327.984 531.907 328.731 531.48C329.491 531.053 330.338 530.84 331.271 530.84C332.204 530.84 333.044 531.053 333.791 531.48C334.538 531.907 335.124 532.513 335.551 533.3C335.991 534.073 336.211 534.987 336.211 536.04C336.211 537.093 335.991 538.013 335.551 538.8C335.111 539.573 334.511 540.173 333.751 540.6C333.004 541.027 332.164 541.24 331.231 541.24ZM331.231 539.8C331.804 539.8 332.338 539.66 332.831 539.38C333.324 539.1 333.724 538.68 334.031 538.12C334.338 537.56 334.491 536.867 334.491 536.04C334.491 535.213 334.338 534.52 334.031 533.96C333.738 533.4 333.344 532.98 332.851 532.7C332.358 532.42 331.831 532.28 331.271 532.28C330.698 532.28 330.164 532.42 329.671 532.7C329.178 532.98 328.778 533.4 328.471 533.96C328.164 534.52 328.011 535.213 328.011 536.04C328.011 536.867 328.164 537.56 328.471 538.12C328.778 538.68 329.171 539.1 329.651 539.38C330.144 539.66 330.671 539.8 331.231 539.8ZM338.147 541V531.08H339.667L339.767 532.86C340.087 532.233 340.547 531.74 341.147 531.38C341.747 531.02 342.427 530.84 343.187 530.84C344.36 530.84 345.293 531.2 345.987 531.92C346.693 532.627 347.047 533.72 347.047 535.2V541H345.367V535.38C345.367 533.313 344.513 532.28 342.807 532.28C341.953 532.28 341.24 532.593 340.667 533.22C340.107 533.833 339.827 534.713 339.827 535.86V541H338.147ZM353.692 541.24C352.705 541.24 351.839 541.013 351.092 540.56C350.359 540.107 349.785 539.487 349.372 538.7C348.972 537.913 348.772 537.02 348.772 536.02C348.772 535.02 348.979 534.133 349.392 533.36C349.805 532.573 350.379 531.96 351.112 531.52C351.845 531.067 352.712 530.84 353.712 530.84C354.525 530.84 355.245 531.007 355.872 531.34C356.499 531.673 356.985 532.14 357.332 532.74V526.6H359.012V541H357.492L357.332 539.36C357.012 539.84 356.552 540.273 355.952 540.66C355.352 541.047 354.599 541.24 353.692 541.24ZM353.872 539.78C354.539 539.78 355.125 539.627 355.632 539.32C356.152 539 356.552 538.56 356.832 538C357.125 537.44 357.272 536.787 357.272 536.04C357.272 535.293 357.125 534.64 356.832 534.08C356.552 533.52 356.152 533.087 355.632 532.78C355.125 532.46 354.539 532.3 353.872 532.3C353.219 532.3 352.632 532.46 352.112 532.78C351.605 533.087 351.205 533.52 350.912 534.08C350.632 534.64 350.492 535.293 350.492 536.04C350.492 536.787 350.632 537.44 350.912 538C351.205 538.56 351.605 539 352.112 539.32C352.632 539.627 353.219 539.78 353.872 539.78ZM365.151 541.24C363.964 541.24 362.977 540.94 362.191 540.34C361.404 539.74 360.944 538.927 360.811 537.9H362.531C362.637 538.42 362.911 538.873 363.351 539.26C363.804 539.633 364.411 539.82 365.171 539.82C365.877 539.82 366.397 539.673 366.731 539.38C367.064 539.073 367.231 538.713 367.231 538.3C367.231 537.7 367.011 537.3 366.571 537.1C366.144 536.9 365.537 536.72 364.751 536.56C364.217 536.453 363.684 536.3 363.151 536.1C362.617 535.9 362.171 535.62 361.811 535.26C361.451 534.887 361.271 534.4 361.271 533.8C361.271 532.933 361.591 532.227 362.231 531.68C362.884 531.12 363.764 530.84 364.871 530.84C365.924 530.84 366.784 531.107 367.451 531.64C368.131 532.16 368.524 532.907 368.631 533.88H366.971C366.904 533.373 366.684 532.98 366.311 532.7C365.951 532.407 365.464 532.26 364.851 532.26C364.251 532.26 363.784 532.387 363.451 532.64C363.131 532.893 362.971 533.227 362.971 533.64C362.971 534.04 363.177 534.353 363.591 534.58C364.017 534.807 364.591 535 365.311 535.16C365.924 535.293 366.504 535.46 367.051 535.66C367.611 535.847 368.064 536.133 368.411 536.52C368.771 536.893 368.951 537.44 368.951 538.16C368.964 539.053 368.624 539.793 367.931 540.38C367.251 540.953 366.324 541.24 365.151 541.24Z" fill="#090C10" fill-opacity="0.4"/>
</svg>
