<svg width="251" height="44" viewBox="0 0 251 44" fill="none" xmlns="http://www.w3.org/2000/svg">
<g clip-path="url(#clip0_1496_17902)">
<path d="M69.0923 35.6339V34.925H69.3795V34.7784H68.6584V34.925H68.9456V35.6339H69.0923ZM70.504 35.6339V34.7784H70.284L70.0273 35.3895L69.7706 34.7784H69.5445V35.6339H69.7034V34.9861L69.9417 35.5423H70.1067L70.3512 34.9861V35.6339H70.504ZM109.041 29.4128V20.2461C109.041 16.7873 106.835 14.4589 103.284 14.4284C102.273 14.3636 101.263 14.571 100.359 15.0288C99.4552 15.4866 98.6905 16.1782 98.1445 17.0317C97.6454 16.2035 96.9328 15.5249 96.0812 15.0668C95.2297 14.6088 94.2706 14.3883 93.3045 14.4284C92.464 14.3884 91.6275 14.568 90.8774 14.9494C90.1273 15.3309 89.4895 15.9011 89.0267 16.6039V14.8011H85.8428V29.4311H89.0573V21.2973C89.0573 18.7612 90.4689 17.4106 92.6384 17.4106C94.8078 17.4106 95.8223 18.7917 95.8223 21.2667V29.4128H99.0367V21.2973C99.0367 18.7612 100.503 17.4106 102.618 17.4106C104.732 17.4106 105.832 18.7917 105.832 21.2667V29.4128H109.041ZM156.603 14.7828H151.403V10.34H148.188V14.7828H145.218V17.6856H148.188V24.3589C148.188 27.7567 149.502 29.7795 153.267 29.7795C154.674 29.7855 156.054 29.3913 157.245 28.6428L156.328 25.9234C155.474 26.4327 154.505 26.7165 153.511 26.7484C151.922 26.7484 151.403 25.7706 151.403 24.3039V17.6856H156.603V14.7828ZM183.755 14.41C182.979 14.3881 182.211 14.5757 181.533 14.9531C180.854 15.3306 180.29 15.884 179.899 16.555V14.7828H176.746V29.4128H179.929V21.2056C179.929 18.7917 180.968 17.4412 183.052 17.4412C183.732 17.4318 184.407 17.5564 185.038 17.8078L186.022 14.8134C185.295 14.5495 184.528 14.4131 183.755 14.41ZM142.707 15.9439C140.906 14.8723 138.836 14.3399 136.742 14.41C133.039 14.41 130.631 16.1884 130.631 19.0973C130.631 21.4806 132.403 22.9534 135.679 23.4117L137.182 23.6256C138.924 23.87 139.755 24.3284 139.755 25.1534C139.755 26.29 138.588 26.9317 136.418 26.9317C134.663 26.986 132.941 26.4479 131.53 25.4039L130.032 27.8789C131.885 29.1773 134.108 29.8438 136.37 29.7795C140.592 29.7795 143.037 27.7873 143.037 25.0006C143.037 22.4339 141.112 21.0834 137.928 20.625L136.492 20.4111C135.111 20.2278 134.011 19.9528 134.011 18.975C134.011 17.8995 135.05 17.2578 136.797 17.2578C138.4 17.2806 139.969 17.7141 141.356 18.5167L142.707 15.9439ZM227.987 14.41C227.21 14.3883 226.442 14.5759 225.762 14.9533C225.083 15.3307 224.517 15.8839 224.125 16.555V14.7828H220.978V29.4128H224.156V21.2056C224.156 18.7917 225.201 17.4412 227.278 17.4412C227.96 17.4313 228.637 17.5559 229.271 17.8078L230.248 14.8134C229.524 14.5488 228.759 14.4123 227.987 14.41ZM186.969 22.0978C186.969 26.5345 190.062 29.7795 194.773 29.7795C196.686 29.8762 198.566 29.2526 200.041 28.0317L198.507 25.465C197.407 26.3036 196.065 26.7644 194.682 26.7789C192.139 26.7484 190.276 24.9089 190.276 22.0978C190.276 19.2867 192.139 17.4411 194.682 17.4106C196.066 17.4247 197.409 17.8879 198.507 18.7306L200.041 16.1578C198.564 14.9396 196.686 14.3163 194.773 14.41C190.062 14.41 186.969 17.655 186.969 22.0978ZM216.78 22.0978V14.7645H213.602V16.5367C213.057 15.8365 212.353 15.2765 211.549 14.9034C210.744 14.5303 209.862 14.3549 208.976 14.3917C204.875 14.3917 201.642 17.6061 201.642 22.0795C201.642 26.5528 204.857 29.7612 208.976 29.7612C209.862 29.799 210.744 29.624 211.549 29.2508C212.354 28.8776 213.058 28.3171 213.602 27.6161V29.3945H216.78V22.0978ZM204.936 22.0978C204.936 19.525 206.617 17.4106 209.373 17.4106C212.007 17.4106 213.785 19.4334 213.785 22.0978C213.785 24.7623 212.007 26.7789 209.373 26.7789C206.617 26.7789 204.936 24.6645 204.936 22.0978ZM166.522 14.41C162.244 14.41 159.237 17.5328 159.237 22.0978C159.237 26.6628 162.36 29.7795 166.736 29.7795C168.92 29.8566 171.057 29.1255 172.737 27.7261L171.172 25.3673C169.959 26.3449 168.452 26.8852 166.895 26.9011C164.847 26.9011 162.977 25.9539 162.519 23.32H173.385C173.385 22.9228 173.446 22.5256 173.446 22.0978C173.415 17.5328 170.598 14.41 166.497 14.41H166.522ZM166.461 17.2578C168.514 17.2578 169.828 18.5473 170.164 20.8084H162.574C162.91 18.7 164.193 17.2578 166.461 17.2578ZM246.321 22.0978V8.90393H243.137V16.555C242.594 15.8549 241.891 15.2949 241.087 14.9218C240.283 14.5486 239.402 14.3732 238.517 14.41C234.41 14.41 231.183 17.6245 231.183 22.0978C231.183 26.5711 234.398 29.7795 238.517 29.7795C239.402 29.8174 240.284 29.6423 241.088 29.2691C241.892 28.8959 242.594 28.3353 243.137 27.6345V29.4128H246.321V22.0978ZM250.042 28.0623C250.168 28.0618 250.293 28.0867 250.409 28.1356C250.52 28.1818 250.621 28.2481 250.708 28.3311C250.795 28.4167 250.863 28.5185 250.91 28.6306C250.959 28.7443 250.984 28.8672 250.983 28.9911C250.984 29.1151 250.959 29.2378 250.91 29.3517C250.814 29.5742 250.634 29.7498 250.409 29.8406C250.294 29.8943 250.169 29.9214 250.042 29.92C249.912 29.922 249.782 29.8949 249.663 29.8406C249.552 29.7958 249.45 29.7294 249.364 29.645C249.279 29.5606 249.211 29.4611 249.162 29.3517C249.113 29.2378 249.088 29.1151 249.089 28.9911C249.088 28.8672 249.113 28.7443 249.162 28.6306C249.209 28.5185 249.278 28.4167 249.364 28.3311C249.45 28.2468 249.552 28.1803 249.663 28.1356C249.784 28.0861 249.912 28.0611 250.042 28.0623ZM250.042 29.7123C250.137 29.7129 250.23 29.6942 250.317 29.6573C250.405 29.6209 250.484 29.5668 250.55 29.4984C250.616 29.432 250.669 29.353 250.705 29.2659C250.741 29.1787 250.758 29.0853 250.757 28.9911C250.759 28.8946 250.74 28.7989 250.702 28.71C250.666 28.6239 250.614 28.5452 250.55 28.4778C250.484 28.4111 250.405 28.3591 250.317 28.325C250.23 28.2881 250.137 28.2694 250.042 28.27C249.944 28.2687 249.846 28.2874 249.755 28.325C249.668 28.3598 249.589 28.4118 249.523 28.478C249.457 28.5442 249.405 28.6231 249.37 28.71C249.332 28.7989 249.314 28.8946 249.315 28.9911C249.315 29.0875 249.334 29.183 249.37 29.2723C249.404 29.3577 249.456 29.4348 249.523 29.4984C249.588 29.5668 249.668 29.6209 249.755 29.6573C249.846 29.6948 249.944 29.7136 250.042 29.7123ZM250.091 28.5573C250.183 28.5498 250.274 28.5758 250.348 28.6306C250.378 28.6546 250.402 28.6854 250.418 28.7204C250.434 28.7555 250.441 28.7938 250.44 28.8323C250.441 28.8644 250.435 28.8964 250.422 28.9259C250.409 28.9555 250.39 28.9819 250.366 29.0034C250.313 29.0569 250.24 29.0875 250.165 29.0889L250.446 29.4189H250.226L249.963 29.095H249.877V29.4189H249.694V28.5573H250.091ZM249.877 28.7161V28.9484H250.091C250.132 28.9491 250.172 28.9386 250.207 28.9178C250.222 28.9089 250.233 28.8962 250.241 28.8811C250.248 28.866 250.252 28.8491 250.25 28.8323C250.252 28.8154 250.249 28.7982 250.242 28.7829C250.234 28.7677 250.222 28.7551 250.207 28.7467C250.172 28.726 250.132 28.7154 250.091 28.7161H249.877ZM234.471 22.0978C234.471 19.525 236.158 17.4106 238.914 17.4106C241.542 17.4106 243.32 19.4334 243.32 22.0978C243.32 24.7623 241.542 26.7789 238.914 26.7789C236.158 26.7789 234.471 24.6645 234.471 22.0978ZM126.977 22.0978V14.7645H123.793V16.5367C123.25 15.8366 122.547 15.2766 121.743 14.9035C120.939 14.5303 120.058 14.3548 119.173 14.3917C115.072 14.3917 111.84 17.6061 111.84 22.0795C111.84 26.5528 115.054 29.7612 119.173 29.7612C120.058 29.799 120.94 29.624 121.744 29.2508C122.548 28.8776 123.25 28.317 123.793 27.6161V29.3945H126.977V22.0978ZM115.133 22.0978C115.133 19.525 116.814 17.4106 119.57 17.4106C122.204 17.4106 123.976 19.4334 123.976 22.0978C123.976 24.7623 122.204 26.7789 119.57 26.7789C116.814 26.7789 115.133 24.6645 115.133 22.0978ZM33.6479 39.8812C33.819 40.0339 34.0023 40.1745 34.1795 40.3212C30.8648 42.5199 27.016 43.7788 23.0426 43.964C19.0693 44.1491 15.12 43.2536 11.6152 41.3726C8.11038 39.4917 5.18108 36.6957 3.13902 33.2822C1.09696 29.8687 0.0185547 25.9655 0.0185547 21.9878C0.0185547 18.0102 1.09696 14.1069 3.13902 10.6934C5.18108 7.27994 8.11038 4.48397 11.6152 2.60302C15.12 0.722066 19.0693 -0.173499 23.0426 0.0116543C27.016 0.196808 30.8648 1.45575 34.1795 3.65449C34.0023 3.80115 33.819 3.94171 33.6479 4.09449C31.0867 6.31684 29.0329 9.06344 27.6253 12.1484C26.2178 15.2334 25.4894 18.5847 25.4894 21.9756C25.4894 25.3665 26.2178 28.7178 27.6253 31.8028C29.0329 34.8877 31.0867 37.6343 33.6479 39.8567V39.8812ZM49.1945 3.56045e-05C44.8613 -0.00981301 40.6226 1.26626 37.0151 3.6667C37.1923 3.81337 37.3756 3.95393 37.5467 4.1067C40.1061 6.33017 42.1583 9.07713 43.5646 12.1619C44.971 15.2468 45.6988 18.5975 45.6988 21.9878C45.6988 25.3781 44.971 28.7289 43.5646 31.8137C42.1583 34.8985 40.1061 37.6454 37.5467 39.8689C37.3756 40.0217 37.1923 40.1623 37.0151 40.3089C39.8746 42.2057 43.1382 43.4073 46.545 43.8177C49.9518 44.2281 53.4073 43.8358 56.6355 42.6723C59.8636 41.5089 62.7749 39.6064 65.1365 37.117C67.4982 34.6276 69.2448 31.6202 70.2367 28.3353C71.2287 25.0504 71.4385 21.579 70.8493 18.1985C70.2602 14.818 68.8885 11.6222 66.8438 8.86648C64.7991 6.11076 62.1382 3.87154 59.0737 2.32777C56.0091 0.783997 52.6259 -0.0215288 49.1945 -0.0244141V3.56045e-05ZM35.5973 4.7117C35.3101 4.93781 35.0351 5.16392 34.7662 5.40226C32.3925 7.46736 30.4894 10.0176 29.1852 12.8808C27.881 15.7441 27.2062 18.8538 27.2062 22C27.2062 25.1463 27.881 28.256 29.1852 31.1192C30.4894 33.9825 32.3925 36.5327 34.7662 38.5978C35.0351 38.8361 35.3101 39.0623 35.5973 39.2884C35.8784 39.0623 36.1595 38.8361 36.4284 38.5978C38.8021 36.5327 40.7052 33.9825 42.0094 31.1192C43.3135 28.256 43.9884 25.1463 43.9884 22C43.9884 18.8538 43.3135 15.7441 42.0094 12.8808C40.7052 10.0176 38.8021 7.46736 36.4284 5.40226C36.1595 5.16392 35.8784 4.93781 35.5973 4.7117Z" fill="#231F20"/>
</g>
<defs>
<clipPath id="clip0_1496_17902">
<rect width="250.983" height="44" fill="white"/>
</clipPath>
</defs>
</svg>
