<svg id="Layer_1" data-name="Layer 1" xmlns="http://www.w3.org/2000/svg" xmlns:xlink="http://www.w3.org/1999/xlink" viewBox="0 0 148.92 32.51"><defs><style>.cls-1{fill:#fff;}.cls-2,.cls-3{fill:none;}.cls-3{clip-rule:evenodd;}.cls-4{clip-path:url(#clip-path);}.cls-5{clip-path:url(#clip-path-2);}.cls-6{clip-path:url(#clip-path-3);}.cls-7{clip-path:url(#clip-path-4);}.cls-8{opacity:0.6;isolation:isolate;}.cls-9{clip-path:url(#clip-path-5);}.cls-10{clip-path:url(#clip-path-6);}.cls-11{clip-path:url(#clip-path-7);}.cls-12{clip-path:url(#clip-path-8);}.cls-13{clip-path:url(#clip-path-9);}.cls-14{clip-path:url(#clip-path-10);}.cls-15{clip-path:url(#clip-path-11);}.cls-16{clip-path:url(#clip-path-12);}.cls-17{clip-path:url(#clip-path-13);}.cls-18{clip-path:url(#clip-path-14);}.cls-19{clip-path:url(#clip-path-15);}.cls-20{clip-path:url(#clip-path-16);}.cls-21{clip-path:url(#clip-path-17);}.cls-22{clip-path:url(#clip-path-18);}.cls-23{clip-path:url(#clip-path-19);}.cls-24{clip-path:url(#clip-path-20);}.cls-25{clip-path:url(#clip-path-21);}.cls-26{clip-path:url(#clip-path-22);}.cls-27{clip-path:url(#clip-path-23);}.cls-28{clip-path:url(#clip-path-24);}.cls-29{clip-path:url(#clip-path-25);}.cls-30{clip-path:url(#clip-path-26);}.cls-31{clip-path:url(#clip-path-27);}.cls-32{clip-path:url(#clip-path-28);}.cls-33{clip-path:url(#clip-path-29);}</style><clipPath id="clip-path"><path class="cls-1" d="M-181.65-27.4c.11-.91.15-1.83.35-2.73.48-2,.94-4,1.51-6a3.25,3.25,0,0,1,2.89-2.29c.83-.14,1.34.23,1.28,1.08a32.06,32.06,0,0,1-.47,3.8,36.63,36.63,0,0,0-.45,11.63,11.3,11.3,0,0,0,.91,3.12c1.85,4,7,3.63,9,.65a13.15,13.15,0,0,0,1.85-5,17.07,17.07,0,0,0,.27-6.29,36.61,36.61,0,0,0-1.11-3.84,5.45,5.45,0,0,1-.05-3.41,3.27,3.27,0,0,1,1.58-1.9,1.5,1.5,0,0,1,1.36-.21,1.47,1.47,0,0,1,.94,1,13,13,0,0,1,.84,3.12,39.07,39.07,0,0,1-.19,10.36,14.58,14.58,0,0,1-3.34,7.62,8.85,8.85,0,0,1-5.79,3l-.36.1h-1.89c-.2,0-.41-.09-.62-.11a8.36,8.36,0,0,1-7.2-5.13,13.72,13.72,0,0,1-.81-2.52c-.22-1-.31-2-.46-3.06Z"/></clipPath><clipPath id="clip-path-2"><path class="cls-1" d="M-81.27-19.92a4.63,4.63,0,0,0,3.86-2.66,2.91,2.91,0,0,0,.16-.83,2.13,2.13,0,0,0-1.21-2.11,2,2,0,0,0-2.26.74A6.24,6.24,0,0,0-81.27-19.92Zm29.59-6.83a1.08,1.08,0,0,0-.11.18A2,2,0,0,1-53.63-25a2.27,2.27,0,0,1-2.5-1.17c-.48-.9-.84-1-1.81-.61a4.65,4.65,0,0,0-2.23,2.06c-.93,1.58-1.79,3.21-2.61,4.86-.66,1.33-1.21,2.73-1.84,4.08a6.69,6.69,0,0,1-.83,1.42,1.2,1.2,0,0,1-1,.54,1.2,1.2,0,0,1-1-.62,10.29,10.29,0,0,1-1-2.32c-.38-1.31-.66-2.66-1-4a1.76,1.76,0,0,0-.16-.45l-.3.58a13.93,13.93,0,0,1-4.29,5.22,8,8,0,0,1-6,1.46,4.82,4.82,0,0,1-4.42-4.36,9.82,9.82,0,0,1,1.91-7.81,5.94,5.94,0,0,1,4.07-2.44,4.5,4.5,0,0,1,4.7,4.5A4.23,4.23,0,0,1-76-20.26a32.42,32.42,0,0,1-3.1,1.46c-.31.14-.64.25-.94.4-.46.25-.53.61-.17,1a2.2,2.2,0,0,0,.83.52,4.8,4.8,0,0,0,4.62-.68,10,10,0,0,0,3.23-3.91c.66-1.37,1.12-2.84,1.67-4.26a14.19,14.19,0,0,1,.59-1.45,2,2,0,0,1,.57-.63c.7-.53,1.21-.38,1.39.48.24,1.2.37,2.42.57,3.63.17,1,.34,2,.57,3,.11.45.3,1,.84,1s.61-.54.78-.91c.64-1.37,1.19-2.78,1.85-4.17a11.23,11.23,0,0,1,3.07-4A6.25,6.25,0,0,1-55-30.16a3.49,3.49,0,0,1,3.34,2.57Z"/></clipPath><clipPath id="clip-path-3"><path class="cls-1" d="M-111.93-22a4.91,4.91,0,0,0,.66,2.51.51.51,0,0,0,.32.32.55.55,0,0,0,.45-.06,4,4,0,0,0,2.11-4.94,1.45,1.45,0,0,0-2.6-.62,3.41,3.41,0,0,0-.94,2.77Zm-7.33-10.84a8.69,8.69,0,0,0,0-1.25,8.31,8.31,0,0,0-.5-2.08,1.13,1.13,0,0,0-1-.72,1.14,1.14,0,0,0-1.06.67,5.39,5.39,0,0,0-.56,1.41,26.74,26.74,0,0,0-.25,9.77,4,4,0,0,0,.36,1.17c.25.5.6.51.91.07a4.79,4.79,0,0,0,.52-.94A21.47,21.47,0,0,0-119.26-32.86Zm9.37,15.17a3.73,3.73,0,0,0,3.52.75,6.93,6.93,0,0,0,4-3.19,31,31,0,0,0,3-6.62,6.15,6.15,0,0,1,.83-1.56c.59-.74,1.33-.67,1.67.2.49,1.25.84,2.56,1.25,3.85.44,1.47.83,2.94,1.31,4.4A8,8,0,0,0-93.45-18c.83,1.35,1.94,1.33,2.75-.07a6.55,6.55,0,0,0,.75-5.06,7.76,7.76,0,0,1,0-4.22,3.77,3.77,0,0,1,1.4-2.07c1.24-.83,2.46-.43,2.58,1.06a14.81,14.81,0,0,1-.24,3.7,17.76,17.76,0,0,1-2.91,7.16,16.54,16.54,0,0,1-2.43,2.59A4.15,4.15,0,0,1-94-14a2.72,2.72,0,0,1-2.74-1.38A23.19,23.19,0,0,1-98-18.1c-.25-.62-.4-1.28-.67-1.88s-.67-.69-1.15-.24-.83.92-1.23,1.36A35.87,35.87,0,0,1-103.84-16a9.53,9.53,0,0,1-6,2.16,4.58,4.58,0,0,1-3.41-1.36,1.42,1.42,0,0,1-.26-.38c-1.09.49-2,1-3,1.32a5,5,0,0,1-5.6-1.29,12,12,0,0,0-.92-.84,1.12,1.12,0,0,0-1.48-.12c-.55.36-1.07.74-1.61,1.11A8.4,8.4,0,0,1-131-13.86a3.35,3.35,0,0,1-2.81-1.25,22.64,22.64,0,0,1-1.67-2.46c-.84-1.37-1.25-1.4-2.21-.08-.54.74-1,1.52-1.57,2.26a7.21,7.21,0,0,1-1,1.08,1.46,1.46,0,0,1-1,.47,1.46,1.46,0,0,1-1.06-.42,5.88,5.88,0,0,1-1.3-1.67c-.6-1.11-1.07-2.28-1.63-3.41a14.11,14.11,0,0,0-1.1-2,1.58,1.58,0,0,0-1.14-.86,1.58,1.58,0,0,0-1.36.4,35.48,35.48,0,0,0-3.08,2.51c-1.44,1.26-2.82,2.59-4.25,3.86a15.61,15.61,0,0,1-1.75,1.27,1.07,1.07,0,0,1-1.27,0,1.09,1.09,0,0,1-.4-1.21c.31-1.29.66-2.58,1-3.87.56-2.09,1.11-4.18,1.67-6.27a2.25,2.25,0,0,1,1.3-1.67c.6-.25.84-.12,1,.51a30.65,30.65,0,0,0,.83,3.09c.48,1.47.89,1.53,1.85.33s1.67-2.19,2.51-3.26a16.65,16.65,0,0,1,1.75-1.91c1-.95,1.84-.84,2.44.44.51,1.1.83,2.29,1.27,3.44s.7,2.37,1.2,3.51a7.06,7.06,0,0,0,1.17,1.91,1.52,1.52,0,0,0,1.19.59,1.49,1.49,0,0,0,1.19-.59,5.63,5.63,0,0,0,1.67-3.34,22.06,22.06,0,0,1,.78-3.78,3.53,3.53,0,0,1,1-1.48,1.4,1.4,0,0,1,1.34-.5,1.4,1.4,0,0,1,1.08.94,6.54,6.54,0,0,1,.42,3.66,9,9,0,0,1-.27,1.45,4,4,0,0,0,3.54,5.05A5.06,5.06,0,0,0-125-19.67a.88.88,0,0,0,0-.64,24.44,24.44,0,0,1-.12-16.13,25.28,25.28,0,0,1,1.54-3.08,4,4,0,0,1,.37-.54,3.08,3.08,0,0,1,5.13.25,6.8,6.8,0,0,1,1.2,3.48,24.45,24.45,0,0,1-2.91,14.42,18.5,18.5,0,0,0-.83,1.67.79.79,0,0,0-.09.6c.5,1.43,2.82,3.49,4.81,3.11l.27,0c1-.25,1.07-.39,1-1.41a11.31,11.31,0,0,1,3.06-9.47A4.5,4.5,0,0,1-109-28.91a2.71,2.71,0,0,1,2.67,1.09c1.45,1.78,2.42,4.84-.17,7.39a37.21,37.21,0,0,1-3,2.46Z"/></clipPath><clipPath id="clip-path-4"><path class="cls-1" d="M-136.28-37.22a3.12,3.12,0,0,1,.89-2.3,2.36,2.36,0,0,1,2.73-.55,2.05,2.05,0,0,1,1.23,2.26,5.19,5.19,0,0,1-.63,1.86,2.31,2.31,0,0,1-2.73,1.11A2.26,2.26,0,0,1-136.28-37.22Z"/></clipPath><clipPath id="clip-path-5"><rect class="cls-2" x="2.16" y="1.06" width="28.83" height="29.82"/></clipPath><clipPath id="clip-path-6"><path class="cls-2" d="M13.2,3.64c-3,0-5.24.65-6.72,2C4,7.87,3.75,11.84,3.75,16.41c0,4.17.66,6.74,2.21,8.61,1.88,2.27,5.3,3.57,10.44,4,3.73.3,6.71-.55,8.85-2.53,2.37-2.18,3.67-5.75,3.67-10.06h0c0-3.57,0-6.39-1.52-8.4-1.64-2.2-5.09-3.49-11.16-4.18A25.67,25.67,0,0,0,13.2,3.64Zm4.63,27c-.51,0-1,0-1.56-.07C10.61,30.1,7,28.65,4.77,26s-2.58-6.38-2.58-9.6c0-4.95.25-9.27,3.25-11.95,2.3-2,5.89-2.76,11-2.18C23,3,26.72,4.51,28.65,7.07s1.82,5.63,1.82,9.34h0c0,4.75-1.48,8.72-4.16,11.2A12,12,0,0,1,17.83,30.62Z"/></clipPath><clipPath id="clip-path-7"><rect class="cls-2" x="2.16" y="1.06" width="29.82" height="30.81"/></clipPath><clipPath id="clip-path-8"><path class="cls-3" d="M15.44,16.06l8-1.85s1.41,7.57.54,9.14c-1,1.84-5.87,2.07-8,2.07-5.52,0-8.79-3.45-8.79-8.7,0-3.94.92-8.56,8.06-9.23a23.32,23.32,0,0,1,5.56.23,19.55,19.55,0,0,1,2.3.55s-.58,2.79-1.94,2.59a23.33,23.33,0,0,0-5.46-.33c-5.16.41-5.39,3.28-5.39,6.19,0,3.59,2.3,5.64,5.73,5.64,1.3,0,4.4-.06,4.88-.79S20.46,18,20.46,18l-4.32-.18Z"/></clipPath><clipPath id="clip-path-9"><path class="cls-2" d="M13,2.67c-3.26,0-5.65.7-7.25,2.13C3,7.23,2.79,11.5,2.79,16.42c0,4.47.71,7.24,2.38,9.26,2,2.44,5.7,3.84,11.23,4.29,4,.32,7.22-.6,9.53-2.73,2.55-2.35,3.95-6.19,3.95-10.82h0c0-3.83,0-6.86-1.63-9-1.78-2.37-5.48-3.75-12-4.5A27.47,27.47,0,0,0,13,2.67Zm4.95,28.92c-.54,0-1.09,0-1.66-.07-6-.49-9.95-2-12.29-4.84S1.23,19.85,1.23,16.42c0-5.3.26-9.92,3.46-12.78C7.14,1.46,11,.7,16.42,1.32c7,.8,11,2.38,13.07,5.12,2,2.59,2,6,2,10h0c0,5.07-1.58,9.32-4.45,12A12.88,12.88,0,0,1,17.93,31.59Z"/></clipPath><clipPath id="clip-path-10"><path class="cls-3" d="M54.05,16l4.51-.66.35,4.46a6.6,6.6,0,0,1-4.3,1.74C51,21.52,49,19.35,49,16.06a5.19,5.19,0,0,1,5.36-5.46,5.25,5.25,0,0,1,3.45,1.1s-.69,1.5-1.2,1.58-1.15-.41-2-.41a2.88,2.88,0,0,0-3.07,3.19,3,3,0,0,0,3.12,3.2c.63,0,1.65-.06,1.78-.37a4.2,4.2,0,0,0-.12-1.3l-1.89-.19Z"/></clipPath><clipPath id="clip-path-11"><polygon class="cls-3" points="65.8 17.04 65.8 21.34 63.38 21.34 63.38 17.04 59.67 10.78 62.43 10.78 64.7 14.78 66.93 10.78 69.54 10.78 65.8 17.04"/></clipPath><clipPath id="clip-path-12"><polygon class="cls-3" points="71.62 10.78 74.05 10.78 77.31 15.23 80.38 10.78 82.66 10.78 82.66 21.34 80.25 21.34 80.25 14.62 77.31 18.73 76.96 18.73 74.03 14.66 74.03 21.34 71.62 21.34 71.62 10.78 71.62 10.78"/></clipPath><clipPath id="clip-path-13"><polygon class="cls-3" points="95.12 22.11 88.18 15.69 88.18 21.34 85.92 21.34 85.92 9.84 92.86 16.71 92.86 10.78 95.12 10.78 95.12 22.11"/></clipPath><clipPath id="clip-path-14"><path class="cls-2" d="M101.41,16.86h2.37l-1.18-3Zm.18-6.08h2.16l4.39,10.56h-2.58l-.88-2.21h-4.17l-.88,2.21H97.2Z"/></clipPath><clipPath id="clip-path-15"><path class="cls-3" d="M109.87,13.65a3.14,3.14,0,0,1,3.41-3.05,4.21,4.21,0,0,1,3.11,1.16l-1.3,1.81a2,2,0,0,0-1.59-.7c-.67,0-1.06.3-1.06.78,0,1.75,4.4,1.33,4.4,4.77,0,1.84-1.58,3.1-3.62,3.1-1.41,0-3.06-.6-3.57-1.73L111,18.15a3,3,0,0,0,2.26,1.11c.64,0,1-.32,1-.81C114.28,16.86,109.87,17.06,109.87,13.65Z"/></clipPath><clipPath id="clip-path-16"><rect class="cls-2" x="119.5" y="10.78" width="2.41" height="10.56"/></clipPath><clipPath id="clip-path-17"><path class="cls-3" d="M134.08,17c0,3.23-2.05,4.54-4.31,4.54-2.72,0-4.6-1.55-4.6-4.64v-6.1h2.41v5.59c0,1.64.5,2.89,2.19,2.89,1.46,0,1.9-1.07,1.9-2.76V10.78h2.41Z"/></clipPath><clipPath id="clip-path-18"><polygon class="cls-3" points="137.19 10.78 139.62 10.78 142.88 15.23 145.95 10.78 148.23 10.78 148.23 21.34 145.82 21.34 145.82 14.62 142.88 18.73 142.53 18.73 139.6 14.66 139.6 21.34 137.19 21.34 137.19 10.78 137.19 10.78"/></clipPath><clipPath id="clip-path-19"><path class="cls-2" d="M231.4,1.26h-4.2v-5.7h4.2a2.79,2.79,0,0,1,3,2.8A2.71,2.71,0,0,1,231.4,1.26Zm.5-8.4h-7.8v17.9h3.1V4.06h4.7a5.46,5.46,0,0,0,5.8-5.6A5.46,5.46,0,0,0,231.9-7.14Z"/></clipPath><clipPath id="clip-path-20"><path class="cls-2" d="M245.8,8.56c-2.4,0-3.7-2-3.7-4.3S243.4,0,245.8,0s3.7,2,3.7,4.3S248.2,8.56,245.8,8.56Zm0-11.1a6.46,6.46,0,0,0-6.6,6.8,6.6,6.6,0,1,0,13.2,0A6.46,6.46,0,0,0,245.8-2.54Z"/></clipPath><clipPath id="clip-path-21"><path class="cls-2" d="M281.9-.24A3.46,3.46,0,0,1,285.5,3h-7.2A3.53,3.53,0,0,1,281.9-.24Zm0-2.3a6.5,6.5,0,0,0-6.5,6.8,6.49,6.49,0,0,0,6.7,6.8,7.26,7.26,0,0,0,5.2-1.9L286,7.26a5.43,5.43,0,0,1-3.6,1.4,3.91,3.91,0,0,1-4.1-3.6h9.9v-.7C288.2.46,285.7-2.54,281.9-2.54Z"/></clipPath><clipPath id="clip-path-22"><path class="cls-2" d="M294-.44v-1.8h-2.8v13H294V2.56c1-2.3,3.9-2.6,4.7-2.5v-2.7A6.36,6.36,0,0,0,294-.44Z"/></clipPath><clipPath id="clip-path-23"><path class="cls-2" d="M309.4,1.26h-4.3v-5.7h4.2a2.79,2.79,0,0,1,3,2.8A2.68,2.68,0,0,1,309.4,1.26Zm.4-8.4H302v17.9h3.1V4.06h4.7a5.46,5.46,0,0,0,5.8-5.6A5.41,5.41,0,0,0,309.8-7.14Z"/></clipPath><clipPath id="clip-path-24"><path class="cls-2" d="M329.7-7.54a1.75,1.75,0,0,0-1.7,1.7,1.69,1.69,0,0,0,1.7,1.7,1.69,1.69,0,0,0,1.7-1.7A1.63,1.63,0,0,0,329.7-7.54Z"/></clipPath><clipPath id="clip-path-25"><polygon class="cls-2" points="328.39 10.76 331.19 10.76 331.19 -2.25 328.39 -0.84 328.39 10.76"/></clipPath><clipPath id="clip-path-26"><path class="cls-2" d="M340.9,0a3.39,3.39,0,0,1,2.9,1.5l1.8-1.7a5.78,5.78,0,0,0-4.9-2.3,6.46,6.46,0,0,0-6.6,6.8,6.46,6.46,0,0,0,6.6,6.8,5.78,5.78,0,0,0,4.9-2.3l-1.8-1.7a3.39,3.39,0,0,1-2.9,1.5c-2.3,0-3.9-1.8-3.9-4.3S338.6,0,340.9,0Z"/></clipPath><clipPath id="clip-path-27"><path class="cls-2" d="M353.8-.24A3.46,3.46,0,0,1,357.4,3h-7.2A3.53,3.53,0,0,1,353.8-.24Zm6.3,4.7c0-4.1-2.5-7.1-6.3-7.1a6.5,6.5,0,0,0-6.5,6.8A6.49,6.49,0,0,0,354,11a7.26,7.26,0,0,0,5.2-1.9l-1.3-1.9a5.43,5.43,0,0,1-3.6,1.4A3.91,3.91,0,0,1,350.2,5h9.9Z"/></clipPath><clipPath id="clip-path-28"><path class="cls-2" d="M320.9-.44v-1.8h-2.8v13h2.8V2.56c1-2.3,3.9-2.6,4.7-2.5v-2.7A6.36,6.36,0,0,0,320.9-.44Z"/></clipPath><clipPath id="clip-path-29"><polygon class="cls-2" points="272 -7.25 268 6.05 265 -3.65 261.8 -2.04 259.3 6.25 257.39 0.15 254.9 1.46 257.69 10.55 260.8 10.55 263.6 1.46 266.39 10.55 269.39 10.55 275.39 -8.95 272 -7.25"/></clipPath></defs><title>gym</title><path class="cls-1" d="M-181.65-27.4c.11-.91.15-1.83.35-2.73.48-2,.94-4,1.51-6a3.25,3.25,0,0,1,2.89-2.29c.83-.14,1.34.23,1.28,1.08a32.06,32.06,0,0,1-.47,3.8,36.63,36.63,0,0,0-.45,11.63,11.3,11.3,0,0,0,.91,3.12c1.85,4,7,3.63,9,.65a13.15,13.15,0,0,0,1.85-5,17.07,17.07,0,0,0,.27-6.29,36.61,36.61,0,0,0-1.11-3.84,5.45,5.45,0,0,1-.05-3.41,3.27,3.27,0,0,1,1.58-1.9,1.5,1.5,0,0,1,1.36-.21,1.47,1.47,0,0,1,.94,1,13,13,0,0,1,.84,3.12,39.07,39.07,0,0,1-.19,10.36,14.58,14.58,0,0,1-3.34,7.62,8.85,8.85,0,0,1-5.79,3l-.36.1h-1.89c-.2,0-.41-.09-.62-.11a8.36,8.36,0,0,1-7.2-5.13,13.72,13.72,0,0,1-.81-2.52c-.22-1-.31-2-.46-3.06Z"/><g class="cls-4"><rect class="cls-1" x="-543.39" y="-992.79" width="1945.48" height="1094.33"/></g><path class="cls-1" d="M-81.27-19.92a4.63,4.63,0,0,0,3.86-2.66,2.91,2.91,0,0,0,.16-.83,2.13,2.13,0,0,0-1.21-2.11,2,2,0,0,0-2.26.74A6.24,6.24,0,0,0-81.27-19.92Zm29.59-6.83a1.08,1.08,0,0,0-.11.18A2,2,0,0,1-53.63-25a2.27,2.27,0,0,1-2.5-1.17c-.48-.9-.84-1-1.81-.61a4.65,4.65,0,0,0-2.23,2.06c-.93,1.58-1.79,3.21-2.61,4.86-.66,1.33-1.21,2.73-1.84,4.08a6.69,6.69,0,0,1-.83,1.42,1.2,1.2,0,0,1-1,.54,1.2,1.2,0,0,1-1-.62,10.29,10.29,0,0,1-1-2.32c-.38-1.31-.66-2.66-1-4a1.76,1.76,0,0,0-.16-.45l-.3.58a13.93,13.93,0,0,1-4.29,5.22,8,8,0,0,1-6,1.46,4.82,4.82,0,0,1-4.42-4.36,9.82,9.82,0,0,1,1.91-7.81,5.94,5.94,0,0,1,4.07-2.44,4.5,4.5,0,0,1,4.7,4.5A4.23,4.23,0,0,1-76-20.26a32.42,32.42,0,0,1-3.1,1.46c-.31.14-.64.25-.94.4-.46.25-.53.61-.17,1a2.2,2.2,0,0,0,.83.52,4.8,4.8,0,0,0,4.62-.68,10,10,0,0,0,3.23-3.91c.66-1.37,1.12-2.84,1.67-4.26a14.19,14.19,0,0,1,.59-1.45,2,2,0,0,1,.57-.63c.7-.53,1.21-.38,1.39.48.24,1.2.37,2.42.57,3.63.17,1,.34,2,.57,3,.11.45.3,1,.84,1s.61-.54.78-.91c.64-1.37,1.19-2.78,1.85-4.17a11.23,11.23,0,0,1,3.07-4A6.25,6.25,0,0,1-55-30.16a3.49,3.49,0,0,1,3.34,2.57Z"/><g class="cls-5"><rect class="cls-1" x="-543.39" y="-992.79" width="1945.48" height="1094.33"/></g><path class="cls-1" d="M-111.93-22a4.91,4.91,0,0,0,.66,2.51.51.51,0,0,0,.32.32.55.55,0,0,0,.45-.06,4,4,0,0,0,2.11-4.94,1.45,1.45,0,0,0-2.6-.62,3.41,3.41,0,0,0-.94,2.77Zm-7.33-10.84a8.69,8.69,0,0,0,0-1.25,8.31,8.31,0,0,0-.5-2.08,1.13,1.13,0,0,0-1-.72,1.14,1.14,0,0,0-1.06.67,5.39,5.39,0,0,0-.56,1.41,26.74,26.74,0,0,0-.25,9.77,4,4,0,0,0,.36,1.17c.25.5.6.51.91.07a4.79,4.79,0,0,0,.52-.94A21.47,21.47,0,0,0-119.26-32.86Zm9.37,15.17a3.73,3.73,0,0,0,3.52.75,6.93,6.93,0,0,0,4-3.19,31,31,0,0,0,3-6.62,6.15,6.15,0,0,1,.83-1.56c.59-.74,1.33-.67,1.67.2.49,1.25.84,2.56,1.25,3.85.44,1.47.83,2.94,1.31,4.4A8,8,0,0,0-93.45-18c.83,1.35,1.94,1.33,2.75-.07a6.55,6.55,0,0,0,.75-5.06,7.76,7.76,0,0,1,0-4.22,3.77,3.77,0,0,1,1.4-2.07c1.24-.83,2.46-.43,2.58,1.06a14.81,14.81,0,0,1-.24,3.7,17.76,17.76,0,0,1-2.91,7.16,16.54,16.54,0,0,1-2.43,2.59A4.15,4.15,0,0,1-94-14a2.72,2.72,0,0,1-2.74-1.38A23.19,23.19,0,0,1-98-18.1c-.25-.62-.4-1.28-.67-1.88s-.67-.69-1.15-.24-.83.92-1.23,1.36A35.87,35.87,0,0,1-103.84-16a9.53,9.53,0,0,1-6,2.16,4.58,4.58,0,0,1-3.41-1.36,1.42,1.42,0,0,1-.26-.38c-1.09.49-2,1-3,1.32a5,5,0,0,1-5.6-1.29,12,12,0,0,0-.92-.84,1.12,1.12,0,0,0-1.48-.12c-.55.36-1.07.74-1.61,1.11A8.4,8.4,0,0,1-131-13.86a3.35,3.35,0,0,1-2.81-1.25,22.64,22.64,0,0,1-1.67-2.46c-.84-1.37-1.25-1.4-2.21-.08-.54.74-1,1.52-1.57,2.26a7.21,7.21,0,0,1-1,1.08,1.46,1.46,0,0,1-1,.47,1.46,1.46,0,0,1-1.06-.42,5.88,5.88,0,0,1-1.3-1.67c-.6-1.11-1.07-2.28-1.63-3.41a14.11,14.11,0,0,0-1.1-2,1.58,1.58,0,0,0-1.14-.86,1.58,1.58,0,0,0-1.36.4,35.48,35.48,0,0,0-3.08,2.51c-1.44,1.26-2.82,2.59-4.25,3.86a15.61,15.61,0,0,1-1.75,1.27,1.07,1.07,0,0,1-1.27,0,1.09,1.09,0,0,1-.4-1.21c.31-1.29.66-2.58,1-3.87.56-2.09,1.11-4.18,1.67-6.27a2.25,2.25,0,0,1,1.3-1.67c.6-.25.84-.12,1,.51a30.65,30.65,0,0,0,.83,3.09c.48,1.47.89,1.53,1.85.33s1.67-2.19,2.51-3.26a16.65,16.65,0,0,1,1.75-1.91c1-.95,1.84-.84,2.44.44.51,1.1.83,2.29,1.27,3.44s.7,2.37,1.2,3.51a7.06,7.06,0,0,0,1.17,1.91,1.52,1.52,0,0,0,1.19.59,1.49,1.49,0,0,0,1.19-.59,5.63,5.63,0,0,0,1.67-3.34,22.06,22.06,0,0,1,.78-3.78,3.53,3.53,0,0,1,1-1.48,1.4,1.4,0,0,1,1.34-.5,1.4,1.4,0,0,1,1.08.94,6.54,6.54,0,0,1,.42,3.66,9,9,0,0,1-.27,1.45,4,4,0,0,0,3.54,5.05A5.06,5.06,0,0,0-125-19.67a.88.88,0,0,0,0-.64,24.44,24.44,0,0,1-.12-16.13,25.28,25.28,0,0,1,1.54-3.08,4,4,0,0,1,.37-.54,3.08,3.08,0,0,1,5.13.25,6.8,6.8,0,0,1,1.2,3.48,24.45,24.45,0,0,1-2.91,14.42,18.5,18.5,0,0,0-.83,1.67.79.79,0,0,0-.09.6c.5,1.43,2.82,3.49,4.81,3.11l.27,0c1-.25,1.07-.39,1-1.41a11.31,11.31,0,0,1,3.06-9.47A4.5,4.5,0,0,1-109-28.91a2.71,2.71,0,0,1,2.67,1.09c1.45,1.78,2.42,4.84-.17,7.39a37.21,37.21,0,0,1-3,2.46Z"/><g class="cls-6"><rect class="cls-1" x="-543.39" y="-992.79" width="1945.48" height="1094.33"/></g><path class="cls-1" d="M-136.28-37.22a3.12,3.12,0,0,1,.89-2.3,2.36,2.36,0,0,1,2.73-.55,2.05,2.05,0,0,1,1.23,2.26,5.19,5.19,0,0,1-.63,1.86,2.31,2.31,0,0,1-2.73,1.11A2.26,2.26,0,0,1-136.28-37.22Z"/><g class="cls-7"><rect class="cls-1" x="-543.39" y="-992.79" width="1945.48" height="1094.33"/></g><g class="cls-8"><g class="cls-9"><g class="cls-10"><g class="cls-11"><rect class="cls-1" x="-2.78" y="-2.89" width="38.22" height="38.47"/></g></g></g></g><g class="cls-12"><rect class="cls-1" x="2.21" y="2.44" width="26.99" height="27.94"/></g><g class="cls-13"><rect class="cls-1" x="-3.74" y="-3.86" width="40.15" height="40.42"/></g><g class="cls-14"><rect class="cls-1" x="43.98" y="5.63" width="19.9" height="20.86"/></g><g class="cls-15"><rect class="cls-1" x="54.7" y="5.81" width="19.81" height="20.5"/></g><g class="cls-16"><rect class="cls-1" x="66.65" y="5.81" width="20.98" height="20.5"/></g><g class="cls-17"><rect class="cls-1" x="80.95" y="4.87" width="19.14" height="22.21"/></g><g class="cls-18"><rect class="cls-1" x="92.23" y="5.81" width="20.88" height="20.5"/></g><g class="cls-19"><rect class="cls-1" x="104.68" y="5.63" width="17.14" height="20.86"/></g><g class="cls-20"><rect class="cls-1" x="114.53" y="5.81" width="12.35" height="20.5"/></g><g class="cls-21"><rect class="cls-1" x="120.2" y="5.81" width="18.86" height="20.68"/></g><g class="cls-22"><rect class="cls-1" x="132.22" y="5.81" width="20.98" height="20.5"/></g></svg>