<svg id="Layer_1" data-name="Layer 1" xmlns="http://www.w3.org/2000/svg" xmlns:xlink="http://www.w3.org/1999/xlink" viewBox="0 0 109 41.09"><defs><style>.cls-1{fill:#fff;}.cls-2{fill:none;}.cls-3{clip-path:url(#clip-path);}.cls-4{clip-path:url(#clip-path-2);}.cls-5{clip-path:url(#clip-path-3);}.cls-6{clip-path:url(#clip-path-4);}.cls-7{clip-path:url(#clip-path-5);}.cls-8{clip-path:url(#clip-path-6);}.cls-9{clip-path:url(#clip-path-7);}.cls-10{clip-path:url(#clip-path-8);}.cls-11{clip-path:url(#clip-path-9);}.cls-12{clip-path:url(#clip-path-10);}.cls-13{clip-path:url(#clip-path-11);}.cls-14{clip-path:url(#clip-path-12);}.cls-15{clip-path:url(#clip-path-13);}.cls-16{clip-path:url(#clip-path-14);}.cls-17{clip-path:url(#clip-path-15);}.cls-18{clip-path:url(#clip-path-16);}.cls-19{clip-path:url(#clip-path-17);}.cls-20{clip-path:url(#clip-path-18);}.cls-21{clip-path:url(#clip-path-19);}.cls-22{clip-path:url(#clip-path-20);}.cls-23{clip-path:url(#clip-path-21);}.cls-24{clip-path:url(#clip-path-22);}.cls-25{clip-path:url(#clip-path-23);}.cls-26{clip-path:url(#clip-path-24);}.cls-27{clip-path:url(#clip-path-25);}.cls-28{clip-path:url(#clip-path-26);}.cls-29{clip-path:url(#clip-path-27);}.cls-30{clip-path:url(#clip-path-28);}.cls-31{clip-path:url(#clip-path-29);}.cls-32{clip-path:url(#clip-path-30);}.cls-33{clip-path:url(#clip-path-31);}</style><clipPath id="clip-path"><path class="cls-1" d="M207.61,35.73A12.19,12.19,0,1,1,219.8,23.55,12.18,12.18,0,0,1,207.61,35.73Zm0-25.92a13.74,13.74,0,1,0,13.74,13.74A13.74,13.74,0,0,0,207.61,9.81Z"/></clipPath><clipPath id="clip-path-2"><path class="cls-1" d="M212.17,26.18a.69.69,0,0,1-.94.25l-1.68-1v-.79l.69-.4,1.68,1A.7.7,0,0,1,212.17,26.18ZM208.4,24l-.79.46-.79-.46v-.91l.79-.45.79.45Zm-1.47-5a.68.68,0,0,1,.68-.68.69.69,0,0,1,.69.68v1.94l-.69.39-.68-.39Zm-1.26,6.49-1.68,1a.68.68,0,0,1-.93-.25.69.69,0,0,1,.25-.94l1.67-1,.69.4v.79Zm11.93,3.62-2-2.33a.22.22,0,0,0-.09-.07.33.33,0,0,0-.32,0,1.06,1.06,0,0,1-1,0,1.08,1.08,0,0,1-.52-.73h0a2.7,2.7,0,0,0-1.3-1.84l-.89-.51,5.08-2.93L216,19.53l-5.71,3.29-.68-.39v-.79l5.7-3.3-.63-1.09-5.07,2.93v-1a2.7,2.7,0,0,0-.95-2,1.06,1.06,0,0,1,.09-1.68.33.33,0,0,0,.15-.28.36.36,0,0,0,0-.11l-1-2.89a.2.2,0,0,0-.2-.15.21.21,0,0,0-.2.15l-1,2.89a.36.36,0,0,0,0,.11.33.33,0,0,0,.15.28h0a1.07,1.07,0,0,1,.46.88,1,1,0,0,1-.37.8,2.69,2.69,0,0,0-.94,2v1l-5.08-2.93L200,18.34l5.71,3.3v.79l-.69.39-5.7-3.29-.63,1.09,5.08,2.93-.9.51a2.7,2.7,0,0,0-1.3,1.84,1,1,0,0,1-.51.73,1.08,1.08,0,0,1-1,0,.33.33,0,0,0-.32,0l-.09.07-2,2.33a.23.23,0,0,0,0,.25.21.21,0,0,0,.23.1l3-.57a.35.35,0,0,0,.11,0,.37.37,0,0,0,.17-.28,1.06,1.06,0,0,1,1.41-.91,2.71,2.71,0,0,0,2.25-.21l.89-.52v5.87h1.26V26.19l.68-.4.69.4v6.59h1.26V26.91l.89.52a2.69,2.69,0,0,0,2.24.21,1.07,1.07,0,0,1,1.42.91.32.32,0,0,0,.17.28l.1,0,3,.57a.21.21,0,0,0,.22-.1A.23.23,0,0,0,217.6,29.08Z"/></clipPath><clipPath id="clip-path-3"><polygon class="cls-1" points="298.09 20.43 293.55 20.43 293.55 11.45 289.4 11.45 289.4 34.89 293.55 34.89 293.55 24.59 298.09 24.59 298.09 34.89 302.33 34.89 302.33 11.45 298.09 11.45 298.09 20.43"/></clipPath><clipPath id="clip-path-4"><polygon class="cls-1" points="224.13 11.45 228.74 25.82 228.74 34.89 233.34 34.89 233.34 25.35 238.12 11.45 234.24 11.45 231.11 20.58 228.27 11.45 224.13 11.45"/></clipPath><clipPath id="clip-path-5"><polygon class="cls-1" points="264.14 11.45 262.15 22.6 259.85 11.45 253.37 11.45 253.37 34.89 257.09 34.89 257.09 17.22 260.25 32.58 263.72 32.58 266.53 16.97 266.53 34.89 270.89 34.89 270.89 11.45 264.14 11.45"/></clipPath><clipPath id="clip-path-6"><path class="cls-1" d="M309.64,25.53,311.4,15l1.72,10.49ZM315,11.45h-6.42l-4.33,23.44h3.84l.92-5.46h4.77l.9,5.46h4.22Z"/></clipPath><clipPath id="clip-path-7"><path class="cls-1" d="M278.2,25.53,280,15l1.72,10.49Zm-1.09-14.08-4.33,23.44h3.84l.92-5.46h4.78l.89,5.46h4.23l-3.91-23.44Z"/></clipPath><clipPath id="clip-path-8"><path class="cls-1" d="M242.17,25.53,243.94,15l1.71,10.49Zm-1.09-14.08-4.33,23.44h3.84l.92-5.46h4.78l.89,5.46h4.23L247.5,11.45Z"/></clipPath><clipPath id="clip-path-9"><path class="cls-1" d="M420,7,411,17.59l9.69,11.79h-7.56l-7.35-9.51-.18-.22v9.72h-5.82V7h5.8v9.26l.22-.26,6.86-9H420Z"/></clipPath><clipPath id="clip-path-10"><path class="cls-1" d="M442.19,21H447l-2.39-7.15Zm14,8.37H450l-1.14-3.05c-.08-.21-.17-.42-.23-.64a.26.26,0,0,0-.29-.2h-7.57a.26.26,0,0,0-.29.2c-.46,1.18-.93,2.34-1.39,3.52l-.07.16h-5.95a1.58,1.58,0,0,1-.23,0,1.68,1.68,0,0,1,.07-.24l8.42-21.93.1-.24h6.37l.09.22,8.25,22Z"/></clipPath><clipPath id="clip-path-11"><path class="cls-1" d="M463.92,23.66l7.22-17.87c2.41,6,4.81,11.94,7.23,17.94l.53-1.47c1.75-5,5.26-15,5.26-15l.08-.24H487c-2.87,7.87-5.72,15.7-8.59,23.6l-7.24-18-7.25,18L455.31,7H458s0,.13.07.21q1.54,4.47,3.12,8.92c.86,2.46,1.72,4.91,2.57,7.37a1.07,1.07,0,0,1,.07.19Z"/></clipPath><clipPath id="clip-path-12"><rect class="cls-1" x="423.77" y="6.99" width="5.8" height="22.39"/></clipPath><clipPath id="clip-path-13"><path class="cls-1" d="M492.48,20.68H500l-3.71-8.9Zm3.86-14.79,10.07,23.49h-.22c-.79,0-1.57,0-2.36,0h-.21l-.08-.2c-.81-2-1.63-3.92-2.44-5.89a.36.36,0,0,0-.39-.27h-9a.31.31,0,0,0-.35.23l-2.52,5.94-.09.19H486Z"/></clipPath><clipPath id="clip-path-14"><path class="cls-1" d="M549.82,7c0,.08-.06.14-.09.21l-10.25,22-.09.19H535l.11-.21,10.26-22,.09-.19h4.29Z"/></clipPath><clipPath id="clip-path-15"><path class="cls-1" d="M528.8,29.38l.86-1.85,9.45-20.29.15-.29h4.4l-.11.26c-3.41,7.31-10.21,21.93-10.21,21.93l-.1.22H528.8Z"/></clipPath><clipPath id="clip-path-16"><path class="cls-1" d="M515.15,29.38h-2.5v-.3c0-3,0-6,0-9.06a.86.86,0,0,0-.12-.44l-7-12.31L505.31,7h.24c.8,0,1.6,0,2.4,0h.24l.15.23,5.4,9.47.16.26c.06-.1.11-.18.15-.26l5.4-9.46.14-.24h.26c.78,0,1.57,0,2.35,0h.29l-.14.26q-3.54,6.16-7.07,12.33a1.06,1.06,0,0,0-.13.47v9.34Z"/></clipPath><clipPath id="clip-path-17"><path class="cls-1" d="M-186.31,130.93a27.52,27.52,0,0,1,.35-2.73c.48-2,.94-4,1.51-6a3.25,3.25,0,0,1,2.89-2.28c.83-.15,1.34.23,1.28,1.08a32.32,32.32,0,0,1-.47,3.8,36.62,36.62,0,0,0-.45,11.63,11.13,11.13,0,0,0,.91,3.11c1.85,4,7,3.64,9,.66a13.21,13.21,0,0,0,1.85-5,17.13,17.13,0,0,0,.27-6.3,37.32,37.32,0,0,0-1.11-3.84,5.42,5.42,0,0,1-.05-3.4,3.24,3.24,0,0,1,1.58-1.9,1.47,1.47,0,0,1,1.36-.21,1.48,1.48,0,0,1,.94,1,13,13,0,0,1,.84,3.12,39.14,39.14,0,0,1-.19,10.37,14.61,14.61,0,0,1-3.34,7.62,8.85,8.85,0,0,1-5.79,3.05,2.42,2.42,0,0,0-.36.1h-1.89a4.83,4.83,0,0,1-.62-.12,8.35,8.35,0,0,1-7.2-5.12,14,14,0,0,1-.81-2.52c-.22-1-.31-2.05-.46-3.06Z"/></clipPath><clipPath id="clip-path-18"><path class="cls-1" d="M-85.93,138.4a4.62,4.62,0,0,0,3.86-2.65,3,3,0,0,0,.16-.83,2.13,2.13,0,0,0-1.21-2.11,1.94,1.94,0,0,0-2.26.74A6.22,6.22,0,0,0-85.93,138.4Zm29.59-6.82a1,1,0,0,0-.11.17,2,2,0,0,1-1.84,1.58,2.26,2.26,0,0,1-2.5-1.18c-.48-.9-.84-1-1.81-.6a4.6,4.6,0,0,0-2.23,2.06c-.93,1.58-1.79,3.21-2.61,4.85-.66,1.34-1.21,2.74-1.84,4.09a7,7,0,0,1-.83,1.42,1.16,1.16,0,0,1-1,.53,1.16,1.16,0,0,1-1-.61,10.29,10.29,0,0,1-1-2.32c-.38-1.31-.66-2.66-1-4a1.64,1.64,0,0,0-.16-.45l-.3.57a13.89,13.89,0,0,1-4.29,5.23,8,8,0,0,1-6,1.46A4.83,4.83,0,0,1-89.2,140a9.81,9.81,0,0,1,1.91-7.81,5.94,5.94,0,0,1,4.07-2.44,4.49,4.49,0,0,1,4.7,4.49,4.23,4.23,0,0,1-2.11,3.8,30.08,30.08,0,0,1-3.1,1.45c-.31.14-.64.25-.94.41-.46.24-.53.6-.17,1a2.33,2.33,0,0,0,.83.52,4.78,4.78,0,0,0,4.62-.69,10,10,0,0,0,3.23-3.9c.66-1.38,1.12-2.84,1.67-4.27a15,15,0,0,1,.59-1.44,1.92,1.92,0,0,1,.57-.63c.7-.53,1.21-.38,1.39.47.24,1.2.37,2.42.57,3.63.17,1,.34,2,.57,3,.11.45.3,1,.84,1s.61-.54.78-.91c.64-1.38,1.19-2.79,1.85-4.17a11.23,11.23,0,0,1,3.07-4,6.2,6.2,0,0,1,4.61-1.34,3.49,3.49,0,0,1,3.34,2.57Z"/></clipPath><clipPath id="clip-path-19"><path class="cls-1" d="M-116.59,136.31a4.87,4.87,0,0,0,.66,2.5.51.51,0,0,0,.32.32.51.51,0,0,0,.45-.06,4,4,0,0,0,2.11-4.94,1.45,1.45,0,0,0-2.6-.62,3.43,3.43,0,0,0-.94,2.77Zm-7.33-10.85a8.55,8.55,0,0,0,0-1.24,8.31,8.31,0,0,0-.5-2.08,1.14,1.14,0,0,0-1-.73,1.15,1.15,0,0,0-1.06.68,5.47,5.47,0,0,0-.56,1.4,26.75,26.75,0,0,0-.25,9.77,4,4,0,0,0,.36,1.18c.25.49.6.51.91.07a4.87,4.87,0,0,0,.52-.95A21.43,21.43,0,0,0-123.92,125.46Zm9.37,15.18a3.7,3.7,0,0,0,3.52.74,6.87,6.87,0,0,0,4-3.18,31,31,0,0,0,3-6.62,6,6,0,0,1,.83-1.56c.59-.74,1.33-.67,1.67.2.49,1.25.84,2.56,1.25,3.85.44,1.46.83,2.94,1.31,4.4a8,8,0,0,0,.88,1.85c.83,1.35,1.94,1.32,2.75-.07a6.6,6.6,0,0,0,.76-5.06,7.57,7.57,0,0,1,0-4.22,3.7,3.7,0,0,1,1.39-2.07c1.24-.83,2.46-.43,2.58,1.06a14.81,14.81,0,0,1-.24,3.7,17.82,17.82,0,0,1-2.91,7.16,16.48,16.48,0,0,1-2.43,2.58,4.09,4.09,0,0,1-2.5,1,2.69,2.69,0,0,1-2.74-1.37,23.33,23.33,0,0,1-1.19-2.77c-.25-.61-.4-1.27-.67-1.87s-.67-.7-1.15-.25-.83.92-1.23,1.36a37.78,37.78,0,0,1-2.81,2.85,9.58,9.58,0,0,1-6,2.15,4.54,4.54,0,0,1-3.41-1.35,1.42,1.42,0,0,1-.26-.38c-1.09.49-2,1-3,1.32a4.94,4.94,0,0,1-5.6-1.3,11.88,11.88,0,0,0-.92-.83,1.12,1.12,0,0,0-1.48-.12c-.55.36-1.07.74-1.61,1.11a8.47,8.47,0,0,1-4.86,1.56,3.37,3.37,0,0,1-2.81-1.25,23.65,23.65,0,0,1-1.67-2.46c-.84-1.37-1.25-1.4-2.21-.09-.54.75-1,1.53-1.57,2.27a6.69,6.69,0,0,1-1,1.07,1.46,1.46,0,0,1-1,.47,1.41,1.41,0,0,1-1.06-.41,6,6,0,0,1-1.3-1.67c-.6-1.11-1.07-2.28-1.63-3.41a13.06,13.06,0,0,0-1.1-2,1.61,1.61,0,0,0-1.14-.87,1.55,1.55,0,0,0-1.36.41,35.37,35.37,0,0,0-3.08,2.5c-1.44,1.26-2.82,2.6-4.25,3.87a15.61,15.61,0,0,1-1.75,1.27,1.1,1.1,0,0,1-1.27,0,1.1,1.1,0,0,1-.4-1.21c.31-1.3.66-2.58,1-3.88.56-2.09,1.11-4.18,1.67-6.26a2.25,2.25,0,0,1,1.3-1.67c.6-.25.84-.12,1,.51a31.19,31.19,0,0,0,.83,3.08c.48,1.47.89,1.54,1.85.34s1.67-2.2,2.51-3.26a17.63,17.63,0,0,1,1.75-1.92c1-.94,1.84-.83,2.44.45.51,1.1.83,2.28,1.27,3.43s.7,2.37,1.2,3.52a7.21,7.21,0,0,0,1.17,1.91,1.51,1.51,0,0,0,1.19.58,1.48,1.48,0,0,0,1.19-.58,5.63,5.63,0,0,0,1.67-3.34,22.37,22.37,0,0,1,.78-3.79,3.5,3.5,0,0,1,1-1.47,1.4,1.4,0,0,1,1.34-.5,1.4,1.4,0,0,1,1.08.94,6.52,6.52,0,0,1,.42,3.65,8.83,8.83,0,0,1-.27,1.45,4,4,0,0,0,3.54,5.06,5.08,5.08,0,0,0,4.68-2.59.86.86,0,0,0,0-.63,24.45,24.45,0,0,1-.12-16.13,25.28,25.28,0,0,1,1.54-3.08,4,4,0,0,1,.37-.54,3.08,3.08,0,0,1,5.13.25,6.8,6.8,0,0,1,1.2,3.48,24.47,24.47,0,0,1-2.91,14.42,18.5,18.5,0,0,0-.83,1.67.83.83,0,0,0-.09.6c.5,1.43,2.82,3.49,4.81,3.11l.27-.05c1-.26,1.07-.39,1-1.41a11.26,11.26,0,0,1,3-9.47,4.44,4.44,0,0,1,2.59-1.45A2.72,2.72,0,0,1-111,130.5c1.45,1.79,2.42,4.85-.17,7.4a37.21,37.21,0,0,1-3,2.46Z"/></clipPath><clipPath id="clip-path-20"><path class="cls-1" d="M-140.94,121.11a3.16,3.16,0,0,1,.89-2.31,2.34,2.34,0,0,1,2.73-.54,2,2,0,0,1,1.23,2.25,5.07,5.07,0,0,1-.63,1.86,2.3,2.3,0,0,1-2.73,1.11A2.24,2.24,0,0,1-140.94,121.11Z"/></clipPath><clipPath id="clip-path-21"><path class="cls-2" d="M226.74,159.58h-4.2v-5.7h4.2a2.79,2.79,0,0,1,3,2.8A2.71,2.71,0,0,1,226.74,159.58Zm.5-8.4h-7.8v17.9h3.1v-6.7h4.7a5.6,5.6,0,1,0,0-11.2Z"/></clipPath><clipPath id="clip-path-22"><path class="cls-2" d="M241.14,166.88c-2.4,0-3.7-2-3.7-4.3s1.3-4.3,3.7-4.3,3.7,2,3.7,4.3S243.54,166.88,241.14,166.88Zm0-11.1a6.8,6.8,0,1,0,6.6,6.8A6.46,6.46,0,0,0,241.14,155.78Z"/></clipPath><clipPath id="clip-path-23"><path class="cls-2" d="M277.24,158.08a3.46,3.46,0,0,1,3.6,3.2h-7.2A3.53,3.53,0,0,1,277.24,158.08Zm0-2.3a6.8,6.8,0,0,0,.2,13.6,7.26,7.26,0,0,0,5.2-1.9l-1.3-1.9a5.43,5.43,0,0,1-3.6,1.4,3.91,3.91,0,0,1-4.1-3.6h9.9v-.7C283.54,158.78,281,155.78,277.24,155.78Z"/></clipPath><clipPath id="clip-path-24"><path class="cls-2" d="M289.34,157.88v-1.8h-2.8v13h2.8v-8.2c1-2.3,3.9-2.6,4.7-2.5v-2.7A6.36,6.36,0,0,0,289.34,157.88Z"/></clipPath><clipPath id="clip-path-25"><path class="cls-2" d="M304.74,159.58h-4.3v-5.7h4.2a2.79,2.79,0,0,1,3,2.8A2.68,2.68,0,0,1,304.74,159.58Zm.4-8.4h-7.8v17.9h3.1v-6.7h4.7a5.6,5.6,0,1,0,0-11.2Z"/></clipPath><clipPath id="clip-path-26"><path class="cls-2" d="M325,150.78a1.75,1.75,0,0,0-1.7,1.7,1.7,1.7,0,1,0,3.4,0A1.63,1.63,0,0,0,325,150.78Z"/></clipPath><clipPath id="clip-path-27"><polygon class="cls-2" points="323.74 169.08 326.54 169.08 326.54 156.08 323.74 157.48 323.74 169.08"/></clipPath><clipPath id="clip-path-28"><path class="cls-2" d="M336.24,158.28a3.39,3.39,0,0,1,2.9,1.5l1.8-1.7a5.78,5.78,0,0,0-4.9-2.3,6.8,6.8,0,0,0,0,13.6,5.78,5.78,0,0,0,4.9-2.3l-1.8-1.7a3.39,3.39,0,0,1-2.9,1.5c-2.3,0-3.9-1.8-3.9-4.3S333.94,158.28,336.24,158.28Z"/></clipPath><clipPath id="clip-path-29"><path class="cls-2" d="M349.14,158.08a3.46,3.46,0,0,1,3.6,3.2h-7.2A3.53,3.53,0,0,1,349.14,158.08Zm6.3,4.7c0-4.1-2.5-7.1-6.3-7.1a6.8,6.8,0,0,0,.2,13.6,7.26,7.26,0,0,0,5.2-1.9l-1.3-1.9a5.43,5.43,0,0,1-3.6,1.4,3.91,3.91,0,0,1-4.1-3.6h9.9Z"/></clipPath><clipPath id="clip-path-30"><path class="cls-2" d="M316.24,157.88v-1.8h-2.8v13h2.8v-8.2c1-2.3,3.9-2.6,4.7-2.5v-2.7A6.36,6.36,0,0,0,316.24,157.88Z"/></clipPath><clipPath id="clip-path-31"><polygon class="cls-2" points="267.33 151.08 263.33 164.38 260.33 154.68 257.13 156.28 254.63 164.58 252.74 158.48 250.24 159.78 253.03 168.88 256.13 168.88 258.94 159.78 261.74 168.88 264.74 168.88 270.74 149.38 267.33 151.08"/></clipPath></defs><title>harvard</title><path class="cls-1" d="M207.61,35.73A12.19,12.19,0,1,1,219.8,23.55,12.18,12.18,0,0,1,207.61,35.73Zm0-25.92a13.74,13.74,0,1,0,13.74,13.74A13.74,13.74,0,0,0,207.61,9.81Z"/><g class="cls-3"><rect class="cls-1" x="-554.88" y="-933.07" width="1901.6" height="1069.65"/></g><path class="cls-1" d="M212.17,26.18a.69.69,0,0,1-.94.25l-1.68-1v-.79l.69-.4,1.68,1A.7.7,0,0,1,212.17,26.18ZM208.4,24l-.79.46-.79-.46v-.91l.79-.45.79.45Zm-1.47-5a.68.68,0,0,1,.68-.68.69.69,0,0,1,.69.68v1.94l-.69.39-.68-.39Zm-1.26,6.49-1.68,1a.68.68,0,0,1-.93-.25.69.69,0,0,1,.25-.94l1.67-1,.69.4v.79Zm11.93,3.62-2-2.33a.22.22,0,0,0-.09-.07.33.33,0,0,0-.32,0,1.06,1.06,0,0,1-1,0,1.08,1.08,0,0,1-.52-.73h0a2.7,2.7,0,0,0-1.3-1.84l-.89-.51,5.08-2.93L216,19.53l-5.71,3.29-.68-.39v-.79l5.7-3.3-.63-1.09-5.07,2.93v-1a2.7,2.7,0,0,0-.95-2,1.06,1.06,0,0,1,.09-1.68.33.33,0,0,0,.15-.28.36.36,0,0,0,0-.11l-1-2.89a.2.2,0,0,0-.2-.15.21.21,0,0,0-.2.15l-1,2.89a.36.36,0,0,0,0,.11.33.33,0,0,0,.15.28h0a1.07,1.07,0,0,1,.46.88,1,1,0,0,1-.37.8,2.69,2.69,0,0,0-.94,2v1l-5.08-2.93L200,18.34l5.71,3.3v.79l-.69.39-5.7-3.29-.63,1.09,5.08,2.93-.9.51a2.7,2.7,0,0,0-1.3,1.84,1,1,0,0,1-.51.73,1.08,1.08,0,0,1-1,0,.33.33,0,0,0-.32,0l-.09.07-2,2.33a.23.23,0,0,0,0,.25.21.21,0,0,0,.23.1l3-.57a.35.35,0,0,0,.11,0,.37.37,0,0,0,.17-.28,1.06,1.06,0,0,1,1.41-.91,2.71,2.71,0,0,0,2.25-.21l.89-.52v5.87h1.26V26.19l.68-.4.69.4v6.59h1.26V26.91l.89.52a2.69,2.69,0,0,0,2.24.21,1.07,1.07,0,0,1,1.42.91.32.32,0,0,0,.17.28l.1,0,3,.57a.21.21,0,0,0,.22-.1A.23.23,0,0,0,217.6,29.08Z"/><g class="cls-4"><rect class="cls-1" x="-554.88" y="-933.07" width="1901.6" height="1069.65"/></g><polygon class="cls-1" points="298.09 20.43 293.55 20.43 293.55 11.45 289.4 11.45 289.4 34.89 293.55 34.89 293.55 24.59 298.09 24.59 298.09 34.89 302.33 34.89 302.33 11.45 298.09 11.45 298.09 20.43"/><g class="cls-5"><rect class="cls-1" x="-554.88" y="-933.07" width="1901.6" height="1069.65"/></g><polygon class="cls-1" points="224.13 11.45 228.74 25.82 228.74 34.89 233.34 34.89 233.34 25.35 238.12 11.45 234.24 11.45 231.11 20.58 228.27 11.45 224.13 11.45"/><g class="cls-6"><rect class="cls-1" x="-554.88" y="-933.07" width="1901.6" height="1069.65"/></g><polygon class="cls-1" points="264.14 11.45 262.15 22.6 259.85 11.45 253.37 11.45 253.37 34.89 257.09 34.89 257.09 17.22 260.25 32.58 263.72 32.58 266.53 16.97 266.53 34.89 270.89 34.89 270.89 11.45 264.14 11.45"/><g class="cls-7"><rect class="cls-1" x="-554.88" y="-933.07" width="1901.6" height="1069.65"/></g><path class="cls-1" d="M309.64,25.53,311.4,15l1.72,10.49ZM315,11.45h-6.42l-4.33,23.44h3.84l.92-5.46h4.77l.9,5.46h4.22Z"/><g class="cls-8"><rect class="cls-1" x="-554.88" y="-933.07" width="1901.6" height="1069.65"/></g><path class="cls-1" d="M278.2,25.53,280,15l1.72,10.49Zm-1.09-14.08-4.33,23.44h3.84l.92-5.46h4.78l.89,5.46h4.23l-3.91-23.44Z"/><g class="cls-9"><rect class="cls-1" x="-554.88" y="-933.07" width="1901.6" height="1069.65"/></g><path class="cls-1" d="M242.17,25.53,243.94,15l1.71,10.49Zm-1.09-14.08-4.33,23.44h3.84l.92-5.46h4.78l.89,5.46h4.23L247.5,11.45Z"/><g class="cls-10"><rect class="cls-1" x="-554.88" y="-933.07" width="1901.6" height="1069.65"/></g><path class="cls-1" d="M420,7,411,17.59l9.69,11.79h-7.56l-7.35-9.51-.18-.22v9.72h-5.82V7h5.8v9.26l.22-.26,6.86-9H420Z"/><g class="cls-11"><rect class="cls-1" x="-568.01" y="-939.22" width="1903.91" height="1070.95"/></g><path class="cls-1" d="M442.19,21H447l-2.39-7.15Zm14,8.37H450l-1.14-3.05c-.08-.21-.17-.42-.23-.64a.26.26,0,0,0-.29-.2h-7.57a.26.26,0,0,0-.29.2c-.46,1.18-.93,2.34-1.39,3.52l-.07.16h-5.95a1.58,1.58,0,0,1-.23,0,1.68,1.68,0,0,1,.07-.24l8.42-21.93.1-.24h6.37l.09.22,8.25,22Z"/><g class="cls-12"><rect class="cls-1" x="-568.01" y="-939.22" width="1903.91" height="1070.95"/></g><path class="cls-1" d="M463.92,23.66l7.22-17.87c2.41,6,4.81,11.94,7.23,17.94l.53-1.47c1.75-5,5.26-15,5.26-15l.08-.24H487c-2.87,7.87-5.72,15.7-8.59,23.6l-7.24-18-7.25,18L455.31,7H458s0,.13.07.21q1.54,4.47,3.12,8.92c.86,2.46,1.72,4.91,2.57,7.37a1.07,1.07,0,0,1,.07.19Z"/><g class="cls-13"><rect class="cls-1" x="-568.01" y="-939.22" width="1903.91" height="1070.95"/></g><rect class="cls-1" x="423.77" y="6.99" width="5.8" height="22.39"/><g class="cls-14"><rect class="cls-1" x="-568.01" y="-939.22" width="1903.91" height="1070.95"/></g><path class="cls-1" d="M492.48,20.68H500l-3.71-8.9Zm3.86-14.79,10.07,23.49h-.22c-.79,0-1.57,0-2.36,0h-.21l-.08-.2c-.81-2-1.63-3.92-2.44-5.89a.36.36,0,0,0-.39-.27h-9a.31.31,0,0,0-.35.23l-2.52,5.94-.09.19H486Z"/><g class="cls-15"><rect class="cls-1" x="-568.01" y="-939.22" width="1903.91" height="1070.95"/></g><path class="cls-1" d="M549.82,7c0,.08-.06.14-.09.21l-10.25,22-.09.19H535l.11-.21,10.26-22,.09-.19h4.29Z"/><g class="cls-16"><rect class="cls-1" x="-568.01" y="-939.22" width="1903.91" height="1070.95"/></g><path class="cls-1" d="M528.8,29.38l.86-1.85,9.45-20.29.15-.29h4.4l-.11.26c-3.41,7.31-10.21,21.93-10.21,21.93l-.1.22H528.8Z"/><g class="cls-17"><rect class="cls-1" x="-568.01" y="-939.22" width="1903.91" height="1070.95"/></g><path class="cls-1" d="M515.15,29.38h-2.5v-.3c0-3,0-6,0-9.06a.86.86,0,0,0-.12-.44l-7-12.31L505.31,7h.24c.8,0,1.6,0,2.4,0h.24l.15.23,5.4,9.47.16.26c.06-.1.11-.18.15-.26l5.4-9.46.14-.24h.26c.78,0,1.57,0,2.35,0h.29l-.14.26q-3.54,6.16-7.07,12.33a1.06,1.06,0,0,0-.13.47v9.34Z"/><g class="cls-18"><rect class="cls-1" x="-568.01" y="-939.22" width="1903.91" height="1070.95"/></g><path class="cls-1" d="M-186.31,130.93a27.52,27.52,0,0,1,.35-2.73c.48-2,.94-4,1.51-6a3.25,3.25,0,0,1,2.89-2.28c.83-.15,1.34.23,1.28,1.08a32.32,32.32,0,0,1-.47,3.8,36.62,36.62,0,0,0-.45,11.63,11.13,11.13,0,0,0,.91,3.11c1.85,4,7,3.64,9,.66a13.21,13.21,0,0,0,1.85-5,17.13,17.13,0,0,0,.27-6.3,37.32,37.32,0,0,0-1.11-3.84,5.42,5.42,0,0,1-.05-3.4,3.24,3.24,0,0,1,1.58-1.9,1.47,1.47,0,0,1,1.36-.21,1.48,1.48,0,0,1,.94,1,13,13,0,0,1,.84,3.12,39.14,39.14,0,0,1-.19,10.37,14.61,14.61,0,0,1-3.34,7.62,8.85,8.85,0,0,1-5.79,3.05,2.42,2.42,0,0,0-.36.1h-1.89a4.83,4.83,0,0,1-.62-.12,8.35,8.35,0,0,1-7.2-5.12,14,14,0,0,1-.81-2.52c-.22-1-.31-2.05-.46-3.06Z"/><g class="cls-19"><rect class="cls-1" x="-548.05" y="-834.47" width="1945.48" height="1094.33"/></g><path class="cls-1" d="M-85.93,138.4a4.62,4.62,0,0,0,3.86-2.65,3,3,0,0,0,.16-.83,2.13,2.13,0,0,0-1.21-2.11,1.94,1.94,0,0,0-2.26.74A6.22,6.22,0,0,0-85.93,138.4Zm29.59-6.82a1,1,0,0,0-.11.17,2,2,0,0,1-1.84,1.58,2.26,2.26,0,0,1-2.5-1.18c-.48-.9-.84-1-1.81-.6a4.6,4.6,0,0,0-2.23,2.06c-.93,1.58-1.79,3.21-2.61,4.85-.66,1.34-1.21,2.74-1.84,4.09a7,7,0,0,1-.83,1.42,1.16,1.16,0,0,1-1,.53,1.16,1.16,0,0,1-1-.61,10.29,10.29,0,0,1-1-2.32c-.38-1.31-.66-2.66-1-4a1.64,1.64,0,0,0-.16-.45l-.3.57a13.89,13.89,0,0,1-4.29,5.23,8,8,0,0,1-6,1.46A4.83,4.83,0,0,1-89.2,140a9.81,9.81,0,0,1,1.91-7.81,5.94,5.94,0,0,1,4.07-2.44,4.49,4.49,0,0,1,4.7,4.49,4.23,4.23,0,0,1-2.11,3.8,30.08,30.08,0,0,1-3.1,1.45c-.31.14-.64.25-.94.41-.46.24-.53.6-.17,1a2.33,2.33,0,0,0,.83.52,4.78,4.78,0,0,0,4.62-.69,10,10,0,0,0,3.23-3.9c.66-1.38,1.12-2.84,1.67-4.27a15,15,0,0,1,.59-1.44,1.92,1.92,0,0,1,.57-.63c.7-.53,1.21-.38,1.39.47.24,1.2.37,2.42.57,3.63.17,1,.34,2,.57,3,.11.45.3,1,.84,1s.61-.54.78-.91c.64-1.38,1.19-2.79,1.85-4.17a11.23,11.23,0,0,1,3.07-4,6.2,6.2,0,0,1,4.61-1.34,3.49,3.49,0,0,1,3.34,2.57Z"/><g class="cls-20"><rect class="cls-1" x="-548.05" y="-834.47" width="1945.48" height="1094.33"/></g><path class="cls-1" d="M-116.59,136.31a4.87,4.87,0,0,0,.66,2.5.51.51,0,0,0,.32.32.51.51,0,0,0,.45-.06,4,4,0,0,0,2.11-4.94,1.45,1.45,0,0,0-2.6-.62,3.43,3.43,0,0,0-.94,2.77Zm-7.33-10.85a8.55,8.55,0,0,0,0-1.24,8.31,8.31,0,0,0-.5-2.08,1.14,1.14,0,0,0-1-.73,1.15,1.15,0,0,0-1.06.68,5.47,5.47,0,0,0-.56,1.4,26.75,26.75,0,0,0-.25,9.77,4,4,0,0,0,.36,1.18c.25.49.6.51.91.07a4.87,4.87,0,0,0,.52-.95A21.43,21.43,0,0,0-123.92,125.46Zm9.37,15.18a3.7,3.7,0,0,0,3.52.74,6.87,6.87,0,0,0,4-3.18,31,31,0,0,0,3-6.62,6,6,0,0,1,.83-1.56c.59-.74,1.33-.67,1.67.2.49,1.25.84,2.56,1.25,3.85.44,1.46.83,2.94,1.31,4.4a8,8,0,0,0,.88,1.85c.83,1.35,1.94,1.32,2.75-.07a6.6,6.6,0,0,0,.76-5.06,7.57,7.57,0,0,1,0-4.22,3.7,3.7,0,0,1,1.39-2.07c1.24-.83,2.46-.43,2.58,1.06a14.81,14.81,0,0,1-.24,3.7,17.82,17.82,0,0,1-2.91,7.16,16.48,16.48,0,0,1-2.43,2.58,4.09,4.09,0,0,1-2.5,1,2.69,2.69,0,0,1-2.74-1.37,23.33,23.33,0,0,1-1.19-2.77c-.25-.61-.4-1.27-.67-1.87s-.67-.7-1.15-.25-.83.92-1.23,1.36a37.78,37.78,0,0,1-2.81,2.85,9.58,9.58,0,0,1-6,2.15,4.54,4.54,0,0,1-3.41-1.35,1.42,1.42,0,0,1-.26-.38c-1.09.49-2,1-3,1.32a4.94,4.94,0,0,1-5.6-1.3,11.88,11.88,0,0,0-.92-.83,1.12,1.12,0,0,0-1.48-.12c-.55.36-1.07.74-1.61,1.11a8.47,8.47,0,0,1-4.86,1.56,3.37,3.37,0,0,1-2.81-1.25,23.65,23.65,0,0,1-1.67-2.46c-.84-1.37-1.25-1.4-2.21-.09-.54.75-1,1.53-1.57,2.27a6.69,6.69,0,0,1-1,1.07,1.46,1.46,0,0,1-1,.47,1.41,1.41,0,0,1-1.06-.41,6,6,0,0,1-1.3-1.67c-.6-1.11-1.07-2.28-1.63-3.41a13.06,13.06,0,0,0-1.1-2,1.61,1.61,0,0,0-1.14-.87,1.55,1.55,0,0,0-1.36.41,35.37,35.37,0,0,0-3.08,2.5c-1.44,1.26-2.82,2.6-4.25,3.87a15.61,15.61,0,0,1-1.75,1.27,1.1,1.1,0,0,1-1.27,0,1.1,1.1,0,0,1-.4-1.21c.31-1.3.66-2.58,1-3.88.56-2.09,1.11-4.18,1.67-6.26a2.25,2.25,0,0,1,1.3-1.67c.6-.25.84-.12,1,.51a31.19,31.19,0,0,0,.83,3.08c.48,1.47.89,1.54,1.85.34s1.67-2.2,2.51-3.26a17.63,17.63,0,0,1,1.75-1.92c1-.94,1.84-.83,2.44.45.51,1.1.83,2.28,1.27,3.43s.7,2.37,1.2,3.52a7.21,7.21,0,0,0,1.17,1.91,1.51,1.51,0,0,0,1.19.58,1.48,1.48,0,0,0,1.19-.58,5.63,5.63,0,0,0,1.67-3.34,22.37,22.37,0,0,1,.78-3.79,3.5,3.5,0,0,1,1-1.47,1.4,1.4,0,0,1,1.34-.5,1.4,1.4,0,0,1,1.08.94,6.52,6.52,0,0,1,.42,3.65,8.83,8.83,0,0,1-.27,1.45,4,4,0,0,0,3.54,5.06,5.08,5.08,0,0,0,4.68-2.59.86.86,0,0,0,0-.63,24.45,24.45,0,0,1-.12-16.13,25.28,25.28,0,0,1,1.54-3.08,4,4,0,0,1,.37-.54,3.08,3.08,0,0,1,5.13.25,6.8,6.8,0,0,1,1.2,3.48,24.47,24.47,0,0,1-2.91,14.42,18.5,18.5,0,0,0-.83,1.67.83.83,0,0,0-.09.6c.5,1.43,2.82,3.49,4.81,3.11l.27-.05c1-.26,1.07-.39,1-1.41a11.26,11.26,0,0,1,3-9.47,4.44,4.44,0,0,1,2.59-1.45A2.72,2.72,0,0,1-111,130.5c1.45,1.79,2.42,4.85-.17,7.4a37.21,37.21,0,0,1-3,2.46Z"/><g class="cls-21"><rect class="cls-1" x="-548.05" y="-834.47" width="1945.48" height="1094.33"/></g><path class="cls-1" d="M-140.94,121.11a3.16,3.16,0,0,1,.89-2.31,2.34,2.34,0,0,1,2.73-.54,2,2,0,0,1,1.23,2.25,5.07,5.07,0,0,1-.63,1.86,2.3,2.3,0,0,1-2.73,1.11A2.24,2.24,0,0,1-140.94,121.11Z"/><g class="cls-22"><rect class="cls-1" x="-548.05" y="-834.47" width="1945.48" height="1094.33"/></g><path class="cls-1" d="M32,12.91c-3.15,0-6.3,0-9.46,0a3,3,0,0,0-.4,0c.91,2,0,3.08-1.91,3.32-.09.62,0,1.36-.62,1.73a9.33,9.33,0,0,1-1.78.63c0,1.4-.46,2-1.6,2.06a2,2,0,0,1-1.13-.31c-.65-.43-.65-1.17-.65-1.86-1.66-.17-2.26-.33-2.43-2.26-2.28-.55-2.53-1-1.89-3.31l-.11,0H.35c-.29,0-.34.12-.35.37a31.65,31.65,0,0,0,1.08,8.56,30.2,30.2,0,0,0,3.1,7.42,32.84,32.84,0,0,0,7,8.36,31.8,31.8,0,0,0,4.54,3.29.9.9,0,0,0,1.06,0,32.27,32.27,0,0,0,5.32-4,32,32,0,0,0,8.49-12.52,31.73,31.73,0,0,0,1.91-11C32.49,13,32.39,12.91,32,12.91Zm-8.17,3.82-.22.46-.13,0-.1-.6Zm-2.06-.15,0,.54-.11.05-.4-.51Zm-1.22,1.77c0-.13.31-.29.5-.34a1.48,1.48,0,0,0,1-1.14,4.75,4.75,0,0,1,.21-.67.33.33,0,0,1,.63,0c.11.24.14.51.23.76A1.39,1.39,0,0,0,24.25,18c.25.06.58.14.41.55s-.32.54-.62.14a4.43,4.43,0,0,0-.48-.49l-.15.13.42.61a1.46,1.46,0,0,1,.23.34.38.38,0,0,1-.32.53c-.28.08-.45-.06-.5-.34a3.09,3.09,0,0,0-.23-.77,1.23,1.23,0,0,0,0,1c.15.44-.05.71-.47.67s-.41-.31-.31-.72.1-.63.15-.95l-.17,0a5.31,5.31,0,0,1-.19.65,1,1,0,0,1-.29.47.48.48,0,0,1-.45-.14.89.89,0,0,1,.07-.6,5,5,0,0,1,.52-.71l-.14-.13-.89.81C20.75,18.78,20.57,18.55,20.59,18.35ZM17.24,23l.32.13-.23.45-.19-.08ZM15.4,23l.07.52-.18.05-.22-.46Zm-1,1.53a.36.36,0,0,1,.19-.07A1.55,1.55,0,0,0,15.86,23c.06-.28.08-.65.45-.65s.4.38.47.67a1.53,1.53,0,0,0,1.16,1.37c.21,0,.52.1.43.43a1.54,1.54,0,0,1-.3.48,3.37,3.37,0,0,1-.38-.28c-.14-.16-.26-.35-.39-.52l-.19.14c.08.16.16.33.26.49a4.25,4.25,0,0,1,.31.43.41.41,0,0,1-.47.61c-.12,0-.24-.21-.29-.34a6.74,6.74,0,0,1-.16-.78l-.2,0a8.13,8.13,0,0,0,.11.88c.07.28.2.56-.11.74a.63.63,0,0,1-.52,0c-.27-.18-.14-.45-.07-.71a8.08,8.08,0,0,0,.11-.86l-.21,0a5.25,5.25,0,0,1-.15.71.62.62,0,0,1-.3.38A.56.56,0,0,1,15,26a.65.65,0,0,1,0-.49,5.35,5.35,0,0,1,.37-.5,1.63,1.63,0,0,0,.17-.38l-.1-.08c-.19.19-.37.38-.56.56s-.28.18-.29.16a1.39,1.39,0,0,1-.3-.47C14.25,24.72,14.37,24.58,14.45,24.48Zm-3.51-7.77-.18.47-.14,0-.12-.53Zm-2.1-.07a1.61,1.61,0,0,1,0,.49l-.15,0-.36-.52A2.34,2.34,0,0,1,8.84,16.64ZM7.68,18.33c0-.14.32-.27.52-.32a1.49,1.49,0,0,0,1-1.13,3.56,3.56,0,0,1,.15-.56c.07-.14.23-.31.36-.32s.31.17.38.31a6.45,6.45,0,0,1,.16.63,1.43,1.43,0,0,0,1,1.06c.66.17.71.41.05,1.1l-.6-.93-.19.16c.1.17.2.35.31.52s.24.25.28.4a.54.54,0,0,1-.07.45.45.45,0,0,1-.39.14.56.56,0,0,1-.31-.33,8.54,8.54,0,0,0-.25-.82c-.26.39-.06.72,0,1.07s0,.64-.39.64-.52-.25-.42-.67.13-.66.19-1l-.19,0a5.6,5.6,0,0,1-.21.73.77.77,0,0,1-.31.41.46.46,0,0,1-.41-.15.77.77,0,0,1,0-.56A6.9,6.9,0,0,1,9,18.33l-.13-.12-.91.86C7.81,18.77,7.65,18.53,7.68,18.33Zm.11,10.93a1.56,1.56,0,0,1-1,1.4.44.44,0,0,1-.62-.21,32.65,32.65,0,0,1-3-5.76A28.49,28.49,0,0,1,1.4,18.33C1.21,17,1.14,15.72,1,14.41c0-.45.12-.54.55-.43a2,2,0,0,1,1.51,1.9c0,.19,0,.34.27.36,1.6.14,1.89.45,2,2.07a.8.8,0,0,0,0,.15c2,.3,2.39.73,2.28,2.33h.44A1.65,1.65,0,0,1,10,22.54c0,.36.16.41.45.48a3.83,3.83,0,0,1,1.26.48,1.49,1.49,0,0,1,.49,1.86,1.87,1.87,0,0,1-1.64,1.08H10.1c-.24,1.77-.39,1.92-2.31,2.23C7.79,28.86,7.8,29.06,7.79,29.26Zm3.56.12-.35.54-.14-.05a2.68,2.68,0,0,1,0-.49A3.15,3.15,0,0,1,11.35,29.38Zm-2.16-.16-.06.62L9,29.89l-.26-.44Zm.53,2.2H9.57a6.41,6.41,0,0,1-.17.73c-.06.15-.16.35-.28.39a.51.51,0,0,1-.46-.15.61.61,0,0,1,0-.51,5.82,5.82,0,0,1,.54-.79L9.09,31c-.18.17-.34.34-.53.5s-.29.2-.31.18A.94.94,0,0,1,8,31.21c0-.1.07-.24.13-.35a.28.28,0,0,1,.15-.08c.85-.11,1.14-.72,1.31-1.45,0-.07,0-.16,0-.2s.29-.29.44-.43a3.75,3.75,0,0,1,.37.44,3.56,3.56,0,0,1,.15.56,1.37,1.37,0,0,0,1.06,1.05c.23.05.51.11.44.43a1.62,1.62,0,0,1-.29.48c-.13-.09-.27-.16-.39-.26s-.3-.29-.46-.44l-.14.13a5.82,5.82,0,0,1,.54.79.57.57,0,0,1,0,.51c-.06.11-.31.16-.46.14s-.21-.19-.25-.31-.13-.53-.19-.8l-.21,0c.06.33.1.67.18,1s-.09.75-.48.68-.41-.3-.32-.66a5.15,5.15,0,0,0,.15-.68A1.67,1.67,0,0,0,9.72,31.42ZM22.52,35a33.42,33.42,0,0,1-6,4.78.56.56,0,0,1-.68,0A34.27,34.27,0,0,1,10,35.07a.75.75,0,0,1-.19-.92,1.62,1.62,0,0,1,1.69-1l.67.08a2.1,2.1,0,0,1,.47-1.84,2.18,2.18,0,0,1,1.87-.44c.1-1.25.53-2.2,2-2.17.92,0,1.33.59,1.67,2.17a2.22,2.22,0,0,1,1.86.42,2,2,0,0,1,.51,1.75,12.56,12.56,0,0,1,1.55.23,1.22,1.22,0,0,1,.57.45C23,34.3,23,34.57,22.52,35Zm2.16-3.78a.89.89,0,0,1-.32.4s-.23-.14-.34-.24-.3-.3-.45-.45l-.12.08a1.06,1.06,0,0,0,.09.25,4.83,4.83,0,0,1,.43.61.54.54,0,0,1,0,.48.53.53,0,0,1-.46.15c-.13,0-.24-.23-.29-.38a4.81,4.81,0,0,1-.17-.73l-.18,0c0,.26,0,.52.06.78s.1.27.11.4c0,.28-.07.51-.39.52s-.49-.18-.45-.5.11-.51.14-.76a2.16,2.16,0,0,0,0-.44l-.17,0a4,4,0,0,1-.17.7.7.7,0,0,1-.31.41.47.47,0,0,1-.45-.16.71.71,0,0,1,.06-.53,7,7,0,0,1,.49-.72s0-.05-.05-.19a5.48,5.48,0,0,1-.53.48c-.12.1-.35.25-.38.22a.8.8,0,0,1-.28-.47.47.47,0,0,1,.31-.36c.83-.14,1.12-.74,1.3-1.45a1,1,0,0,1,.12-.39.55.55,0,0,1,.33-.24.43.43,0,0,1,.31.22,3.73,3.73,0,0,1,.21.67,1.41,1.41,0,0,0,1.16,1.15C24.57,30.81,24.79,30.94,24.68,31.25Zm-3.27-1.86.3-.09.08.54-.2,0Zm2.09.49v-.51l.39,0,0,.13-.29.37Zm7.89-14.36a29.73,29.73,0,0,1-3.27,11.85c-.55,1.06-1.22,2.05-1.83,3.08-.16.28-.35.28-.61.15a1.73,1.73,0,0,1-.9-1.45c0-.15,0-.31,0-.47-1.93-.35-2-.45-2.25-2.2a7.51,7.51,0,0,1-1.09-.18,1.58,1.58,0,0,1-1.12-1.74,1.72,1.72,0,0,1,1.47-1.49l.16,0c.43,0,.7-.14.7-.71a1.58,1.58,0,0,1,1.68-1.55c.55,0,.55,0,.56-.57a1.64,1.64,0,0,1,1.71-1.7c.43,0,.61-.06.62-.58a1.64,1.64,0,0,1,1.8-1.7h.46a2,2,0,0,1,.82-1.9,7.43,7.43,0,0,1,1.09-.47C31.39,14.5,31.42,15,31.39,15.52Z"/><path class="cls-1" d="M32,.52c-5.24,0-10.47,0-15.71,0H.59C0,.53,0,.53,0,1.12V11.33c0,.53,0,.53.52.53H31.9c.58,0,.58,0,.58-.56,0-3.41,0-6.83,0-10.24C32.49.63,32.38.52,32,.52ZM28.05,3.88c0-.09.08-.17.13-.26.07.08.2.17.2.25,0,1.58,0,3.16,0,4.74l-.15,0c-.06-.13-.19-.26-.19-.4C28,6.79,28,5.34,28.05,3.88Zm-4.9-.28a8.27,8.27,0,0,1,1.31.19,1,1,0,0,1,.82.91c.39-1.1,1.32-1,2.18-1.11.29,0,.42.1.42.41q0,2,0,4c0,.26-.07.37-.35.37H23.12c-.28,0-.36-.11-.36-.37,0-1.33,0-2.66,0-4C22.75,3.71,22.88,3.57,23.15,3.6ZM22.23,4a2.24,2.24,0,0,1,.15-.46l.2.07V5c0,1,0,2.05,0,3.08a1.7,1.7,0,0,1-.17.51l-.15,0c0-.15,0-.29,0-.44C22.23,6.76,22.22,5.4,22.23,4ZM19,4c0-.13.12-.26.18-.39.08.09.22.19.22.29,0,1.56,0,3.12,0,4.75A.58.58,0,0,1,19,8.05C19,6.7,19,5.36,19,4Zm-2.61.46a.75.75,0,0,1,.68-.73,7.27,7.27,0,0,1,1.48-.11c.1,0,.29.21.3.33,0,1.35,0,2.71,0,4.07,0,.11-.17.31-.27.31-.71,0-1.43,0-2.19,0C16.39,7,16.38,5.75,16.39,4.47Zm-2.21-.86a9.67,9.67,0,0,1,1.32.12.87.87,0,0,1,.73,1c0,1.09,0,2.19,0,3.28,0,.29-.07.4-.38.39-.58,0-1.16,0-1.74,0-.28,0-.36-.1-.36-.36,0-.67,0-1.33,0-2s0-1.3,0-1.95C13.74,3.72,13.86,3.58,14.18,3.61Zm1.67,5.05c-.1.07-.2.19-.3.19a13.08,13.08,0,0,1-2.15-.09c.12-.08.24-.22.37-.22.67,0,1.35,0,2,0ZM10,4c0-.11.1-.22.15-.33.08.1.23.21.23.32,0,1.51,0,3,0,4.52,0,0,0,.07,0,.11l-.12.05c-.08-.16-.21-.31-.21-.47Q10,6.06,10,4Zm.14,4.72v.15H7.75s-.09-.14-.2-.33C8.47,8.63,9.33,8.35,10.13,8.68ZM7.36,4.52a.8.8,0,0,1,.73-.79,7.69,7.69,0,0,1,1.44-.1c.09,0,.26.17.26.27,0,1.46,0,2.93,0,4.46-.78,0-1.49,0-2.21,0a.34.34,0,0,1-.23-.25C7.35,6.9,7.34,5.71,7.36,4.52ZM4.22,3.74a.23.23,0,0,1,.2-.1s.11.1.13.17a1.37,1.37,0,0,1,0,.29c0,1.3,0,2.6,0,3.91a.52.52,0,0,1-.4.59V7.72c0-1.22,0-2.44,0-3.66A.7.7,0,0,1,4.22,3.74ZM6.49,9.23H3.91c-.3,0-.43-.11-.42-.42s0-.47-.23-.61c-.06,0,0-.27,0-.4s.2-.35.21-.53c0-.48,0-1,0-1.46,0-.27.06-.55-.27-.71a.37.37,0,0,1,0-.31c.38-.19.27-.54.28-.84s0-.46.51-.32V8.3C4,9,4,9,4.71,9H6.34a.56.56,0,0,1,.39.13A.71.71,0,0,1,6.49,9.23Zm0-.38c-.71,0-1.43,0-2.14,0l0-.17a3,3,0,0,1,.59-.15c.59,0,1.18,0,1.78,0,0,0,0,0,.14.1C6.73,8.73,6.62,8.85,6.52,8.85Zm.3-.48c-.57,0-1.14,0-1.7,0-.34,0-.44-.12-.43-.44,0-.64,0-1.27,0-1.91s0-1.28,0-1.92c0-.32.1-.51.45-.48a11.91,11.91,0,0,1,1.19.09.93.93,0,0,1,.89,1.09c0,1.06,0,2.11,0,3.17C7.23,8.25,7.14,8.38,6.82,8.37Zm.4.84c-.1,0-.29-.18-.28-.25a.51.51,0,0,1,.27-.32c.1,0,.24.12.49.27C7.46,9.07,7.34,9.21,7.22,9.21Zm3.7-2c0,.25-.06.5.24.66.05,0,0,.23,0,.35a3.37,3.37,0,0,0-.23.65c0,.26-.13.38-.39.38H7.84a.39.39,0,0,1-.14-.05V9H10c.35,0,.52-.1.51-.5,0-1.53,0-3,0-4.58,0-.13.11-.26.17-.39a1.31,1.31,0,0,1,.22.42c0,.29-.06.61.27.81,0,0,0,.25-.07.37s-.18.27-.18.4C10.91,6.11,10.92,6.65,10.92,7.19Zm4.51,2.05c-.83,0-1.67,0-2.5,0-.31,0-.43-.12-.42-.42s0-.49-.27-.64c-.05,0,0-.34,0-.36.28-.12.24-.35.24-.57V5.75c0-.24.05-.5-.25-.63,0,0-.07-.31,0-.34.33-.19.26-.48.27-.77s-.08-.45.27-.44.35.21.35.46V7.77a.36.36,0,0,0,0,.2V4.18a.7.7,0,0,1,0-.29,1.64,1.64,0,0,1,.26-.27c.05.1.15.2.15.29,0,1,0,2,0,3.05,0,.41,0,.83,0,1.24,0,.13-.17.25-.28.37l-.16-.12c-.09.56-.07.58.52.58h1.79c.1,0,.2,0,.3,0v.11Zm.81,0c-.11,0-.25-.12-.49-.25.22-.17.34-.33.46-.32s.23.17.34.27C16.45,9,16.36,9.19,16.24,9.21Zm.41-.69c.84.1,1.69-.17,2.48.24C17.88,9,16.77,8.89,16.65,8.52Zm3.28-2.84c0,.47,0,1,0,1.42,0,.28-.07.58.27.76,0,0,0,.28,0,.31-.3.16-.23.44-.28.69s-.21.35-.33.36c-.92,0-1.84,0-2.75,0,0,0-.07,0-.11-.05V9H19.1c.33,0,.47-.13.46-.48,0-1.51,0-3,0-4.54V3.61c.31-.1.36.08.37.3s-.1.7.3.91a.39.39,0,0,1-.07.3C19.9,5.25,19.92,5.46,19.93,5.68Zm4.84,3.55h-.56c-.75,0-1.5,0-2.25,0-.32,0-.46-.14-.44-.45a.59.59,0,0,0-.25-.61c-.05,0,0-.26,0-.38s.2-.32.21-.49c0-.49,0-1,0-1.49,0-.27.06-.56-.27-.72-.05,0-.05-.28,0-.31.31-.18.27-.48.27-.77,0-.06,0-.15,0-.2a2.06,2.06,0,0,1,.26-.25c.09.09.25.19.25.29,0,.69,0,1.38,0,2.07,0,.88,0,1.75,0,2.63,0,.34.14.47.48.46h1.83a3,3,0,0,1,.42.05Zm-.14-.4h-2.2a3.47,3.47,0,0,1,2.5-.23C24.78,8.71,24.71,8.82,24.63,8.83Zm.63.53c-.16-.2-.35-.34-.33-.42a.57.57,0,0,1,.35-.31c.08,0,.27.2.28.32S25.41,9.17,25.26,9.36Zm2.91-.51a10.24,10.24,0,0,1-2.51-.16A3.47,3.47,0,0,1,28.17,8.85Zm.73-3.14c0,.53,0,1,0,1.58,0,.17.18.33.24.51s.08.39,0,.4c-.35.15-.29.44-.29.71s-.09.32-.32.32H25.92a.6.6,0,0,1-.21-.08V9.06c.14,0,.28,0,.42,0,.66,0,1.31,0,2,0,.37,0,.48-.15.48-.49,0-1.46,0-2.92,0-4.37a.93.93,0,0,1,0-.29,2.48,2.48,0,0,1,.17-.32,1.66,1.66,0,0,1,.16.33c0,.33-.12.7.31.91,0,0,0,.33-.06.36C28.89,5.27,28.9,5.49,28.9,5.71Z"/><path class="cls-1" d="M44.89,15.54a3.74,3.74,0,0,0-2.52-.94c-1.8-.06-3.6,0-5.41,0a.86.86,0,0,0-.18,0V26.11a1.77,1.77,0,0,0,.3,0c1.62,0,3.25,0,4.87,0a8.27,8.27,0,0,0,2.21-.33,2.66,2.66,0,0,0,2-2.78,2.67,2.67,0,0,0-1.93-2.65l-.38-.17.27-.15C46.09,19.29,46,16.56,44.89,15.54Zm-5,2.58c0-.95,0-1,1-.94a4.56,4.56,0,0,1,.82.08,1.07,1.07,0,0,1-.07,2.09,7.91,7.91,0,0,1-.83.06c-.89,0-.89,0-.89-.91Zm1.92,5.36a13.14,13.14,0,0,1-1.66,0,.34.34,0,0,1-.25-.23c0-.6,0-1.19,0-1.82.68,0,1.29-.05,1.89,0s1,.43,1,1A1,1,0,0,1,41.85,23.48Z"/><path class="cls-1" d="M92,31.12a.37.37,0,0,0-.23.23c-.28,1.16-.54,2.32-.79,3.48-.15.67-.28,1.34-.42,2a5.93,5.93,0,0,1-.3-1.19c-.29-1.43-.58-2.86-.88-4.28a.4.4,0,0,0-.23-.26c-.89,0-1.77,0-2.68,0-.38,1.94-.76,3.82-1.14,5.77-.06-.09-.1-.12-.11-.16-.38-1.75-.77-3.49-1.13-5.24-.06-.28-.15-.39-.46-.38-.79,0-1.58,0-2.37,0l-.45,0c.2.75.39,1.44.57,2.13.6,2.2,1.19,4.41,1.8,6.61a.42.42,0,0,0,.26.26h3.36c.35-1.77.68-3.51,1-5.31.06.1.09.13.1.16.3,1.6.62,3.19.9,4.78.05.31.18.38.46.38.93,0,1.86,0,2.79,0a.41.41,0,0,0,.48-.37c.57-2.16,1.16-4.31,1.74-6.46.2-.72.39-1.43.6-2.22Z"/><path class="cls-1" d="M43.88,35.23l0-.1.56-.22A2.58,2.58,0,0,0,46,33.09a4,4,0,0,0-.12-2.25A2.7,2.7,0,0,0,44.16,29a7.23,7.23,0,0,0-2.11-.4c-1.62-.06-3.25,0-4.87,0l-.39,0c0,.11,0,.21,0,.3,0,3.62,0,7.25,0,10.87,0,.31.12.37.39.36.79,0,1.59,0,2.38,0,.31,0,.44-.08.43-.42,0-1,0-2,0-2.92,0-.29.09-.4.38-.38s.59,0,.88,0a.94.94,0,0,1,.95.72c.06.19.1.38.15.56.18.64.34,1.29.55,1.92a.68.68,0,0,0,.75.51c.88,0,1.75,0,2.63,0l.28,0c-.27-.83-.55-1.62-.78-2.42C45.43,36.65,45.24,35.52,43.88,35.23Zm-1.94-1.49a9.51,9.51,0,0,1-1.77.09c-.08,0-.2-.17-.21-.28,0-.33,0-.66,0-1s0-.67,0-1c0-.1.14-.27.21-.27a11.61,11.61,0,0,1,1.77.12,1.22,1.22,0,0,1,0,2.33Z"/><path class="cls-1" d="M47.15,11.66q0-5.33,0-10.66V.56l-.45,0c-.77,0-1.55,0-2.33,0-.33,0-.43.09-.43.42,0,1.17,0,2.33,0,3.5,0,.31-.09.4-.4.4-1.07,0-2.14,0-3.21,0-.31,0-.41-.1-.4-.41,0-1.15,0-2.3,0-3.46,0-.38-.12-.47-.47-.45-.74,0-1.47,0-2.21,0-.43,0-.53.12-.53.54,0,3.47,0,6.94,0,10.41v.65h2.8c.31,0,.41-.08.4-.39,0-1.23,0-2.45,0-3.67,0-.31.1-.41.41-.41,1,0,2.11,0,3.16,0,.36,0,.44.13.44.47,0,1.17,0,2.35,0,3.53,0,.36.08.5.46.48.77,0,1.53,0,2.29,0C47.06,12.15,47.15,12,47.15,11.66Z"/><path class="cls-1" d="M103.16,12.12c.65,0,.61.12.61-.59,0-3.59,0-7.17,0-10.75a2.42,2.42,0,0,0,0-.54c0-.09-.13-.23-.2-.23h-3V3.93a6.85,6.85,0,0,0-1.17-.83,3.65,3.65,0,0,0-4.51,1.55,6.62,6.62,0,0,0-.47,5,3.25,3.25,0,0,0,3.18,2.69,2.68,2.68,0,0,0,2.88-1.45s.08-.05.14-.09a8.61,8.61,0,0,1,.17.92c0,.3.16.41.46.4C101.91,12.11,102.54,12.12,103.16,12.12ZM100.44,9a1.32,1.32,0,0,1-1.34.93,1.39,1.39,0,0,1-1.38-.83A3.62,3.62,0,0,1,97.78,6a1.47,1.47,0,0,1,1.78-.78,1.43,1.43,0,0,1,1,1.43v.88h.06A10.29,10.29,0,0,1,100.44,9Z"/><path class="cls-1" d="M80.54,18.45a2.31,2.31,0,0,0-2.23-1.59,2.84,2.84,0,0,0-2.85,1.42c-.06.1-.11.21-.17.32H75.2A11.68,11.68,0,0,1,75,17.41c0-.27-.14-.34-.4-.34H72.46c-.29,0-.39.09-.39.38,0,2.78,0,5.55,0,8.33,0,.3.11.38.39.38.78,0,1.56,0,2.33,0,.34,0,.44-.1.43-.43q0-1.93,0-3.87a10.87,10.87,0,0,1,.11-1.28,1.15,1.15,0,0,1,1.33-1.07c.54,0,.9.48.93,1.17v.54c0,1.5,0,3,0,4.5,0,.36.11.45.45.44.76,0,1.52,0,2.29,0,.31,0,.44-.07.43-.41,0-2,0-4.08,0-6.12A3.9,3.9,0,0,0,80.54,18.45Z"/><path class="cls-1" d="M56.26,25.75q0-4.16,0-8.29c0-.32-.11-.4-.41-.39-.77,0-1.53,0-2.29,0-.34,0-.46.08-.45.44,0,1.33,0,2.66,0,4a7.27,7.27,0,0,1-.37,1.9,1,1,0,0,1-1.12.61,1,1,0,0,1-.8-1,5.47,5.47,0,0,1,0-.7c0-1.64,0-3.28,0-4.92,0-.25,0-.38-.34-.37H48c-.24,0-.35.06-.34.33,0,2.11,0,4.22,0,6.33a2.64,2.64,0,0,0,.73,1.85,3,3,0,0,0,4.79-1c.09.48.18.86.24,1.23s.16.31.39.31c.7,0,1.39,0,2.08,0C56.19,26.17,56.26,26,56.26,25.75Z"/><path class="cls-1" d="M80.93,6.93a15.56,15.56,0,0,0-2.27.19,2.66,2.66,0,0,0-2.08,3.6c.47,1.44,1.91,1.85,3.49,1.53A2.53,2.53,0,0,0,81.72,11a2.07,2.07,0,0,1,.16.17c.63,1.34,2.47,1.38,3.43.89a.45.45,0,0,0,.24-.33c0-.65,0-1.3,0-2-.92.14-1,0-1-.83,0-1,0-2.08,0-3.12A2.66,2.66,0,0,0,82.63,3.1,6,6,0,0,0,79.54,3a3.13,3.13,0,0,0-2.62,2.46c-.09.37,0,.48.36.52.64.09,1.28.14,1.89.28s.76.08.84-.49c0-.34.37-.47.69-.47a.64.64,0,0,1,.7.47,1.88,1.88,0,0,1,.09.57C81.5,6.92,81.5,6.9,80.93,6.93ZM81.49,9a1.07,1.07,0,0,1-1.25,1.18.72.72,0,0,1-.68-.62A.75.75,0,0,1,80,8.72a7.83,7.83,0,0,1,1-.26C81.5,8.5,81.5,8.5,81.49,9Z"/><path class="cls-1" d="M50.55,12.24a2.9,2.9,0,0,0,3.31-1.1,1.21,1.21,0,0,0,.09-.2c.1.11.14.13.15.17.63,1.37,2.35,1.39,3.33,1,.15-.06.35-.23.35-.35,0-.66,0-1.33,0-2h-.21c-.61.23-.79-.14-.79-.63,0-1,0-2,0-3.08a2.69,2.69,0,0,0-2.39-3,8.19,8.19,0,0,0-2.32,0,3.22,3.22,0,0,0-2.91,2.46c-.12.42,0,.51.38.57.68.1,1.35.17,2,.3.38.08.59.08.64-.39a.75.75,0,0,1,1.47.05c0,.19,0,.39.06.58s-.09.4-.4.41a19.24,19.24,0,0,0-2.4.18,2.55,2.55,0,0,0-2.25,2.5A2.3,2.3,0,0,0,50.55,12.24Zm1.66-3.5a5.5,5.5,0,0,1,1.33-.21c.09,0,.19.25.29.38-.1.95-.62,1.43-1.41,1.28a.68.68,0,0,1-.61-.59C51.75,9.23,51.83,8.86,52.21,8.74Z"/><path class="cls-1" d="M82.64,19a5.84,5.84,0,0,0-.53,3.44A4,4,0,0,0,84.65,26a5.21,5.21,0,0,0,4,0,3.19,3.19,0,0,0,2-2.33L88,22.88c-.45,1-.94,1.23-1.79,1a1.51,1.51,0,0,1-1.08-1.66l.47,0c1.52,0,3,0,4.54,0,.4,0,.52-.15.5-.51a13.82,13.82,0,0,0-.07-1.58,3.49,3.49,0,0,0-2.56-3.11A5.18,5.18,0,0,0,85,17.1,3.77,3.77,0,0,0,82.64,19Zm4.36.23a1.22,1.22,0,0,1,.67,1.16.31.31,0,0,1-.22.21c-.73,0-1.46,0-2.22,0C85.31,19.51,86.17,18.88,87,19.25Z"/><path class="cls-1" d="M55.57,34.77a3.84,3.84,0,0,0-1.91-3.43A4.66,4.66,0,0,0,51,30.89a4,4,0,0,0-3.51,2.23A6,6,0,0,0,47,36.7a3.93,3.93,0,0,0,1.77,2.89,5.09,5.09,0,0,0,4.74.43,3.12,3.12,0,0,0,1.88-1.94c.1-.28.06-.42-.26-.51-.61-.16-1.22-.35-1.82-.56-.32-.12-.48,0-.6.26a1.12,1.12,0,0,1-1.12.7A1.47,1.47,0,0,1,50,36.66c0-.31,0-.44.36-.43.79,0,1.58,0,2.37,0h0c.81,0,1.61,0,2.42,0,.28,0,.4-.1.39-.39S55.6,35.13,55.57,34.77Zm-3-.36a.35.35,0,0,1-.21.23H50.15c0-.93.56-1.51,1.34-1.48A1.1,1.1,0,0,1,52.54,34.41Z"/><path class="cls-1" d="M78.17,31.32a4.62,4.62,0,0,0-2.59-.44A4,4,0,0,0,72.1,33a5.79,5.79,0,0,0-.39,4.21,3.9,3.9,0,0,0,1.63,2.34,5.11,5.11,0,0,0,4.18.65A3.35,3.35,0,0,0,80,38.11c.12-.29.08-.45-.26-.54-.63-.17-1.25-.37-1.87-.59-.26-.09-.4,0-.51.22a1.2,1.2,0,0,1-1.25.78,1.41,1.41,0,0,1-1.4-1.09c-.19-.64-.18-.66.47-.66h5c0-.66,0-1.24,0-1.82A3.64,3.64,0,0,0,78.17,31.32Zm-1,3.1a.4.4,0,0,1-.28.22c-.31,0-.64,0-.95,0H75c-.24,0-.32-.09-.28-.33a1.32,1.32,0,0,1,1.36-1.14A1.11,1.11,0,0,1,77.13,34.42Z"/><path class="cls-1" d="M106.34,20.5c-.53-.07-1.07-.16-1.59-.28-.32-.06-.61-.23-.57-.61s.33-.49.65-.53a1,1,0,0,1,1,.57c.08.19.15.24.37.2.75-.13,1.5-.24,2.26-.34.3,0,.33-.15.25-.41a2.75,2.75,0,0,0-1.69-1.88,5.57,5.57,0,0,0-4,0,2.8,2.8,0,0,0-1.86,3.52,2.61,2.61,0,0,0,2.19,1.86c.67.17,1.35.3,2,.51a.65.65,0,0,1,.38.5.79.79,0,0,1-.44.51c-.76.31-1.47-.07-2-1l-2.25.89c-.23.1-.2.25-.11.44a3,3,0,0,0,1.87,1.71,6.59,6.59,0,0,0,3.93,0,2.81,2.81,0,0,0,1.73-1.22A2.91,2.91,0,0,0,106.34,20.5Z"/><path class="cls-1" d="M97.16,20.5a16,16,0,0,1-1.7-.36.64.64,0,0,1-.38-.49.77.77,0,0,1,.44-.51c.61-.22,1.06,0,1.34.74.88-.13,1.74-.25,2.6-.4a.34.34,0,0,0,.2-.29,2.62,2.62,0,0,0-1.19-1.69,5.16,5.16,0,0,0-4.53-.3,2.8,2.8,0,0,0-1.8,3.65,2.67,2.67,0,0,0,2.14,1.71c.68.17,1.38.31,2,.51a.64.64,0,0,1,.35.49.72.72,0,0,1-.39.5,1.42,1.42,0,0,1-1.85-.72c-.11-.25-.2-.3-.45-.19-.61.27-1.23.51-1.86.73-.3.12-.32.27-.2.54a3,3,0,0,0,1.87,1.67,6.57,6.57,0,0,0,4.09,0,2.83,2.83,0,0,0,1.41-4.39A3.31,3.31,0,0,0,97.16,20.5Z"/><path class="cls-1" d="M62,24.15a.75.75,0,0,1-.21,0A1.53,1.53,0,0,1,60.2,23L58,23.92c-.26.1-.22.23-.14.42a3.08,3.08,0,0,0,1.9,1.75,6.7,6.7,0,0,0,3.66.1,2.78,2.78,0,0,0,2.34-3.36A2.94,2.94,0,0,0,63.1,20.5c-.56-.08-1.12-.19-1.67-.31a.52.52,0,0,1-.45-.57.51.51,0,0,1,.5-.51,1,1,0,0,1,.61,0,5.61,5.61,0,0,1,.83.7l2.38-.34c.29,0,.34-.17.26-.42a2.81,2.81,0,0,0-1.7-1.87,5.57,5.57,0,0,0-4.19,0,2.66,2.66,0,0,0-1.75,2.63,2.41,2.41,0,0,0,1.63,2.46,5.83,5.83,0,0,0,.71.22c.59.14,1.19.25,1.78.41.29.08.6.23.58.61S62.27,24.08,62,24.15Z"/><path class="cls-1" d="M63.18,31.1a.4.4,0,0,0-.47.33c-.39,1.26-.8,2.51-1.2,3.76-.16.52-.3,1.05-.48,1.69-.07-.2-.11-.29-.13-.37-.47-1.67-.93-3.34-1.41-5,0-.15-.19-.38-.3-.38-1,0-2,0-3.09,0,0,.11,0,.14,0,.16,1,2.85,2,5.7,3,8.56.09.28.23.32.48.32.87,0,1.75,0,2.62,0a.53.53,0,0,0,.6-.42l2.89-8c.07-.2.12-.41.2-.67C64.93,31.11,64.05,31.12,63.18,31.1Z"/><path class="cls-1" d="M73.05,11.74c.7-2,1.42-3.9,2.13-5.85.33-.92.67-1.84,1-2.83H73.49a.42.42,0,0,0-.49.37C72.45,5.2,71.88,7,71.3,8.79c0-.13-.1-.23-.13-.33-.46-1.65-.93-3.3-1.37-5a.51.51,0,0,0-.61-.45c-.75,0-1.5,0-2.25,0h-.57a1.54,1.54,0,0,0,0,.19c1,2.86,2,5.73,3,8.59a.37.37,0,0,0,.43.28c.89,0,1.78,0,2.67,0A.49.49,0,0,0,73.05,11.74Z"/><path class="cls-1" d="M87.4,12.12c.79,0,1.58,0,2.37,0,.41,0,.49-.14.48-.5,0-1.14,0-2.27,0-3.41a1.64,1.64,0,0,1,2.22-1.75l.54.14.17-3.55c-1.44.06-2.53.52-3,1.93L90,5c-.06-.49-.11-1-.19-1.47,0-.15-.18-.4-.28-.41-.82,0-1.63,0-2.45,0a1.37,1.37,0,0,0-.05.19c0,2.86,0,5.71,0,8.57C87.06,12.08,87.18,12.13,87.4,12.12Z"/><path class="cls-1" d="M59.34,11.74c0,.29.1.4.39.39.77,0,1.55,0,2.33,0,.34,0,.43-.1.43-.43,0-1.16,0-2.33,0-3.49a1.62,1.62,0,0,1,2.15-1.74l.59.12L65.42,3c-.59.16-1.11.25-1.61.43A2.73,2.73,0,0,0,62.31,5c-.08-.54-.18-1.08-.24-1.62,0-.26-.13-.33-.37-.32h-2c-.27,0-.36.09-.36.36C59.35,6.19,59.35,9,59.34,11.74Z"/><path class="cls-1" d="M70.27,18.26c0-.31,0-.61,0-.91,0-.09-.15-.24-.24-.24-1,0-1.91,0-2.89,0a1.34,1.34,0,0,0,0,.22q0,4.24,0,8.5c0,.28.12.34.38.34.79,0,1.58,0,2.37,0,.35,0,.44-.11.44-.45C70.26,23.23,70.27,20.74,70.27,18.26Z"/><path class="cls-1" d="M69.71,31.11c-.78,0-1.56,0-2.33,0-.35,0-.46.09-.45.44,0,1.36,0,2.73,0,4.09h0c0,1.37,0,2.74,0,4.12,0,.31.09.41.4.41.78,0,1.55,0,2.33,0,.31,0,.41-.09.41-.41q0-4.14,0-8.28C70.07,31.19,70,31.1,69.71,31.11Z"/><path class="cls-1" d="M68.49,27.16a1.69,1.69,0,0,0-1.77,1.65,1.77,1.77,0,0,0,3.54.05A1.69,1.69,0,0,0,68.49,27.16Z"/><path class="cls-1" d="M68.66,13.16a1.66,1.66,0,1,0,0,3.32,1.64,1.64,0,0,0,1.76-1.64A1.62,1.62,0,0,0,68.66,13.16Z"/><path class="cls-1" d="M23.43,5V7.15h.46V5l.46.3c.07-.23,0-.38-.23-.38H23.2c-.29,0-.3.14-.22.37Z"/><path class="cls-1" d="M26.86,6.22c.43.35.48.47.18.91l.1.07a2.16,2.16,0,0,0,.36-.51.72.72,0,0,0-.25-.82c-.15-.12-.36-.2-.46-.35s-.05-.31-.07-.48c.16,0,.32,0,.47.07s.13.12.26.24l0-.42c-.8-.15-1.16.06-1,.65A1.26,1.26,0,0,0,26.86,6.22Z"/><path class="cls-1" d="M25.53,7.11H26L25.3,4.92c-.28.47-.28.58-.1,1s.13.47-.27.5a.56.56,0,0,0-.22.13C25.36,6.4,25.4,6.43,25.53,7.11Z"/><path class="cls-1" d="M5.56,5H5.14l.7,2.17H6a2.4,2.4,0,0,0,.07-.79A12.18,12.18,0,0,0,5.56,5Z"/><path class="cls-1" d="M17.79,5h-.45V7.17h.45Z"/><path class="cls-1" d="M8,7.26h.84c.44,0,.5-.08.44-.46l-.78.4V6.13l.38.24V5.8l-.39.25V5l.72.33V5H7.91A5.91,5.91,0,0,1,8,7.26Z"/><path class="cls-1" d="M14.79,7.16V6.27a.83.83,0,0,1,.28.45l0,0,0,.07a.57.57,0,0,0,.25.28l.08,0,.1,0h.19l-.13-.28-.06-.12-.06-.12-.06-.13,0,0a.61.61,0,0,1-.05-.12v0a.31.31,0,0,0,0-.08v0a.34.34,0,0,1,0-.1.53.53,0,0,1,.15-.27.33.33,0,0,0,.07-.13.51.51,0,0,0,0-.27A.56.56,0,0,0,15.13,5h-.82V7.18h.48Z"/></svg>