<svg id="Layer_1" data-name="Layer 1" xmlns="http://www.w3.org/2000/svg" xmlns:xlink="http://www.w3.org/1999/xlink" viewBox="0 0 151.61 24.78"><defs><style>.cls-1{fill:#fff;}.cls-2{fill:none;}.cls-3{clip-path:url(#clip-path);}.cls-4{clip-path:url(#clip-path-2);}.cls-5{clip-path:url(#clip-path-3);}.cls-6{clip-path:url(#clip-path-4);}.cls-7{clip-path:url(#clip-path-5);}.cls-8{clip-path:url(#clip-path-6);}.cls-9{clip-path:url(#clip-path-7);}.cls-10{clip-path:url(#clip-path-8);}.cls-11{clip-path:url(#clip-path-9);}.cls-12{clip-path:url(#clip-path-10);}.cls-13{clip-path:url(#clip-path-11);}.cls-14{clip-path:url(#clip-path-13);}.cls-15{clip-path:url(#clip-path-15);}.cls-16{clip-path:url(#clip-path-17);}.cls-17{clip-path:url(#clip-path-19);}.cls-18{clip-path:url(#clip-path-21);}.cls-19{clip-path:url(#clip-path-23);}.cls-20{clip-path:url(#clip-path-25);}.cls-21{clip-path:url(#clip-path-26);}.cls-22{clip-path:url(#clip-path-27);}.cls-23{clip-path:url(#clip-path-28);}.cls-24{clip-path:url(#clip-path-29);}.cls-25{clip-path:url(#clip-path-30);}.cls-26{clip-path:url(#clip-path-31);}.cls-27{clip-path:url(#clip-path-32);}.cls-28{clip-path:url(#clip-path-33);}.cls-29{clip-path:url(#clip-path-34);}.cls-30{clip-path:url(#clip-path-35);}.cls-31{clip-path:url(#clip-path-36);}.cls-32{clip-path:url(#clip-path-37);}.cls-33{clip-path:url(#clip-path-38);}.cls-34{clip-path:url(#clip-path-39);}</style><clipPath id="clip-path"><path class="cls-1" d="M-191.34,29.94a12.19,12.19,0,0,1-12.19-12.19A12.18,12.18,0,0,1-191.34,5.57a12.18,12.18,0,0,1,12.19,12.18A12.19,12.19,0,0,1-191.34,29.94Zm0-25.92a13.74,13.74,0,0,0-13.74,13.73,13.74,13.74,0,0,0,13.74,13.74A13.74,13.74,0,0,0-177.6,17.75,13.74,13.74,0,0,0-191.34,4Z"/></clipPath><clipPath id="clip-path-2"><path class="cls-1" d="M-186.78,20.38a.69.69,0,0,1-.94.25l-1.68-1v-.8l.69-.39,1.67,1A.69.69,0,0,1-186.78,20.38Zm-3.77-2.17-.79.45-.79-.45V17.3l.79-.46.79.46Zm-1.48-5a.69.69,0,0,1,.69-.69.69.69,0,0,1,.69.69v1.93l-.69.4-.69-.4Zm-1.25,6.49-1.68,1a.69.69,0,0,1-.94-.25.69.69,0,0,1,.26-.93l1.67-1,.69.39v.8Zm11.92,3.62-2-2.33a.34.34,0,0,0-.09-.08.4.4,0,0,0-.32,0,1.06,1.06,0,0,1-1,0,1.1,1.1,0,0,1-.51-.72h0a2.68,2.68,0,0,0-1.3-1.84l-.89-.52,5.07-2.93-.62-1.09-5.71,3.3-.69-.4v-.79l5.71-3.29-.63-1.09-5.08,2.93v-1a2.67,2.67,0,0,0-.94-2,1.05,1.05,0,0,1-.37-.81,1,1,0,0,1,.46-.87.35.35,0,0,0,.15-.29.52.52,0,0,0,0-.11l-1-2.89a.22.22,0,0,0-.2-.14.22.22,0,0,0-.2.14l-1,2.89a.52.52,0,0,0,0,.11.35.35,0,0,0,.15.29h0a1,1,0,0,1,.46.87,1.05,1.05,0,0,1-.37.81,2.67,2.67,0,0,0-.94,2v1l-5.08-2.93-.63,1.09,5.71,3.29v.79l-.69.4-5.7-3.3-.63,1.09,5.08,2.93-.9.52a2.68,2.68,0,0,0-1.3,1.84,1.07,1.07,0,0,1-.51.72,1.06,1.06,0,0,1-1,0,.4.4,0,0,0-.32,0l-.09.08-2,2.32a.23.23,0,0,0,0,.25.21.21,0,0,0,.23.1l3-.56.11,0a.35.35,0,0,0,.17-.27,1.06,1.06,0,0,1,.53-.84,1.05,1.05,0,0,1,.88-.08,2.71,2.71,0,0,0,2.25-.21l.89-.51V27H-192V20.39l.68-.39.69.39V27h1.25V21.12l.9.51a2.69,2.69,0,0,0,2.24.21,1.08,1.08,0,0,1,.89.08,1,1,0,0,1,.52.84.35.35,0,0,0,.17.27l.11,0,3,.56a.21.21,0,0,0,.23-.1A.21.21,0,0,0-181.36,23.29Z"/></clipPath><clipPath id="clip-path-3"><polygon class="cls-1" points="-100.86 14.64 -105.4 14.64 -105.4 5.65 -109.55 5.65 -109.55 29.09 -105.4 29.09 -105.4 18.8 -100.86 18.8 -100.86 29.09 -96.62 29.09 -96.62 5.65 -100.86 5.65 -100.86 14.64"/></clipPath><clipPath id="clip-path-4"><polygon class="cls-1" points="-174.82 5.65 -170.22 20.02 -170.22 29.09 -165.61 29.09 -165.61 19.56 -160.84 5.65 -164.71 5.65 -167.85 14.78 -170.68 5.65 -174.82 5.65"/></clipPath><clipPath id="clip-path-5"><polygon class="cls-1" points="-134.81 5.65 -136.8 16.8 -139.1 5.65 -145.58 5.65 -145.58 29.09 -141.87 29.09 -141.87 11.42 -138.7 26.78 -135.23 26.78 -132.42 11.17 -132.42 29.09 -128.06 29.09 -128.06 5.65 -134.81 5.65"/></clipPath><clipPath id="clip-path-6"><path class="cls-1" d="M-89.31,19.73l1.76-10.48,1.72,10.48ZM-84,5.65H-90.4l-4.33,23.44h3.84l.92-5.45h4.77l.89,5.45h4.23Z"/></clipPath><clipPath id="clip-path-7"><path class="cls-1" d="M-120.75,19.73-119,9.25l1.72,10.48Zm-1.09-14.08-4.33,23.44h3.84l.92-5.45h4.77l.89,5.45h4.23l-3.9-23.44Z"/></clipPath><clipPath id="clip-path-8"><path class="cls-1" d="M-156.78,19.73-155,9.25l1.72,10.48Zm-1.09-14.08-4.33,23.44h3.84l.92-5.45h4.78l.89,5.45h4.22l-3.9-23.44Z"/></clipPath><clipPath id="clip-path-9"><path class="cls-1" d="M21,1.18,12.08,11.8l9.7,11.78H14.22L6.87,14.09l-.18-.23v9.72H.86V1.19H6.67v9.27l.21-.26q3.43-4.51,6.86-9c2.32,0,4.63,0,6.94,0Z"/></clipPath><clipPath id="clip-path-10"><rect class="cls-1" x="-966.96" y="-945.01" width="1903.91" height="1070.95"/></clipPath><clipPath id="clip-path-11"><path class="cls-1" d="M43.23,15.21H48L45.64,8.07Zm14.05,8.38H51.06l-1.14-3.05c-.08-.21-.17-.42-.23-.64s-.13-.2-.29-.2H41.83a.26.26,0,0,0-.29.2l-1.39,3.51-.07.17H33.9a1.37,1.37,0,0,1,.07-.24L42.39,1.42l.1-.24h6.37l.08.21,8.26,22C57.22,23.42,57.25,23.49,57.28,23.59Z"/></clipPath><clipPath id="clip-path-13"><path class="cls-1" d="M65,17.87,72.19,0C74.6,6,77,11.94,79.42,17.93c.19-.52.36-1,.52-1.47,1.76-5,5.27-15,5.27-15l.08-.23H88c-2.87,7.87-5.72,15.71-8.59,23.6-2.43-6-4.83-12-7.24-18l-7.25,18L56.36,1.2a1.75,1.75,0,0,1,.23,0l2.28,0h.22s0,.13.06.21l3.12,8.92,2.58,7.36c0,.07.05.13.07.19Z"/></clipPath><clipPath id="clip-path-15"><rect class="cls-1" x="24.82" y="1.19" width="5.8" height="22.39"/></clipPath><clipPath id="clip-path-17"><path class="cls-1" d="M93.52,14.89H101L97.32,6ZM97.38.09l10.08,23.49h-2.79s-.06-.14-.08-.2c-.81-2-1.63-3.93-2.44-5.89a.35.35,0,0,0-.39-.27c-3,0-6,0-9,0a.31.31,0,0,0-.34.23L89.88,23.4l-.09.2H87Z"/></clipPath><clipPath id="clip-path-19"><path class="cls-1" d="M150.86,1.18a1.45,1.45,0,0,1-.09.22l-10.24,22-.1.19H136l.11-.22,10.26-22,.08-.19h4.3Z"/></clipPath><clipPath id="clip-path-21"><path class="cls-1" d="M129.85,23.58c.3-.65.58-1.25.85-1.85,3.16-6.76,9.46-20.29,9.46-20.29l.14-.28h4.41l-.11.26c-3.41,7.31-10.22,21.94-10.22,21.94l-.09.22h-4.44Z"/></clipPath><clipPath id="clip-path-23"><path class="cls-1" d="M116.2,23.58h-2.51V14.23a.89.89,0,0,0-.12-.45Q110,7.63,106.51,1.48c0-.09-.09-.17-.15-.28l.24,0c.8,0,1.6,0,2.4,0h.23l.16.22,5.4,9.48.16.25c.06-.1.11-.18.15-.26l5.4-9.45a2.64,2.64,0,0,1,.14-.24h.26c.78,0,1.57,0,2.35,0h.28a2.23,2.23,0,0,1-.14.27q-3.52,6.16-7.07,12.32a1.13,1.13,0,0,0-.12.47c0,3,0,6,0,9Z"/></clipPath><clipPath id="clip-path-25"><path class="cls-1" d="M-585.26,125.13c.11-.91.15-1.83.35-2.73.48-2,.94-4,1.51-6a3.24,3.24,0,0,1,2.88-2.29c.84-.14,1.35.23,1.29,1.09a30.2,30.2,0,0,1-.48,3.79,37.27,37.27,0,0,0-.45,11.64,11.71,11.71,0,0,0,.92,3.11c1.85,4,7,3.64,9,.66a13.6,13.6,0,0,0,1.85-5,16.86,16.86,0,0,0,.26-6.29,34.29,34.29,0,0,0-1.1-3.84,5.49,5.49,0,0,1-.06-3.4,3.28,3.28,0,0,1,1.59-1.91,1.5,1.5,0,0,1,1.36-.2,1.46,1.46,0,0,1,.94,1,13,13,0,0,1,.84,3.12,39.49,39.49,0,0,1-.19,10.36,14.74,14.74,0,0,1-3.34,7.62,8.8,8.8,0,0,1-5.79,3l-.36.1h-1.89c-.21,0-.41-.09-.62-.11a8.36,8.36,0,0,1-7.2-5.13,13.72,13.72,0,0,1-.81-2.52c-.22-1-.31-2-.46-3.06Z"/></clipPath><clipPath id="clip-path-26"><path class="cls-1" d="M-484.88,132.61A4.64,4.64,0,0,0-481,130a3.38,3.38,0,0,0,.16-.84,2.14,2.14,0,0,0-1.21-2.11,2,2,0,0,0-2.26.74A6.24,6.24,0,0,0-484.88,132.61Zm29.59-6.83a1.74,1.74,0,0,0-.11.18,2,2,0,0,1-1.84,1.58,2.28,2.28,0,0,1-2.5-1.18c-.48-.9-.84-1-1.81-.61a4.65,4.65,0,0,0-2.23,2.06c-.93,1.59-1.79,3.21-2.61,4.86-.66,1.33-1.21,2.73-1.84,4.09a6.8,6.8,0,0,1-.84,1.42,1.16,1.16,0,0,1-1,.53,1.16,1.16,0,0,1-1-.62,10.29,10.29,0,0,1-1-2.32c-.39-1.31-.66-2.66-1-4a1.64,1.64,0,0,0-.17-.45l-.3.58a13.74,13.74,0,0,1-4.28,5.22,8,8,0,0,1-6,1.46,4.82,4.82,0,0,1-4.42-4.35,9.81,9.81,0,0,1,1.91-7.81,6,6,0,0,1,4.07-2.45,4.5,4.5,0,0,1,4.7,4.5,4.24,4.24,0,0,1-2.11,3.8,32.34,32.34,0,0,1-3.1,1.45c-.31.14-.65.25-.95.41s-.52.6-.16,1a2.22,2.22,0,0,0,.83.51,4.75,4.75,0,0,0,4.62-.68,9.87,9.87,0,0,0,3.22-3.91c.66-1.37,1.13-2.83,1.67-4.26a15.08,15.08,0,0,1,.6-1.44,2,2,0,0,1,.57-.64c.7-.52,1.21-.37,1.39.48.24,1.2.37,2.42.57,3.63.17,1,.34,2,.57,3,.11.45.3,1,.83,1s.62-.54.79-.9c.63-1.38,1.19-2.79,1.85-4.18a11.32,11.32,0,0,1,3.07-4,6.25,6.25,0,0,1,4.61-1.34,3.49,3.49,0,0,1,3.34,2.57Z"/></clipPath><clipPath id="clip-path-27"><path class="cls-1" d="M-515.54,130.52a5,5,0,0,0,.65,2.5.55.55,0,0,0,.33.32.51.51,0,0,0,.45-.06,4,4,0,0,0,2.11-4.94,1.45,1.45,0,0,0-2.6-.62,3.42,3.42,0,0,0-.94,2.77Zm-7.33-10.85a8.69,8.69,0,0,0,0-1.25,8.57,8.57,0,0,0-.5-2.07,1.13,1.13,0,0,0-1-.73,1.14,1.14,0,0,0-1.06.68,5.33,5.33,0,0,0-.56,1.4,26.74,26.74,0,0,0-.25,9.77,4.13,4.13,0,0,0,.36,1.18c.24.49.6.5.91.06a4.79,4.79,0,0,0,.52-.94A21.63,21.63,0,0,0-522.87,119.67Zm9.37,15.18a3.75,3.75,0,0,0,3.52.74,6.88,6.88,0,0,0,4-3.19,31,31,0,0,0,3-6.62,5.85,5.85,0,0,1,.83-1.56c.59-.74,1.33-.66,1.67.2.48,1.26.84,2.57,1.24,3.85.45,1.47.84,2.95,1.31,4.41a8.44,8.44,0,0,0,.89,1.84c.83,1.35,1.94,1.33,2.74-.07a6.49,6.49,0,0,0,.76-5,7.79,7.79,0,0,1,0-4.23,3.74,3.74,0,0,1,1.4-2.06c1.24-.84,2.46-.44,2.58,1a14.82,14.82,0,0,1-.25,3.7,17.74,17.74,0,0,1-2.9,7.16,16.11,16.11,0,0,1-2.43,2.59,4.09,4.09,0,0,1-2.5,1,2.7,2.7,0,0,1-2.74-1.38,21.66,21.66,0,0,1-1.19-2.76c-.25-.62-.4-1.28-.67-1.88s-.67-.69-1.15-.24-.84.92-1.24,1.36a35.75,35.75,0,0,1-2.8,2.84,9.55,9.55,0,0,1-6.05,2.16,4.52,4.52,0,0,1-3.41-1.35,1.66,1.66,0,0,1-.26-.39c-1.09.49-2,1-3,1.32a4.94,4.94,0,0,1-5.6-1.29c-.29-.3-.61-.57-.92-.84a1.13,1.13,0,0,0-1.49-.11c-.54.35-1.06.73-1.6,1.11a8.54,8.54,0,0,1-4.86,1.56,3.41,3.41,0,0,1-2.82-1.26,23,23,0,0,1-1.66-2.46c-.84-1.37-1.25-1.4-2.21-.08-.54.74-1,1.53-1.57,2.26a7.21,7.21,0,0,1-1,1.08,1.46,1.46,0,0,1-1,.47,1.49,1.49,0,0,1-1.06-.41,6.17,6.17,0,0,1-1.3-1.67c-.6-1.11-1.07-2.29-1.63-3.42a14.11,14.11,0,0,0-1.1-2,1.58,1.58,0,0,0-1.14-.86,1.58,1.58,0,0,0-1.37.41,35,35,0,0,0-3.08,2.5c-1.43,1.26-2.81,2.59-4.24,3.86a15.27,15.27,0,0,1-1.75,1.27,1.07,1.07,0,0,1-1.27,0,1.07,1.07,0,0,1-.4-1.21c.31-1.29.66-2.58,1-3.87.56-2.09,1.11-4.18,1.67-6.27a2.23,2.23,0,0,1,1.3-1.67c.6-.25.83-.11,1,.51.27,1,.47,2.08.84,3.09.47,1.47.89,1.54,1.85.33.84-1.06,1.67-2.19,2.51-3.26a16.65,16.65,0,0,1,1.75-1.91c1-.94,1.84-.83,2.43.44.52,1.1.84,2.29,1.28,3.44s.7,2.37,1.2,3.51a7.06,7.06,0,0,0,1.17,1.91A1.49,1.49,0,0,0-544,134a1.51,1.51,0,0,0,1.19-.59,5.6,5.6,0,0,0,1.67-3.33,23.15,23.15,0,0,1,.77-3.79,3.72,3.72,0,0,1,1-1.48,1.4,1.4,0,0,1,1.34-.5,1.42,1.42,0,0,1,1.07.94,6.56,6.56,0,0,1,.43,3.66,9,9,0,0,1-.27,1.45,4,4,0,0,0,3.54,5.06,5.08,5.08,0,0,0,4.68-2.59.86.86,0,0,0,0-.63,24.45,24.45,0,0,1-.12-16.13,24.58,24.58,0,0,1,1.54-3.08,2.94,2.94,0,0,1,.37-.55,3.08,3.08,0,0,1,5.13.25,6.83,6.83,0,0,1,1.2,3.48,24.44,24.44,0,0,1-2.91,14.42,18.5,18.5,0,0,0-.83,1.67.8.8,0,0,0-.09.6c.5,1.43,2.81,3.49,4.81,3.12l.27,0c1-.26,1.07-.4,1-1.41a11.33,11.33,0,0,1,3.06-9.48,4.5,4.5,0,0,1,2.58-1.45,2.74,2.74,0,0,1,2.67,1.09c1.46,1.78,2.42,4.85-.16,7.39-1,.87-1.95,1.69-3,2.46Z"/></clipPath><clipPath id="clip-path-28"><path class="cls-1" d="M-539.89,115.31A3.08,3.08,0,0,1-539,113a2.34,2.34,0,0,1,2.73-.54,2,2,0,0,1,1.22,2.25,4.93,4.93,0,0,1-.62,1.86,2.3,2.3,0,0,1-2.73,1.11A2.25,2.25,0,0,1-539.89,115.31Z"/></clipPath><clipPath id="clip-path-29"><path class="cls-2" d="M-172.22,153.79h-4.2v-5.7h4.2a2.79,2.79,0,0,1,3,2.8A2.71,2.71,0,0,1-172.22,153.79Zm.5-8.4h-7.8v17.9h3.1v-6.7h4.7a5.46,5.46,0,0,0,5.8-5.6A5.46,5.46,0,0,0-171.72,145.39Z"/></clipPath><clipPath id="clip-path-30"><path class="cls-2" d="M-157.82,161.09c-2.4,0-3.7-2-3.7-4.3s1.3-4.3,3.7-4.3,3.7,2,3.7,4.3S-155.42,161.09-157.82,161.09Zm0-11.1a6.46,6.46,0,0,0-6.6,6.8,6.46,6.46,0,0,0,6.6,6.8,6.46,6.46,0,0,0,6.6-6.8A6.46,6.46,0,0,0-157.82,150Z"/></clipPath><clipPath id="clip-path-31"><path class="cls-2" d="M-121.72,152.29a3.46,3.46,0,0,1,3.6,3.2h-7.2A3.53,3.53,0,0,1-121.72,152.29Zm0-2.3a6.5,6.5,0,0,0-6.5,6.8,6.49,6.49,0,0,0,6.7,6.8,7.26,7.26,0,0,0,5.2-1.9l-1.3-1.9a5.43,5.43,0,0,1-3.6,1.4,3.91,3.91,0,0,1-4.1-3.6h9.9v-.7C-115.42,153-117.92,150-121.72,150Z"/></clipPath><clipPath id="clip-path-32"><path class="cls-2" d="M-109.62,152.09v-1.8h-2.8v13h2.8v-8.2c1-2.3,3.9-2.6,4.7-2.5v-2.7A6.36,6.36,0,0,0-109.62,152.09Z"/></clipPath><clipPath id="clip-path-33"><path class="cls-2" d="M-94.22,153.79h-4.3v-5.7h4.2a2.79,2.79,0,0,1,3,2.8A2.68,2.68,0,0,1-94.22,153.79Zm.4-8.4h-7.8v17.9h3.1v-6.7h4.7A5.46,5.46,0,0,0-88,151,5.41,5.41,0,0,0-93.82,145.39Z"/></clipPath><clipPath id="clip-path-34"><path class="cls-2" d="M-73.92,145a1.75,1.75,0,0,0-1.7,1.7,1.69,1.69,0,0,0,1.7,1.7,1.69,1.69,0,0,0,1.7-1.7A1.63,1.63,0,0,0-73.92,145Z"/></clipPath><clipPath id="clip-path-35"><polygon class="cls-2" points="-75.22 163.29 -72.42 163.29 -72.42 150.29 -75.22 151.69 -75.22 163.29"/></clipPath><clipPath id="clip-path-36"><path class="cls-2" d="M-62.72,152.49a3.39,3.39,0,0,1,2.9,1.5l1.8-1.7a5.78,5.78,0,0,0-4.9-2.3,6.46,6.46,0,0,0-6.6,6.8,6.46,6.46,0,0,0,6.6,6.8,5.78,5.78,0,0,0,4.9-2.3l-1.8-1.7a3.39,3.39,0,0,1-2.9,1.5c-2.3,0-3.9-1.8-3.9-4.3S-65,152.49-62.72,152.49Z"/></clipPath><clipPath id="clip-path-37"><path class="cls-2" d="M-49.82,152.29a3.46,3.46,0,0,1,3.6,3.2h-7.2A3.53,3.53,0,0,1-49.82,152.29Zm6.3,4.7c0-4.1-2.5-7.1-6.3-7.1a6.5,6.5,0,0,0-6.5,6.8,6.49,6.49,0,0,0,6.7,6.8,7.26,7.26,0,0,0,5.2-1.9l-1.3-1.9a5.43,5.43,0,0,1-3.6,1.4,3.91,3.91,0,0,1-4.1-3.6h9.9Z"/></clipPath><clipPath id="clip-path-38"><path class="cls-2" d="M-82.72,152.09v-1.8h-2.8v13h2.8v-8.2c1-2.3,3.9-2.6,4.7-2.5v-2.7A6.36,6.36,0,0,0-82.72,152.09Z"/></clipPath><clipPath id="clip-path-39"><polygon class="cls-2" points="-131.62 145.29 -135.62 158.59 -138.62 148.89 -141.82 150.49 -144.32 158.79 -146.22 152.69 -148.72 153.99 -145.92 163.09 -142.82 163.09 -140.02 153.99 -137.22 163.09 -134.22 163.09 -128.22 143.59 -131.62 145.29"/></clipPath></defs><title>kia</title><path class="cls-1" d="M-191.34,29.94a12.19,12.19,0,0,1-12.19-12.19A12.18,12.18,0,0,1-191.34,5.57a12.18,12.18,0,0,1,12.19,12.18A12.19,12.19,0,0,1-191.34,29.94Zm0-25.92a13.74,13.74,0,0,0-13.74,13.73,13.74,13.74,0,0,0,13.74,13.74A13.74,13.74,0,0,0-177.6,17.75,13.74,13.74,0,0,0-191.34,4Z"/><g class="cls-3"><rect class="cls-1" x="-953.83" y="-938.86" width="1901.6" height="1069.65"/></g><path class="cls-1" d="M-186.78,20.38a.69.69,0,0,1-.94.25l-1.68-1v-.8l.69-.39,1.67,1A.69.69,0,0,1-186.78,20.38Zm-3.77-2.17-.79.45-.79-.45V17.3l.79-.46.79.46Zm-1.48-5a.69.69,0,0,1,.69-.69.69.69,0,0,1,.69.69v1.93l-.69.4-.69-.4Zm-1.25,6.49-1.68,1a.69.69,0,0,1-.94-.25.69.69,0,0,1,.26-.93l1.67-1,.69.39v.8Zm11.92,3.62-2-2.33a.34.34,0,0,0-.09-.08.4.4,0,0,0-.32,0,1.06,1.06,0,0,1-1,0,1.1,1.1,0,0,1-.51-.72h0a2.68,2.68,0,0,0-1.3-1.84l-.89-.52,5.07-2.93-.62-1.09-5.71,3.3-.69-.4v-.79l5.71-3.29-.63-1.09-5.08,2.93v-1a2.67,2.67,0,0,0-.94-2,1.05,1.05,0,0,1-.37-.81,1,1,0,0,1,.46-.87.35.35,0,0,0,.15-.29.52.52,0,0,0,0-.11l-1-2.89a.22.22,0,0,0-.2-.14.22.22,0,0,0-.2.14l-1,2.89a.52.52,0,0,0,0,.11.35.35,0,0,0,.15.29h0a1,1,0,0,1,.46.87,1.05,1.05,0,0,1-.37.81,2.67,2.67,0,0,0-.94,2v1l-5.08-2.93-.63,1.09,5.71,3.29v.79l-.69.4-5.7-3.3-.63,1.09,5.08,2.93-.9.52a2.68,2.68,0,0,0-1.3,1.84,1.07,1.07,0,0,1-.51.72,1.06,1.06,0,0,1-1,0,.4.4,0,0,0-.32,0l-.09.08-2,2.32a.23.23,0,0,0,0,.25.21.21,0,0,0,.23.1l3-.56.11,0a.35.35,0,0,0,.17-.27,1.06,1.06,0,0,1,.53-.84,1.05,1.05,0,0,1,.88-.08,2.71,2.71,0,0,0,2.25-.21l.89-.51V27H-192V20.39l.68-.39.69.39V27h1.25V21.12l.9.51a2.69,2.69,0,0,0,2.24.21,1.08,1.08,0,0,1,.89.08,1,1,0,0,1,.52.84.35.35,0,0,0,.17.27l.11,0,3,.56a.21.21,0,0,0,.23-.1A.21.21,0,0,0-181.36,23.29Z"/><g class="cls-4"><rect class="cls-1" x="-953.83" y="-938.86" width="1901.6" height="1069.65"/></g><polygon class="cls-1" points="-100.86 14.64 -105.4 14.64 -105.4 5.65 -109.55 5.65 -109.55 29.09 -105.4 29.09 -105.4 18.8 -100.86 18.8 -100.86 29.09 -96.62 29.09 -96.62 5.65 -100.86 5.65 -100.86 14.64"/><g class="cls-5"><rect class="cls-1" x="-953.83" y="-938.86" width="1901.6" height="1069.65"/></g><polygon class="cls-1" points="-174.82 5.65 -170.22 20.02 -170.22 29.09 -165.61 29.09 -165.61 19.56 -160.84 5.65 -164.71 5.65 -167.85 14.78 -170.68 5.65 -174.82 5.65"/><g class="cls-6"><rect class="cls-1" x="-953.83" y="-938.86" width="1901.6" height="1069.65"/></g><polygon class="cls-1" points="-134.81 5.65 -136.8 16.8 -139.1 5.65 -145.58 5.65 -145.58 29.09 -141.87 29.09 -141.87 11.42 -138.7 26.78 -135.23 26.78 -132.42 11.17 -132.42 29.09 -128.06 29.09 -128.06 5.65 -134.81 5.65"/><g class="cls-7"><rect class="cls-1" x="-953.83" y="-938.86" width="1901.6" height="1069.65"/></g><path class="cls-1" d="M-89.31,19.73l1.76-10.48,1.72,10.48ZM-84,5.65H-90.4l-4.33,23.44h3.84l.92-5.45h4.77l.89,5.45h4.23Z"/><g class="cls-8"><rect class="cls-1" x="-953.83" y="-938.86" width="1901.6" height="1069.65"/></g><path class="cls-1" d="M-120.75,19.73-119,9.25l1.72,10.48Zm-1.09-14.08-4.33,23.44h3.84l.92-5.45h4.77l.89,5.45h4.23l-3.9-23.44Z"/><g class="cls-9"><rect class="cls-1" x="-953.83" y="-938.86" width="1901.6" height="1069.65"/></g><path class="cls-1" d="M-156.78,19.73-155,9.25l1.72,10.48Zm-1.09-14.08-4.33,23.44h3.84l.92-5.45h4.78l.89,5.45h4.22l-3.9-23.44Z"/><g class="cls-10"><rect class="cls-1" x="-953.83" y="-938.86" width="1901.6" height="1069.65"/></g><path class="cls-1" d="M21,1.18,12.08,11.8l9.7,11.78H14.22L6.87,14.09l-.18-.23v9.72H.86V1.19H6.67v9.27l.21-.26q3.43-4.51,6.86-9c2.32,0,4.63,0,6.94,0Z"/><g class="cls-11"><rect class="cls-1" x="-966.96" y="-945.01" width="1903.91" height="1070.95"/><g class="cls-12"><rect class="cls-1" x="-4.09" y="-3.78" width="30.84" height="32.34"/></g></g><path class="cls-1" d="M43.23,15.21H48L45.64,8.07Zm14.05,8.38H51.06l-1.14-3.05c-.08-.21-.17-.42-.23-.64s-.13-.2-.29-.2H41.83a.26.26,0,0,0-.29.2l-1.39,3.51-.07.17H33.9a1.37,1.37,0,0,1,.07-.24L42.39,1.42l.1-.24h6.37l.08.21,8.26,22C57.22,23.42,57.25,23.49,57.28,23.59Z"/><g class="cls-13"><rect class="cls-1" x="-966.96" y="-945.01" width="1903.91" height="1070.95"/><g class="cls-12"><rect class="cls-1" x="28.94" y="-3.78" width="33.3" height="32.33"/></g></g><path class="cls-1" d="M65,17.87,72.19,0C74.6,6,77,11.94,79.42,17.93c.19-.52.36-1,.52-1.47,1.76-5,5.27-15,5.27-15l.08-.23H88c-2.87,7.87-5.72,15.71-8.59,23.6-2.43-6-4.83-12-7.24-18l-7.25,18L56.36,1.2a1.75,1.75,0,0,1,.23,0l2.28,0h.22s0,.13.06.21l3.12,8.92,2.58,7.36c0,.07.05.13.07.19Z"/><g class="cls-14"><rect class="cls-1" x="-966.96" y="-945.01" width="1903.91" height="1070.95"/><g class="cls-12"><rect class="cls-1" x="51.4" y="-4.96" width="41.58" height="34.7"/></g></g><rect class="cls-1" x="24.82" y="1.19" width="5.8" height="22.39"/><g class="cls-15"><rect class="cls-1" x="-966.96" y="-945.01" width="1903.91" height="1070.95"/><g class="cls-12"><rect class="cls-1" x="19.86" y="-3.76" width="15.72" height="32.3"/></g></g><path class="cls-1" d="M93.52,14.89H101L97.32,6ZM97.38.09l10.08,23.49h-2.79s-.06-.14-.08-.2c-.81-2-1.63-3.93-2.44-5.89a.35.35,0,0,0-.39-.27c-3,0-6,0-9,0a.31.31,0,0,0-.34.23L89.88,23.4l-.09.2H87Z"/><g class="cls-16"><rect class="cls-1" x="-966.96" y="-945.01" width="1903.91" height="1070.95"/><g class="cls-12"><rect class="cls-1" x="82.08" y="-4.87" width="30.33" height="33.42"/></g></g><path class="cls-1" d="M150.86,1.18a1.45,1.45,0,0,1-.09.22l-10.24,22-.1.19H136l.11-.22,10.26-22,.08-.19h4.3Z"/><g class="cls-17"><rect class="cls-1" x="-966.96" y="-945.01" width="1903.91" height="1070.95"/><g class="cls-12"><rect class="cls-1" x="131.04" y="-3.8" width="24.78" height="32.35"/></g></g><path class="cls-1" d="M129.85,23.58c.3-.65.58-1.25.85-1.85,3.16-6.76,9.46-20.29,9.46-20.29l.14-.28h4.41l-.11.26c-3.41,7.31-10.22,21.94-10.22,21.94l-.09.22h-4.44Z"/><g class="cls-18"><rect class="cls-1" x="-966.96" y="-945.01" width="1903.91" height="1070.95"/><g class="cls-12"><rect class="cls-1" x="124.89" y="-3.8" width="24.78" height="32.35"/></g></g><path class="cls-1" d="M116.2,23.58h-2.51V14.23a.89.89,0,0,0-.12-.45Q110,7.63,106.51,1.48c0-.09-.09-.17-.15-.28l.24,0c.8,0,1.6,0,2.4,0h.23l.16.22,5.4,9.48.16.25c.06-.1.11-.18.15-.26l5.4-9.45a2.64,2.64,0,0,1,.14-.24h.26c.78,0,1.57,0,2.35,0h.28a2.23,2.23,0,0,1-.14.27q-3.52,6.16-7.07,12.32a1.13,1.13,0,0,0-.12.47c0,3,0,6,0,9Z"/><g class="cls-19"><rect class="cls-1" x="-966.96" y="-945.01" width="1903.91" height="1070.95"/><g class="cls-12"><rect class="cls-1" x="101.4" y="-3.78" width="27.09" height="32.32"/></g></g><path class="cls-1" d="M-585.26,125.13c.11-.91.15-1.83.35-2.73.48-2,.94-4,1.51-6a3.24,3.24,0,0,1,2.88-2.29c.84-.14,1.35.23,1.29,1.09a30.2,30.2,0,0,1-.48,3.79,37.27,37.27,0,0,0-.45,11.64,11.71,11.71,0,0,0,.92,3.11c1.85,4,7,3.64,9,.66a13.6,13.6,0,0,0,1.85-5,16.86,16.86,0,0,0,.26-6.29,34.29,34.29,0,0,0-1.1-3.84,5.49,5.49,0,0,1-.06-3.4,3.28,3.28,0,0,1,1.59-1.91,1.5,1.5,0,0,1,1.36-.2,1.46,1.46,0,0,1,.94,1,13,13,0,0,1,.84,3.12,39.49,39.49,0,0,1-.19,10.36,14.74,14.74,0,0,1-3.34,7.62,8.8,8.8,0,0,1-5.79,3l-.36.1h-1.89c-.21,0-.41-.09-.62-.11a8.36,8.36,0,0,1-7.2-5.13,13.72,13.72,0,0,1-.81-2.52c-.22-1-.31-2-.46-3.06Z"/><g class="cls-20"><rect class="cls-1" x="-947" y="-840.26" width="1945.48" height="1094.33"/></g><path class="cls-1" d="M-484.88,132.61A4.64,4.64,0,0,0-481,130a3.38,3.38,0,0,0,.16-.84,2.14,2.14,0,0,0-1.21-2.11,2,2,0,0,0-2.26.74A6.24,6.24,0,0,0-484.88,132.61Zm29.59-6.83a1.74,1.74,0,0,0-.11.18,2,2,0,0,1-1.84,1.58,2.28,2.28,0,0,1-2.5-1.18c-.48-.9-.84-1-1.81-.61a4.65,4.65,0,0,0-2.23,2.06c-.93,1.59-1.79,3.21-2.61,4.86-.66,1.33-1.21,2.73-1.84,4.09a6.8,6.8,0,0,1-.84,1.42,1.16,1.16,0,0,1-1,.53,1.16,1.16,0,0,1-1-.62,10.29,10.29,0,0,1-1-2.32c-.39-1.31-.66-2.66-1-4a1.64,1.64,0,0,0-.17-.45l-.3.58a13.74,13.74,0,0,1-4.28,5.22,8,8,0,0,1-6,1.46,4.82,4.82,0,0,1-4.42-4.35,9.81,9.81,0,0,1,1.91-7.81,6,6,0,0,1,4.07-2.45,4.5,4.5,0,0,1,4.7,4.5,4.24,4.24,0,0,1-2.11,3.8,32.34,32.34,0,0,1-3.1,1.45c-.31.14-.65.25-.95.41s-.52.6-.16,1a2.22,2.22,0,0,0,.83.51,4.75,4.75,0,0,0,4.62-.68,9.87,9.87,0,0,0,3.22-3.91c.66-1.37,1.13-2.83,1.67-4.26a15.08,15.08,0,0,1,.6-1.44,2,2,0,0,1,.57-.64c.7-.52,1.21-.37,1.39.48.24,1.2.37,2.42.57,3.63.17,1,.34,2,.57,3,.11.45.3,1,.83,1s.62-.54.79-.9c.63-1.38,1.19-2.79,1.85-4.18a11.32,11.32,0,0,1,3.07-4,6.25,6.25,0,0,1,4.61-1.34,3.49,3.49,0,0,1,3.34,2.57Z"/><g class="cls-21"><rect class="cls-1" x="-947" y="-840.26" width="1945.48" height="1094.33"/></g><path class="cls-1" d="M-515.54,130.52a5,5,0,0,0,.65,2.5.55.55,0,0,0,.33.32.51.51,0,0,0,.45-.06,4,4,0,0,0,2.11-4.94,1.45,1.45,0,0,0-2.6-.62,3.42,3.42,0,0,0-.94,2.77Zm-7.33-10.85a8.69,8.69,0,0,0,0-1.25,8.57,8.57,0,0,0-.5-2.07,1.13,1.13,0,0,0-1-.73,1.14,1.14,0,0,0-1.06.68,5.33,5.33,0,0,0-.56,1.4,26.74,26.74,0,0,0-.25,9.77,4.13,4.13,0,0,0,.36,1.18c.24.49.6.5.91.06a4.79,4.79,0,0,0,.52-.94A21.63,21.63,0,0,0-522.87,119.67Zm9.37,15.18a3.75,3.75,0,0,0,3.52.74,6.88,6.88,0,0,0,4-3.19,31,31,0,0,0,3-6.62,5.85,5.85,0,0,1,.83-1.56c.59-.74,1.33-.66,1.67.2.48,1.26.84,2.57,1.24,3.85.45,1.47.84,2.95,1.31,4.41a8.44,8.44,0,0,0,.89,1.84c.83,1.35,1.94,1.33,2.74-.07a6.49,6.49,0,0,0,.76-5,7.79,7.79,0,0,1,0-4.23,3.74,3.74,0,0,1,1.4-2.06c1.24-.84,2.46-.44,2.58,1a14.82,14.82,0,0,1-.25,3.7,17.74,17.74,0,0,1-2.9,7.16,16.11,16.11,0,0,1-2.43,2.59,4.09,4.09,0,0,1-2.5,1,2.7,2.7,0,0,1-2.74-1.38,21.66,21.66,0,0,1-1.19-2.76c-.25-.62-.4-1.28-.67-1.88s-.67-.69-1.15-.24-.84.92-1.24,1.36a35.75,35.75,0,0,1-2.8,2.84,9.55,9.55,0,0,1-6.05,2.16,4.52,4.52,0,0,1-3.41-1.35,1.66,1.66,0,0,1-.26-.39c-1.09.49-2,1-3,1.32a4.94,4.94,0,0,1-5.6-1.29c-.29-.3-.61-.57-.92-.84a1.13,1.13,0,0,0-1.49-.11c-.54.35-1.06.73-1.6,1.11a8.54,8.54,0,0,1-4.86,1.56,3.41,3.41,0,0,1-2.82-1.26,23,23,0,0,1-1.66-2.46c-.84-1.37-1.25-1.4-2.21-.08-.54.74-1,1.53-1.57,2.26a7.21,7.21,0,0,1-1,1.08,1.46,1.46,0,0,1-1,.47,1.49,1.49,0,0,1-1.06-.41,6.17,6.17,0,0,1-1.3-1.67c-.6-1.11-1.07-2.29-1.63-3.42a14.11,14.11,0,0,0-1.1-2,1.58,1.58,0,0,0-1.14-.86,1.58,1.58,0,0,0-1.37.41,35,35,0,0,0-3.08,2.5c-1.43,1.26-2.81,2.59-4.24,3.86a15.27,15.27,0,0,1-1.75,1.27,1.07,1.07,0,0,1-1.27,0,1.07,1.07,0,0,1-.4-1.21c.31-1.29.66-2.58,1-3.87.56-2.09,1.11-4.18,1.67-6.27a2.23,2.23,0,0,1,1.3-1.67c.6-.25.83-.11,1,.51.27,1,.47,2.08.84,3.09.47,1.47.89,1.54,1.85.33.84-1.06,1.67-2.19,2.51-3.26a16.65,16.65,0,0,1,1.75-1.91c1-.94,1.84-.83,2.43.44.52,1.1.84,2.29,1.28,3.44s.7,2.37,1.2,3.51a7.06,7.06,0,0,0,1.17,1.91A1.49,1.49,0,0,0-544,134a1.51,1.51,0,0,0,1.19-.59,5.6,5.6,0,0,0,1.67-3.33,23.15,23.15,0,0,1,.77-3.79,3.72,3.72,0,0,1,1-1.48,1.4,1.4,0,0,1,1.34-.5,1.42,1.42,0,0,1,1.07.94,6.56,6.56,0,0,1,.43,3.66,9,9,0,0,1-.27,1.45,4,4,0,0,0,3.54,5.06,5.08,5.08,0,0,0,4.68-2.59.86.86,0,0,0,0-.63,24.45,24.45,0,0,1-.12-16.13,24.58,24.58,0,0,1,1.54-3.08,2.94,2.94,0,0,1,.37-.55,3.08,3.08,0,0,1,5.13.25,6.83,6.83,0,0,1,1.2,3.48,24.44,24.44,0,0,1-2.91,14.42,18.5,18.5,0,0,0-.83,1.67.8.8,0,0,0-.09.6c.5,1.43,2.81,3.49,4.81,3.12l.27,0c1-.26,1.07-.4,1-1.41a11.33,11.33,0,0,1,3.06-9.48,4.5,4.5,0,0,1,2.58-1.45,2.74,2.74,0,0,1,2.67,1.09c1.46,1.78,2.42,4.85-.16,7.39-1,.87-1.95,1.69-3,2.46Z"/><g class="cls-22"><rect class="cls-1" x="-947" y="-840.26" width="1945.48" height="1094.33"/></g><path class="cls-1" d="M-539.89,115.31A3.08,3.08,0,0,1-539,113a2.34,2.34,0,0,1,2.73-.54,2,2,0,0,1,1.22,2.25,4.93,4.93,0,0,1-.62,1.86,2.3,2.3,0,0,1-2.73,1.11A2.25,2.25,0,0,1-539.89,115.31Z"/><g class="cls-23"><rect class="cls-1" x="-947" y="-840.26" width="1945.48" height="1094.33"/></g></svg>