<svg id="Layer_1" data-name="Layer 1" xmlns="http://www.w3.org/2000/svg" xmlns:xlink="http://www.w3.org/1999/xlink" viewBox="0 0 105 30.82"><defs><style>.cls-1{fill:#fff;}.cls-2{fill:none;}.cls-3{clip-path:url(#clip-path);}.cls-4{clip-path:url(#clip-path-2);}.cls-5{clip-path:url(#clip-path-3);}.cls-6{clip-path:url(#clip-path-4);}.cls-7{clip-path:url(#clip-path-5);}.cls-8{clip-path:url(#clip-path-6);}.cls-9{clip-path:url(#clip-path-7);}.cls-10{clip-path:url(#clip-path-8);}.cls-11{clip-path:url(#clip-path-9);}.cls-12{clip-path:url(#clip-path-10);}.cls-13{clip-path:url(#clip-path-11);}.cls-14{clip-path:url(#clip-path-12);}.cls-15{clip-path:url(#clip-path-13);}.cls-16{clip-path:url(#clip-path-14);}.cls-17{clip-path:url(#clip-path-15);}.cls-18{clip-path:url(#clip-path-16);}.cls-19{clip-path:url(#clip-path-17);}.cls-20{clip-path:url(#clip-path-18);}.cls-21{clip-path:url(#clip-path-19);}.cls-22{clip-path:url(#clip-path-20);}.cls-23{clip-path:url(#clip-path-21);}.cls-24{clip-path:url(#clip-path-22);}.cls-25{clip-path:url(#clip-path-23);}.cls-26{clip-path:url(#clip-path-24);}.cls-27{clip-path:url(#clip-path-25);}.cls-28{clip-path:url(#clip-path-26);}.cls-29{clip-path:url(#clip-path-27);}.cls-30{clip-path:url(#clip-path-28);}.cls-31{clip-path:url(#clip-path-29);}.cls-32{clip-path:url(#clip-path-30);}.cls-33{clip-path:url(#clip-path-31);}</style><clipPath id="clip-path"><path class="cls-1" d="M-211-64.33a12.19,12.19,0,0,1-12.19-12.19A12.19,12.19,0,0,1-211-88.71a12.19,12.19,0,0,1,12.19,12.19A12.19,12.19,0,0,1-211-64.33Zm0-25.93a13.74,13.74,0,0,0-13.73,13.74A13.74,13.74,0,0,0-211-62.78a13.74,13.74,0,0,0,13.74-13.74A13.74,13.74,0,0,0-211-90.26Z"/></clipPath><clipPath id="clip-path-2"><path class="cls-1" d="M-206.47-73.89a.69.69,0,0,1-.94.25l-1.68-1v-.79l.69-.39,1.68,1A.7.7,0,0,1-206.47-73.89Zm-3.77-2.17-.79.45-.79-.45V-77l.79-.46.79.46Zm-1.47-5a.68.68,0,0,1,.68-.69.69.69,0,0,1,.69.69v1.93l-.69.4-.68-.4ZM-213-74.6l-1.68,1a.68.68,0,0,1-.93-.25.69.69,0,0,1,.25-.94l1.67-1,.69.39v.8ZM-201-71l-2-2.33a.35.35,0,0,0-.09-.07.33.33,0,0,0-.32,0,1,1,0,0,1-1,0,1.08,1.08,0,0,1-.52-.72h0a2.68,2.68,0,0,0-1.3-1.84l-.89-.52,5.08-2.93-.63-1.09-5.71,3.3-.68-.4v-.79l5.7-3.3-.63-1.09-5.07,2.94v-1a2.68,2.68,0,0,0-.95-2,1.1,1.1,0,0,1-.37-.81,1,1,0,0,1,.46-.87.36.36,0,0,0,.15-.29.43.43,0,0,0,0-.11l-1-2.89a.21.21,0,0,0-.2-.15.23.23,0,0,0-.2.15l-1,2.89a.43.43,0,0,0,0,.11.36.36,0,0,0,.15.29h0a1,1,0,0,1,.46.87A1.07,1.07,0,0,1-212-83a2.67,2.67,0,0,0-.94,2v1L-218-82.82l-.63,1.09,5.71,3.3v.79l-.69.4-5.7-3.3-.63,1.09,5.08,2.93-.9.52a2.68,2.68,0,0,0-1.3,1.84,1,1,0,0,1-.51.72,1.06,1.06,0,0,1-1,0,.33.33,0,0,0-.32,0l-.09.07L-221-71a.23.23,0,0,0,0,.25.21.21,0,0,0,.23.1l3-.56.11,0a.35.35,0,0,0,.17-.27,1.08,1.08,0,0,1,.53-.84,1.05,1.05,0,0,1,.88-.08,2.71,2.71,0,0,0,2.25-.21l.89-.51v5.86h1.26v-6.59l.68-.4.69.4v6.59h1.26v-5.86l.89.51a2.69,2.69,0,0,0,2.24.21,1.07,1.07,0,0,1,.89.08,1.08,1.08,0,0,1,.53.84.31.31,0,0,0,.17.27l.1,0,3,.56a.21.21,0,0,0,.22-.1A.23.23,0,0,0-201-71Z"/></clipPath><clipPath id="clip-path-3"><polygon class="cls-1" points="-120.55 -79.64 -125.09 -79.64 -125.09 -88.62 -129.24 -88.62 -129.24 -65.18 -125.09 -65.18 -125.09 -75.47 -120.55 -75.47 -120.55 -65.18 -116.31 -65.18 -116.31 -88.62 -120.55 -88.62 -120.55 -79.64"/></clipPath><clipPath id="clip-path-4"><polygon class="cls-1" points="-194.51 -88.62 -189.9 -74.25 -189.9 -65.18 -185.3 -65.18 -185.3 -74.71 -180.52 -88.62 -184.4 -88.62 -187.53 -79.49 -190.37 -88.62 -194.51 -88.62"/></clipPath><clipPath id="clip-path-5"><polygon class="cls-1" points="-154.5 -88.62 -156.49 -77.47 -158.79 -88.62 -165.27 -88.62 -165.27 -65.18 -161.55 -65.18 -161.55 -82.85 -158.38 -67.49 -154.92 -67.49 -152.11 -83.1 -152.11 -65.18 -147.75 -65.18 -147.75 -88.62 -154.5 -88.62"/></clipPath><clipPath id="clip-path-6"><path class="cls-1" d="M-109-74.54-107.24-85l1.72,10.48Zm5.33-14.08h-6.42l-4.33,23.44h3.84l.92-5.45h4.78l.89,5.45h4.23Z"/></clipPath><clipPath id="clip-path-7"><path class="cls-1" d="M-140.44-74.54-138.68-85-137-74.54Zm-1.09-14.08-4.33,23.44H-142l.92-5.45h4.78l.89,5.45h4.23l-3.91-23.44Z"/></clipPath><clipPath id="clip-path-8"><path class="cls-1" d="M-176.47-74.54-174.7-85-173-74.54Zm-1.09-14.08-4.33,23.44H-178l.92-5.45h4.78l.89,5.45h4.23l-3.91-23.44Z"/></clipPath><clipPath id="clip-path-9"><path class="cls-1" d="M1.31-93.09-7.6-82.47,2.09-70.69H-5.47l-7.35-9.51-.18-.23v9.72h-5.82V-93.08H-13v9.26l.22-.26,6.86-9c2.31,0,4.62,0,6.93,0Z"/></clipPath><clipPath id="clip-path-10"><path class="cls-1" d="M23.55-79.06h4.79L26-86.21Zm14,8.38H31.37l-1.14-3c-.08-.22-.17-.43-.23-.64a.24.24,0,0,0-.29-.2H22.14a.26.26,0,0,0-.29.2l-1.39,3.51a1.26,1.26,0,0,1-.07.17H14.21a1.55,1.55,0,0,1,.07-.23L22.7-92.85l.1-.24h6.37l.09.22,8.25,21.95A2.5,2.5,0,0,1,37.59-70.68Z"/></clipPath><clipPath id="clip-path-11"><path class="cls-1" d="M45.29-76.4,52.5-94.27c2.42,6,4.81,11.93,7.24,17.93.18-.53.35-1,.52-1.47,1.75-5,5.26-15,5.26-15l.08-.23h2.73c-2.87,7.87-5.72,15.7-8.59,23.6l-7.24-18-7.24,18c-2.88-7.89-5.73-15.73-8.59-23.58a1.75,1.75,0,0,1,.23,0l2.28,0h.22l.07.21Q41-88.42,42.59-84c.86,2.45,1.72,4.91,2.57,7.36a1.46,1.46,0,0,1,.07.19Z"/></clipPath><clipPath id="clip-path-12"><rect class="cls-1" x="5.13" y="-93.08" width="5.8" height="22.39"/></clipPath><clipPath id="clip-path-13"><path class="cls-1" d="M73.84-79.39h7.51l-3.71-8.9ZM77.7-94.18c3.37,7.86,6.71,15.67,10.07,23.49H85s0-.14-.08-.2c-.81-2-1.63-3.93-2.44-5.9a.35.35,0,0,0-.39-.26c-3,0-6,0-9,0a.31.31,0,0,0-.35.22l-2.52,5.94-.09.2H67.35Z"/></clipPath><clipPath id="clip-path-14"><path class="cls-1" d="M131.18-93.09c0,.08-.06.15-.09.21-3.42,7.33-10.25,22-10.25,22l-.09.19h-4.44l.11-.22,10.26-22,.09-.2h4.29Z"/></clipPath><clipPath id="clip-path-15"><path class="cls-1" d="M110.16-70.69l.86-1.85,9.45-20.29.15-.29H125l-.12.26c-3.41,7.31-10.21,21.93-10.21,21.93l-.1.23h-4.44Z"/></clipPath><clipPath id="clip-path-16"><path class="cls-1" d="M96.51-70.69H94V-71c0-3,0-6,0-9.06a.88.88,0,0,0-.12-.44l-7-12.31-.16-.28h.24c.8,0,1.6,0,2.4,0h.24l.15.22,5.4,9.47c.05.08.09.16.16.26l.16-.26q2.68-4.72,5.39-9.45a2.64,2.64,0,0,1,.14-.24h.26c.78,0,1.57,0,2.35,0h.29l-.14.27q-3.54,6.15-7.07,12.32a1.14,1.14,0,0,0-.13.47v9.34Z"/></clipPath><clipPath id="clip-path-17"><path class="cls-1" d="M-604.95,30.86c.11-.91.15-1.83.35-2.73.48-2,.94-4,1.51-6a3.25,3.25,0,0,1,2.89-2.29c.83-.14,1.34.23,1.28,1.08a32.06,32.06,0,0,1-.47,3.8,36.63,36.63,0,0,0-.45,11.63,11.3,11.3,0,0,0,.91,3.12c1.85,4,7,3.63,9,.66a13.26,13.26,0,0,0,1.85-5,17.07,17.07,0,0,0,.27-6.29,39.14,39.14,0,0,0-1.1-3.84,5.38,5.38,0,0,1-.06-3.41,3.27,3.27,0,0,1,1.58-1.9,1.5,1.5,0,0,1,1.36-.21,1.51,1.51,0,0,1,1,1,13.43,13.43,0,0,1,.83,3.12,39.07,39.07,0,0,1-.19,10.36,14.58,14.58,0,0,1-3.34,7.62,8.85,8.85,0,0,1-5.79,3l-.36.1h-1.89c-.2,0-.41-.09-.62-.11a8.33,8.33,0,0,1-7.19-5.13,13,13,0,0,1-.82-2.52c-.22-1-.31-2-.46-3.06Z"/></clipPath><clipPath id="clip-path-18"><path class="cls-1" d="M-504.57,38.34a4.63,4.63,0,0,0,3.86-2.66,2.91,2.91,0,0,0,.16-.83,2.13,2.13,0,0,0-1.21-2.11,2,2,0,0,0-2.26.74A6.24,6.24,0,0,0-504.57,38.34ZM-475,31.51a.64.64,0,0,0-.1.18,2,2,0,0,1-1.85,1.57,2.27,2.27,0,0,1-2.5-1.17c-.48-.9-.84-1-1.8-.61a4.63,4.63,0,0,0-2.24,2.06c-.93,1.59-1.79,3.21-2.6,4.86-.67,1.33-1.21,2.73-1.85,4.08a6.69,6.69,0,0,1-.83,1.42,1.2,1.2,0,0,1-1,.54,1.18,1.18,0,0,1-1-.62,10.29,10.29,0,0,1-1-2.32c-.38-1.31-.66-2.66-1-4a1.76,1.76,0,0,0-.16-.45l-.3.58a13.93,13.93,0,0,1-4.29,5.22,8,8,0,0,1-5.94,1.46A4.82,4.82,0,0,1-507.84,40a9.82,9.82,0,0,1,1.91-7.81,6,6,0,0,1,4.07-2.44,4.5,4.5,0,0,1,4.7,4.5A4.23,4.23,0,0,1-499.27,38a31.31,31.31,0,0,1-3.1,1.46c-.31.14-.64.25-.94.4-.46.25-.53.61-.17,1a2.2,2.2,0,0,0,.83.52,4.8,4.8,0,0,0,4.62-.68,10,10,0,0,0,3.23-3.91c.66-1.37,1.12-2.83,1.67-4.26a14.19,14.19,0,0,1,.59-1.45,2,2,0,0,1,.57-.63c.7-.53,1.21-.38,1.39.48.24,1.2.37,2.42.58,3.63.16,1,.33,2,.56,3,.11.45.3,1,.84,1s.61-.54.78-.91c.64-1.37,1.19-2.78,1.85-4.17a11.23,11.23,0,0,1,3.07-4,6.25,6.25,0,0,1,4.61-1.34,3.49,3.49,0,0,1,3.34,2.57Z"/></clipPath><clipPath id="clip-path-19"><path class="cls-1" d="M-535.23,36.24a4.91,4.91,0,0,0,.66,2.51.51.51,0,0,0,.32.32.55.55,0,0,0,.45-.06,4,4,0,0,0,2.11-4.94,1.45,1.45,0,0,0-2.6-.62,3.41,3.41,0,0,0-.94,2.77Zm-7.33-10.84a6.53,6.53,0,0,0,0-1.25,8.31,8.31,0,0,0-.5-2.08,1.13,1.13,0,0,0-1-.72,1.14,1.14,0,0,0-1.06.67,5,5,0,0,0-.55,1.41A26.53,26.53,0,0,0-546,33.2a4,4,0,0,0,.36,1.17c.25.5.6.51.91.07a4.79,4.79,0,0,0,.52-.94A21.47,21.47,0,0,0-542.56,25.4Zm9.37,15.17a3.73,3.73,0,0,0,3.52.75,6.93,6.93,0,0,0,3.95-3.19,31,31,0,0,0,3-6.62,6.15,6.15,0,0,1,.83-1.56c.59-.74,1.33-.67,1.67.2.49,1.25.84,2.56,1.25,3.85.44,1.47.83,2.94,1.31,4.4a8,8,0,0,0,.88,1.85c.84,1.35,1.94,1.33,2.75-.07a6.58,6.58,0,0,0,.76-5,7.61,7.61,0,0,1,0-4.23,3.7,3.7,0,0,1,1.39-2.07c1.24-.83,2.46-.43,2.58,1.06a14.81,14.81,0,0,1-.24,3.7,17.76,17.76,0,0,1-2.91,7.16,16.54,16.54,0,0,1-2.43,2.59,4.09,4.09,0,0,1-2.5,1,2.72,2.72,0,0,1-2.74-1.38,23.19,23.19,0,0,1-1.19-2.76c-.25-.62-.4-1.28-.67-1.88s-.67-.69-1.15-.24-.83.92-1.23,1.36a35.87,35.87,0,0,1-2.81,2.84,9.53,9.53,0,0,1-6.05,2.16A4.58,4.58,0,0,1-536.6,43a1.7,1.7,0,0,1-.26-.38c-1.09.49-2,1-3,1.32a5,5,0,0,1-5.6-1.29,10.4,10.4,0,0,0-.92-.84,1.12,1.12,0,0,0-1.48-.12c-.55.36-1.07.74-1.61,1.11a8.4,8.4,0,0,1-4.86,1.56,3.35,3.35,0,0,1-2.81-1.25,22.64,22.64,0,0,1-1.67-2.46c-.84-1.37-1.25-1.4-2.21-.08-.54.74-1,1.52-1.57,2.26a7.21,7.21,0,0,1-1,1.08,1.46,1.46,0,0,1-1,.47,1.46,1.46,0,0,1-1.06-.42,5.88,5.88,0,0,1-1.3-1.67c-.6-1.11-1.07-2.28-1.63-3.41a14.11,14.11,0,0,0-1.1-2,1.58,1.58,0,0,0-1.14-.86,1.58,1.58,0,0,0-1.36.4A35.48,35.48,0,0,0-575.25,39c-1.44,1.26-2.82,2.59-4.25,3.86a14.44,14.44,0,0,1-1.75,1.27,1.07,1.07,0,0,1-1.27,0,1.09,1.09,0,0,1-.4-1.21c.31-1.29.66-2.58,1-3.87.56-2.09,1.11-4.18,1.67-6.27a2.25,2.25,0,0,1,1.3-1.67c.6-.25.84-.12,1,.51a30.65,30.65,0,0,0,.83,3.09c.48,1.47.89,1.53,1.85.33s1.67-2.19,2.51-3.26A16.65,16.65,0,0,1-571,29.87c1-.94,1.84-.84,2.44.44.51,1.1.83,2.29,1.27,3.44s.7,2.37,1.2,3.51a7.06,7.06,0,0,0,1.17,1.91,1.52,1.52,0,0,0,1.19.59,1.49,1.49,0,0,0,1.19-.59,5.6,5.6,0,0,0,1.67-3.34,22.06,22.06,0,0,1,.78-3.78,3.53,3.53,0,0,1,1-1.48,1.4,1.4,0,0,1,1.34-.5,1.4,1.4,0,0,1,1.08.94,6.54,6.54,0,0,1,.42,3.66,9,9,0,0,1-.27,1.45A4,4,0,0,0-553,41.17a5.06,5.06,0,0,0,4.68-2.58.88.88,0,0,0,0-.64,24.44,24.44,0,0,1-.12-16.13,25.28,25.28,0,0,1,1.54-3.08,4,4,0,0,1,.37-.54,3.08,3.08,0,0,1,5.13.25,6.8,6.8,0,0,1,1.2,3.48,24.45,24.45,0,0,1-2.91,14.42,18.5,18.5,0,0,0-.83,1.67.89.89,0,0,0-.09.6c.5,1.43,2.82,3.49,4.81,3.11l.27,0c1-.25,1.07-.39,1-1.41a11.27,11.27,0,0,1,3-9.47,4.5,4.5,0,0,1,2.59-1.45,2.71,2.71,0,0,1,2.67,1.09c1.45,1.78,2.42,4.84-.17,7.39a37.21,37.21,0,0,1-3,2.46Z"/></clipPath><clipPath id="clip-path-20"><path class="cls-1" d="M-559.58,21a3.12,3.12,0,0,1,.89-2.3,2.36,2.36,0,0,1,2.73-.55,2.05,2.05,0,0,1,1.23,2.26,5.19,5.19,0,0,1-.63,1.86,2.31,2.31,0,0,1-2.73,1.11A2.26,2.26,0,0,1-559.58,21Z"/></clipPath><clipPath id="clip-path-21"><path class="cls-2" d="M-191.9,59.52h-4.2v-5.7h4.2a2.79,2.79,0,0,1,3,2.8A2.71,2.71,0,0,1-191.9,59.52Zm.5-8.4h-7.8V69h3.1v-6.7h4.7a5.46,5.46,0,0,0,5.8-5.6A5.46,5.46,0,0,0-191.4,51.12Z"/></clipPath><clipPath id="clip-path-22"><path class="cls-2" d="M-177.5,66.82c-2.4,0-3.7-2-3.7-4.3s1.3-4.3,3.7-4.3,3.7,2,3.7,4.3S-175.1,66.82-177.5,66.82Zm0-11.1a6.46,6.46,0,0,0-6.6,6.8,6.46,6.46,0,0,0,6.6,6.8,6.46,6.46,0,0,0,6.6-6.8A6.46,6.46,0,0,0-177.5,55.72Z"/></clipPath><clipPath id="clip-path-23"><path class="cls-2" d="M-141.4,58a3.46,3.46,0,0,1,3.6,3.2H-145A3.53,3.53,0,0,1-141.4,58Zm0-2.3a6.5,6.5,0,0,0-6.5,6.8,6.49,6.49,0,0,0,6.7,6.8,7.26,7.26,0,0,0,5.2-1.9l-1.3-1.9a5.43,5.43,0,0,1-3.6,1.4,3.91,3.91,0,0,1-4.1-3.6h9.9v-.7C-135.1,58.72-137.6,55.72-141.4,55.72Z"/></clipPath><clipPath id="clip-path-24"><path class="cls-2" d="M-129.3,57.82V56h-2.8V69h2.8v-8.2c1-2.3,3.9-2.6,4.7-2.5v-2.7A6.36,6.36,0,0,0-129.3,57.82Z"/></clipPath><clipPath id="clip-path-25"><path class="cls-2" d="M-113.9,59.52h-4.3v-5.7h4.2a2.79,2.79,0,0,1,3,2.8A2.68,2.68,0,0,1-113.9,59.52Zm.4-8.4h-7.8V69h3.1v-6.7h4.7a5.46,5.46,0,0,0,5.8-5.6A5.41,5.41,0,0,0-113.5,51.12Z"/></clipPath><clipPath id="clip-path-26"><path class="cls-2" d="M-93.6,50.72a1.75,1.75,0,0,0-1.7,1.7,1.69,1.69,0,0,0,1.7,1.7,1.69,1.69,0,0,0,1.7-1.7A1.63,1.63,0,0,0-93.6,50.72Z"/></clipPath><clipPath id="clip-path-27"><polygon class="cls-2" points="-94.91 69.02 -92.11 69.02 -92.11 56.02 -94.91 57.42 -94.91 69.02"/></clipPath><clipPath id="clip-path-28"><path class="cls-2" d="M-82.4,58.22a3.39,3.39,0,0,1,2.9,1.5l1.8-1.7a5.78,5.78,0,0,0-4.9-2.3,6.46,6.46,0,0,0-6.6,6.8,6.46,6.46,0,0,0,6.6,6.8A5.78,5.78,0,0,0-77.7,67l-1.8-1.7a3.39,3.39,0,0,1-2.9,1.5c-2.3,0-3.9-1.8-3.9-4.3S-84.7,58.22-82.4,58.22Z"/></clipPath><clipPath id="clip-path-29"><path class="cls-2" d="M-69.5,58a3.46,3.46,0,0,1,3.6,3.2h-7.2A3.53,3.53,0,0,1-69.5,58Zm6.3,4.7c0-4.1-2.5-7.1-6.3-7.1a6.5,6.5,0,0,0-6.5,6.8,6.49,6.49,0,0,0,6.7,6.8,7.26,7.26,0,0,0,5.2-1.9l-1.3-1.9a5.43,5.43,0,0,1-3.6,1.4,3.91,3.91,0,0,1-4.1-3.6h9.9Z"/></clipPath><clipPath id="clip-path-30"><path class="cls-2" d="M-102.4,57.82V56h-2.8V69h2.8v-8.2c1-2.3,3.9-2.6,4.7-2.5v-2.7A6.36,6.36,0,0,0-102.4,57.82Z"/></clipPath><clipPath id="clip-path-31"><polygon class="cls-2" points="-151.31 51.02 -155.31 64.32 -158.31 54.62 -161.5 56.22 -164 64.52 -165.91 58.42 -168.41 59.72 -165.6 68.82 -162.5 68.82 -159.71 59.72 -156.91 68.82 -153.91 68.82 -147.91 49.32 -151.31 51.02"/></clipPath></defs><title>natgeo</title><path class="cls-1" d="M-211-64.33a12.19,12.19,0,0,1-12.19-12.19A12.19,12.19,0,0,1-211-88.71a12.19,12.19,0,0,1,12.19,12.19A12.19,12.19,0,0,1-211-64.33Zm0-25.93a13.74,13.74,0,0,0-13.73,13.74A13.74,13.74,0,0,0-211-62.78a13.74,13.74,0,0,0,13.74-13.74A13.74,13.74,0,0,0-211-90.26Z"/><g class="cls-3"><rect class="cls-1" x="-973.52" y="-1033.13" width="1901.6" height="1069.65"/></g><path class="cls-1" d="M-206.47-73.89a.69.69,0,0,1-.94.25l-1.68-1v-.79l.69-.39,1.68,1A.7.7,0,0,1-206.47-73.89Zm-3.77-2.17-.79.45-.79-.45V-77l.79-.46.79.46Zm-1.47-5a.68.68,0,0,1,.68-.69.69.69,0,0,1,.69.69v1.93l-.69.4-.68-.4ZM-213-74.6l-1.68,1a.68.68,0,0,1-.93-.25.69.69,0,0,1,.25-.94l1.67-1,.69.39v.8ZM-201-71l-2-2.33a.35.35,0,0,0-.09-.07.33.33,0,0,0-.32,0,1,1,0,0,1-1,0,1.08,1.08,0,0,1-.52-.72h0a2.68,2.68,0,0,0-1.3-1.84l-.89-.52,5.08-2.93-.63-1.09-5.71,3.3-.68-.4v-.79l5.7-3.3-.63-1.09-5.07,2.94v-1a2.68,2.68,0,0,0-.95-2,1.1,1.1,0,0,1-.37-.81,1,1,0,0,1,.46-.87.36.36,0,0,0,.15-.29.43.43,0,0,0,0-.11l-1-2.89a.21.21,0,0,0-.2-.15.23.23,0,0,0-.2.15l-1,2.89a.43.43,0,0,0,0,.11.36.36,0,0,0,.15.29h0a1,1,0,0,1,.46.87A1.07,1.07,0,0,1-212-83a2.67,2.67,0,0,0-.94,2v1L-218-82.82l-.63,1.09,5.71,3.3v.79l-.69.4-5.7-3.3-.63,1.09,5.08,2.93-.9.52a2.68,2.68,0,0,0-1.3,1.84,1,1,0,0,1-.51.72,1.06,1.06,0,0,1-1,0,.33.33,0,0,0-.32,0l-.09.07L-221-71a.23.23,0,0,0,0,.25.21.21,0,0,0,.23.1l3-.56.11,0a.35.35,0,0,0,.17-.27,1.08,1.08,0,0,1,.53-.84,1.05,1.05,0,0,1,.88-.08,2.71,2.71,0,0,0,2.25-.21l.89-.51v5.86h1.26v-6.59l.68-.4.69.4v6.59h1.26v-5.86l.89.51a2.69,2.69,0,0,0,2.24.21,1.07,1.07,0,0,1,.89.08,1.08,1.08,0,0,1,.53.84.31.31,0,0,0,.17.27l.1,0,3,.56a.21.21,0,0,0,.22-.1A.23.23,0,0,0-201-71Z"/><g class="cls-4"><rect class="cls-1" x="-973.52" y="-1033.13" width="1901.6" height="1069.65"/></g><polygon class="cls-1" points="-120.55 -79.64 -125.09 -79.64 -125.09 -88.62 -129.24 -88.62 -129.24 -65.18 -125.09 -65.18 -125.09 -75.47 -120.55 -75.47 -120.55 -65.18 -116.31 -65.18 -116.31 -88.62 -120.55 -88.62 -120.55 -79.64"/><g class="cls-5"><rect class="cls-1" x="-973.52" y="-1033.13" width="1901.6" height="1069.65"/></g><polygon class="cls-1" points="-194.51 -88.62 -189.9 -74.25 -189.9 -65.18 -185.3 -65.18 -185.3 -74.71 -180.52 -88.62 -184.4 -88.62 -187.53 -79.49 -190.37 -88.62 -194.51 -88.62"/><g class="cls-6"><rect class="cls-1" x="-973.52" y="-1033.13" width="1901.6" height="1069.65"/></g><polygon class="cls-1" points="-154.5 -88.62 -156.49 -77.47 -158.79 -88.62 -165.27 -88.62 -165.27 -65.18 -161.55 -65.18 -161.55 -82.85 -158.38 -67.49 -154.92 -67.49 -152.11 -83.1 -152.11 -65.18 -147.75 -65.18 -147.75 -88.62 -154.5 -88.62"/><g class="cls-7"><rect class="cls-1" x="-973.52" y="-1033.13" width="1901.6" height="1069.65"/></g><path class="cls-1" d="M-109-74.54-107.24-85l1.72,10.48Zm5.33-14.08h-6.42l-4.33,23.44h3.84l.92-5.45h4.78l.89,5.45h4.23Z"/><g class="cls-8"><rect class="cls-1" x="-973.52" y="-1033.13" width="1901.6" height="1069.65"/></g><path class="cls-1" d="M-140.44-74.54-138.68-85-137-74.54Zm-1.09-14.08-4.33,23.44H-142l.92-5.45h4.78l.89,5.45h4.23l-3.91-23.44Z"/><g class="cls-9"><rect class="cls-1" x="-973.52" y="-1033.13" width="1901.6" height="1069.65"/></g><path class="cls-1" d="M-176.47-74.54-174.7-85-173-74.54Zm-1.09-14.08-4.33,23.44H-178l.92-5.45h4.78l.89,5.45h4.23l-3.91-23.44Z"/><g class="cls-10"><rect class="cls-1" x="-973.52" y="-1033.13" width="1901.6" height="1069.65"/></g><path class="cls-1" d="M1.31-93.09-7.6-82.47,2.09-70.69H-5.47l-7.35-9.51-.18-.23v9.72h-5.82V-93.08H-13v9.26l.22-.26,6.86-9c2.31,0,4.62,0,6.93,0Z"/><g class="cls-11"><rect class="cls-1" x="-986.65" y="-1039.29" width="1903.91" height="1070.95"/></g><path class="cls-1" d="M23.55-79.06h4.79L26-86.21Zm14,8.38H31.37l-1.14-3c-.08-.22-.17-.43-.23-.64a.24.24,0,0,0-.29-.2H22.14a.26.26,0,0,0-.29.2l-1.39,3.51a1.26,1.26,0,0,1-.07.17H14.21a1.55,1.55,0,0,1,.07-.23L22.7-92.85l.1-.24h6.37l.09.22,8.25,21.95A2.5,2.5,0,0,1,37.59-70.68Z"/><g class="cls-12"><rect class="cls-1" x="-986.65" y="-1039.29" width="1903.91" height="1070.95"/></g><path class="cls-1" d="M45.29-76.4,52.5-94.27c2.42,6,4.81,11.93,7.24,17.93.18-.53.35-1,.52-1.47,1.75-5,5.26-15,5.26-15l.08-.23h2.73c-2.87,7.87-5.72,15.7-8.59,23.6l-7.24-18-7.24,18c-2.88-7.89-5.73-15.73-8.59-23.58a1.75,1.75,0,0,1,.23,0l2.28,0h.22l.07.21Q41-88.42,42.59-84c.86,2.45,1.72,4.91,2.57,7.36a1.46,1.46,0,0,1,.07.19Z"/><g class="cls-13"><rect class="cls-1" x="-986.65" y="-1039.29" width="1903.91" height="1070.95"/></g><rect class="cls-1" x="5.13" y="-93.08" width="5.8" height="22.39"/><g class="cls-14"><rect class="cls-1" x="-986.65" y="-1039.29" width="1903.91" height="1070.95"/></g><path class="cls-1" d="M73.84-79.39h7.51l-3.71-8.9ZM77.7-94.18c3.37,7.86,6.71,15.67,10.07,23.49H85s0-.14-.08-.2c-.81-2-1.63-3.93-2.44-5.9a.35.35,0,0,0-.39-.26c-3,0-6,0-9,0a.31.31,0,0,0-.35.22l-2.52,5.94-.09.2H67.35Z"/><g class="cls-15"><rect class="cls-1" x="-986.65" y="-1039.29" width="1903.91" height="1070.95"/></g><path class="cls-1" d="M131.18-93.09c0,.08-.06.15-.09.21-3.42,7.33-10.25,22-10.25,22l-.09.19h-4.44l.11-.22,10.26-22,.09-.2h4.29Z"/><g class="cls-16"><rect class="cls-1" x="-986.65" y="-1039.29" width="1903.91" height="1070.95"/></g><path class="cls-1" d="M110.16-70.69l.86-1.85,9.45-20.29.15-.29H125l-.12.26c-3.41,7.31-10.21,21.93-10.21,21.93l-.1.23h-4.44Z"/><g class="cls-17"><rect class="cls-1" x="-986.65" y="-1039.29" width="1903.91" height="1070.95"/></g><path class="cls-1" d="M96.51-70.69H94V-71c0-3,0-6,0-9.06a.88.88,0,0,0-.12-.44l-7-12.31-.16-.28h.24c.8,0,1.6,0,2.4,0h.24l.15.22,5.4,9.47c.05.08.09.16.16.26l.16-.26q2.68-4.72,5.39-9.45a2.64,2.64,0,0,1,.14-.24h.26c.78,0,1.57,0,2.35,0h.29l-.14.27q-3.54,6.15-7.07,12.32a1.14,1.14,0,0,0-.13.47v9.34Z"/><g class="cls-18"><rect class="cls-1" x="-986.65" y="-1039.29" width="1903.91" height="1070.95"/></g><path class="cls-1" d="M-604.95,30.86c.11-.91.15-1.83.35-2.73.48-2,.94-4,1.51-6a3.25,3.25,0,0,1,2.89-2.29c.83-.14,1.34.23,1.28,1.08a32.06,32.06,0,0,1-.47,3.8,36.63,36.63,0,0,0-.45,11.63,11.3,11.3,0,0,0,.91,3.12c1.85,4,7,3.63,9,.66a13.26,13.26,0,0,0,1.85-5,17.07,17.07,0,0,0,.27-6.29,39.14,39.14,0,0,0-1.1-3.84,5.38,5.38,0,0,1-.06-3.41,3.27,3.27,0,0,1,1.58-1.9,1.5,1.5,0,0,1,1.36-.21,1.51,1.51,0,0,1,1,1,13.43,13.43,0,0,1,.83,3.12,39.07,39.07,0,0,1-.19,10.36,14.58,14.58,0,0,1-3.34,7.62,8.85,8.85,0,0,1-5.79,3l-.36.1h-1.89c-.2,0-.41-.09-.62-.11a8.33,8.33,0,0,1-7.19-5.13,13,13,0,0,1-.82-2.52c-.22-1-.31-2-.46-3.06Z"/><g class="cls-19"><rect class="cls-1" x="-966.69" y="-934.53" width="1945.48" height="1094.33"/></g><path class="cls-1" d="M-504.57,38.34a4.63,4.63,0,0,0,3.86-2.66,2.91,2.91,0,0,0,.16-.83,2.13,2.13,0,0,0-1.21-2.11,2,2,0,0,0-2.26.74A6.24,6.24,0,0,0-504.57,38.34ZM-475,31.51a.64.64,0,0,0-.1.18,2,2,0,0,1-1.85,1.57,2.27,2.27,0,0,1-2.5-1.17c-.48-.9-.84-1-1.8-.61a4.63,4.63,0,0,0-2.24,2.06c-.93,1.59-1.79,3.21-2.6,4.86-.67,1.33-1.21,2.73-1.85,4.08a6.69,6.69,0,0,1-.83,1.42,1.2,1.2,0,0,1-1,.54,1.18,1.18,0,0,1-1-.62,10.29,10.29,0,0,1-1-2.32c-.38-1.31-.66-2.66-1-4a1.76,1.76,0,0,0-.16-.45l-.3.58a13.93,13.93,0,0,1-4.29,5.22,8,8,0,0,1-5.94,1.46A4.82,4.82,0,0,1-507.84,40a9.82,9.82,0,0,1,1.91-7.81,6,6,0,0,1,4.07-2.44,4.5,4.5,0,0,1,4.7,4.5A4.23,4.23,0,0,1-499.27,38a31.31,31.31,0,0,1-3.1,1.46c-.31.14-.64.25-.94.4-.46.25-.53.61-.17,1a2.2,2.2,0,0,0,.83.52,4.8,4.8,0,0,0,4.62-.68,10,10,0,0,0,3.23-3.91c.66-1.37,1.12-2.83,1.67-4.26a14.19,14.19,0,0,1,.59-1.45,2,2,0,0,1,.57-.63c.7-.53,1.21-.38,1.39.48.24,1.2.37,2.42.58,3.63.16,1,.33,2,.56,3,.11.45.3,1,.84,1s.61-.54.78-.91c.64-1.37,1.19-2.78,1.85-4.17a11.23,11.23,0,0,1,3.07-4,6.25,6.25,0,0,1,4.61-1.34,3.49,3.49,0,0,1,3.34,2.57Z"/><g class="cls-20"><rect class="cls-1" x="-966.69" y="-934.53" width="1945.48" height="1094.33"/></g><path class="cls-1" d="M-535.23,36.24a4.91,4.91,0,0,0,.66,2.51.51.51,0,0,0,.32.32.55.55,0,0,0,.45-.06,4,4,0,0,0,2.11-4.94,1.45,1.45,0,0,0-2.6-.62,3.41,3.41,0,0,0-.94,2.77Zm-7.33-10.84a6.53,6.53,0,0,0,0-1.25,8.31,8.31,0,0,0-.5-2.08,1.13,1.13,0,0,0-1-.72,1.14,1.14,0,0,0-1.06.67,5,5,0,0,0-.55,1.41A26.53,26.53,0,0,0-546,33.2a4,4,0,0,0,.36,1.17c.25.5.6.51.91.07a4.79,4.79,0,0,0,.52-.94A21.47,21.47,0,0,0-542.56,25.4Zm9.37,15.17a3.73,3.73,0,0,0,3.52.75,6.93,6.93,0,0,0,3.95-3.19,31,31,0,0,0,3-6.62,6.15,6.15,0,0,1,.83-1.56c.59-.74,1.33-.67,1.67.2.49,1.25.84,2.56,1.25,3.85.44,1.47.83,2.94,1.31,4.4a8,8,0,0,0,.88,1.85c.84,1.35,1.94,1.33,2.75-.07a6.58,6.58,0,0,0,.76-5,7.61,7.61,0,0,1,0-4.23,3.7,3.7,0,0,1,1.39-2.07c1.24-.83,2.46-.43,2.58,1.06a14.81,14.81,0,0,1-.24,3.7,17.76,17.76,0,0,1-2.91,7.16,16.54,16.54,0,0,1-2.43,2.59,4.09,4.09,0,0,1-2.5,1,2.72,2.72,0,0,1-2.74-1.38,23.19,23.19,0,0,1-1.19-2.76c-.25-.62-.4-1.28-.67-1.88s-.67-.69-1.15-.24-.83.92-1.23,1.36a35.87,35.87,0,0,1-2.81,2.84,9.53,9.53,0,0,1-6.05,2.16A4.58,4.58,0,0,1-536.6,43a1.7,1.7,0,0,1-.26-.38c-1.09.49-2,1-3,1.32a5,5,0,0,1-5.6-1.29,10.4,10.4,0,0,0-.92-.84,1.12,1.12,0,0,0-1.48-.12c-.55.36-1.07.74-1.61,1.11a8.4,8.4,0,0,1-4.86,1.56,3.35,3.35,0,0,1-2.81-1.25,22.64,22.64,0,0,1-1.67-2.46c-.84-1.37-1.25-1.4-2.21-.08-.54.74-1,1.52-1.57,2.26a7.21,7.21,0,0,1-1,1.08,1.46,1.46,0,0,1-1,.47,1.46,1.46,0,0,1-1.06-.42,5.88,5.88,0,0,1-1.3-1.67c-.6-1.11-1.07-2.28-1.63-3.41a14.11,14.11,0,0,0-1.1-2,1.58,1.58,0,0,0-1.14-.86,1.58,1.58,0,0,0-1.36.4A35.48,35.48,0,0,0-575.25,39c-1.44,1.26-2.82,2.59-4.25,3.86a14.44,14.44,0,0,1-1.75,1.27,1.07,1.07,0,0,1-1.27,0,1.09,1.09,0,0,1-.4-1.21c.31-1.29.66-2.58,1-3.87.56-2.09,1.11-4.18,1.67-6.27a2.25,2.25,0,0,1,1.3-1.67c.6-.25.84-.12,1,.51a30.65,30.65,0,0,0,.83,3.09c.48,1.47.89,1.53,1.85.33s1.67-2.19,2.51-3.26A16.65,16.65,0,0,1-571,29.87c1-.94,1.84-.84,2.44.44.51,1.1.83,2.29,1.27,3.44s.7,2.37,1.2,3.51a7.06,7.06,0,0,0,1.17,1.91,1.52,1.52,0,0,0,1.19.59,1.49,1.49,0,0,0,1.19-.59,5.6,5.6,0,0,0,1.67-3.34,22.06,22.06,0,0,1,.78-3.78,3.53,3.53,0,0,1,1-1.48,1.4,1.4,0,0,1,1.34-.5,1.4,1.4,0,0,1,1.08.94,6.54,6.54,0,0,1,.42,3.66,9,9,0,0,1-.27,1.45A4,4,0,0,0-553,41.17a5.06,5.06,0,0,0,4.68-2.58.88.88,0,0,0,0-.64,24.44,24.44,0,0,1-.12-16.13,25.28,25.28,0,0,1,1.54-3.08,4,4,0,0,1,.37-.54,3.08,3.08,0,0,1,5.13.25,6.8,6.8,0,0,1,1.2,3.48,24.45,24.45,0,0,1-2.91,14.42,18.5,18.5,0,0,0-.83,1.67.89.89,0,0,0-.09.6c.5,1.43,2.82,3.49,4.81,3.11l.27,0c1-.25,1.07-.39,1-1.41a11.27,11.27,0,0,1,3-9.47,4.5,4.5,0,0,1,2.59-1.45,2.71,2.71,0,0,1,2.67,1.09c1.45,1.78,2.42,4.84-.17,7.39a37.21,37.21,0,0,1-3,2.46Z"/><g class="cls-21"><rect class="cls-1" x="-966.69" y="-934.53" width="1945.48" height="1094.33"/></g><path class="cls-1" d="M-559.58,21a3.12,3.12,0,0,1,.89-2.3,2.36,2.36,0,0,1,2.73-.55,2.05,2.05,0,0,1,1.23,2.26,5.19,5.19,0,0,1-.63,1.86,2.31,2.31,0,0,1-2.73,1.11A2.26,2.26,0,0,1-559.58,21Z"/><g class="cls-22"><rect class="cls-1" x="-966.69" y="-934.53" width="1945.48" height="1094.33"/></g><path class="cls-1" d="M0,15.31C0,10.45,0,5.6,0,.74,0,.15.16,0,.74,0Q10.85,0,21,0c.59,0,.7.21.7.73q0,14.71,0,29.44c0,.54-.17.65-.68.65q-10.14,0-20.28,0c-.59,0-.69-.2-.69-.72,0-4.93,0-9.86,0-14.79Zm3.09.07c0,3.85,0,7.7,0,11.55,0,.6.12.8.77.79q7,0,14,0c.61,0,.69-.23.69-.74q0-11.58,0-23.16c0-.62-.21-.74-.77-.74q-7,0-13.94,0c-.58,0-.75.16-.75.75C3.11,7.69,3.1,11.53,3.1,15.38Z"/><path class="cls-1" d="M68.66,27.68l3-8.68a13.53,13.53,0,0,0,.47-1.4c.12-.51.4-.6.89-.64.73-.06,1,.22,1.2.89.94,3.09,1.93,6.17,2.94,9.25.17.52.07.62-.46.62-1.42,0-1.43,0-1.83-1.39-.45-1.56-.45-1.56-2-1.56s-1.63,0-2.13,1.59c-.44,1.4-.44,1.4-1.88,1.34l-.13,0c-.72,0-1.6.31-2.11-.09s-.64-1.27-.93-1.94S65.16,24.57,65,24a.56.56,0,0,0-.66-.38c-.41,0-.31.34-.31.58,0,1,0,1.92,0,2.88,0,.44-.08.61-.57.61-1.3,0-1.3,0-1.3-1.28,0-2.93,0-5.86,0-8.8,0-.5.1-.71.65-.67.77.05,1.54,0,2.32,0,1.6,0,2.64.64,3.06,1.8a3.64,3.64,0,0,1-1.06,4c-.51.39-.51.68-.24,1.19C67.45,25.18,68,26.38,68.66,27.68ZM64,20.29V21.9c0,.19,0,.39.27.39a1.92,1.92,0,0,0,2.22-1.9c.1-1.3-.53-1.95-1.85-2-.47,0-.7.09-.65.61S64,19.87,64,20.29Zm8.93,3.16h.84c.28,0,.39-.09.31-.37-.3-1.06-.61-2.11-.9-3.17a.27.27,0,0,0-.29-.24c-.21,0-.16.16-.2.29-.2.77-.4,1.53-.62,2.3C71.69,23.45,71.68,23.45,72.91,23.45Z"/><path class="cls-1" d="M66.74,6.5c0,2.2,0,4.4,0,6.6,0,.24.15.6-.16.69a2.1,2.1,0,0,1-1.24,0c-.21-.09-.09-.38-.09-.58,0-3.07,0-6.15,0-9.22,0-.28-.23-.76.23-.82s1-.24,1.39.34c1.23,1.83,2.5,3.63,3.75,5.44.35.5.67,1,1,1.55.26-.23.16-.49.16-.72,0-2,0-4,0-6.06,0-.71.39-.58.8-.6s.73,0,.72.6c0,3.07,0,6.15,0,9.22,0,.3.26.81-.22.88s-1.07.2-1.48-.44c-1-1.57-2.13-3.09-3.19-4.63-.51-.75-1-1.52-1.5-2.27Z"/><path class="cls-1" d="M29.37,6.49c0,2.23,0,4.45,0,6.68,0,.7-.32.66-.81.67s-.73-.05-.72-.67c0-3.09,0-6.19,0-9.29,0-.25-.23-.71.22-.75s1-.25,1.35.29c1.25,1.85,2.53,3.67,3.79,5.5a8.23,8.23,0,0,0,1.2,1.5v-1c0-1.9,0-3.8,0-5.7,0-.7.38-.59.8-.61s.72,0,.71.61c0,3.09,0,6.19,0,9.29,0,.27.25.75-.22.81s-1,.23-1.39-.35c-1.25-1.87-2.55-3.71-3.82-5.57-.33-.47-.63-1-.95-1.44Z"/><path class="cls-1" d="M55,8.34a5.89,5.89,0,0,1,1.11-3.63A4.2,4.2,0,0,1,63,4.64a6.86,6.86,0,0,1,.08,7.55,4.19,4.19,0,0,1-7.19-.4A6.79,6.79,0,0,1,55,8.34Zm2,0a5.76,5.76,0,0,0,.66,3,2.12,2.12,0,0,0,3.81,0,6.1,6.1,0,0,0,.09-5.61,2.09,2.09,0,0,0-2-1.23,2.17,2.17,0,0,0-2,1.22A5.14,5.14,0,0,0,57,8.34Z"/><path class="cls-1" d="M51.6,22.21a6.8,6.8,0,0,1-.89,3.54,4.19,4.19,0,0,1-7.11.31,6.87,6.87,0,0,1-.07-7.37,4.21,4.21,0,0,1,7.14.15A5.86,5.86,0,0,1,51.6,22.21Zm-7.12.06a5.87,5.87,0,0,0,.6,2.8A2.11,2.11,0,0,0,47,26.32a2,2,0,0,0,2-1.18,6.23,6.23,0,0,0,.1-5.49,2.1,2.1,0,0,0-2-1.3A2.18,2.18,0,0,0,45,19.68,5.38,5.38,0,0,0,44.48,22.27Z"/><path class="cls-1" d="M92.66,22.36c0,1.57,0,3.15,0,4.72,0,.48-.1.65-.61.64-1.27,0-1.27,0-1.27-1.24s0-2.26,0-3.38c0-.41-.08-.6-.54-.58-.91,0-1.83,0-2.74,0-.41,0-.53.12-.52.52,0,1.34,0,2.68,0,4,0,.53-.12.69-.66.67-1.2,0-1.2,0-1.2-1.16,0-3,0-5.92,0-8.88,0-.51.08-.74.68-.71C87,17,87,17,87,18.16c0,.8,0,1.6,0,2.39,0,.45.14.56.57.54q1.34,0,2.67,0c.44,0,.57-.13.56-.56,0-1,0-2,0-3,0-.4.12-.5.51-.51,1.36,0,1.36,0,1.36,1.29Z"/><path class="cls-1" d="M34.8,25.05a7.56,7.56,0,0,0,0,1.26c.15.8-.26,1.06-.93,1.24a7.07,7.07,0,0,1-3.13.24c-3-.59-4.78-3.65-4-7a5,5,0,0,1,7-3.58c.22.1.61.18.56.45a3.7,3.7,0,0,1-.5,1.07c-.06.11-.21,0-.32,0-3.2-1-5.2.64-4.94,4a4.14,4.14,0,0,0,1.24,2.83,2.81,2.81,0,0,0,2.68.68.47.47,0,0,0,.45-.57c0-.78,0-1.55,0-2.32,0-.4.05-.58.52-.58,1.34,0,1.34,0,1.34,1.3Z"/><path class="cls-1" d="M60.44,25.06a7.56,7.56,0,0,0,0,1.26c.11.73-.19,1-.87,1.22a6.75,6.75,0,0,1-3.88.07c-3.09-1-4.45-5-2.78-8.18a5,5,0,0,1,6.53-2.17c.35.16.74.28.41.8s-.23.91-1,.59A3.14,3.14,0,0,0,54.36,21a5.1,5.1,0,0,0,.47,3.75,3,3,0,0,0,3.22,1.5c.37-.08.57-.23.55-.66,0-.77,0-1.55,0-2.32,0-.41.14-.51.53-.52,1.33,0,1.33,0,1.33,1.3Z"/><path class="cls-1" d="M43.91,13.83c-.71.2-1-.19-1.19-1S42.58,11.4,42.1,11s-1.27-.12-1.92-.11c-1.5,0-1.1-.28-1.6,1.16-.14.42-.3.84-.4,1.27a.54.54,0,0,1-.63.48c-1.15,0-1.15,0-.78-1.07,1.06-3,2.13-6.06,3.14-9.1.22-.66.63-.55,1.09-.58s.7.05.86.56q1.45,4.74,3,9.43c.22.66.08.85-.57.75A2.54,2.54,0,0,0,43.91,13.83ZM40.76,5.56h-.14c-.21.76-.42,1.52-.64,2.27-.56,1.91-.57,1.91,1.46,1.76.3,0,.45-.08.35-.4C41.44,8,41.1,6.76,40.76,5.56Z"/><path class="cls-1" d="M77.89,10.92c-1.55,0-1.55,0-2,1.45l-.15.47c-.41,1.17-.08.94-1.38,1-.52,0-.51-.16-.37-.57.83-2.32,1.63-4.65,2.43-7,.32-.91.67-1.81.93-2.73.19-.67.68-.43,1.08-.47s.65,0,.8.46c1,3.27,2.06,6.52,3.12,9.78.12.39,0,.48-.35.49-1.56.07-1.56.08-2-1.39S79.55,10.92,77.89,10.92Zm.18-5.58c-.41,1.39-.76,2.61-1.13,3.81-.12.39,0,.44.37.43a14.61,14.61,0,0,1,1.48,0c.44,0,.44-.17.34-.51C78.79,7.88,78.45,6.69,78.07,5.34Z"/><path class="cls-1" d="M77.91,22.33c0-1.59,0-3.18,0-4.78,0-.47.14-.6.59-.58.8,0,1.6,0,2.39,0,1.94,0,3.09,1,3.22,2.63a3.56,3.56,0,0,1-2.86,4l-.35,0c-1.12.08-1.12.08-1.12,1.19,0,.77,0,1.54,0,2.32,0,.4-.07.57-.53.57-1.34,0-1.34,0-1.34-1.31Zm2.6-3.9c-.73,0-.74,0-.74.71V21.8c0,.19-.08.47.24.48a2,2,0,0,0,1.78-.64,2.29,2.29,0,0,0,.31-2.32A1.5,1.5,0,0,0,80.51,18.43Z"/><path class="cls-1" d="M36.46,22.35c0-1.6,0-3.19,0-4.79,0-.46.12-.6.58-.59,1.27,0,2.54,0,3.8,0,.58,0,.59.26.57.67s.13.87-.6.8-1.31,0-2,0c-.38,0-.56.07-.54.5,0,.65,0,1.31,0,2,0,.39.15.47.5.46.63,0,1.27,0,1.9,0s.63.31.63.76,0,.78-.61.71-1.26,0-1.89,0c-.38,0-.55.08-.53.5q0,1.23,0,2.46c0,.41.13.51.53.5.86,0,1.73,0,2.6,0s.48.45.51.79.07.72-.54.7c-1.45,0-2.91,0-4.36,0-.46,0-.6-.12-.59-.59C36.48,25.54,36.46,23.94,36.46,22.35Z"/><path class="cls-1" d="M99.41,22.11a5.26,5.26,0,0,0,.34,2.11A3.14,3.14,0,0,0,104,26.06c.27-.11.57-.37.67.16s.67.83-.13,1.21a5,5,0,0,1-7.06-4.37,5.66,5.66,0,0,1,1.87-5.13,4.88,4.88,0,0,1,5.21-.66c.71.33.36.68.22,1.1s-.37.49-.82.29c-2.11-.93-4.15.31-4.49,2.72C99.44,21.66,99.43,21.94,99.41,22.11Z"/><path class="cls-1" d="M46.81,9.15c0-1.33,0-2.67,0-4,0-.46-.14-.6-.59-.57-.61,0-1.22,0-1.83,0S44,4.14,44,3.84s-.22-.75.41-.75c2.23,0,4.46,0,6.68,0,.69,0,.35.53.4.83s.13.68-.43.65-1.13,0-1.69,0-.71.11-.7.68c0,2.6,0,5.2,0,7.81,0,.57-.08.83-.75.79-1.11-.07-1.11,0-1.11-1.11V9.15Z"/><path class="cls-1" d="M83,8.41c0-1.55,0-3.1,0-4.64,0-.51.11-.7.66-.68,1.2,0,1.2,0,1.2,1.17,0,2.48,0,5,0,7.45,0,.51.1.71.65.68.84-.05,1.69,0,2.53,0,.61,0,.49.37.46.69s.24.79-.45.78q-2.25,0-4.5,0c-.46,0-.54-.17-.53-.58C83,11.65,83,10,83,8.41Z"/><path class="cls-1" d="M94.39,22.29c0-1.57,0-3.14,0-4.71,0-.45.09-.61.57-.61,1.3,0,1.3,0,1.3,1.28,0,2.91,0,5.82,0,8.73,0,.56-.1.77-.72.74-1.15,0-1.15,0-1.15-1.14Z"/><path class="cls-1" d="M53.92,8.55c0,1.55,0,3.1,0,4.65,0,.48-.1.65-.61.64-1.23,0-1.23,0-1.23-1.2,0-2.93,0-5.86,0-8.8,0-.55.09-.78.71-.76,1.14,0,1.14,0,1.14,1.18Z"/></svg>