<svg id="Layer_1" data-name="Layer 1" xmlns="http://www.w3.org/2000/svg" xmlns:xlink="http://www.w3.org/1999/xlink" viewBox="0 0 137.81 20.84"><defs><style>.cls-1{fill:#fff;}.cls-2{fill:none;}.cls-3{clip-path:url(#clip-path);}.cls-4{clip-path:url(#clip-path-2);}.cls-5{clip-path:url(#clip-path-3);}.cls-6{clip-path:url(#clip-path-4);}.cls-7{clip-path:url(#clip-path-5);}.cls-8{clip-path:url(#clip-path-6);}.cls-9{clip-path:url(#clip-path-7);}.cls-10{clip-path:url(#clip-path-9);}.cls-11{clip-path:url(#clip-path-11);}.cls-12{clip-path:url(#clip-path-13);}.cls-13{clip-path:url(#clip-path-15);}.cls-14{clip-path:url(#clip-path-17);}.cls-15{clip-path:url(#clip-path-19);}.cls-16{clip-path:url(#clip-path-21);}.cls-17{clip-path:url(#clip-path-23);}.cls-18{clip-path:url(#clip-path-25);}</style><clipPath id="clip-path"><path class="cls-1" d="M-404.63-18.45a27.52,27.52,0,0,1,.35-2.73c.49-2,.94-4,1.51-6a3.27,3.27,0,0,1,2.89-2.29c.83-.14,1.34.24,1.28,1.09a32.59,32.59,0,0,1-.47,3.8A36.61,36.61,0,0,0-399.52-13a11,11,0,0,0,.92,3.11c1.84,4.05,7,3.64,9,.66a13.26,13.26,0,0,0,1.85-5,17.06,17.06,0,0,0,.27-6.29,39.14,39.14,0,0,0-1.1-3.84,5.49,5.49,0,0,1-.06-3.4,3.28,3.28,0,0,1,1.58-1.9,1.48,1.48,0,0,1,1.36-.21,1.47,1.47,0,0,1,.95,1,13.43,13.43,0,0,1,.83,3.12,39.06,39.06,0,0,1-.19,10.36,14.58,14.58,0,0,1-3.34,7.62,8.82,8.82,0,0,1-5.79,3.06,1.61,1.61,0,0,0-.36.1h-1.88a4.66,4.66,0,0,1-.63-.12,8.32,8.32,0,0,1-7.19-5.12,14.26,14.26,0,0,1-.82-2.52c-.22-1-.31-2.05-.46-3.07Z"/></clipPath><clipPath id="clip-path-2"><path class="cls-1" d="M-304.24-11a4.61,4.61,0,0,0,3.85-2.65,2.66,2.66,0,0,0,.16-.84,2.12,2.12,0,0,0-1.21-2.11,2,2,0,0,0-2.25.75A6.13,6.13,0,0,0-304.24-11Zm29.59-6.82a.62.62,0,0,0-.11.17A2,2,0,0,1-276.61-16a2.28,2.28,0,0,1-2.5-1.18c-.48-.9-.83-1-1.8-.61a4.72,4.72,0,0,0-2.24,2.06c-.93,1.59-1.78,3.22-2.6,4.86-.67,1.34-1.21,2.74-1.85,4.09a7.22,7.22,0,0,1-.83,1.42,1.14,1.14,0,0,1-1,.53,1.15,1.15,0,0,1-1-.62,9.54,9.54,0,0,1-1-2.32c-.38-1.31-.66-2.66-1-4a1.75,1.75,0,0,0-.17-.45l-.3.57a13.92,13.92,0,0,1-4.28,5.22A8,8,0,0,1-303.09-5a4.84,4.84,0,0,1-4.43-4.36,9.78,9.78,0,0,1,1.92-7.81,5.94,5.94,0,0,1,4.06-2.45,4.51,4.51,0,0,1,4.71,4.5,4.26,4.26,0,0,1-2.12,3.8A31.24,31.24,0,0,1-302-9.86c-.31.14-.64.25-.94.41s-.53.6-.17,1a2.28,2.28,0,0,0,.84.52,4.75,4.75,0,0,0,4.61-.69,9.87,9.87,0,0,0,3.23-3.9c.66-1.38,1.13-2.84,1.67-4.27a15,15,0,0,1,.59-1.44,2,2,0,0,1,.58-.64c.7-.52,1.21-.37,1.38.48.24,1.2.38,2.42.58,3.63.16,1,.33,2,.56,3,.11.45.3,1,.84,1s.62-.55.78-.91c.64-1.38,1.2-2.79,1.86-4.17a10.92,10.92,0,0,1,3.07-4,6.22,6.22,0,0,1,4.6-1.35,3.5,3.5,0,0,1,3.34,2.57Z"/></clipPath><clipPath id="clip-path-3"><path class="cls-1" d="M-334.91-13.07a4.87,4.87,0,0,0,.66,2.5.51.51,0,0,0,.32.32.51.51,0,0,0,.45-.06,4,4,0,0,0,2.12-4.94,1.46,1.46,0,0,0-2.61-.62,3.42,3.42,0,0,0-.94,2.77Zm-7.33-10.85a6.42,6.42,0,0,0,0-1.24,7.9,7.9,0,0,0-.5-2.08,1.12,1.12,0,0,0-1-.73,1.13,1.13,0,0,0-1.06.68,5.13,5.13,0,0,0-.56,1.4,26.53,26.53,0,0,0-.25,9.77,3.76,3.76,0,0,0,.36,1.18c.24.49.6.51.91.07a5.79,5.79,0,0,0,.51-1A21.24,21.24,0,0,0-342.24-23.92Zm9.37,15.18a3.71,3.71,0,0,0,3.53.74,6.86,6.86,0,0,0,3.94-3.19,30.62,30.62,0,0,0,3-6.61,5.74,5.74,0,0,1,.84-1.56c.58-.75,1.32-.67,1.66.2.49,1.25.84,2.56,1.25,3.84.44,1.47.83,3,1.31,4.41a8.2,8.2,0,0,0,.88,1.84c.84,1.35,1.95,1.33,2.75-.06a6.56,6.56,0,0,0,.76-5.06,7.57,7.57,0,0,1,0-4.22,3.7,3.7,0,0,1,1.39-2.07c1.24-.84,2.46-.44,2.58,1.06a14.28,14.28,0,0,1-.24,3.69,17.56,17.56,0,0,1-2.91,7.16A16.05,16.05,0,0,1-314.52-6,4.14,4.14,0,0,1-317-5a2.69,2.69,0,0,1-2.74-1.38A24.16,24.16,0,0,1-321-9.16c-.25-.62-.4-1.28-.67-1.88s-.66-.69-1.15-.24-.83.92-1.23,1.36a37.78,37.78,0,0,1-2.81,2.85,9.56,9.56,0,0,1-6.05,2.15,4.55,4.55,0,0,1-3.41-1.35,2,2,0,0,1-.26-.39c-1.09.5-2,1-3,1.32a5,5,0,0,1-5.6-1.29,10.29,10.29,0,0,0-.92-.83,1.12,1.12,0,0,0-1.48-.12c-.54.36-1.07.73-1.6,1.11A8.52,8.52,0,0,1-354-4.91a3.39,3.39,0,0,1-2.81-1.25,25.33,25.33,0,0,1-1.67-2.46c-.83-1.37-1.24-1.41-2.2-.09-.55.74-1,1.53-1.58,2.26a6.75,6.75,0,0,1-1,1.08,1.44,1.44,0,0,1-1,.47,1.51,1.51,0,0,1-1.07-.41A6.42,6.42,0,0,1-366.62-7c-.6-1.11-1.07-2.29-1.63-3.41a13.06,13.06,0,0,0-1.1-2,1.57,1.57,0,0,0-1.13-.87,1.56,1.56,0,0,0-1.37.41,35,35,0,0,0-3.08,2.5c-1.44,1.26-2.81,2.6-4.25,3.86a14.44,14.44,0,0,1-1.75,1.27,1.07,1.07,0,0,1-1.27,0,1.09,1.09,0,0,1-.4-1.21c.31-1.29.66-2.58,1-3.87q.84-3.13,1.67-6.27a2.25,2.25,0,0,1,1.3-1.66c.6-.25.84-.12,1,.5.27,1,.47,2.08.83,3.09.48,1.47.9,1.54,1.86.34s1.66-2.2,2.5-3.27a16.65,16.65,0,0,1,1.75-1.91c1-.94,1.85-.83,2.44.44.52,1.11.83,2.29,1.27,3.44s.71,2.37,1.21,3.52a7.18,7.18,0,0,0,1.16,1.91,1.51,1.51,0,0,0,1.19.58,1.48,1.48,0,0,0,1.19-.58,5.63,5.63,0,0,0,1.67-3.34,22.37,22.37,0,0,1,.78-3.79,3.7,3.7,0,0,1,.95-1.48,1.4,1.4,0,0,1,1.34-.49,1.4,1.4,0,0,1,1.08.94,6.43,6.43,0,0,1,.42,3.65,8.83,8.83,0,0,1-.27,1.45,4,4,0,0,0,3.55,5.06A5.1,5.1,0,0,0-348-10.73a.86.86,0,0,0,0-.63,24.45,24.45,0,0,1-.13-16.13,24,24,0,0,1,1.55-3.08,2.82,2.82,0,0,1,.36-.54,3.07,3.07,0,0,1,5.13.25,6.81,6.81,0,0,1,1.21,3.48A24.47,24.47,0,0,1-342.8-13c-.3.55-.59,1.11-.83,1.67a.83.83,0,0,0-.08.6c.5,1.42,2.81,3.48,4.8,3.11l.27,0c1-.26,1.08-.39,1-1.41a11.29,11.29,0,0,1,3.05-9.47A4.42,4.42,0,0,1-332-20a2.72,2.72,0,0,1,2.67,1.08c1.45,1.79,2.42,4.85-.17,7.39a35.19,35.19,0,0,1-3,2.46Z"/></clipPath><clipPath id="clip-path-4"><path class="cls-1" d="M-359.26-28.28a3.13,3.13,0,0,1,.89-2.3,2.34,2.34,0,0,1,2.73-.54,2,2,0,0,1,1.23,2.25A5.07,5.07,0,0,1-355-27a2.3,2.3,0,0,1-2.73,1.11A2.25,2.25,0,0,1-359.26-28.28Z"/></clipPath><clipPath id="clip-path-5"><path class="cls-2" d="M8.42,10.2H4.22V4.5h4.2a2.79,2.79,0,0,1,3,2.8A2.71,2.71,0,0,1,8.42,10.2Zm.5-8.4H1.12V19.7h3.1V13h4.7a5.46,5.46,0,0,0,5.8-5.6A5.46,5.46,0,0,0,8.92,1.8Z"/></clipPath><clipPath id="clip-path-6"><rect class="cls-2" x="-1554.38" y="-262" width="1920" height="1080"/></clipPath><clipPath id="clip-path-7"><path class="cls-2" d="M22.82,17.5c-2.4,0-3.7-2-3.7-4.3s1.3-4.3,3.7-4.3,3.7,2,3.7,4.3S25.22,17.5,22.82,17.5Zm0-11.1a6.46,6.46,0,0,0-6.6,6.8,6.46,6.46,0,0,0,6.6,6.8,6.46,6.46,0,0,0,6.6-6.8A6.46,6.46,0,0,0,22.82,6.4Z"/></clipPath><clipPath id="clip-path-9"><path class="cls-2" d="M58.92,8.7a3.46,3.46,0,0,1,3.6,3.2h-7.2A3.53,3.53,0,0,1,58.92,8.7Zm0-2.3a6.5,6.5,0,0,0-6.5,6.8,6.49,6.49,0,0,0,6.7,6.8,7.26,7.26,0,0,0,5.2-1.9L63,16.2a5.43,5.43,0,0,1-3.6,1.4,3.91,3.91,0,0,1-4.1-3.6h9.9v-.7C65.22,9.4,62.72,6.4,58.92,6.4Z"/></clipPath><clipPath id="clip-path-11"><path class="cls-2" d="M71,8.5V6.7h-2.8v13H71V11.5c1-2.3,3.9-2.6,4.7-2.5V6.3A6.36,6.36,0,0,0,71,8.5Z"/></clipPath><clipPath id="clip-path-13"><path class="cls-2" d="M86.42,10.2h-4.3V4.5h4.2a2.79,2.79,0,0,1,3,2.8A2.68,2.68,0,0,1,86.42,10.2Zm.4-8.4H79V19.7h3.1V13h4.7a5.46,5.46,0,0,0,5.8-5.6A5.41,5.41,0,0,0,86.82,1.8Z"/></clipPath><clipPath id="clip-path-15"><path class="cls-2" d="M106.72,1.4A1.75,1.75,0,0,0,105,3.1a1.7,1.7,0,1,0,3.4,0A1.63,1.63,0,0,0,106.72,1.4Z"/></clipPath><clipPath id="clip-path-17"><polygon class="cls-2" points="105.42 19.7 108.22 19.7 108.22 6.7 105.42 8.1 105.42 19.7"/></clipPath><clipPath id="clip-path-19"><path class="cls-2" d="M117.92,8.9a3.39,3.39,0,0,1,2.9,1.5l1.8-1.7a5.78,5.78,0,0,0-4.9-2.3,6.46,6.46,0,0,0-6.6,6.8,6.46,6.46,0,0,0,6.6,6.8,5.78,5.78,0,0,0,4.9-2.3l-1.8-1.7a3.39,3.39,0,0,1-2.9,1.5c-2.3,0-3.9-1.8-3.9-4.3S115.62,8.9,117.92,8.9Z"/></clipPath><clipPath id="clip-path-21"><path class="cls-2" d="M130.82,8.7a3.46,3.46,0,0,1,3.6,3.2h-7.2A3.53,3.53,0,0,1,130.82,8.7Zm6.3,4.7c0-4.1-2.5-7.1-6.3-7.1a6.5,6.5,0,0,0-6.5,6.8,6.49,6.49,0,0,0,6.7,6.8,7.26,7.26,0,0,0,5.2-1.9l-1.3-1.9a5.43,5.43,0,0,1-3.6,1.4,3.91,3.91,0,0,1-4.1-3.6h9.9Z"/></clipPath><clipPath id="clip-path-23"><path class="cls-2" d="M97.92,8.5V6.7h-2.8v13h2.8V11.5c1-2.3,3.9-2.6,4.7-2.5V6.3A6.36,6.36,0,0,0,97.92,8.5Z"/></clipPath><clipPath id="clip-path-25"><polygon class="cls-2" points="49.02 1.7 45.02 15 42.02 5.3 38.82 6.9 36.32 15.2 34.42 9.1 31.92 10.4 34.72 19.5 37.82 19.5 40.62 10.4 43.42 19.5 46.42 19.5 52.42 0 49.02 1.7"/></clipPath></defs><title>power</title><path class="cls-1" d="M-404.63-18.45a27.52,27.52,0,0,1,.35-2.73c.49-2,.94-4,1.51-6a3.27,3.27,0,0,1,2.89-2.29c.83-.14,1.34.24,1.28,1.09a32.59,32.59,0,0,1-.47,3.8A36.61,36.61,0,0,0-399.52-13a11,11,0,0,0,.92,3.11c1.84,4.05,7,3.64,9,.66a13.26,13.26,0,0,0,1.85-5,17.06,17.06,0,0,0,.27-6.29,39.14,39.14,0,0,0-1.1-3.84,5.49,5.49,0,0,1-.06-3.4,3.28,3.28,0,0,1,1.58-1.9,1.48,1.48,0,0,1,1.36-.21,1.47,1.47,0,0,1,.95,1,13.43,13.43,0,0,1,.83,3.12,39.06,39.06,0,0,1-.19,10.36,14.58,14.58,0,0,1-3.34,7.62,8.82,8.82,0,0,1-5.79,3.06,1.61,1.61,0,0,0-.36.1h-1.88a4.66,4.66,0,0,1-.63-.12,8.32,8.32,0,0,1-7.19-5.12,14.26,14.26,0,0,1-.82-2.52c-.22-1-.31-2.05-.46-3.07Z"/><g class="cls-3"><rect class="cls-1" x="-766.37" y="-983.85" width="1945.48" height="1094.33"/></g><path class="cls-1" d="M-304.24-11a4.61,4.61,0,0,0,3.85-2.65,2.66,2.66,0,0,0,.16-.84,2.12,2.12,0,0,0-1.21-2.11,2,2,0,0,0-2.25.75A6.13,6.13,0,0,0-304.24-11Zm29.59-6.82a.62.62,0,0,0-.11.17A2,2,0,0,1-276.61-16a2.28,2.28,0,0,1-2.5-1.18c-.48-.9-.83-1-1.8-.61a4.72,4.72,0,0,0-2.24,2.06c-.93,1.59-1.78,3.22-2.6,4.86-.67,1.34-1.21,2.74-1.85,4.09a7.22,7.22,0,0,1-.83,1.42,1.14,1.14,0,0,1-1,.53,1.15,1.15,0,0,1-1-.62,9.54,9.54,0,0,1-1-2.32c-.38-1.31-.66-2.66-1-4a1.75,1.75,0,0,0-.17-.45l-.3.57a13.92,13.92,0,0,1-4.28,5.22A8,8,0,0,1-303.09-5a4.84,4.84,0,0,1-4.43-4.36,9.78,9.78,0,0,1,1.92-7.81,5.94,5.94,0,0,1,4.06-2.45,4.51,4.51,0,0,1,4.71,4.5,4.26,4.26,0,0,1-2.12,3.8A31.24,31.24,0,0,1-302-9.86c-.31.14-.64.25-.94.41s-.53.6-.17,1a2.28,2.28,0,0,0,.84.52,4.75,4.75,0,0,0,4.61-.69,9.87,9.87,0,0,0,3.23-3.9c.66-1.38,1.13-2.84,1.67-4.27a15,15,0,0,1,.59-1.44,2,2,0,0,1,.58-.64c.7-.52,1.21-.37,1.38.48.24,1.2.38,2.42.58,3.63.16,1,.33,2,.56,3,.11.45.3,1,.84,1s.62-.55.78-.91c.64-1.38,1.2-2.79,1.86-4.17a10.92,10.92,0,0,1,3.07-4,6.22,6.22,0,0,1,4.6-1.35,3.5,3.5,0,0,1,3.34,2.57Z"/><g class="cls-4"><rect class="cls-1" x="-766.37" y="-983.85" width="1945.48" height="1094.33"/></g><path class="cls-1" d="M-334.91-13.07a4.87,4.87,0,0,0,.66,2.5.51.51,0,0,0,.32.32.51.51,0,0,0,.45-.06,4,4,0,0,0,2.12-4.94,1.46,1.46,0,0,0-2.61-.62,3.42,3.42,0,0,0-.94,2.77Zm-7.33-10.85a6.42,6.42,0,0,0,0-1.24,7.9,7.9,0,0,0-.5-2.08,1.12,1.12,0,0,0-1-.73,1.13,1.13,0,0,0-1.06.68,5.13,5.13,0,0,0-.56,1.4,26.53,26.53,0,0,0-.25,9.77,3.76,3.76,0,0,0,.36,1.18c.24.49.6.51.91.07a5.79,5.79,0,0,0,.51-1A21.24,21.24,0,0,0-342.24-23.92Zm9.37,15.18a3.71,3.71,0,0,0,3.53.74,6.86,6.86,0,0,0,3.94-3.19,30.62,30.62,0,0,0,3-6.61,5.74,5.74,0,0,1,.84-1.56c.58-.75,1.32-.67,1.66.2.49,1.25.84,2.56,1.25,3.84.44,1.47.83,3,1.31,4.41a8.2,8.2,0,0,0,.88,1.84c.84,1.35,1.95,1.33,2.75-.06a6.56,6.56,0,0,0,.76-5.06,7.57,7.57,0,0,1,0-4.22,3.7,3.7,0,0,1,1.39-2.07c1.24-.84,2.46-.44,2.58,1.06a14.28,14.28,0,0,1-.24,3.69,17.56,17.56,0,0,1-2.91,7.16A16.05,16.05,0,0,1-314.52-6,4.14,4.14,0,0,1-317-5a2.69,2.69,0,0,1-2.74-1.38A24.16,24.16,0,0,1-321-9.16c-.25-.62-.4-1.28-.67-1.88s-.66-.69-1.15-.24-.83.92-1.23,1.36a37.78,37.78,0,0,1-2.81,2.85,9.56,9.56,0,0,1-6.05,2.15,4.55,4.55,0,0,1-3.41-1.35,2,2,0,0,1-.26-.39c-1.09.5-2,1-3,1.32a5,5,0,0,1-5.6-1.29,10.29,10.29,0,0,0-.92-.83,1.12,1.12,0,0,0-1.48-.12c-.54.36-1.07.73-1.6,1.11A8.52,8.52,0,0,1-354-4.91a3.39,3.39,0,0,1-2.81-1.25,25.33,25.33,0,0,1-1.67-2.46c-.83-1.37-1.24-1.41-2.2-.09-.55.74-1,1.53-1.58,2.26a6.75,6.75,0,0,1-1,1.08,1.44,1.44,0,0,1-1,.47,1.51,1.51,0,0,1-1.07-.41A6.42,6.42,0,0,1-366.62-7c-.6-1.11-1.07-2.29-1.63-3.41a13.06,13.06,0,0,0-1.1-2,1.57,1.57,0,0,0-1.13-.87,1.56,1.56,0,0,0-1.37.41,35,35,0,0,0-3.08,2.5c-1.44,1.26-2.81,2.6-4.25,3.86a14.44,14.44,0,0,1-1.75,1.27,1.07,1.07,0,0,1-1.27,0,1.09,1.09,0,0,1-.4-1.21c.31-1.29.66-2.58,1-3.87q.84-3.13,1.67-6.27a2.25,2.25,0,0,1,1.3-1.66c.6-.25.84-.12,1,.5.27,1,.47,2.08.83,3.09.48,1.47.9,1.54,1.86.34s1.66-2.2,2.5-3.27a16.65,16.65,0,0,1,1.75-1.91c1-.94,1.85-.83,2.44.44.52,1.11.83,2.29,1.27,3.44s.71,2.37,1.21,3.52a7.18,7.18,0,0,0,1.16,1.91,1.51,1.51,0,0,0,1.19.58,1.48,1.48,0,0,0,1.19-.58,5.63,5.63,0,0,0,1.67-3.34,22.37,22.37,0,0,1,.78-3.79,3.7,3.7,0,0,1,.95-1.48,1.4,1.4,0,0,1,1.34-.49,1.4,1.4,0,0,1,1.08.94,6.43,6.43,0,0,1,.42,3.65,8.83,8.83,0,0,1-.27,1.45,4,4,0,0,0,3.55,5.06A5.1,5.1,0,0,0-348-10.73a.86.86,0,0,0,0-.63,24.45,24.45,0,0,1-.13-16.13,24,24,0,0,1,1.55-3.08,2.82,2.82,0,0,1,.36-.54,3.07,3.07,0,0,1,5.13.25,6.81,6.81,0,0,1,1.21,3.48A24.47,24.47,0,0,1-342.8-13c-.3.55-.59,1.11-.83,1.67a.83.83,0,0,0-.08.6c.5,1.42,2.81,3.48,4.8,3.11l.27,0c1-.26,1.08-.39,1-1.41a11.29,11.29,0,0,1,3.05-9.47A4.42,4.42,0,0,1-332-20a2.72,2.72,0,0,1,2.67,1.08c1.45,1.79,2.42,4.85-.17,7.39a35.19,35.19,0,0,1-3,2.46Z"/><g class="cls-5"><rect class="cls-1" x="-766.37" y="-983.85" width="1945.48" height="1094.33"/></g><path class="cls-1" d="M-359.26-28.28a3.13,3.13,0,0,1,.89-2.3,2.34,2.34,0,0,1,2.73-.54,2,2,0,0,1,1.23,2.25A5.07,5.07,0,0,1-355-27a2.3,2.3,0,0,1-2.73,1.11A2.25,2.25,0,0,1-359.26-28.28Z"/><g class="cls-6"><rect class="cls-1" x="-766.37" y="-983.85" width="1945.48" height="1094.33"/></g><g class="cls-7"><g class="cls-8"><rect class="cls-1" x="-3.88" y="-3.2" width="23.6" height="27.9"/></g></g><g class="cls-9"><g class="cls-8"><rect class="cls-1" x="11.22" y="1.4" width="23.2" height="23.6"/></g></g><g class="cls-10"><g class="cls-8"><rect class="cls-1" x="47.42" y="1.4" width="22.8" height="23.6"/></g></g><g class="cls-11"><g class="cls-8"><rect class="cls-1" x="63.22" y="1.3" width="17.5" height="23.4"/></g></g><g class="cls-12"><g class="cls-8"><rect class="cls-1" x="74.02" y="-3.2" width="23.6" height="27.9"/></g></g><g class="cls-13"><g class="cls-8"><rect class="cls-1" x="100.02" y="-3.6" width="13.41" height="13.4"/></g></g><g class="cls-14"><g class="cls-8"><rect class="cls-1" x="100.42" y="1.7" width="12.8" height="23"/></g></g><g class="cls-15"><g class="cls-8"><rect class="cls-1" x="106.12" y="1.4" width="21.5" height="23.6"/></g></g><g class="cls-16"><g class="cls-8"><rect class="cls-1" x="119.32" y="1.3" width="22.8" height="23.6"/></g></g><g class="cls-17"><g class="cls-8"><rect class="cls-1" x="90.12" y="1.3" width="17.5" height="23.4"/></g></g><g class="cls-18"><g class="cls-8"><rect class="cls-1" x="26.92" y="-5" width="30.5" height="29.5"/></g></g></svg>