<svg id="Layer_1" data-name="Layer 1" xmlns="http://www.w3.org/2000/svg" xmlns:xlink="http://www.w3.org/1999/xlink" viewBox="0 0 131.79 29.5"><defs><style>.cls-1,.cls-2{fill:none;}.cls-1{clip-rule:evenodd;}.cls-3{fill:#fff;}.cls-4{clip-path:url(#clip-path);}.cls-5{clip-path:url(#clip-path-2);}.cls-6{clip-path:url(#clip-path-3);}.cls-7{clip-path:url(#clip-path-4);}.cls-8{clip-path:url(#clip-path-5);}.cls-9{clip-path:url(#clip-path-6);}.cls-10{clip-path:url(#clip-path-7);}.cls-11{clip-path:url(#clip-path-8);}.cls-12{clip-path:url(#clip-path-9);}.cls-13{clip-path:url(#clip-path-10);}.cls-14{clip-path:url(#clip-path-11);}.cls-15{clip-path:url(#clip-path-12);}.cls-16{clip-path:url(#clip-path-13);}.cls-17{clip-path:url(#clip-path-14);}.cls-18{clip-path:url(#clip-path-15);}.cls-19{clip-path:url(#clip-path-16);}.cls-20{clip-path:url(#clip-path-17);}.cls-21{clip-path:url(#clip-path-18);}.cls-22{clip-path:url(#clip-path-19);}.cls-23{clip-path:url(#clip-path-20);}.cls-24{clip-path:url(#clip-path-21);}.cls-25{clip-path:url(#clip-path-22);}.cls-26{clip-path:url(#clip-path-23);}.cls-27{clip-path:url(#clip-path-24);}.cls-28{clip-path:url(#clip-path-25);}.cls-29{clip-path:url(#clip-path-26);}.cls-30{clip-path:url(#clip-path-27);}.cls-31{clip-path:url(#clip-path-28);}.cls-32{clip-path:url(#clip-path-30);}.cls-33{clip-path:url(#clip-path-32);}.cls-34{clip-path:url(#clip-path-34);}.cls-35{clip-path:url(#clip-path-35);}.cls-36{clip-path:url(#clip-path-36);}.cls-37{clip-path:url(#clip-path-37);}.cls-38{clip-path:url(#clip-path-38);}.cls-39{clip-path:url(#clip-path-39);}.cls-40{clip-path:url(#clip-path-40);}.cls-41{clip-path:url(#clip-path-41);}.cls-42{clip-path:url(#clip-path-42);}.cls-43{clip-path:url(#clip-path-43);}.cls-44{clip-path:url(#clip-path-44);}</style><clipPath id="clip-path"><path class="cls-1" d="M13.43-105.23H11.36A1.88,1.88,0,0,0,9.46-104L7.1-98.51a11.43,11.43,0,0,0-.58,2.23,2,2,0,0,1,0,.26.27.27,0,0,1-.07.14.17.17,0,0,1-.13.07h-.1C6.1-95.85,6-96,6-96.26a10.42,10.42,0,0,0-.58-2.21l-2.37-5.48a1.88,1.88,0,0,0-1.9-1.27H-.95a1.49,1.49,0,0,0-1.3.52,1.08,1.08,0,0,0-.14.56,2.15,2.15,0,0,0,.22.86L3.12-92.51a4,4,0,0,1,.41,1.83v3.76A1.51,1.51,0,0,0,4-85.72a1.51,1.51,0,0,0,1.21.42H7.34a1.52,1.52,0,0,0,1.22-.42A1.47,1.47,0,0,0,9-86.92v-3.79a4.29,4.29,0,0,1,.41-1.83l5.25-10.76a2.13,2.13,0,0,0,.24-.86,1,1,0,0,0-.17-.55A1.45,1.45,0,0,0,13.43-105.23Z"/></clipPath><clipPath id="clip-path-2"><path class="cls-2" d="M28.16-91.33a3.28,3.28,0,0,1-1,1.91,3.87,3.87,0,0,1-4,0,3.28,3.28,0,0,1-1-1.91,26,26,0,0,1,0-7.88,3.25,3.25,0,0,1,1-1.91,3.87,3.87,0,0,1,4,0,3.31,3.31,0,0,1,1,1.91A26.68,26.68,0,0,1,28.16-91.33Zm4.77-11.27a5.17,5.17,0,0,0-1.72-2,7.47,7.47,0,0,0-2.52-1,19.33,19.33,0,0,0-7,0,7.44,7.44,0,0,0-2.53,1,5,5,0,0,0-1.72,2,10.61,10.61,0,0,0-.94,3,26.15,26.15,0,0,0-.33,4.33,24.26,24.26,0,0,0,.46,5.17,7.1,7.1,0,0,0,1.57,3.25A5.78,5.78,0,0,0,21-85.11a18.61,18.61,0,0,0,8.4,0,5.8,5.8,0,0,0,2.74-1.72,7.09,7.09,0,0,0,1.56-3.25,23.8,23.8,0,0,0,.45-5.19,26,26,0,0,0-.3-4.32A10.5,10.5,0,0,0,32.93-102.6Z"/></clipPath><clipPath id="clip-path-3"><path class="cls-1" d="M43.84-90.48h0a10.28,10.28,0,0,1-.29-2.71v-10.37a1.51,1.51,0,0,0-.42-1.23,1.48,1.48,0,0,0-1.21-.43H39.79a1.44,1.44,0,0,0-1.2.42,1.5,1.5,0,0,0-.43,1.22v10.34c0,3.17.64,5.39,1.94,6.68s3.55,1.93,6.73,1.93a10.13,10.13,0,0,0,5.27-1.14C45.08-85.45,43.84-90.48,43.84-90.48Z"/></clipPath><clipPath id="clip-path-4"><path class="cls-1" d="M54.75-93.35V-103.6a1.47,1.47,0,0,0-.43-1.2,1.5,1.5,0,0,0-1.21-.42h-2.2a1.5,1.5,0,0,0-1.22.43,1.48,1.48,0,0,0-.42,1.21v10.27a6.57,6.57,0,0,1-.63,3.46,2.72,2.72,0,0,1-2.41.87,2.8,2.8,0,0,1-2.42-.9,3.15,3.15,0,0,1-.35-.77s1.26,5,8.42,4.68a4.89,4.89,0,0,0,1-.79C54.14-88,54.75-90.22,54.75-93.35Z"/></clipPath><clipPath id="clip-path-5"><path class="cls-1" d="M71.22-105q-2.44-.21-7.9-.21A4.56,4.56,0,0,0,60-104a4.33,4.33,0,0,0-1.26,3.25V-86.3a1.56,1.56,0,0,0,.42,1.23,1.43,1.43,0,0,0,1.19.43h2.14a1.43,1.43,0,0,0,1.19-.43,1.56,1.56,0,0,0,.43-1.23v-6a.51.51,0,0,1,.13-.41.46.46,0,0,1,.4-.14h5.16A1.41,1.41,0,0,0,71-93.29a1.56,1.56,0,0,0,.43-1.23V-95A1.54,1.54,0,0,0,71-96.23a1.39,1.39,0,0,0-1.18-.44H64.66a.46.46,0,0,1-.4-.14.51.51,0,0,1-.13-.41v-2.33c0-.86.45-1.28,1.37-1.28H71a1.55,1.55,0,0,0,1.69-1.64l0-.7a.67.67,0,0,0,0-.2,1.69,1.69,0,0,0-.32-1.09A1.61,1.61,0,0,0,71.22-105Z"/></clipPath><clipPath id="clip-path-6"><path class="cls-1" d="M79.73-105.23H77.66a1.61,1.61,0,0,0-1.2.43,1.62,1.62,0,0,0-.43,1.21v16.66a1.65,1.65,0,0,0,.43,1.21,1.6,1.6,0,0,0,1.2.42h2.07a1.59,1.59,0,0,0,1.19-.42,1.64,1.64,0,0,0,.42-1.21v-16.66a1.62,1.62,0,0,0-.42-1.21A1.6,1.6,0,0,0,79.73-105.23Z"/></clipPath><clipPath id="clip-path-7"><path class="cls-1" d="M102.38-87.24l-4-7.9a.81.81,0,0,1,0-.74L102-103.3a1.88,1.88,0,0,0,.23-.83,1,1,0,0,0-.16-.57,1.43,1.43,0,0,0-1.33-.52h-2A2,2,0,0,0,96.85-104l-2.78,6c-.11.23-.25.35-.42.35s-.32-.12-.45-.35l-2.75-6a2,2,0,0,0-1.93-1.26h-2a1.52,1.52,0,0,0-1.33.52,1.06,1.06,0,0,0-.17.57,1.88,1.88,0,0,0,.23.83l3.66,7.43a.81.81,0,0,1,0,.74l-4,7.9a1.93,1.93,0,0,0-.24.87,1,1,0,0,0,.14.54,1.47,1.47,0,0,0,1.33.53h2a2,2,0,0,0,1.94-1.23l3.13-6.63a.52.52,0,0,1,.44-.32.49.49,0,0,1,.42.32l3.11,6.63a2,2,0,0,0,2,1.23h2a1.5,1.5,0,0,0,1.33-.53,1.13,1.13,0,0,0,.16-.54A2,2,0,0,0,102.38-87.24Z"/></clipPath><clipPath id="clip-path-8"><circle class="cls-2" cx="52.1" cy="-110.55" r="2.66"/></clipPath><clipPath id="clip-path-9"><circle class="cls-2" cx="40.81" cy="-110.55" r="2.66"/></clipPath><clipPath id="clip-path-10"><path class="cls-3" d="M394.65-80.41a12.18,12.18,0,0,1-12.19-12.18,12.19,12.19,0,0,1,12.19-12.19,12.19,12.19,0,0,1,12.19,12.19A12.18,12.18,0,0,1,394.65-80.41Zm0-25.92a13.74,13.74,0,0,0-13.74,13.74,13.74,13.74,0,0,0,13.74,13.73,13.74,13.74,0,0,0,13.74-13.73A13.74,13.74,0,0,0,394.65-106.33Z"/></clipPath><clipPath id="clip-path-11"><path class="cls-3" d="M399.21-90a.7.7,0,0,1-.94.25l-1.68-1v-.79l.69-.4,1.67,1A.7.7,0,0,1,399.21-90Zm-3.77-2.18-.79.46-.79-.46V-93l.79-.46.79.46Zm-1.48-5a.68.68,0,0,1,.69-.68.68.68,0,0,1,.69.68v1.94l-.69.39-.69-.39Zm-1.25,6.49-1.68,1a.7.7,0,0,1-.94-.25.7.7,0,0,1,.26-.94l1.67-1,.69.4v.79Zm11.92,3.62-2-2.33a.31.31,0,0,0-.09-.07.33.33,0,0,0-.32,0,1.09,1.09,0,0,1-1,0,1.09,1.09,0,0,1-.51-.73h0a2.7,2.7,0,0,0-1.3-1.84l-.89-.51,5.07-2.93L403-96.61l-5.71,3.29-.69-.39v-.8l5.71-3.29-.63-1.09L396.59-96v-1a2.69,2.69,0,0,0-.94-2.05,1,1,0,0,1-.37-.8,1.05,1.05,0,0,1,.46-.88.35.35,0,0,0,.15-.28.36.36,0,0,0,0-.11l-1-2.9a.22.22,0,0,0-.2-.14.22.22,0,0,0-.2.14l-1,2.9a.36.36,0,0,0,0,.11.35.35,0,0,0,.15.28h0a1.05,1.05,0,0,1,.46.88,1,1,0,0,1-.37.8,2.69,2.69,0,0,0-.94,2.05v1l-5.08-2.93L387-97.8l5.71,3.29v.8l-.69.39-5.7-3.29-.63,1.09,5.08,2.93-.9.51a2.7,2.7,0,0,0-1.3,1.84,1.06,1.06,0,0,1-.51.73,1.09,1.09,0,0,1-1,0,.33.33,0,0,0-.32,0l-.09.07-2,2.33a.22.22,0,0,0,0,.25.23.23,0,0,0,.23.1l3-.57a.25.25,0,0,0,.11,0,.35.35,0,0,0,.17-.27,1.05,1.05,0,0,1,.53-.83,1.09,1.09,0,0,1,.88-.09,2.67,2.67,0,0,0,2.25-.2l.89-.52v5.86H394v-6.58l.68-.4.69.4v6.58h1.25v-5.86l.9.52a2.65,2.65,0,0,0,2.24.2,1.12,1.12,0,0,1,.89.09,1,1,0,0,1,.52.83.35.35,0,0,0,.17.27.25.25,0,0,0,.11,0l3,.57a.24.24,0,0,0,.23-.11A.2.2,0,0,0,404.63-87.06Z"/></clipPath><clipPath id="clip-path-12"><polygon class="cls-3" points="485.13 -95.71 480.59 -95.71 480.59 -104.69 476.44 -104.69 476.44 -81.25 480.59 -81.25 480.59 -91.55 485.13 -91.55 485.13 -81.25 489.37 -81.25 489.37 -104.69 485.13 -104.69 485.13 -95.71"/></clipPath><clipPath id="clip-path-13"><polygon class="cls-3" points="411.17 -104.69 415.77 -90.32 415.77 -81.25 420.38 -81.25 420.38 -90.79 425.15 -104.69 421.28 -104.69 418.14 -95.56 415.31 -104.69 411.17 -104.69"/></clipPath><clipPath id="clip-path-14"><polygon class="cls-3" points="451.18 -104.69 449.19 -93.54 446.89 -104.69 440.41 -104.69 440.41 -81.25 444.12 -81.25 444.12 -98.92 447.29 -83.56 450.76 -83.56 453.57 -99.17 453.57 -81.25 457.93 -81.25 457.93 -104.69 451.18 -104.69"/></clipPath><clipPath id="clip-path-15"><path class="cls-3" d="M496.68-90.62l1.76-10.48,1.72,10.48ZM502-104.69h-6.42l-4.33,23.44h3.84l.92-5.46h4.77l.89,5.46h4.23Z"/></clipPath><clipPath id="clip-path-16"><path class="cls-3" d="M465.24-90.62,467-101.1l1.72,10.48Zm-1.09-14.07-4.33,23.44h3.84l.92-5.46h4.77l.89,5.46h4.23l-3.9-23.44Z"/></clipPath><clipPath id="clip-path-17"><path class="cls-3" d="M429.21-90.62,431-101.1l1.72,10.48Zm-1.09-14.07-4.33,23.44h3.84l.92-5.46h4.78l.89,5.46h4.22l-3.9-23.44Z"/></clipPath><clipPath id="clip-path-18"><path class="cls-3" d="M607-109.16l-8.91,10.61,9.7,11.79h-7.56l-7.35-9.51-.18-.22v9.71h-5.83v-22.38h5.81v9.26c.07-.09.15-.17.21-.26q3.43-4.51,6.86-9H607Z"/></clipPath><clipPath id="clip-path-19"><path class="cls-3" d="M629.22-95.13H634l-2.38-7.15Zm14,8.37h-6.22l-1.14-3c-.08-.21-.17-.42-.23-.64a.26.26,0,0,0-.29-.2c-1.19,0-3.56,0-3.56,0s-2.67,0-4,0a.26.26,0,0,0-.29.2l-1.39,3.51-.07.17h-6.18A1.68,1.68,0,0,1,620-87l8.42-21.93.1-.24h6.37l.08.21,8.26,22Z"/></clipPath><clipPath id="clip-path-20"><path class="cls-3" d="M651-92.48l7.22-17.87c2.41,6,4.81,11.94,7.23,17.94.19-.53.36-1,.52-1.48,1.76-5,5.27-15,5.27-15l.08-.24H674c-2.87,7.87-5.72,15.7-8.59,23.6-2.43-6-4.83-12-7.24-18l-7.25,18-8.58-23.59h.23l2.28,0h.22s0,.13.06.21l3.12,8.92,2.58,7.36c0,.07,0,.13.07.2Z"/></clipPath><clipPath id="clip-path-21"><rect class="cls-3" x="610.81" y="-109.15" width="5.8" height="22.39"/></clipPath><clipPath id="clip-path-22"><path class="cls-3" d="M679.51-95.46H687l-3.72-8.91Zm3.86-14.79c3.38,7.86,6.72,15.66,10.08,23.49h-.22c-.79,0-1.57,0-2.36,0h-.21a2,2,0,0,1-.08-.2l-2.44-5.89a.36.36,0,0,0-.39-.27c-3,0-6,0-9,0a.31.31,0,0,0-.34.23l-2.52,5.93-.09.2H673Z"/></clipPath><clipPath id="clip-path-23"><path class="cls-3" d="M736.85-109.16a1.89,1.89,0,0,1-.09.21L726.52-87l-.1.19H722l.11-.22,10.26-22,.08-.19h4.3Z"/></clipPath><clipPath id="clip-path-24"><path class="cls-3" d="M715.84-86.76c.3-.65.58-1.25.85-1.85,3.16-6.77,9.46-20.3,9.46-20.3l.14-.28h4.41l-.11.26L720.37-87l-.09.22h-4.44Z"/></clipPath><clipPath id="clip-path-25"><path class="cls-3" d="M702.19-86.76h-2.51v-9.36a.83.83,0,0,0-.12-.44q-3.52-6.16-7.06-12.31c0-.09-.09-.17-.15-.28h2.87l.16.23,5.4,9.47c0,.08.09.15.16.26a2.52,2.52,0,0,0,.15-.27l5.4-9.45.14-.24h.26c.78,0,1.57,0,2.35,0h.28a1.52,1.52,0,0,1-.14.26q-3.52,6.16-7.07,12.33a1,1,0,0,0-.12.46c0,3,0,6,0,9Z"/></clipPath><clipPath id="clip-path-26"><path class="cls-3" d="M.73,14.79a27.52,27.52,0,0,1,.35-2.73C1.56,10,2,8,2.59,6A3.26,3.26,0,0,1,5.47,3.75c.84-.14,1.35.24,1.29,1.09a30.59,30.59,0,0,1-.48,3.8,37.21,37.21,0,0,0-.45,11.63,11.71,11.71,0,0,0,.92,3.11c1.85,4.05,7,3.64,9,.66a13.6,13.6,0,0,0,1.85-5,16.85,16.85,0,0,0,.26-6.29,34.29,34.29,0,0,0-1.1-3.84,5.49,5.49,0,0,1-.06-3.4,3.26,3.26,0,0,1,1.59-1.9,1.48,1.48,0,0,1,2.3.78,13,13,0,0,1,.84,3.12,39.57,39.57,0,0,1-.19,10.37,14.74,14.74,0,0,1-3.34,7.61,8.82,8.82,0,0,1-5.79,3.06,1.36,1.36,0,0,0-.36.1H9.82a4.52,4.52,0,0,1-.62-.12A8.35,8.35,0,0,1,2,23.4a14,14,0,0,1-.81-2.52c-.22-1-.31-2.05-.46-3.06Z"/></clipPath><clipPath id="clip-path-27"><rect class="cls-3" x="-361.01" y="-950.61" width="1945.48" height="1094.33"/></clipPath><clipPath id="clip-path-28"><path class="cls-3" d="M101.11,22.26A4.62,4.62,0,0,0,105,19.61a3.38,3.38,0,0,0,.16-.84,2.15,2.15,0,0,0-1.21-2.11,2,2,0,0,0-2.26.75A6.22,6.22,0,0,0,101.11,22.26Zm29.59-6.82a1,1,0,0,0-.11.17,2,2,0,0,1-1.84,1.58,2.27,2.27,0,0,1-2.5-1.18c-.48-.9-.84-1-1.81-.61a4.7,4.7,0,0,0-2.23,2.06c-.93,1.59-1.79,3.22-2.61,4.86-.66,1.34-1.21,2.74-1.84,4.09a6.8,6.8,0,0,1-.84,1.42,1.14,1.14,0,0,1-1,.53,1.15,1.15,0,0,1-1-.61,10.29,10.29,0,0,1-1-2.32c-.39-1.31-.66-2.67-1-4a1.43,1.43,0,0,0-.17-.45l-.3.57a13.84,13.84,0,0,1-4.28,5.23,8,8,0,0,1-5.95,1.46,4.84,4.84,0,0,1-4.42-4.36,9.81,9.81,0,0,1,1.91-7.81,6,6,0,0,1,4.07-2.45,4.5,4.5,0,0,1,4.7,4.5,4.23,4.23,0,0,1-2.11,3.8,32.34,32.34,0,0,1-3.1,1.45c-.31.14-.65.25-1,.41-.45.24-.52.6-.16,1a2.25,2.25,0,0,0,.83.52,4.78,4.78,0,0,0,4.62-.69,9.84,9.84,0,0,0,3.22-3.9c.66-1.38,1.13-2.84,1.67-4.27a15.08,15.08,0,0,1,.6-1.44,1.92,1.92,0,0,1,.57-.63c.7-.53,1.21-.38,1.39.47.24,1.2.37,2.42.57,3.63.17,1,.34,2,.57,3,.11.45.3,1,.83,1s.62-.54.79-.91c.63-1.38,1.19-2.79,1.85-4.17a11.23,11.23,0,0,1,3.07-4A6.25,6.25,0,0,1,127.39,12a3.51,3.51,0,0,1,3.34,2.57Z"/></clipPath><clipPath id="clip-path-30"><path class="cls-3" d="M70.45,20.17a5,5,0,0,0,.65,2.5.55.55,0,0,0,.33.32.51.51,0,0,0,.45-.06A4,4,0,0,0,74,18a1.45,1.45,0,0,0-2.6-.62,3.43,3.43,0,0,0-.94,2.77ZM63.12,9.32a8.55,8.55,0,0,0,0-1.24A8.77,8.77,0,0,0,62.62,6a1.13,1.13,0,0,0-2.09,0A5.47,5.47,0,0,0,60,7.35a26.75,26.75,0,0,0-.25,9.77,4,4,0,0,0,.36,1.18c.24.49.6.51.91.07a5.17,5.17,0,0,0,.52-.95A21.63,21.63,0,0,0,63.12,9.32ZM72.49,24.5a3.7,3.7,0,0,0,3.52.74A6.88,6.88,0,0,0,80,22.05a30.88,30.88,0,0,0,3-6.61,5.71,5.71,0,0,1,.83-1.56c.59-.75,1.33-.67,1.67.2.48,1.25.84,2.56,1.24,3.84.45,1.47.84,2.95,1.31,4.41a8.23,8.23,0,0,0,.89,1.84c.83,1.36,1.94,1.33,2.74-.06a6.52,6.52,0,0,0,.76-5.06,7.76,7.76,0,0,1,0-4.22,3.77,3.77,0,0,1,1.4-2.07c1.24-.84,2.46-.44,2.58,1.06a14.7,14.7,0,0,1-.25,3.69,17.69,17.69,0,0,1-2.9,7.16,16.11,16.11,0,0,1-2.43,2.59,4.09,4.09,0,0,1-2.5,1,2.69,2.69,0,0,1-2.74-1.38,21.06,21.06,0,0,1-1.19-2.76c-.25-.62-.4-1.27-.67-1.88s-.67-.69-1.15-.24-.84.92-1.24,1.36a37.65,37.65,0,0,1-2.8,2.85,9.6,9.6,0,0,1-6.05,2.15A4.52,4.52,0,0,1,69.08,27a1.83,1.83,0,0,1-.26-.38c-1.09.49-2,1-3,1.31a4.94,4.94,0,0,1-5.6-1.29,11.88,11.88,0,0,0-.92-.83,1.13,1.13,0,0,0-1.49-.12c-.54.36-1.06.73-1.6,1.11a8.47,8.47,0,0,1-4.86,1.56,3.4,3.4,0,0,1-2.82-1.25,25.23,25.23,0,0,1-1.66-2.46c-.84-1.37-1.25-1.41-2.21-.09-.54.75-1,1.53-1.57,2.26a6.35,6.35,0,0,1-1,1.08,1.46,1.46,0,0,1-1,.47A1.49,1.49,0,0,1,40,27.93a6,6,0,0,1-1.3-1.67c-.6-1.11-1.07-2.29-1.63-3.41a13.06,13.06,0,0,0-1.1-2A1.56,1.56,0,0,0,34.87,20a1.58,1.58,0,0,0-1.37.41,35,35,0,0,0-3.08,2.5c-1.43,1.26-2.81,2.6-4.24,3.87a16.48,16.48,0,0,1-1.75,1.26,1.09,1.09,0,0,1-1.67-1.21c.31-1.29.66-2.57,1-3.87.56-2.09,1.11-4.18,1.67-6.26A2.21,2.21,0,0,1,26.72,15c.6-.25.83-.12,1,.51.27,1,.47,2.07.84,3.08.47,1.47.89,1.54,1.85.34s1.67-2.2,2.51-3.27a16.65,16.65,0,0,1,1.75-1.91c1-.94,1.84-.83,2.43.45.52,1.1.84,2.28,1.28,3.43s.7,2.37,1.2,3.52a7.21,7.21,0,0,0,1.17,1.91,1.51,1.51,0,0,0,2.38,0,5.63,5.63,0,0,0,1.67-3.34A23.36,23.36,0,0,1,45.6,16a3.72,3.72,0,0,1,1-1.48A1.41,1.41,0,0,1,47.9,14a1.39,1.39,0,0,1,1.07.94,6.52,6.52,0,0,1,.43,3.65A8.83,8.83,0,0,1,49.13,20a4,4,0,0,0,3.54,5.06,5.08,5.08,0,0,0,4.68-2.59.86.86,0,0,0,0-.63,24.45,24.45,0,0,1-.12-16.13,25.28,25.28,0,0,1,1.54-3.08,2.87,2.87,0,0,1,.37-.54,3.08,3.08,0,0,1,5.13.25,6.8,6.8,0,0,1,1.2,3.48,24.47,24.47,0,0,1-2.91,14.42A17.28,17.28,0,0,0,61.73,22a.78.78,0,0,0-.09.6c.5,1.42,2.81,3.48,4.81,3.11l.27-.05c1-.26,1.07-.39,1-1.41a11.3,11.3,0,0,1,3.06-9.47,4.39,4.39,0,0,1,2.58-1.45A2.71,2.71,0,0,1,76,14.36c1.46,1.79,2.42,4.85-.16,7.39-1,.87-2,1.7-3,2.47Z"/></clipPath><clipPath id="clip-path-32"><path class="cls-3" d="M46.1,5A3.09,3.09,0,0,1,47,2.66a2.34,2.34,0,0,1,2.73-.54,2,2,0,0,1,1.22,2.25,4.87,4.87,0,0,1-.62,1.86,2.3,2.3,0,0,1-2.73,1.11A2.24,2.24,0,0,1,46.1,5Z"/></clipPath><clipPath id="clip-path-34"><path class="cls-2" d="M413.77,43.44h-4.2v-5.7h4.2a2.79,2.79,0,0,1,3,2.8A2.71,2.71,0,0,1,413.77,43.44Zm.5-8.4h-7.8v17.9h3.1v-6.7h4.7a5.6,5.6,0,1,0,0-11.2Z"/></clipPath><clipPath id="clip-path-35"><path class="cls-2" d="M428.17,50.74c-2.4,0-3.7-2-3.7-4.3s1.3-4.3,3.7-4.3,3.7,2,3.7,4.3S430.57,50.74,428.17,50.74Zm0-11.1a6.46,6.46,0,0,0-6.6,6.8,6.6,6.6,0,1,0,13.2,0A6.46,6.46,0,0,0,428.17,39.64Z"/></clipPath><clipPath id="clip-path-36"><path class="cls-2" d="M464.27,41.94a3.46,3.46,0,0,1,3.6,3.2h-7.2A3.53,3.53,0,0,1,464.27,41.94Zm0-2.3a6.5,6.5,0,0,0-6.5,6.8,6.49,6.49,0,0,0,6.7,6.8,7.26,7.26,0,0,0,5.2-1.9l-1.3-1.9a5.43,5.43,0,0,1-3.6,1.4,3.91,3.91,0,0,1-4.1-3.6h9.9v-.7C470.57,42.64,468.07,39.64,464.27,39.64Z"/></clipPath><clipPath id="clip-path-37"><path class="cls-2" d="M476.37,41.74v-1.8h-2.8v13h2.8v-8.2c1-2.3,3.9-2.6,4.7-2.5v-2.7A6.36,6.36,0,0,0,476.37,41.74Z"/></clipPath><clipPath id="clip-path-38"><path class="cls-2" d="M491.77,43.44h-4.3v-5.7h4.2a2.79,2.79,0,0,1,3,2.8A2.68,2.68,0,0,1,491.77,43.44Zm.4-8.4h-7.8v17.9h3.1v-6.7h4.7a5.6,5.6,0,1,0,0-11.2Z"/></clipPath><clipPath id="clip-path-39"><path class="cls-2" d="M512.07,34.64a1.75,1.75,0,0,0-1.7,1.7,1.7,1.7,0,1,0,3.4,0A1.63,1.63,0,0,0,512.07,34.64Z"/></clipPath><clipPath id="clip-path-40"><polygon class="cls-2" points="510.77 52.94 513.57 52.94 513.57 39.94 510.77 41.34 510.77 52.94"/></clipPath><clipPath id="clip-path-41"><path class="cls-2" d="M523.27,42.14a3.39,3.39,0,0,1,2.9,1.5l1.8-1.7a5.78,5.78,0,0,0-4.9-2.3,6.46,6.46,0,0,0-6.6,6.8,6.46,6.46,0,0,0,6.6,6.8,5.78,5.78,0,0,0,4.9-2.3l-1.8-1.7a3.39,3.39,0,0,1-2.9,1.5c-2.3,0-3.9-1.8-3.9-4.3S521,42.14,523.27,42.14Z"/></clipPath><clipPath id="clip-path-42"><path class="cls-2" d="M536.17,41.94a3.46,3.46,0,0,1,3.6,3.2h-7.2A3.53,3.53,0,0,1,536.17,41.94Zm6.3,4.7c0-4.1-2.5-7.1-6.3-7.1a6.5,6.5,0,0,0-6.5,6.8,6.49,6.49,0,0,0,6.7,6.8,7.26,7.26,0,0,0,5.2-1.9l-1.3-1.9a5.43,5.43,0,0,1-3.6,1.4,3.91,3.91,0,0,1-4.1-3.6h9.9Z"/></clipPath><clipPath id="clip-path-43"><path class="cls-2" d="M503.27,41.74v-1.8h-2.8v13h2.8v-8.2c1-2.3,3.9-2.6,4.7-2.5v-2.7A6.36,6.36,0,0,0,503.27,41.74Z"/></clipPath><clipPath id="clip-path-44"><polygon class="cls-2" points="454.37 34.94 450.37 48.24 447.37 38.54 444.17 40.14 441.67 48.44 439.77 42.34 437.27 43.64 440.07 52.74 443.17 52.74 445.97 43.64 448.77 52.74 451.77 52.74 457.77 33.24 454.37 34.94"/></clipPath></defs><title>uni</title><path class="cls-3" d="M394.65-80.41a12.18,12.18,0,0,1-12.19-12.18,12.19,12.19,0,0,1,12.19-12.19,12.19,12.19,0,0,1,12.19,12.19A12.18,12.18,0,0,1,394.65-80.41Zm0-25.92a13.74,13.74,0,0,0-13.74,13.74,13.74,13.74,0,0,0,13.74,13.73,13.74,13.74,0,0,0,13.74-13.73A13.74,13.74,0,0,0,394.65-106.33Z"/><g class="cls-13"><rect class="cls-3" x="-367.84" y="-1049.21" width="1901.6" height="1069.65"/></g><path class="cls-3" d="M399.21-90a.7.7,0,0,1-.94.25l-1.68-1v-.79l.69-.4,1.67,1A.7.7,0,0,1,399.21-90Zm-3.77-2.18-.79.46-.79-.46V-93l.79-.46.79.46Zm-1.48-5a.68.68,0,0,1,.69-.68.68.68,0,0,1,.69.68v1.94l-.69.39-.69-.39Zm-1.25,6.49-1.68,1a.7.7,0,0,1-.94-.25.7.7,0,0,1,.26-.94l1.67-1,.69.4v.79Zm11.92,3.62-2-2.33a.31.31,0,0,0-.09-.07.33.33,0,0,0-.32,0,1.09,1.09,0,0,1-1,0,1.09,1.09,0,0,1-.51-.73h0a2.7,2.7,0,0,0-1.3-1.84l-.89-.51,5.07-2.93L403-96.61l-5.71,3.29-.69-.39v-.8l5.71-3.29-.63-1.09L396.59-96v-1a2.69,2.69,0,0,0-.94-2.05,1,1,0,0,1-.37-.8,1.05,1.05,0,0,1,.46-.88.35.35,0,0,0,.15-.28.36.36,0,0,0,0-.11l-1-2.9a.22.22,0,0,0-.2-.14.22.22,0,0,0-.2.14l-1,2.9a.36.36,0,0,0,0,.11.35.35,0,0,0,.15.28h0a1.05,1.05,0,0,1,.46.88,1,1,0,0,1-.37.8,2.69,2.69,0,0,0-.94,2.05v1l-5.08-2.93L387-97.8l5.71,3.29v.8l-.69.39-5.7-3.29-.63,1.09,5.08,2.93-.9.51a2.7,2.7,0,0,0-1.3,1.84,1.06,1.06,0,0,1-.51.73,1.09,1.09,0,0,1-1,0,.33.33,0,0,0-.32,0l-.09.07-2,2.33a.22.22,0,0,0,0,.25.23.23,0,0,0,.23.1l3-.57a.25.25,0,0,0,.11,0,.35.35,0,0,0,.17-.27,1.05,1.05,0,0,1,.53-.83,1.09,1.09,0,0,1,.88-.09,2.67,2.67,0,0,0,2.25-.2l.89-.52v5.86H394v-6.58l.68-.4.69.4v6.58h1.25v-5.86l.9.52a2.65,2.65,0,0,0,2.24.2,1.12,1.12,0,0,1,.89.09,1,1,0,0,1,.52.83.35.35,0,0,0,.17.27.25.25,0,0,0,.11,0l3,.57a.24.24,0,0,0,.23-.11A.2.2,0,0,0,404.63-87.06Z"/><g class="cls-14"><rect class="cls-3" x="-367.84" y="-1049.21" width="1901.6" height="1069.65"/></g><polygon class="cls-3" points="485.13 -95.71 480.59 -95.71 480.59 -104.69 476.44 -104.69 476.44 -81.25 480.59 -81.25 480.59 -91.55 485.13 -91.55 485.13 -81.25 489.37 -81.25 489.37 -104.69 485.13 -104.69 485.13 -95.71"/><g class="cls-15"><rect class="cls-3" x="-367.84" y="-1049.21" width="1901.6" height="1069.65"/></g><polygon class="cls-3" points="411.17 -104.69 415.77 -90.32 415.77 -81.25 420.38 -81.25 420.38 -90.79 425.15 -104.69 421.28 -104.69 418.14 -95.56 415.31 -104.69 411.17 -104.69"/><g class="cls-16"><rect class="cls-3" x="-367.84" y="-1049.21" width="1901.6" height="1069.65"/></g><polygon class="cls-3" points="451.18 -104.69 449.19 -93.54 446.89 -104.69 440.41 -104.69 440.41 -81.25 444.12 -81.25 444.12 -98.92 447.29 -83.56 450.76 -83.56 453.57 -99.17 453.57 -81.25 457.93 -81.25 457.93 -104.69 451.18 -104.69"/><g class="cls-17"><rect class="cls-3" x="-367.84" y="-1049.21" width="1901.6" height="1069.65"/></g><path class="cls-3" d="M496.68-90.62l1.76-10.48,1.72,10.48ZM502-104.69h-6.42l-4.33,23.44h3.84l.92-5.46h4.77l.89,5.46h4.23Z"/><g class="cls-18"><rect class="cls-3" x="-367.84" y="-1049.21" width="1901.6" height="1069.65"/></g><path class="cls-3" d="M465.24-90.62,467-101.1l1.72,10.48Zm-1.09-14.07-4.33,23.44h3.84l.92-5.46h4.77l.89,5.46h4.23l-3.9-23.44Z"/><g class="cls-19"><rect class="cls-3" x="-367.84" y="-1049.21" width="1901.6" height="1069.65"/></g><path class="cls-3" d="M429.21-90.62,431-101.1l1.72,10.48Zm-1.09-14.07-4.33,23.44h3.84l.92-5.46h4.78l.89,5.46h4.22l-3.9-23.44Z"/><g class="cls-20"><rect class="cls-3" x="-367.84" y="-1049.21" width="1901.6" height="1069.65"/></g><path class="cls-3" d="M607-109.16l-8.91,10.61,9.7,11.79h-7.56l-7.35-9.51-.18-.22v9.71h-5.83v-22.38h5.81v9.26c.07-.09.15-.17.21-.26q3.43-4.51,6.86-9H607Z"/><g class="cls-21"><rect class="cls-3" x="-380.97" y="-1055.36" width="1903.91" height="1070.95"/></g><path class="cls-3" d="M629.22-95.13H634l-2.38-7.15Zm14,8.37h-6.22l-1.14-3c-.08-.21-.17-.42-.23-.64a.26.26,0,0,0-.29-.2c-1.19,0-3.56,0-3.56,0s-2.67,0-4,0a.26.26,0,0,0-.29.2l-1.39,3.51-.07.17h-6.18A1.68,1.68,0,0,1,620-87l8.42-21.93.1-.24h6.37l.08.21,8.26,22Z"/><g class="cls-22"><rect class="cls-3" x="-380.97" y="-1055.36" width="1903.91" height="1070.95"/></g><path class="cls-3" d="M651-92.48l7.22-17.87c2.41,6,4.81,11.94,7.23,17.94.19-.53.36-1,.52-1.48,1.76-5,5.27-15,5.27-15l.08-.24H674c-2.87,7.87-5.72,15.7-8.59,23.6-2.43-6-4.83-12-7.24-18l-7.25,18-8.58-23.59h.23l2.28,0h.22s0,.13.06.21l3.12,8.92,2.58,7.36c0,.07,0,.13.07.2Z"/><g class="cls-23"><rect class="cls-3" x="-380.97" y="-1055.36" width="1903.91" height="1070.95"/></g><rect class="cls-3" x="610.81" y="-109.15" width="5.8" height="22.39"/><g class="cls-24"><rect class="cls-3" x="-380.97" y="-1055.36" width="1903.91" height="1070.95"/></g><path class="cls-3" d="M679.51-95.46H687l-3.72-8.91Zm3.86-14.79c3.38,7.86,6.72,15.66,10.08,23.49h-.22c-.79,0-1.57,0-2.36,0h-.21a2,2,0,0,1-.08-.2l-2.44-5.89a.36.36,0,0,0-.39-.27c-3,0-6,0-9,0a.31.31,0,0,0-.34.23l-2.52,5.93-.09.2H673Z"/><g class="cls-25"><rect class="cls-3" x="-380.97" y="-1055.36" width="1903.91" height="1070.95"/></g><path class="cls-3" d="M736.85-109.16a1.89,1.89,0,0,1-.09.21L726.52-87l-.1.19H722l.11-.22,10.26-22,.08-.19h4.3Z"/><g class="cls-26"><rect class="cls-3" x="-380.97" y="-1055.36" width="1903.91" height="1070.95"/></g><path class="cls-3" d="M715.84-86.76c.3-.65.58-1.25.85-1.85,3.16-6.77,9.46-20.3,9.46-20.3l.14-.28h4.41l-.11.26L720.37-87l-.09.22h-4.44Z"/><g class="cls-27"><rect class="cls-3" x="-380.97" y="-1055.36" width="1903.91" height="1070.95"/></g><path class="cls-3" d="M702.19-86.76h-2.51v-9.36a.83.83,0,0,0-.12-.44q-3.52-6.16-7.06-12.31c0-.09-.09-.17-.15-.28h2.87l.16.23,5.4,9.47c0,.08.09.15.16.26a2.52,2.52,0,0,0,.15-.27l5.4-9.45.14-.24h.26c.78,0,1.57,0,2.35,0h.28a1.52,1.52,0,0,1-.14.26q-3.52,6.16-7.07,12.33a1,1,0,0,0-.12.46c0,3,0,6,0,9Z"/><g class="cls-28"><rect class="cls-3" x="-380.97" y="-1055.36" width="1903.91" height="1070.95"/></g><path class="cls-3" d="M.73,14.79a27.52,27.52,0,0,1,.35-2.73C1.56,10,2,8,2.59,6A3.26,3.26,0,0,1,5.47,3.75c.84-.14,1.35.24,1.29,1.09a30.59,30.59,0,0,1-.48,3.8,37.21,37.21,0,0,0-.45,11.63,11.71,11.71,0,0,0,.92,3.11c1.85,4.05,7,3.64,9,.66a13.6,13.6,0,0,0,1.85-5,16.85,16.85,0,0,0,.26-6.29,34.29,34.29,0,0,0-1.1-3.84,5.49,5.49,0,0,1-.06-3.4,3.26,3.26,0,0,1,1.59-1.9,1.48,1.48,0,0,1,2.3.78,13,13,0,0,1,.84,3.12,39.57,39.57,0,0,1-.19,10.37,14.74,14.74,0,0,1-3.34,7.61,8.82,8.82,0,0,1-5.79,3.06,1.36,1.36,0,0,0-.36.1H9.82a4.52,4.52,0,0,1-.62-.12A8.35,8.35,0,0,1,2,23.4a14,14,0,0,1-.81-2.52c-.22-1-.31-2.05-.46-3.06Z"/><g class="cls-29"><rect class="cls-3" x="-361.01" y="-950.61" width="1945.48" height="1094.33"/><g class="cls-30"><rect class="cls-3" x="-4.34" y="-1.76" width="31.05" height="35.46"/></g></g><path class="cls-3" d="M101.11,22.26A4.62,4.62,0,0,0,105,19.61a3.38,3.38,0,0,0,.16-.84,2.15,2.15,0,0,0-1.21-2.11,2,2,0,0,0-2.26.75A6.22,6.22,0,0,0,101.11,22.26Zm29.59-6.82a1,1,0,0,0-.11.17,2,2,0,0,1-1.84,1.58,2.27,2.27,0,0,1-2.5-1.18c-.48-.9-.84-1-1.81-.61a4.7,4.7,0,0,0-2.23,2.06c-.93,1.59-1.79,3.22-2.61,4.86-.66,1.34-1.21,2.74-1.84,4.09a6.8,6.8,0,0,1-.84,1.42,1.14,1.14,0,0,1-1,.53,1.15,1.15,0,0,1-1-.61,10.29,10.29,0,0,1-1-2.32c-.39-1.31-.66-2.67-1-4a1.43,1.43,0,0,0-.17-.45l-.3.57a13.84,13.84,0,0,1-4.28,5.23,8,8,0,0,1-5.95,1.46,4.84,4.84,0,0,1-4.42-4.36,9.81,9.81,0,0,1,1.91-7.81,6,6,0,0,1,4.07-2.45,4.5,4.5,0,0,1,4.7,4.5,4.23,4.23,0,0,1-2.11,3.8,32.34,32.34,0,0,1-3.1,1.45c-.31.14-.65.25-1,.41-.45.24-.52.6-.16,1a2.25,2.25,0,0,0,.83.52,4.78,4.78,0,0,0,4.62-.69,9.84,9.84,0,0,0,3.22-3.9c.66-1.38,1.13-2.84,1.67-4.27a15.08,15.08,0,0,1,.6-1.44,1.92,1.92,0,0,1,.57-.63c.7-.53,1.21-.38,1.39.47.24,1.2.37,2.42.57,3.63.17,1,.34,2,.57,3,.11.45.3,1,.83,1s.62-.54.79-.91c.63-1.38,1.19-2.79,1.85-4.17a11.23,11.23,0,0,1,3.07-4A6.25,6.25,0,0,1,127.39,12a3.51,3.51,0,0,1,3.34,2.57Z"/><g class="cls-31"><rect class="cls-3" x="-361.01" y="-950.61" width="1945.48" height="1094.33"/><g class="cls-30"><rect class="cls-3" x="92.61" y="6.92" width="43.18" height="26.51"/></g></g><path class="cls-3" d="M70.45,20.17a5,5,0,0,0,.65,2.5.55.55,0,0,0,.33.32.51.51,0,0,0,.45-.06A4,4,0,0,0,74,18a1.45,1.45,0,0,0-2.6-.62,3.43,3.43,0,0,0-.94,2.77ZM63.12,9.32a8.55,8.55,0,0,0,0-1.24A8.77,8.77,0,0,0,62.62,6a1.13,1.13,0,0,0-2.09,0A5.47,5.47,0,0,0,60,7.35a26.75,26.75,0,0,0-.25,9.77,4,4,0,0,0,.36,1.18c.24.49.6.51.91.07a5.17,5.17,0,0,0,.52-.95A21.63,21.63,0,0,0,63.12,9.32ZM72.49,24.5a3.7,3.7,0,0,0,3.52.74A6.88,6.88,0,0,0,80,22.05a30.88,30.88,0,0,0,3-6.61,5.71,5.71,0,0,1,.83-1.56c.59-.75,1.33-.67,1.67.2.48,1.25.84,2.56,1.24,3.84.45,1.47.84,2.95,1.31,4.41a8.23,8.23,0,0,0,.89,1.84c.83,1.36,1.94,1.33,2.74-.06a6.52,6.52,0,0,0,.76-5.06,7.76,7.76,0,0,1,0-4.22,3.77,3.77,0,0,1,1.4-2.07c1.24-.84,2.46-.44,2.58,1.06a14.7,14.7,0,0,1-.25,3.69,17.69,17.69,0,0,1-2.9,7.16,16.11,16.11,0,0,1-2.43,2.59,4.09,4.09,0,0,1-2.5,1,2.69,2.69,0,0,1-2.74-1.38,21.06,21.06,0,0,1-1.19-2.76c-.25-.62-.4-1.27-.67-1.88s-.67-.69-1.15-.24-.84.92-1.24,1.36a37.65,37.65,0,0,1-2.8,2.85,9.6,9.6,0,0,1-6.05,2.15A4.52,4.52,0,0,1,69.08,27a1.83,1.83,0,0,1-.26-.38c-1.09.49-2,1-3,1.31a4.94,4.94,0,0,1-5.6-1.29,11.88,11.88,0,0,0-.92-.83,1.13,1.13,0,0,0-1.49-.12c-.54.36-1.06.73-1.6,1.11a8.47,8.47,0,0,1-4.86,1.56,3.4,3.4,0,0,1-2.82-1.25,25.23,25.23,0,0,1-1.66-2.46c-.84-1.37-1.25-1.41-2.21-.09-.54.75-1,1.53-1.57,2.26a6.35,6.35,0,0,1-1,1.08,1.46,1.46,0,0,1-1,.47A1.49,1.49,0,0,1,40,27.93a6,6,0,0,1-1.3-1.67c-.6-1.11-1.07-2.29-1.63-3.41a13.06,13.06,0,0,0-1.1-2A1.56,1.56,0,0,0,34.87,20a1.58,1.58,0,0,0-1.37.41,35,35,0,0,0-3.08,2.5c-1.43,1.26-2.81,2.6-4.24,3.87a16.48,16.48,0,0,1-1.75,1.26,1.09,1.09,0,0,1-1.67-1.21c.31-1.29.66-2.57,1-3.87.56-2.09,1.11-4.18,1.67-6.26A2.21,2.21,0,0,1,26.72,15c.6-.25.83-.12,1,.51.27,1,.47,2.07.84,3.08.47,1.47.89,1.54,1.85.34s1.67-2.2,2.51-3.27a16.65,16.65,0,0,1,1.75-1.91c1-.94,1.84-.83,2.43.45.52,1.1.84,2.28,1.28,3.43s.7,2.37,1.2,3.52a7.21,7.21,0,0,0,1.17,1.91,1.51,1.51,0,0,0,2.38,0,5.63,5.63,0,0,0,1.67-3.34A23.36,23.36,0,0,1,45.6,16a3.72,3.72,0,0,1,1-1.48A1.41,1.41,0,0,1,47.9,14a1.39,1.39,0,0,1,1.07.94,6.52,6.52,0,0,1,.43,3.65A8.83,8.83,0,0,1,49.13,20a4,4,0,0,0,3.54,5.06,5.08,5.08,0,0,0,4.68-2.59.86.86,0,0,0,0-.63,24.45,24.45,0,0,1-.12-16.13,25.28,25.28,0,0,1,1.54-3.08,2.87,2.87,0,0,1,.37-.54,3.08,3.08,0,0,1,5.13.25,6.8,6.8,0,0,1,1.2,3.48,24.47,24.47,0,0,1-2.91,14.42A17.28,17.28,0,0,0,61.73,22a.78.78,0,0,0-.09.6c.5,1.42,2.81,3.48,4.81,3.11l.27-.05c1-.26,1.07-.39,1-1.41a11.3,11.3,0,0,1,3.06-9.47,4.39,4.39,0,0,1,2.58-1.45A2.71,2.71,0,0,1,76,14.36c1.46,1.79,2.42,4.85-.16,7.39-1,.87-2,1.7-3,2.47Z"/><g class="cls-32"><rect class="cls-3" x="-361.01" y="-950.61" width="1945.48" height="1094.33"/><g class="cls-30"><rect class="cls-3" x="17.64" y="-4.21" width="83.86" height="37.62"/></g></g><path class="cls-3" d="M46.1,5A3.09,3.09,0,0,1,47,2.66a2.34,2.34,0,0,1,2.73-.54,2,2,0,0,1,1.22,2.25,4.87,4.87,0,0,1-.62,1.86,2.3,2.3,0,0,1-2.73,1.11A2.24,2.24,0,0,1,46.1,5Z"/><g class="cls-33"><rect class="cls-3" x="-361.01" y="-950.61" width="1945.48" height="1094.33"/><g class="cls-30"><rect class="cls-3" x="41.02" y="-3.17" width="15.03" height="15.69"/></g></g></svg>