<svg id="Layer_1" data-name="Layer 1" xmlns="http://www.w3.org/2000/svg" xmlns:xlink="http://www.w3.org/1999/xlink" viewBox="0 0 127.19 28.86"><defs><style>.cls-1{fill:#fff;}.cls-2{fill:none;}.cls-3{clip-path:url(#clip-path);}.cls-4{clip-path:url(#clip-path-2);}.cls-5{clip-path:url(#clip-path-3);}.cls-6{clip-path:url(#clip-path-5);}.cls-7{clip-path:url(#clip-path-7);}.cls-8{clip-path:url(#clip-path-9);}.cls-9{clip-path:url(#clip-path-11);}.cls-10{clip-path:url(#clip-path-13);}.cls-11{clip-path:url(#clip-path-15);}.cls-12{clip-path:url(#clip-path-17);}.cls-13{clip-path:url(#clip-path-18);}.cls-14{clip-path:url(#clip-path-19);}.cls-15{clip-path:url(#clip-path-20);}.cls-16{clip-path:url(#clip-path-21);}.cls-17{clip-path:url(#clip-path-22);}.cls-18{clip-path:url(#clip-path-23);}.cls-19{clip-path:url(#clip-path-24);}.cls-20{clip-path:url(#clip-path-25);}.cls-21{clip-path:url(#clip-path-26);}.cls-22{clip-path:url(#clip-path-27);}.cls-23{clip-path:url(#clip-path-28);}.cls-24{clip-path:url(#clip-path-29);}.cls-25{clip-path:url(#clip-path-30);}.cls-26{clip-path:url(#clip-path-31);}.cls-27{clip-path:url(#clip-path-32);}.cls-28{clip-path:url(#clip-path-33);}.cls-29{clip-path:url(#clip-path-34);}.cls-30{clip-path:url(#clip-path-35);}.cls-31{clip-path:url(#clip-path-36);}.cls-32{clip-path:url(#clip-path-37);}.cls-33{clip-path:url(#clip-path-38);}.cls-34{clip-path:url(#clip-path-39);}</style><clipPath id="clip-path"><path class="cls-1" d="M15,26.64A12.19,12.19,0,1,1,27.17,14.45,12.19,12.19,0,0,1,15,26.64ZM15,.72A13.74,13.74,0,1,0,28.72,14.45,13.74,13.74,0,0,0,15,.72Z"/></clipPath><clipPath id="clip-path-2"><rect class="cls-1" x="-747.51" y="-942.16" width="1901.6" height="1069.65"/></clipPath><clipPath id="clip-path-3"><path class="cls-1" d="M19.54,17.08a.68.68,0,0,1-.93.26l-1.68-1v-.79l.69-.4,1.67,1A.68.68,0,0,1,19.54,17.08Zm-3.76-2.17-.79.46-.79-.46V14l.79-.46.79.46Zm-1.48-5A.69.69,0,0,1,15,9.19a.68.68,0,0,1,.68.69v1.94l-.68.39-.69-.39Zm-1.25,6.49-1.68,1a.69.69,0,0,1-.69-1.19l1.68-1,.69.4v.79ZM25,20l-2-2.33-.09-.07a.36.36,0,0,0-.32,0,1.06,1.06,0,0,1-1.5-.76h0A2.68,2.68,0,0,0,19.77,15l-.9-.51L24,11.52l-.63-1.09-5.7,3.3-.69-.4v-.79l5.71-3.29L22,8.16l-5.08,2.93v-1A2.69,2.69,0,0,0,16,8a1.06,1.06,0,0,1,.09-1.68.35.35,0,0,0,.15-.28.5.5,0,0,0,0-.12L15.19,3A.22.22,0,0,0,15,2.9a.21.21,0,0,0-.2.14l-1,2.89a.5.5,0,0,0,0,.12.35.35,0,0,0,.15.28h0A1.06,1.06,0,0,1,14,8a2.69,2.69,0,0,0-.94,2.05v1L8,8.16,7.34,9.25l5.71,3.29v.79l-.69.4-5.71-3.3L6,11.52l5.07,2.94-.89.51a2.68,2.68,0,0,0-1.3,1.84,1.08,1.08,0,0,1-.52.72,1,1,0,0,1-1,0,.36.36,0,0,0-.32,0,.22.22,0,0,0-.09.07L5,20a.2.2,0,0,0,0,.24.24.24,0,0,0,.23.11l3-.57.11,0a.35.35,0,0,0,.17-.27A1.06,1.06,0,0,1,9,18.62a1.08,1.08,0,0,1,.89-.08,2.65,2.65,0,0,0,2.24-.21l.9-.51v5.86H14.3V17.09L15,16.7l.69.39v6.59h1.25V17.82l.9.51a2.68,2.68,0,0,0,2.24.21,1.05,1.05,0,0,1,.88.08,1.07,1.07,0,0,1,.53.84.35.35,0,0,0,.17.27l.11,0,3,.57a.24.24,0,0,0,.23-.11A.21.21,0,0,0,25,20Z"/></clipPath><clipPath id="clip-path-5"><polygon class="cls-1" points="105.47 11.34 100.92 11.34 100.92 2.35 96.78 2.35 96.78 25.79 100.92 25.79 100.92 15.5 105.47 15.5 105.47 25.79 109.7 25.79 109.7 2.35 105.47 2.35 105.47 11.34"/></clipPath><clipPath id="clip-path-7"><polygon class="cls-1" points="31.51 2.35 36.11 16.73 36.11 25.79 40.72 25.79 40.72 16.26 45.49 2.35 41.62 2.35 38.48 11.49 35.65 2.35 31.51 2.35"/></clipPath><clipPath id="clip-path-9"><polygon class="cls-1" points="71.52 2.35 69.53 13.5 67.22 2.35 60.75 2.35 60.75 25.79 64.46 25.79 64.46 8.13 67.63 23.48 71.1 23.48 73.91 7.88 73.91 25.79 78.26 25.79 78.26 2.35 71.52 2.35"/></clipPath><clipPath id="clip-path-11"><path class="cls-1" d="M117,16.43,118.78,6l1.71,10.48Zm5.33-14.08h-6.41L111.6,25.79h3.84l.92-5.45h4.77l.89,5.45h4.23Z"/></clipPath><clipPath id="clip-path-13"><path class="cls-1" d="M85.57,16.43,87.34,6l1.71,10.48ZM84.49,2.35,80.16,25.79H84l.92-5.45h4.77l.89,5.45h4.23L90.9,2.35Z"/></clipPath><clipPath id="clip-path-15"><path class="cls-1" d="M49.55,16.43,51.31,6,53,16.43ZM48.46,2.35,44.13,25.79H48l.92-5.45h4.77l.89,5.45h4.23L54.87,2.35Z"/></clipPath><clipPath id="clip-path-17"><path class="cls-1" d="M227.32-2.11,218.41,8.5l9.7,11.78-.25,0h-7.32l-7.34-9.51c0-.06-.1-.11-.19-.23v9.72h-5.82V-2.1H213V7.16l.21-.26q3.43-4.52,6.86-9h7.25Z"/></clipPath><clipPath id="clip-path-18"><path class="cls-1" d="M249.56,11.91h4.79L252,4.77Zm14.05,8.38h-6.22l-1.14-3.05c-.08-.21-.17-.42-.23-.64s-.13-.2-.3-.2c-1.18,0-3.55,0-3.55,0s-2.68,0-4,0a.27.27,0,0,0-.3.2c-.45,1.17-.92,2.34-1.38,3.51l-.07.17h-6.19c0-.09.05-.17.08-.24l8.42-21.93.1-.24h6.36l.09.21s5.5,14.64,8.26,22A2.23,2.23,0,0,0,263.61,20.29Z"/></clipPath><clipPath id="clip-path-19"><path class="cls-1" d="M271.3,14.57,278.51-3.3l7.24,17.94c.19-.53.36-1,.52-1.48,1.76-5,5.26-15,5.26-15l.09-.23h2.73l-8.6,23.59-7.24-18-7.24,18L262.69-2.1h.23l2.28,0h.22a2.12,2.12,0,0,0,.06.21L268.6,7l2.58,7.36c0,.07.05.13.07.19Z"/></clipPath><clipPath id="clip-path-20"><rect class="cls-1" x="231.15" y="-2.1" width="5.8" height="22.39"/></clipPath><clipPath id="clip-path-21"><path class="cls-1" d="M299.85,11.59h7.51l-3.71-8.91Zm3.86-14.8,10.07,23.49H311s-.06-.14-.08-.2l-2.44-5.89a.35.35,0,0,0-.39-.27h-9a.32.32,0,0,0-.35.23c-.83,2-2.51,5.93-2.51,5.93l-.09.2h-2.75Z"/></clipPath><clipPath id="clip-path-22"><path class="cls-1" d="M357.19-2.12l-.09.22c-3.41,7.33-10.25,22-10.25,22l-.09.19h-4.43l.11-.22,10.25-22,.09-.19h4.41Z"/></clipPath><clipPath id="clip-path-23"><path class="cls-1" d="M336.17,20.29l.86-1.86,9.45-20.29.15-.28H351l-.11.26L340.71,20.06l-.1.22h-4.44Z"/></clipPath><clipPath id="clip-path-24"><path class="cls-1" d="M322.52,20.28H320V10.93a1.16,1.16,0,0,0-.12-.45q-3.52-6.15-7.06-12.3l-.15-.28h2.87l.15.22,5.41,9.48.15.26.16-.27q2.7-4.73,5.39-9.45l.15-.24h2.89l-.14.26-7.07,12.33a.93.93,0,0,0-.12.46c0,3,0,6,0,9Z"/></clipPath><clipPath id="clip-path-25"><path class="cls-1" d="M-378.94,121.83a27.32,27.32,0,0,1,.35-2.72c.49-2,.95-4,1.52-6a3.24,3.24,0,0,1,2.88-2.29c.84-.14,1.35.24,1.29,1.09a30.2,30.2,0,0,1-.48,3.79,37,37,0,0,0-.45,11.64,11,11,0,0,0,.92,3.11c1.84,4,7,3.64,9,.66a13.45,13.45,0,0,0,1.86-5,16.85,16.85,0,0,0,.26-6.29,36.56,36.56,0,0,0-1.1-3.84,5.49,5.49,0,0,1-.06-3.4,3.31,3.31,0,0,1,1.59-1.91,1.48,1.48,0,0,1,1.35-.2,1.45,1.45,0,0,1,.95,1,13,13,0,0,1,.84,3.12,39.07,39.07,0,0,1-.2,10.36,14.64,14.64,0,0,1-3.33,7.62,8.88,8.88,0,0,1-5.8,3.06,1.4,1.4,0,0,0-.35.1h-1.89c-.21,0-.42-.1-.63-.12a8.35,8.35,0,0,1-7.19-5.12,14.26,14.26,0,0,1-.82-2.52c-.21-1-.31-2.05-.46-3.07Z"/></clipPath><clipPath id="clip-path-26"><path class="cls-1" d="M-278.55,129.31a4.59,4.59,0,0,0,3.85-2.65,2.66,2.66,0,0,0,.16-.84,2.12,2.12,0,0,0-1.21-2.11,2,2,0,0,0-2.25.74A6.24,6.24,0,0,0-278.55,129.31Zm29.59-6.82a1,1,0,0,0-.11.17,2,2,0,0,1-1.84,1.58,2.3,2.3,0,0,1-2.51-1.18c-.47-.9-.83-1-1.8-.61a4.76,4.76,0,0,0-2.24,2.06c-.92,1.59-1.78,3.22-2.6,4.86-.67,1.33-1.21,2.74-1.84,4.09a6.8,6.8,0,0,1-.84,1.42,1.16,1.16,0,0,1-1,.53,1.15,1.15,0,0,1-1-.62,9.54,9.54,0,0,1-1-2.32c-.38-1.31-.65-2.66-1-4a1.64,1.64,0,0,0-.17-.45l-.3.58a13.74,13.74,0,0,1-4.28,5.22,8,8,0,0,1-5.95,1.46,4.81,4.81,0,0,1-4.42-4.35,9.77,9.77,0,0,1,1.91-7.81,6,6,0,0,1,4.06-2.45,4.51,4.51,0,0,1,4.71,4.5,4.26,4.26,0,0,1-2.11,3.8,32.51,32.51,0,0,1-3.11,1.45c-.3.14-.64.25-.94.41s-.52.6-.17,1a2.21,2.21,0,0,0,.84.51,4.73,4.73,0,0,0,4.61-.68,9.87,9.87,0,0,0,3.23-3.9c.66-1.38,1.13-2.84,1.67-4.27a15,15,0,0,1,.59-1.44,2.09,2.09,0,0,1,.58-.64c.7-.52,1.21-.37,1.38.48.25,1.2.38,2.42.58,3.63.17,1,.33,2,.57,3,.11.45.3,1,.83,1s.62-.55.79-.91c.63-1.38,1.19-2.79,1.85-4.18a11.08,11.08,0,0,1,3.07-4,6.19,6.19,0,0,1,4.61-1.35,3.47,3.47,0,0,1,3.33,2.57Z"/></clipPath><clipPath id="clip-path-27"><path class="cls-1" d="M-309.22,127.22a5,5,0,0,0,.66,2.5.55.55,0,0,0,.33.32.51.51,0,0,0,.45-.06,4,4,0,0,0,2.11-4.94,1.45,1.45,0,0,0-2.6-.62,3.43,3.43,0,0,0-1,2.77Zm-7.32-10.85a8.55,8.55,0,0,0,0-1.24,8.65,8.65,0,0,0-.5-2.08,1.14,1.14,0,0,0-1-.73,1.13,1.13,0,0,0-1.06.68,5.47,5.47,0,0,0-.56,1.4,26.75,26.75,0,0,0-.25,9.77,4,4,0,0,0,.36,1.18c.24.49.6.51.91.06a5.37,5.37,0,0,0,.52-.94A21.63,21.63,0,0,0-316.54,116.37Zm9.37,15.18a3.69,3.69,0,0,0,3.52.74,6.91,6.91,0,0,0,3.95-3.19,31.07,31.07,0,0,0,3-6.61,5.94,5.94,0,0,1,.84-1.57c.58-.74,1.33-.66,1.67.2.48,1.26.83,2.57,1.24,3.85.44,1.47.84,3,1.31,4.41a8.23,8.23,0,0,0,.89,1.84c.83,1.35,1.94,1.33,2.74-.06a6.56,6.56,0,0,0,.76-5.06,7.76,7.76,0,0,1,0-4.22,3.75,3.75,0,0,1,1.39-2.07c1.25-.84,2.47-.44,2.58,1.06a14.28,14.28,0,0,1-.24,3.69,17.74,17.74,0,0,1-2.9,7.16,16.57,16.57,0,0,1-2.43,2.59,4.11,4.11,0,0,1-2.5,1,2.68,2.68,0,0,1-2.74-1.38,21.06,21.06,0,0,1-1.19-2.76c-.26-.62-.41-1.28-.67-1.88s-.67-.69-1.15-.24-.84.92-1.24,1.36a37.65,37.65,0,0,1-2.8,2.85,9.6,9.6,0,0,1-6.05,2.15,4.56,4.56,0,0,1-3.42-1.35,1.62,1.62,0,0,1-.25-.39c-1.1.5-2,1-3,1.32a5,5,0,0,1-5.6-1.29,12.07,12.07,0,0,0-.91-.84,1.14,1.14,0,0,0-1.49-.11c-.54.36-1.07.73-1.6,1.11a8.48,8.48,0,0,1-4.87,1.56,3.41,3.41,0,0,1-2.81-1.25,26.07,26.07,0,0,1-1.67-2.47c-.83-1.36-1.24-1.4-2.2-.08-.54.74-1,1.53-1.58,2.26a7.71,7.71,0,0,1-1,1.08,1.46,1.46,0,0,1-1,.47,1.47,1.47,0,0,1-1.06-.41,6.41,6.41,0,0,1-1.31-1.67c-.6-1.11-1.06-2.29-1.62-3.41a13.06,13.06,0,0,0-1.1-2,1.58,1.58,0,0,0-1.14-.87,1.58,1.58,0,0,0-1.37.41,35,35,0,0,0-3.08,2.5c-1.43,1.26-2.81,2.6-4.24,3.86a14.55,14.55,0,0,1-1.76,1.27,1.07,1.07,0,0,1-1.27,0,1.09,1.09,0,0,1-.4-1.21c.31-1.29.66-2.58,1-3.87q.82-3.14,1.67-6.27a2.23,2.23,0,0,1,1.3-1.67c.6-.25.83-.11,1,.51.27,1,.47,2.08.84,3.09.47,1.47.89,1.54,1.85.33s1.67-2.19,2.5-3.26a17.62,17.62,0,0,1,1.75-1.91c1-.94,1.85-.83,2.44.44.52,1.1.84,2.29,1.28,3.44s.7,2.37,1.2,3.51a7.27,7.27,0,0,0,1.17,1.92,1.51,1.51,0,0,0,1.19.58,1.54,1.54,0,0,0,1.19-.58,5.63,5.63,0,0,0,1.67-3.34,23.15,23.15,0,0,1,.77-3.79,3.7,3.7,0,0,1,.95-1.48,1.38,1.38,0,0,1,1.34-.49,1.39,1.39,0,0,1,1.08.93,6.57,6.57,0,0,1,.43,3.66,8.84,8.84,0,0,1-.28,1.45,4,4,0,0,0,3.55,5.06,5.09,5.09,0,0,0,4.68-2.59.86.86,0,0,0,0-.63,24.38,24.38,0,0,1-.12-16.13,23.92,23.92,0,0,1,1.54-3.08,2.25,2.25,0,0,1,.37-.54c1.8-2.12,4-1.28,5.13.25a6.86,6.86,0,0,1,1.2,3.48,24.49,24.49,0,0,1-2.91,14.41c-.31.56-.6,1.12-.84,1.67a.84.84,0,0,0-.08.6c.5,1.43,2.81,3.49,4.81,3.12l.26-.05c1-.26,1.08-.4,1-1.41a11.3,11.3,0,0,1,3.06-9.47,4.46,4.46,0,0,1,2.58-1.46,2.74,2.74,0,0,1,2.67,1.09c1.45,1.78,2.42,4.85-.16,7.39-1,.87-2,1.69-3,2.46Z"/></clipPath><clipPath id="clip-path-28"><path class="cls-1" d="M-333.57,112a3.09,3.09,0,0,1,.9-2.3,2.34,2.34,0,0,1,2.73-.54,2,2,0,0,1,1.22,2.25,4.87,4.87,0,0,1-.62,1.86,2.3,2.3,0,0,1-2.73,1.11A2.27,2.27,0,0,1-333.57,112Z"/></clipPath><clipPath id="clip-path-29"><path class="cls-2" d="M34.11,150.49h-4.2v-5.7h4.2a2.79,2.79,0,0,1,3,2.8A2.71,2.71,0,0,1,34.11,150.49Zm.5-8.4h-7.8V160h3.1v-6.7h4.7a5.6,5.6,0,1,0,0-11.2Z"/></clipPath><clipPath id="clip-path-30"><path class="cls-2" d="M48.51,157.79c-2.4,0-3.7-2-3.7-4.3s1.3-4.3,3.7-4.3,3.7,2,3.7,4.3S50.91,157.79,48.51,157.79Zm0-11.1a6.8,6.8,0,1,0,6.6,6.8A6.46,6.46,0,0,0,48.51,146.69Z"/></clipPath><clipPath id="clip-path-31"><path class="cls-2" d="M84.61,149a3.46,3.46,0,0,1,3.6,3.2H81A3.53,3.53,0,0,1,84.61,149Zm0-2.3a6.8,6.8,0,0,0,.2,13.6,7.26,7.26,0,0,0,5.2-1.9l-1.3-1.9a5.43,5.43,0,0,1-3.6,1.4,3.91,3.91,0,0,1-4.1-3.6h9.9v-.7C90.91,149.69,88.41,146.69,84.61,146.69Z"/></clipPath><clipPath id="clip-path-32"><path class="cls-2" d="M96.71,148.79V147h-2.8v13h2.8v-8.2c1-2.3,3.9-2.6,4.7-2.5v-2.7A6.36,6.36,0,0,0,96.71,148.79Z"/></clipPath><clipPath id="clip-path-33"><path class="cls-2" d="M112.11,150.49h-4.3v-5.7H112a2.79,2.79,0,0,1,3,2.8A2.68,2.68,0,0,1,112.11,150.49Zm.4-8.4h-7.8V160h3.1v-6.7h4.7a5.6,5.6,0,1,0,0-11.2Z"/></clipPath><clipPath id="clip-path-34"><path class="cls-2" d="M132.41,141.69a1.75,1.75,0,0,0-1.7,1.7,1.7,1.7,0,0,0,3.4,0A1.63,1.63,0,0,0,132.41,141.69Z"/></clipPath><clipPath id="clip-path-35"><polygon class="cls-2" points="131.11 159.99 133.91 159.99 133.91 146.99 131.11 148.39 131.11 159.99"/></clipPath><clipPath id="clip-path-36"><path class="cls-2" d="M143.61,149.19a3.39,3.39,0,0,1,2.9,1.5l1.8-1.7a5.78,5.78,0,0,0-4.9-2.3,6.8,6.8,0,0,0,0,13.6,5.78,5.78,0,0,0,4.9-2.3l-1.8-1.7a3.39,3.39,0,0,1-2.9,1.5c-2.3,0-3.9-1.8-3.9-4.3S141.31,149.19,143.61,149.19Z"/></clipPath><clipPath id="clip-path-37"><path class="cls-2" d="M156.51,149a3.46,3.46,0,0,1,3.6,3.2h-7.2A3.53,3.53,0,0,1,156.51,149Zm6.3,4.7c0-4.1-2.5-7.1-6.3-7.1a6.8,6.8,0,0,0,.2,13.6,7.26,7.26,0,0,0,5.2-1.9l-1.3-1.9a5.43,5.43,0,0,1-3.6,1.4,3.91,3.91,0,0,1-4.1-3.6h9.9Z"/></clipPath><clipPath id="clip-path-38"><path class="cls-2" d="M123.61,148.79V147h-2.8v13h2.8v-8.2c1-2.3,3.9-2.6,4.7-2.5v-2.7A6.36,6.36,0,0,0,123.61,148.79Z"/></clipPath><clipPath id="clip-path-39"><polygon class="cls-2" points="74.71 141.99 70.71 155.29 67.71 145.59 64.51 147.19 62.01 155.49 60.11 149.39 57.61 150.69 60.41 159.79 63.51 159.79 66.31 150.69 69.11 159.79 72.11 159.79 78.11 140.29 74.71 141.99"/></clipPath></defs><title>yamaha</title><path class="cls-1" d="M15,26.64A12.19,12.19,0,1,1,27.17,14.45,12.19,12.19,0,0,1,15,26.64ZM15,.72A13.74,13.74,0,1,0,28.72,14.45,13.74,13.74,0,0,0,15,.72Z"/><g class="cls-3"><rect class="cls-1" x="-747.51" y="-942.16" width="1901.6" height="1069.65"/><g class="cls-4"><rect class="cls-1" x="-3.7" y="-4.23" width="37.38" height="37.38"/></g></g><path class="cls-1" d="M19.54,17.08a.68.68,0,0,1-.93.26l-1.68-1v-.79l.69-.4,1.67,1A.68.68,0,0,1,19.54,17.08Zm-3.76-2.17-.79.46-.79-.46V14l.79-.46.79.46Zm-1.48-5A.69.69,0,0,1,15,9.19a.68.68,0,0,1,.68.69v1.94l-.68.39-.69-.39Zm-1.25,6.49-1.68,1a.69.69,0,0,1-.69-1.19l1.68-1,.69.4v.79ZM25,20l-2-2.33-.09-.07a.36.36,0,0,0-.32,0,1.06,1.06,0,0,1-1.5-.76h0A2.68,2.68,0,0,0,19.77,15l-.9-.51L24,11.52l-.63-1.09-5.7,3.3-.69-.4v-.79l5.71-3.29L22,8.16l-5.08,2.93v-1A2.69,2.69,0,0,0,16,8a1.06,1.06,0,0,1,.09-1.68.35.35,0,0,0,.15-.28.5.5,0,0,0,0-.12L15.19,3A.22.22,0,0,0,15,2.9a.21.21,0,0,0-.2.14l-1,2.89a.5.5,0,0,0,0,.12.35.35,0,0,0,.15.28h0A1.06,1.06,0,0,1,14,8a2.69,2.69,0,0,0-.94,2.05v1L8,8.16,7.34,9.25l5.71,3.29v.79l-.69.4-5.71-3.3L6,11.52l5.07,2.94-.89.51a2.68,2.68,0,0,0-1.3,1.84,1.08,1.08,0,0,1-.52.72,1,1,0,0,1-1,0,.36.36,0,0,0-.32,0,.22.22,0,0,0-.09.07L5,20a.2.2,0,0,0,0,.24.24.24,0,0,0,.23.11l3-.57.11,0a.35.35,0,0,0,.17-.27A1.06,1.06,0,0,1,9,18.62a1.08,1.08,0,0,1,.89-.08,2.65,2.65,0,0,0,2.24-.21l.9-.51v5.86H14.3V17.09L15,16.7l.69.39v6.59h1.25V17.82l.9.51a2.68,2.68,0,0,0,2.24.21,1.05,1.05,0,0,1,.88.08,1.07,1.07,0,0,1,.53.84.35.35,0,0,0,.17.27l.11,0,3,.57a.24.24,0,0,0,.23-.11A.21.21,0,0,0,25,20Z"/><g class="cls-5"><rect class="cls-1" x="-747.51" y="-942.16" width="1901.6" height="1069.65"/><g class="cls-4"><rect class="cls-1" y="-2.05" width="29.98" height="30.69"/></g></g><polygon class="cls-1" points="105.47 11.34 100.92 11.34 100.92 2.35 96.78 2.35 96.78 25.79 100.92 25.79 100.92 15.5 105.47 15.5 105.47 25.79 109.7 25.79 109.7 2.35 105.47 2.35 105.47 11.34"/><g class="cls-6"><rect class="cls-1" x="-747.51" y="-942.16" width="1901.6" height="1069.65"/><g class="cls-4"><rect class="cls-1" x="91.82" y="-2.6" width="22.83" height="33.34"/></g></g><polygon class="cls-1" points="31.51 2.35 36.11 16.73 36.11 25.79 40.72 25.79 40.72 16.26 45.49 2.35 41.62 2.35 38.48 11.49 35.65 2.35 31.51 2.35"/><g class="cls-7"><rect class="cls-1" x="-747.51" y="-942.16" width="1901.6" height="1069.65"/><g class="cls-4"><rect class="cls-1" x="26.56" y="-2.6" width="23.89" height="33.34"/></g></g><polygon class="cls-1" points="71.52 2.35 69.53 13.5 67.22 2.35 60.75 2.35 60.75 25.79 64.46 25.79 64.46 8.13 67.63 23.48 71.1 23.48 73.91 7.88 73.91 25.79 78.26 25.79 78.26 2.35 71.52 2.35"/><g class="cls-8"><rect class="cls-1" x="-747.51" y="-942.16" width="1901.6" height="1069.65"/><g class="cls-4"><rect class="cls-1" x="55.8" y="-2.6" width="27.42" height="33.34"/></g></g><path class="cls-1" d="M117,16.43,118.78,6l1.71,10.48Zm5.33-14.08h-6.41L111.6,25.79h3.84l.92-5.45h4.77l.89,5.45h4.23Z"/><g class="cls-9"><rect class="cls-1" x="-747.51" y="-942.16" width="1901.6" height="1069.65"/><g class="cls-4"><rect class="cls-1" x="106.65" y="-2.6" width="24.56" height="33.34"/></g></g><path class="cls-1" d="M85.57,16.43,87.34,6l1.71,10.48ZM84.49,2.35,80.16,25.79H84l.92-5.45h4.77l.89,5.45h4.23L90.9,2.35Z"/><g class="cls-10"><rect class="cls-1" x="-747.51" y="-942.16" width="1901.6" height="1069.65"/><g class="cls-4"><rect class="cls-1" x="75.21" y="-2.6" width="24.56" height="33.34"/></g></g><path class="cls-1" d="M49.55,16.43,51.31,6,53,16.43ZM48.46,2.35,44.13,25.79H48l.92-5.45h4.77l.89,5.45h4.23L54.87,2.35Z"/><g class="cls-11"><rect class="cls-1" x="-747.51" y="-942.16" width="1901.6" height="1069.65"/><g class="cls-4"><rect class="cls-1" x="39.18" y="-2.6" width="24.56" height="33.34"/></g></g><path class="cls-1" d="M227.32-2.11,218.41,8.5l9.7,11.78-.25,0h-7.32l-7.34-9.51c0-.06-.1-.11-.19-.23v9.72h-5.82V-2.1H213V7.16l.21-.26q3.43-4.52,6.86-9h7.25Z"/><g class="cls-12"><rect class="cls-1" x="-760.63" y="-948.31" width="1903.91" height="1070.95"/></g><path class="cls-1" d="M249.56,11.91h4.79L252,4.77Zm14.05,8.38h-6.22l-1.14-3.05c-.08-.21-.17-.42-.23-.64s-.13-.2-.3-.2c-1.18,0-3.55,0-3.55,0s-2.68,0-4,0a.27.27,0,0,0-.3.2c-.45,1.17-.92,2.34-1.38,3.51l-.07.17h-6.19c0-.09.05-.17.08-.24l8.42-21.93.1-.24h6.36l.09.21s5.5,14.64,8.26,22A2.23,2.23,0,0,0,263.61,20.29Z"/><g class="cls-13"><rect class="cls-1" x="-760.63" y="-948.31" width="1903.91" height="1070.95"/></g><path class="cls-1" d="M271.3,14.57,278.51-3.3l7.24,17.94c.19-.53.36-1,.52-1.48,1.76-5,5.26-15,5.26-15l.09-.23h2.73l-8.6,23.59-7.24-18-7.24,18L262.69-2.1h.23l2.28,0h.22a2.12,2.12,0,0,0,.06.21L268.6,7l2.58,7.36c0,.07.05.13.07.19Z"/><g class="cls-14"><rect class="cls-1" x="-760.63" y="-948.31" width="1903.91" height="1070.95"/></g><rect class="cls-1" x="231.15" y="-2.1" width="5.8" height="22.39"/><g class="cls-15"><rect class="cls-1" x="-760.63" y="-948.31" width="1903.91" height="1070.95"/></g><path class="cls-1" d="M299.85,11.59h7.51l-3.71-8.91Zm3.86-14.8,10.07,23.49H311s-.06-.14-.08-.2l-2.44-5.89a.35.35,0,0,0-.39-.27h-9a.32.32,0,0,0-.35.23c-.83,2-2.51,5.93-2.51,5.93l-.09.2h-2.75Z"/><g class="cls-16"><rect class="cls-1" x="-760.63" y="-948.31" width="1903.91" height="1070.95"/></g><path class="cls-1" d="M357.19-2.12l-.09.22c-3.41,7.33-10.25,22-10.25,22l-.09.19h-4.43l.11-.22,10.25-22,.09-.19h4.41Z"/><g class="cls-17"><rect class="cls-1" x="-760.63" y="-948.31" width="1903.91" height="1070.95"/></g><path class="cls-1" d="M336.17,20.29l.86-1.86,9.45-20.29.15-.28H351l-.11.26L340.71,20.06l-.1.22h-4.44Z"/><g class="cls-18"><rect class="cls-1" x="-760.63" y="-948.31" width="1903.91" height="1070.95"/></g><path class="cls-1" d="M322.52,20.28H320V10.93a1.16,1.16,0,0,0-.12-.45q-3.52-6.15-7.06-12.3l-.15-.28h2.87l.15.22,5.41,9.48.15.26.16-.27q2.7-4.73,5.39-9.45l.15-.24h2.89l-.14.26-7.07,12.33a.93.93,0,0,0-.12.46c0,3,0,6,0,9Z"/><g class="cls-19"><rect class="cls-1" x="-760.63" y="-948.31" width="1903.91" height="1070.95"/></g><path class="cls-1" d="M-378.94,121.83a27.32,27.32,0,0,1,.35-2.72c.49-2,.95-4,1.52-6a3.24,3.24,0,0,1,2.88-2.29c.84-.14,1.35.24,1.29,1.09a30.2,30.2,0,0,1-.48,3.79,37,37,0,0,0-.45,11.64,11,11,0,0,0,.92,3.11c1.84,4,7,3.64,9,.66a13.45,13.45,0,0,0,1.86-5,16.85,16.85,0,0,0,.26-6.29,36.56,36.56,0,0,0-1.1-3.84,5.49,5.49,0,0,1-.06-3.4,3.31,3.31,0,0,1,1.59-1.91,1.48,1.48,0,0,1,1.35-.2,1.45,1.45,0,0,1,.95,1,13,13,0,0,1,.84,3.12,39.07,39.07,0,0,1-.2,10.36,14.64,14.64,0,0,1-3.33,7.62,8.88,8.88,0,0,1-5.8,3.06,1.4,1.4,0,0,0-.35.1h-1.89c-.21,0-.42-.1-.63-.12a8.35,8.35,0,0,1-7.19-5.12,14.26,14.26,0,0,1-.82-2.52c-.21-1-.31-2.05-.46-3.07Z"/><g class="cls-20"><rect class="cls-1" x="-740.67" y="-843.56" width="1945.48" height="1094.33"/></g><path class="cls-1" d="M-278.55,129.31a4.59,4.59,0,0,0,3.85-2.65,2.66,2.66,0,0,0,.16-.84,2.12,2.12,0,0,0-1.21-2.11,2,2,0,0,0-2.25.74A6.24,6.24,0,0,0-278.55,129.31Zm29.59-6.82a1,1,0,0,0-.11.17,2,2,0,0,1-1.84,1.58,2.3,2.3,0,0,1-2.51-1.18c-.47-.9-.83-1-1.8-.61a4.76,4.76,0,0,0-2.24,2.06c-.92,1.59-1.78,3.22-2.6,4.86-.67,1.33-1.21,2.74-1.84,4.09a6.8,6.8,0,0,1-.84,1.42,1.16,1.16,0,0,1-1,.53,1.15,1.15,0,0,1-1-.62,9.54,9.54,0,0,1-1-2.32c-.38-1.31-.65-2.66-1-4a1.64,1.64,0,0,0-.17-.45l-.3.58a13.74,13.74,0,0,1-4.28,5.22,8,8,0,0,1-5.95,1.46,4.81,4.81,0,0,1-4.42-4.35,9.77,9.77,0,0,1,1.91-7.81,6,6,0,0,1,4.06-2.45,4.51,4.51,0,0,1,4.71,4.5,4.26,4.26,0,0,1-2.11,3.8,32.51,32.51,0,0,1-3.11,1.45c-.3.14-.64.25-.94.41s-.52.6-.17,1a2.21,2.21,0,0,0,.84.51,4.73,4.73,0,0,0,4.61-.68,9.87,9.87,0,0,0,3.23-3.9c.66-1.38,1.13-2.84,1.67-4.27a15,15,0,0,1,.59-1.44,2.09,2.09,0,0,1,.58-.64c.7-.52,1.21-.37,1.38.48.25,1.2.38,2.42.58,3.63.17,1,.33,2,.57,3,.11.45.3,1,.83,1s.62-.55.79-.91c.63-1.38,1.19-2.79,1.85-4.18a11.08,11.08,0,0,1,3.07-4,6.19,6.19,0,0,1,4.61-1.35,3.47,3.47,0,0,1,3.33,2.57Z"/><g class="cls-21"><rect class="cls-1" x="-740.67" y="-843.56" width="1945.48" height="1094.33"/></g><path class="cls-1" d="M-309.22,127.22a5,5,0,0,0,.66,2.5.55.55,0,0,0,.33.32.51.51,0,0,0,.45-.06,4,4,0,0,0,2.11-4.94,1.45,1.45,0,0,0-2.6-.62,3.43,3.43,0,0,0-1,2.77Zm-7.32-10.85a8.55,8.55,0,0,0,0-1.24,8.65,8.65,0,0,0-.5-2.08,1.14,1.14,0,0,0-1-.73,1.13,1.13,0,0,0-1.06.68,5.47,5.47,0,0,0-.56,1.4,26.75,26.75,0,0,0-.25,9.77,4,4,0,0,0,.36,1.18c.24.49.6.51.91.06a5.37,5.37,0,0,0,.52-.94A21.63,21.63,0,0,0-316.54,116.37Zm9.37,15.18a3.69,3.69,0,0,0,3.52.74,6.91,6.91,0,0,0,3.95-3.19,31.07,31.07,0,0,0,3-6.61,5.94,5.94,0,0,1,.84-1.57c.58-.74,1.33-.66,1.67.2.48,1.26.83,2.57,1.24,3.85.44,1.47.84,3,1.31,4.41a8.23,8.23,0,0,0,.89,1.84c.83,1.35,1.94,1.33,2.74-.06a6.56,6.56,0,0,0,.76-5.06,7.76,7.76,0,0,1,0-4.22,3.75,3.75,0,0,1,1.39-2.07c1.25-.84,2.47-.44,2.58,1.06a14.28,14.28,0,0,1-.24,3.69,17.74,17.74,0,0,1-2.9,7.16,16.57,16.57,0,0,1-2.43,2.59,4.11,4.11,0,0,1-2.5,1,2.68,2.68,0,0,1-2.74-1.38,21.06,21.06,0,0,1-1.19-2.76c-.26-.62-.41-1.28-.67-1.88s-.67-.69-1.15-.24-.84.92-1.24,1.36a37.65,37.65,0,0,1-2.8,2.85,9.6,9.6,0,0,1-6.05,2.15,4.56,4.56,0,0,1-3.42-1.35,1.62,1.62,0,0,1-.25-.39c-1.1.5-2,1-3,1.32a5,5,0,0,1-5.6-1.29,12.07,12.07,0,0,0-.91-.84,1.14,1.14,0,0,0-1.49-.11c-.54.36-1.07.73-1.6,1.11a8.48,8.48,0,0,1-4.87,1.56,3.41,3.41,0,0,1-2.81-1.25,26.07,26.07,0,0,1-1.67-2.47c-.83-1.36-1.24-1.4-2.2-.08-.54.74-1,1.53-1.58,2.26a7.71,7.71,0,0,1-1,1.08,1.46,1.46,0,0,1-1,.47,1.47,1.47,0,0,1-1.06-.41,6.41,6.41,0,0,1-1.31-1.67c-.6-1.11-1.06-2.29-1.62-3.41a13.06,13.06,0,0,0-1.1-2,1.58,1.58,0,0,0-1.14-.87,1.58,1.58,0,0,0-1.37.41,35,35,0,0,0-3.08,2.5c-1.43,1.26-2.81,2.6-4.24,3.86a14.55,14.55,0,0,1-1.76,1.27,1.07,1.07,0,0,1-1.27,0,1.09,1.09,0,0,1-.4-1.21c.31-1.29.66-2.58,1-3.87q.82-3.14,1.67-6.27a2.23,2.23,0,0,1,1.3-1.67c.6-.25.83-.11,1,.51.27,1,.47,2.08.84,3.09.47,1.47.89,1.54,1.85.33s1.67-2.19,2.5-3.26a17.62,17.62,0,0,1,1.75-1.91c1-.94,1.85-.83,2.44.44.52,1.1.84,2.29,1.28,3.44s.7,2.37,1.2,3.51a7.27,7.27,0,0,0,1.17,1.92,1.51,1.51,0,0,0,1.19.58,1.54,1.54,0,0,0,1.19-.58,5.63,5.63,0,0,0,1.67-3.34,23.15,23.15,0,0,1,.77-3.79,3.7,3.7,0,0,1,.95-1.48,1.38,1.38,0,0,1,1.34-.49,1.39,1.39,0,0,1,1.08.93,6.57,6.57,0,0,1,.43,3.66,8.84,8.84,0,0,1-.28,1.45,4,4,0,0,0,3.55,5.06,5.09,5.09,0,0,0,4.68-2.59.86.86,0,0,0,0-.63,24.38,24.38,0,0,1-.12-16.13,23.92,23.92,0,0,1,1.54-3.08,2.25,2.25,0,0,1,.37-.54c1.8-2.12,4-1.28,5.13.25a6.86,6.86,0,0,1,1.2,3.48,24.49,24.49,0,0,1-2.91,14.41c-.31.56-.6,1.12-.84,1.67a.84.84,0,0,0-.08.6c.5,1.43,2.81,3.49,4.81,3.12l.26-.05c1-.26,1.08-.4,1-1.41a11.3,11.3,0,0,1,3.06-9.47,4.46,4.46,0,0,1,2.58-1.46,2.74,2.74,0,0,1,2.67,1.09c1.45,1.78,2.42,4.85-.16,7.39-1,.87-2,1.69-3,2.46Z"/><g class="cls-22"><rect class="cls-1" x="-740.67" y="-843.56" width="1945.48" height="1094.33"/></g><path class="cls-1" d="M-333.57,112a3.09,3.09,0,0,1,.9-2.3,2.34,2.34,0,0,1,2.73-.54,2,2,0,0,1,1.22,2.25,4.87,4.87,0,0,1-.62,1.86,2.3,2.3,0,0,1-2.73,1.11A2.27,2.27,0,0,1-333.57,112Z"/><g class="cls-23"><rect class="cls-1" x="-740.67" y="-843.56" width="1945.48" height="1094.33"/></g></svg>