<svg id="Layer_1" data-name="Layer 1" xmlns="http://www.w3.org/2000/svg" xmlns:xlink="http://www.w3.org/1999/xlink" viewBox="0 0 108.75 34.11"><defs><style>.cls-1,.cls-2{fill:none;}.cls-1{clip-rule:evenodd;}.cls-3{fill:#fff;}.cls-4{clip-path:url(#clip-path);}.cls-5{clip-path:url(#clip-path-2);}.cls-6{clip-path:url(#clip-path-3);}.cls-7{clip-path:url(#clip-path-5);}.cls-8{clip-path:url(#clip-path-7);}.cls-9{clip-path:url(#clip-path-9);}.cls-10{clip-path:url(#clip-path-11);}.cls-11{clip-path:url(#clip-path-13);}.cls-12{clip-path:url(#clip-path-15);}.cls-13{clip-path:url(#clip-path-17);}.cls-14{clip-path:url(#clip-path-19);}.cls-15{clip-path:url(#clip-path-20);}.cls-16{clip-path:url(#clip-path-21);}.cls-17{clip-path:url(#clip-path-22);}.cls-18{clip-path:url(#clip-path-23);}.cls-19{clip-path:url(#clip-path-24);}.cls-20{clip-path:url(#clip-path-25);}.cls-21{clip-path:url(#clip-path-26);}.cls-22{clip-path:url(#clip-path-27);}.cls-23{clip-path:url(#clip-path-28);}.cls-24{clip-path:url(#clip-path-29);}.cls-25{clip-path:url(#clip-path-30);}.cls-26{clip-path:url(#clip-path-31);}.cls-27{clip-path:url(#clip-path-32);}.cls-28{clip-path:url(#clip-path-33);}.cls-29{clip-path:url(#clip-path-34);}.cls-30{clip-path:url(#clip-path-35);}.cls-31{clip-path:url(#clip-path-36);}.cls-32{clip-path:url(#clip-path-37);}.cls-33{clip-path:url(#clip-path-38);}.cls-34{clip-path:url(#clip-path-39);}.cls-35{clip-path:url(#clip-path-40);}.cls-36{clip-path:url(#clip-path-41);}.cls-37{clip-path:url(#clip-path-42);}.cls-38{clip-path:url(#clip-path-43);}.cls-39{clip-path:url(#clip-path-44);}.cls-40{clip-path:url(#clip-path-45);}.cls-41{clip-path:url(#clip-path-46);}.cls-42{clip-path:url(#clip-path-47);}.cls-43{clip-path:url(#clip-path-48);}.cls-44{clip-path:url(#clip-path-49);}</style><clipPath id="clip-path"><path class="cls-1" d="M19.14,9.74H17.07A1.88,1.88,0,0,0,15.17,11l-2.35,5.45a10.67,10.67,0,0,0-.58,2.22c0,.09,0,.18-.05.27a.91.91,0,0,1-.07.14.2.2,0,0,1-.14.06.17.17,0,0,1-.1,0c-.07,0-.12-.19-.17-.45a9.92,9.92,0,0,0-.58-2.2L8.76,11a1.87,1.87,0,0,0-1.9-1.27H4.77a1.47,1.47,0,0,0-1.31.52,1.18,1.18,0,0,0-.14.55,2,2,0,0,0,.23.86L8.84,22.45a4.33,4.33,0,0,1,.41,1.84V28a1.44,1.44,0,0,0,.43,1.2,1.49,1.49,0,0,0,1.22.42h2.16A1.49,1.49,0,0,0,14.71,28V24.26a4.06,4.06,0,0,1,.41-1.84l5.24-10.75a1.89,1.89,0,0,0,.24-.86.9.9,0,0,0-.17-.55A1.43,1.43,0,0,0,19.14,9.74Z"/></clipPath><clipPath id="clip-path-2"><rect class="cls-2" x="-69.11" y="-246.79" width="249.21" height="539.62"/></clipPath><clipPath id="clip-path-3"><path class="cls-2" d="M33.88,23.64a3.26,3.26,0,0,1-1,1.9,3.81,3.81,0,0,1-4,0,3.26,3.26,0,0,1-1-1.9,26.09,26.09,0,0,1,0-7.89,3.22,3.22,0,0,1,1-1.9,3.81,3.81,0,0,1,4,0,3.28,3.28,0,0,1,1,1.9A27.45,27.45,0,0,1,33.88,23.64Zm4.76-11.27a5,5,0,0,0-1.72-2,7.22,7.22,0,0,0-2.52-1,19.79,19.79,0,0,0-6.95,0,7.34,7.34,0,0,0-2.53,1,5.06,5.06,0,0,0-1.72,1.95,10.77,10.77,0,0,0-.94,3,25,25,0,0,0-.32,4.32,23.71,23.71,0,0,0,.45,5.18A7.2,7.2,0,0,0,24,28.14a5.89,5.89,0,0,0,2.75,1.71,18.34,18.34,0,0,0,8.4,0,5.86,5.86,0,0,0,2.74-1.71,7.08,7.08,0,0,0,1.56-3.25,24.48,24.48,0,0,0,.46-5.2,26.08,26.08,0,0,0-.3-4.32A10.56,10.56,0,0,0,38.64,12.37Z"/></clipPath><clipPath id="clip-path-5"><path class="cls-1" d="M49.55,24.49h0a10.32,10.32,0,0,1-.28-2.71V11.41a1.54,1.54,0,0,0-.43-1.24,1.45,1.45,0,0,0-1.2-.43H45.5a1.47,1.47,0,0,0-1.2.43,1.48,1.48,0,0,0-.43,1.22V21.73q0,4.74,2,6.68t6.72,1.92a10.17,10.17,0,0,0,5.28-1.14C50.79,29.51,49.55,24.49,49.55,24.49Z"/></clipPath><clipPath id="clip-path-7"><path class="cls-1" d="M60.47,21.61V11.37a1.49,1.49,0,0,0-1.64-1.63H56.62a1.5,1.5,0,0,0-1.22.43A1.52,1.52,0,0,0,55,11.39V21.66a6.53,6.53,0,0,1-.63,3.45A2.69,2.69,0,0,1,52,26a2.78,2.78,0,0,1-2.42-.9,2.34,2.34,0,0,1-.35-.77s1.26,5,8.41,4.68a4.36,4.36,0,0,0,1-.79Q60.47,26.31,60.47,21.61Z"/></clipPath><clipPath id="clip-path-9"><path class="cls-1" d="M76.93,9.94q-2.45-.19-7.9-.2A4.51,4.51,0,0,0,65.73,11a4.35,4.35,0,0,0-1.26,3.25V28.66a1.54,1.54,0,0,0,.42,1.23,1.49,1.49,0,0,0,1.19.44h2.15a1.49,1.49,0,0,0,1.19-.44,1.58,1.58,0,0,0,.42-1.23v-6a.5.5,0,0,1,.13-.41.48.48,0,0,1,.4-.14h5.16a1.47,1.47,0,0,0,1.19-.44,1.53,1.53,0,0,0,.42-1.23V20a1.54,1.54,0,0,0-.42-1.23,1.47,1.47,0,0,0-1.19-.44H70.37a.5.5,0,0,1-.4-.13.53.53,0,0,1-.13-.42V15.41c0-.85.46-1.28,1.37-1.28h5.47a1.54,1.54,0,0,0,1.68-1.64l0-.69a.74.74,0,0,0,0-.21,1.63,1.63,0,0,0-.32-1.09A1.65,1.65,0,0,0,76.93,9.94Z"/></clipPath><clipPath id="clip-path-11"><path class="cls-1" d="M85.44,9.74H83.37a1.61,1.61,0,0,0-1.2.42,1.69,1.69,0,0,0-.43,1.21V28a1.49,1.49,0,0,0,1.63,1.64h2.07a1.59,1.59,0,0,0,1.19-.43A1.62,1.62,0,0,0,87.05,28V11.37a1.64,1.64,0,0,0-.42-1.21A1.58,1.58,0,0,0,85.44,9.74Z"/></clipPath><clipPath id="clip-path-13"><path class="cls-1" d="M108.09,27.72l-4-7.9a.85.85,0,0,1,0-.73l3.68-7.43a1.84,1.84,0,0,0,.23-.83.94.94,0,0,0-.16-.56,1.4,1.4,0,0,0-1.32-.52h-2A2,2,0,0,0,102.56,11l-2.78,6c-.1.24-.24.35-.42.35s-.32-.11-.44-.35l-2.76-6a1.93,1.93,0,0,0-1.93-1.25h-2a1.51,1.51,0,0,0-1.33.52,1,1,0,0,0-.17.56,1.92,1.92,0,0,0,.23.84l3.67,7.43a.79.79,0,0,1,0,.73l-4,7.9a1.94,1.94,0,0,0-.25.88,1,1,0,0,0,.15.53,1.43,1.43,0,0,0,1.32.54h2a2,2,0,0,0,2-1.23l3.13-6.63a.5.5,0,0,1,.43-.33.47.47,0,0,1,.42.33l3.12,6.63a2,2,0,0,0,2,1.23h2a1.47,1.47,0,0,0,1.32-.54,1,1,0,0,0,.16-.53A1.92,1.92,0,0,0,108.09,27.72Z"/></clipPath><clipPath id="clip-path-15"><circle class="cls-2" cx="57.82" cy="4.42" r="2.66"/></clipPath><clipPath id="clip-path-17"><circle class="cls-2" cx="46.52" cy="4.42" r="2.66"/></clipPath><clipPath id="clip-path-19"><path class="cls-3" d="M400.36,34.56a12.19,12.19,0,1,1,12.19-12.19A12.18,12.18,0,0,1,400.36,34.56Zm0-25.93A13.74,13.74,0,1,0,414.1,22.37,13.74,13.74,0,0,0,400.36,8.63Z"/></clipPath><clipPath id="clip-path-20"><path class="cls-3" d="M404.92,25a.69.69,0,0,1-.94.25l-1.67-1v-.79l.68-.39,1.68,1A.69.69,0,0,1,404.92,25Zm-3.77-2.17-.79.45-.79-.45v-.92l.79-.45.79.45Zm-1.47-5a.68.68,0,0,1,.68-.69.69.69,0,0,1,.69.69v1.93l-.69.4-.68-.4Zm-1.26,6.48-1.68,1a.68.68,0,0,1-.93-.25.69.69,0,0,1,.25-.94l1.68-1,.68.39v.79Zm11.93,3.62-2-2.33-.08-.07a.35.35,0,0,0-.33,0,1.06,1.06,0,0,1-1,0,1.08,1.08,0,0,1-.52-.72h0a2.72,2.72,0,0,0-1.31-1.84l-.89-.52,5.08-2.93-.63-1.09L403,21.64l-.68-.39v-.79l5.7-3.3-.63-1.09L402.31,19V18a2.66,2.66,0,0,0-.95-2,1.1,1.1,0,0,1-.37-.81,1.07,1.07,0,0,1,.46-.87.36.36,0,0,0,.15-.29.2.2,0,0,0,0-.11l-1-2.89a.2.2,0,0,0-.2-.15.21.21,0,0,0-.2.15l-1,2.89a.37.37,0,0,0,0,.11.36.36,0,0,0,.14.29h0a1,1,0,0,1,.46.87,1.07,1.07,0,0,1-.37.81,2.7,2.7,0,0,0-.94,2v1l-5.08-2.94-.63,1.09,5.71,3.3v.79l-.68.39L392,18.35l-.63,1.09,5.08,2.93-.89.52a2.69,2.69,0,0,0-1.31,1.84,1,1,0,0,1-.51.72,1.08,1.08,0,0,1-1,0,.33.33,0,0,0-.32,0l-.08.07-2,2.33a.21.21,0,0,0,0,.25.2.2,0,0,0,.22.1l3-.56.1,0a.35.35,0,0,0,.17-.27,1.08,1.08,0,0,1,.53-.84,1.05,1.05,0,0,1,.88-.08,2.71,2.71,0,0,0,2.25-.21l.89-.51V31.6h1.26V25l.69-.4.68.4V31.6h1.26V25.74l.89.51a2.71,2.71,0,0,0,2.25.21,1.05,1.05,0,0,1,.88.08,1.08,1.08,0,0,1,.53.84.35.35,0,0,0,.17.27l.1,0,3,.56a.2.2,0,0,0,.22-.1A.21.21,0,0,0,410.35,27.9Z"/></clipPath><clipPath id="clip-path-21"><polygon class="cls-3" points="490.84 19.25 486.3 19.25 486.3 10.27 482.15 10.27 482.15 33.71 486.3 33.71 486.3 23.42 490.84 23.42 490.84 33.71 495.08 33.71 495.08 10.27 490.84 10.27 490.84 19.25"/></clipPath><clipPath id="clip-path-22"><polygon class="cls-3" points="416.88 10.27 421.49 24.64 421.49 33.71 426.1 33.71 426.1 24.18 430.87 10.27 426.99 10.27 423.86 19.4 421.02 10.27 416.88 10.27"/></clipPath><clipPath id="clip-path-23"><polygon class="cls-3" points="456.89 10.27 454.9 21.42 452.6 10.27 446.12 10.27 446.12 33.71 449.84 33.71 449.84 16.04 453.01 31.4 456.48 31.4 459.29 15.79 459.29 33.71 463.64 33.71 463.64 10.27 456.89 10.27"/></clipPath><clipPath id="clip-path-24"><path class="cls-3" d="M502.39,24.35l1.77-10.49,1.71,10.49Zm5.33-14.08H501.3L497,33.71h3.83l.92-5.45h4.78l.89,5.45h4.23Z"/></clipPath><clipPath id="clip-path-25"><path class="cls-3" d="M471,24.35l1.77-10.49,1.71,10.49Zm-1.09-14.08-4.33,23.44h3.84l.92-5.45h4.78l.89,5.45h4.23l-3.91-23.44Z"/></clipPath><clipPath id="clip-path-26"><path class="cls-3" d="M434.92,24.35l1.77-10.49,1.71,10.49Zm-1.08-14.08-4.33,23.44h3.84l.91-5.45H439l.89,5.45h4.23l-3.91-23.44Z"/></clipPath><clipPath id="clip-path-27"><path class="cls-3" d="M612.7,5.8l-8.91,10.62,9.7,11.78h-7.57q-3.67-4.77-7.35-9.51l-.18-.23V28.2h-5.82V5.81h5.8v9.26l.22-.26,6.86-9h7.25Z"/></clipPath><clipPath id="clip-path-28"><path class="cls-3" d="M634.94,19.83h4.79l-2.38-7.15Zm14,8.37h-6.21c-.39-1-.77-2-1.15-3.05-.08-.21-.16-.42-.23-.63a.26.26,0,0,0-.29-.21h-7.57a.27.27,0,0,0-.29.21L631.85,28a1.26,1.26,0,0,1-.07.17h-5.95a1.54,1.54,0,0,1-.23,0c0-.08,0-.16.07-.23L634.1,6l.09-.25h6.37l.09.22,8.25,22A2.23,2.23,0,0,1,649,28.2Z"/></clipPath><clipPath id="clip-path-29"><path class="cls-3" d="M656.68,22.49l7.21-17.87,7.24,17.93c.18-.53.35-1,.52-1.47,1.75-5,5.26-15,5.26-15l.09-.24h2.72c-2.86,7.87-5.72,15.7-8.59,23.6l-7.24-18-7.24,18c-2.88-7.89-5.73-15.73-8.59-23.58a1.74,1.74,0,0,1,.23,0l2.28,0h.22l.07.2q1.54,4.47,3.12,8.93l2.58,7.36.06.19Z"/></clipPath><clipPath id="clip-path-30"><rect class="cls-3" x="616.53" y="5.81" width="5.8" height="22.39"/></clipPath><clipPath id="clip-path-31"><path class="cls-3" d="M685.23,19.5h7.51L689,10.6Zm3.86-14.79L699.16,28.2h-2.79s0-.14-.08-.2c-.81-2-1.63-3.93-2.44-5.9a.36.36,0,0,0-.39-.27h-9a.31.31,0,0,0-.35.22c-.83,2-2.51,5.94-2.51,5.94l-.1.2h-2.75Z"/></clipPath><clipPath id="clip-path-32"><path class="cls-3" d="M742.57,5.8c0,.08-.06.15-.09.21-3.42,7.33-10.25,22-10.25,22l-.09.19h-4.43l.1-.22L738.07,6l.09-.2h4.3Z"/></clipPath><clipPath id="clip-path-33"><path class="cls-3" d="M721.55,28.2l.86-1.85,9.45-20.29.15-.29h4.41c0,.11-.08.19-.12.26L726.09,28l-.1.23h-4.44Z"/></clipPath><clipPath id="clip-path-34"><path class="cls-3" d="M707.9,28.2h-2.5v-.3q0-4.53,0-9.06a.88.88,0,0,0-.12-.44q-3.51-6.15-7-12.31a2.37,2.37,0,0,1-.15-.28h2.87l.15.22,5.4,9.47.16.26.16-.26L712.2,6l.14-.23h2.9l-.14.27q-3.54,6.15-7.07,12.32a1,1,0,0,0-.12.47q0,4.52,0,9Z"/></clipPath><clipPath id="clip-path-35"><path class="cls-3" d="M6.44,129.75A27.52,27.52,0,0,1,6.79,127c.48-2,.94-4,1.51-6a3.26,3.26,0,0,1,2.89-2.28c.83-.14,1.34.23,1.28,1.08a32.06,32.06,0,0,1-.47,3.8,36.63,36.63,0,0,0-.45,11.63,11.13,11.13,0,0,0,.91,3.11c1.85,4,7,3.64,9,.66a13.21,13.21,0,0,0,1.85-5,17.07,17.07,0,0,0,.27-6.29,39.14,39.14,0,0,0-1.1-3.84,5.52,5.52,0,0,1-.06-3.41,3.31,3.31,0,0,1,1.58-1.9,1.49,1.49,0,0,1,2.31.78,13.51,13.51,0,0,1,.83,3.13,39.07,39.07,0,0,1-.19,10.36,14.61,14.61,0,0,1-3.34,7.62,8.85,8.85,0,0,1-5.79,3.05,2.42,2.42,0,0,0-.36.1H15.54c-.21,0-.42-.09-.63-.11a8.35,8.35,0,0,1-7.19-5.13,13,13,0,0,1-.82-2.52c-.22-1-.31-2-.46-3.06Z"/></clipPath><clipPath id="clip-path-36"><path class="cls-3" d="M106.83,137.23a4.62,4.62,0,0,0,3.85-2.66,3,3,0,0,0,.16-.83,2.13,2.13,0,0,0-1.21-2.11,1.94,1.94,0,0,0-2.25.74A6.15,6.15,0,0,0,106.83,137.23Zm29.58-6.83a.77.77,0,0,0-.1.18,2,2,0,0,1-1.85,1.57A2.27,2.27,0,0,1,132,131c-.48-.9-.84-1-1.8-.61a4.67,4.67,0,0,0-2.24,2.06c-.93,1.58-1.79,3.21-2.6,4.86-.67,1.33-1.21,2.73-1.85,4.08a7,7,0,0,1-.83,1.42,1.15,1.15,0,0,1-2-.08,9.89,9.89,0,0,1-1-2.32c-.38-1.31-.66-2.66-1-4a1.76,1.76,0,0,0-.16-.45l-.3.58a14,14,0,0,1-4.28,5.22,8,8,0,0,1-6,1.46,4.82,4.82,0,0,1-4.43-4.36,9.82,9.82,0,0,1,1.91-7.81,5.94,5.94,0,0,1,4.07-2.44,4.49,4.49,0,0,1,4.7,4.5,4.23,4.23,0,0,1-2.11,3.79,29.14,29.14,0,0,1-3.1,1.45c-.31.15-.64.26-.94.41-.45.25-.53.6-.17,1a2.33,2.33,0,0,0,.83.52,4.79,4.79,0,0,0,4.62-.68,9.9,9.9,0,0,0,3.23-3.91c.66-1.38,1.12-2.84,1.67-4.26a14.19,14.19,0,0,1,.59-1.45,1.94,1.94,0,0,1,.58-.63c.7-.53,1.21-.38,1.38.48.24,1.2.38,2.41.58,3.62.16,1,.33,2,.56,3,.11.45.3,1,.84,1s.62-.54.78-.91c.64-1.37,1.2-2.78,1.86-4.17a11,11,0,0,1,3.07-4,6.17,6.17,0,0,1,4.6-1.34,3.49,3.49,0,0,1,3.34,2.57Z"/></clipPath><clipPath id="clip-path-37"><path class="cls-3" d="M76.16,135.13a4.93,4.93,0,0,0,.66,2.51.53.53,0,0,0,.32.32.52.52,0,0,0,.45-.07A4,4,0,0,0,79.71,133a1.45,1.45,0,0,0-2.61-.61,3.41,3.41,0,0,0-.94,2.77Zm-7.33-10.85a6.42,6.42,0,0,0,0-1.24,7.9,7.9,0,0,0-.5-2.08,1.13,1.13,0,0,0-2.08,0,5.07,5.07,0,0,0-.56,1.41,26.53,26.53,0,0,0-.25,9.77,3.76,3.76,0,0,0,.35,1.17c.25.5.61.51.91.07a4.79,4.79,0,0,0,.52-.94A21.48,21.48,0,0,0,68.83,124.28Zm9.37,15.18a3.73,3.73,0,0,0,3.52.75,6.93,6.93,0,0,0,4-3.19,30.48,30.48,0,0,0,3-6.62,5.74,5.74,0,0,1,.84-1.56c.58-.74,1.32-.67,1.66.2.49,1.25.84,2.56,1.25,3.85.44,1.47.83,2.94,1.31,4.4a8,8,0,0,0,.88,1.85c.84,1.35,2,1.32,2.75-.07a6.56,6.56,0,0,0,.76-5.06,7.57,7.57,0,0,1,0-4.22,3.7,3.7,0,0,1,1.39-2.07c1.24-.83,2.46-.43,2.58,1.06a14.35,14.35,0,0,1-.24,3.7A17.68,17.68,0,0,1,99,139.64a16.54,16.54,0,0,1-2.43,2.59,4.08,4.08,0,0,1-2.5,1,2.69,2.69,0,0,1-2.74-1.37,25.79,25.79,0,0,1-1.19-2.76c-.25-.62-.4-1.28-.67-1.88s-.66-.69-1.15-.24-.83.91-1.23,1.36a39.62,39.62,0,0,1-2.81,2.84,9.45,9.45,0,0,1-6,2.15,4.55,4.55,0,0,1-3.41-1.35,1.7,1.7,0,0,1-.26-.38c-1.09.49-2,1-3,1.32a4.94,4.94,0,0,1-5.6-1.3,12.09,12.09,0,0,0-.92-.83,1.12,1.12,0,0,0-1.48-.12c-.55.36-1.07.74-1.61,1.11a8.4,8.4,0,0,1-4.86,1.56A3.36,3.36,0,0,1,54.29,142a22.64,22.64,0,0,1-1.67-2.46c-.84-1.37-1.24-1.4-2.2-.08-.55.74-1,1.52-1.58,2.26a6.69,6.69,0,0,1-1,1.07,1.42,1.42,0,0,1-1,.48,1.47,1.47,0,0,1-1.06-.42,6.42,6.42,0,0,1-1.3-1.67c-.6-1.11-1.07-2.28-1.63-3.41a13.57,13.57,0,0,0-1.1-2,1.58,1.58,0,0,0-2.5-.46,33.72,33.72,0,0,0-3.08,2.51c-1.44,1.26-2.81,2.59-4.25,3.86A15.61,15.61,0,0,1,30.14,143a1.07,1.07,0,0,1-1.27,0,1.09,1.09,0,0,1-.4-1.21c.31-1.3.66-2.58,1-3.87.56-2.1,1.12-4.18,1.67-6.27a2.25,2.25,0,0,1,1.3-1.67c.6-.25.84-.12,1,.51.26,1,.47,2.08.83,3.09.48,1.47.9,1.53,1.85.33s1.67-2.19,2.51-3.26a16.65,16.65,0,0,1,1.75-1.91c1-.95,1.84-.84,2.44.44.51,1.1.83,2.29,1.27,3.44s.7,2.37,1.21,3.51a7,7,0,0,0,1.16,1.91,1.52,1.52,0,0,0,1.19.59,1.49,1.49,0,0,0,1.19-.59,5.63,5.63,0,0,0,1.67-3.34,22.37,22.37,0,0,1,.78-3.79,3.66,3.66,0,0,1,1-1.47,1.4,1.4,0,0,1,2.42.44,6.54,6.54,0,0,1,.42,3.66,9,9,0,0,1-.27,1.45,4,4,0,0,0,3.54,5.05,5.08,5.08,0,0,0,4.69-2.58,1,1,0,0,0,0-.64,24.38,24.38,0,0,1-.13-16.13,25.28,25.28,0,0,1,1.54-3.08,4,4,0,0,1,.37-.54,3.08,3.08,0,0,1,5.13.25,6.91,6.91,0,0,1,1.21,3.48,24.46,24.46,0,0,1-2.92,14.42,18.5,18.5,0,0,0-.83,1.67.84.84,0,0,0-.08.6c.5,1.43,2.81,3.49,4.8,3.11l.27-.05c1-.26,1.08-.39,1-1.41a11.3,11.3,0,0,1,3-9.47A4.53,4.53,0,0,1,79,128.24a2.72,2.72,0,0,1,2.67,1.08c1.45,1.79,2.42,4.85-.17,7.4a37.21,37.21,0,0,1-3,2.46Z"/></clipPath><clipPath id="clip-path-38"><path class="cls-3" d="M51.81,119.93a3.12,3.12,0,0,1,.89-2.3,2.36,2.36,0,0,1,2.73-.55,2.05,2.05,0,0,1,1.23,2.26A5.19,5.19,0,0,1,56,121.2a2.31,2.31,0,0,1-2.73,1.11A2.26,2.26,0,0,1,51.81,119.93Z"/></clipPath><clipPath id="clip-path-39"><path class="cls-2" d="M419.49,158.4h-4.2v-5.7h4.2a2.79,2.79,0,0,1,3,2.8A2.71,2.71,0,0,1,419.49,158.4Zm.5-8.4h-7.8v17.9h3.1v-6.7H420a5.6,5.6,0,1,0,0-11.2Z"/></clipPath><clipPath id="clip-path-40"><path class="cls-2" d="M433.89,165.7c-2.4,0-3.7-2-3.7-4.3s1.3-4.3,3.7-4.3,3.7,2,3.7,4.3S436.29,165.7,433.89,165.7Zm0-11.1a6.8,6.8,0,1,0,6.6,6.8A6.46,6.46,0,0,0,433.89,154.6Z"/></clipPath><clipPath id="clip-path-41"><path class="cls-2" d="M470,156.9a3.46,3.46,0,0,1,3.6,3.2h-7.2A3.53,3.53,0,0,1,470,156.9Zm0-2.3a6.8,6.8,0,0,0,.2,13.6,7.26,7.26,0,0,0,5.2-1.9l-1.3-1.9a5.43,5.43,0,0,1-3.6,1.4,3.91,3.91,0,0,1-4.1-3.6h9.9v-.7C476.29,157.6,473.79,154.6,470,154.6Z"/></clipPath><clipPath id="clip-path-42"><path class="cls-2" d="M482.09,156.7v-1.8h-2.8v13h2.8v-8.2c1-2.3,3.9-2.6,4.7-2.5v-2.7A6.36,6.36,0,0,0,482.09,156.7Z"/></clipPath><clipPath id="clip-path-43"><path class="cls-2" d="M497.49,158.4h-4.3v-5.7h4.2a2.79,2.79,0,0,1,3,2.8A2.68,2.68,0,0,1,497.49,158.4Zm.4-8.4h-7.8v17.9h3.1v-6.7h4.7a5.6,5.6,0,1,0,0-11.2Z"/></clipPath><clipPath id="clip-path-44"><path class="cls-2" d="M517.79,149.6a1.75,1.75,0,0,0-1.7,1.7,1.7,1.7,0,0,0,3.4,0A1.63,1.63,0,0,0,517.79,149.6Z"/></clipPath><clipPath id="clip-path-45"><polygon class="cls-2" points="516.49 167.91 519.29 167.91 519.29 154.91 516.49 156.31 516.49 167.91"/></clipPath><clipPath id="clip-path-46"><path class="cls-2" d="M529,157.1a3.39,3.39,0,0,1,2.9,1.5l1.8-1.7a5.78,5.78,0,0,0-4.9-2.3,6.8,6.8,0,0,0,0,13.6,5.78,5.78,0,0,0,4.9-2.3l-1.8-1.7a3.39,3.39,0,0,1-2.9,1.5c-2.3,0-3.9-1.8-3.9-4.3S526.69,157.1,529,157.1Z"/></clipPath><clipPath id="clip-path-47"><path class="cls-2" d="M541.89,156.9a3.46,3.46,0,0,1,3.6,3.2h-7.2A3.53,3.53,0,0,1,541.89,156.9Zm6.3,4.7c0-4.1-2.5-7.1-6.3-7.1a6.8,6.8,0,0,0,.2,13.6,7.26,7.26,0,0,0,5.2-1.9l-1.3-1.9a5.43,5.43,0,0,1-3.6,1.4,3.91,3.91,0,0,1-4.1-3.6h9.9Z"/></clipPath><clipPath id="clip-path-48"><path class="cls-2" d="M509,156.7v-1.8h-2.8v13H509v-8.2c1-2.3,3.9-2.6,4.7-2.5v-2.7A6.36,6.36,0,0,0,509,156.7Z"/></clipPath><clipPath id="clip-path-49"><polygon class="cls-2" points="460.09 149.91 456.09 163.21 453.09 153.5 449.89 155.1 447.39 163.41 445.49 157.31 442.99 158.6 445.79 167.71 448.89 167.71 451.69 158.6 454.49 167.71 457.49 167.71 463.49 148.21 460.09 149.91"/></clipPath></defs><title>youfix</title><g class="cls-4"><g class="cls-5"><rect class="cls-3" y="6.41" width="23.92" height="26.58"/></g></g><g class="cls-6"><g class="cls-5"><rect class="cls-3" x="18.61" y="5.75" width="24.59" height="27.91"/></g></g><g class="cls-7"><g class="cls-5"><rect class="cls-3" x="40.54" y="6.41" width="20.6" height="27.25"/></g></g><g class="cls-8"><g class="cls-5"><rect class="cls-3" x="45.85" y="6.41" width="17.94" height="25.92"/></g></g><g class="cls-9"><g class="cls-5"><rect class="cls-3" x="61.14" y="6.41" width="20.6" height="27.25"/></g></g><g class="cls-10"><g class="cls-5"><rect class="cls-3" x="78.42" y="6.41" width="11.96" height="26.58"/></g></g><g class="cls-11"><g class="cls-5"><rect class="cls-3" x="87.06" y="6.41" width="24.59" height="26.58"/></g></g><g class="cls-12"><g class="cls-5"><rect class="cls-3" x="51.84" y="-1.56" width="11.96" height="11.96"/></g></g><g class="cls-13"><g class="cls-5"><rect class="cls-3" x="40.54" y="-1.56" width="11.96" height="11.96"/></g></g><path class="cls-3" d="M400.36,34.56a12.19,12.19,0,1,1,12.19-12.19A12.18,12.18,0,0,1,400.36,34.56Zm0-25.93A13.74,13.74,0,1,0,414.1,22.37,13.74,13.74,0,0,0,400.36,8.63Z"/><g class="cls-14"><rect class="cls-3" x="-362.13" y="-934.25" width="1901.6" height="1069.65"/></g><path class="cls-3" d="M404.92,25a.69.69,0,0,1-.94.25l-1.67-1v-.79l.68-.39,1.68,1A.69.69,0,0,1,404.92,25Zm-3.77-2.17-.79.45-.79-.45v-.92l.79-.45.79.45Zm-1.47-5a.68.68,0,0,1,.68-.69.69.69,0,0,1,.69.69v1.93l-.69.4-.68-.4Zm-1.26,6.48-1.68,1a.68.68,0,0,1-.93-.25.69.69,0,0,1,.25-.94l1.68-1,.68.39v.79Zm11.93,3.62-2-2.33-.08-.07a.35.35,0,0,0-.33,0,1.06,1.06,0,0,1-1,0,1.08,1.08,0,0,1-.52-.72h0a2.72,2.72,0,0,0-1.31-1.84l-.89-.52,5.08-2.93-.63-1.09L403,21.64l-.68-.39v-.79l5.7-3.3-.63-1.09L402.31,19V18a2.66,2.66,0,0,0-.95-2,1.1,1.1,0,0,1-.37-.81,1.07,1.07,0,0,1,.46-.87.36.36,0,0,0,.15-.29.2.2,0,0,0,0-.11l-1-2.89a.2.2,0,0,0-.2-.15.21.21,0,0,0-.2.15l-1,2.89a.37.37,0,0,0,0,.11.36.36,0,0,0,.14.29h0a1,1,0,0,1,.46.87,1.07,1.07,0,0,1-.37.81,2.7,2.7,0,0,0-.94,2v1l-5.08-2.94-.63,1.09,5.71,3.3v.79l-.68.39L392,18.35l-.63,1.09,5.08,2.93-.89.52a2.69,2.69,0,0,0-1.31,1.84,1,1,0,0,1-.51.72,1.08,1.08,0,0,1-1,0,.33.33,0,0,0-.32,0l-.08.07-2,2.33a.21.21,0,0,0,0,.25.2.2,0,0,0,.22.1l3-.56.1,0a.35.35,0,0,0,.17-.27,1.08,1.08,0,0,1,.53-.84,1.05,1.05,0,0,1,.88-.08,2.71,2.71,0,0,0,2.25-.21l.89-.51V31.6h1.26V25l.69-.4.68.4V31.6h1.26V25.74l.89.51a2.71,2.71,0,0,0,2.25.21,1.05,1.05,0,0,1,.88.08,1.08,1.08,0,0,1,.53.84.35.35,0,0,0,.17.27l.1,0,3,.56a.2.2,0,0,0,.22-.1A.21.21,0,0,0,410.35,27.9Z"/><g class="cls-15"><rect class="cls-3" x="-362.13" y="-934.25" width="1901.6" height="1069.65"/></g><polygon class="cls-3" points="490.84 19.25 486.3 19.25 486.3 10.27 482.15 10.27 482.15 33.71 486.3 33.71 486.3 23.42 490.84 23.42 490.84 33.71 495.08 33.71 495.08 10.27 490.84 10.27 490.84 19.25"/><g class="cls-16"><rect class="cls-3" x="-362.13" y="-934.25" width="1901.6" height="1069.65"/></g><polygon class="cls-3" points="416.88 10.27 421.49 24.64 421.49 33.71 426.1 33.71 426.1 24.18 430.87 10.27 426.99 10.27 423.86 19.4 421.02 10.27 416.88 10.27"/><g class="cls-17"><rect class="cls-3" x="-362.13" y="-934.25" width="1901.6" height="1069.65"/></g><polygon class="cls-3" points="456.89 10.27 454.9 21.42 452.6 10.27 446.12 10.27 446.12 33.71 449.84 33.71 449.84 16.04 453.01 31.4 456.48 31.4 459.29 15.79 459.29 33.71 463.64 33.71 463.64 10.27 456.89 10.27"/><g class="cls-18"><rect class="cls-3" x="-362.13" y="-934.25" width="1901.6" height="1069.65"/></g><path class="cls-3" d="M502.39,24.35l1.77-10.49,1.71,10.49Zm5.33-14.08H501.3L497,33.71h3.83l.92-5.45h4.78l.89,5.45h4.23Z"/><g class="cls-19"><rect class="cls-3" x="-362.13" y="-934.25" width="1901.6" height="1069.65"/></g><path class="cls-3" d="M471,24.35l1.77-10.49,1.71,10.49Zm-1.09-14.08-4.33,23.44h3.84l.92-5.45h4.78l.89,5.45h4.23l-3.91-23.44Z"/><g class="cls-20"><rect class="cls-3" x="-362.13" y="-934.25" width="1901.6" height="1069.65"/></g><path class="cls-3" d="M434.92,24.35l1.77-10.49,1.71,10.49Zm-1.08-14.08-4.33,23.44h3.84l.91-5.45H439l.89,5.45h4.23l-3.91-23.44Z"/><g class="cls-21"><rect class="cls-3" x="-362.13" y="-934.25" width="1901.6" height="1069.65"/></g><path class="cls-3" d="M612.7,5.8l-8.91,10.62,9.7,11.78h-7.57q-3.67-4.77-7.35-9.51l-.18-.23V28.2h-5.82V5.81h5.8v9.26l.22-.26,6.86-9h7.25Z"/><g class="cls-22"><rect class="cls-3" x="-375.25" y="-940.4" width="1903.91" height="1070.95"/></g><path class="cls-3" d="M634.94,19.83h4.79l-2.38-7.15Zm14,8.37h-6.21c-.39-1-.77-2-1.15-3.05-.08-.21-.16-.42-.23-.63a.26.26,0,0,0-.29-.21h-7.57a.27.27,0,0,0-.29.21L631.85,28a1.26,1.26,0,0,1-.07.17h-5.95a1.54,1.54,0,0,1-.23,0c0-.08,0-.16.07-.23L634.1,6l.09-.25h6.37l.09.22,8.25,22A2.23,2.23,0,0,1,649,28.2Z"/><g class="cls-23"><rect class="cls-3" x="-375.25" y="-940.4" width="1903.91" height="1070.95"/></g><path class="cls-3" d="M656.68,22.49l7.21-17.87,7.24,17.93c.18-.53.35-1,.52-1.47,1.75-5,5.26-15,5.26-15l.09-.24h2.72c-2.86,7.87-5.72,15.7-8.59,23.6l-7.24-18-7.24,18c-2.88-7.89-5.73-15.73-8.59-23.58a1.74,1.74,0,0,1,.23,0l2.28,0h.22l.07.2q1.54,4.47,3.12,8.93l2.58,7.36.06.19Z"/><g class="cls-24"><rect class="cls-3" x="-375.25" y="-940.4" width="1903.91" height="1070.95"/></g><rect class="cls-3" x="616.53" y="5.81" width="5.8" height="22.39"/><g class="cls-25"><rect class="cls-3" x="-375.25" y="-940.4" width="1903.91" height="1070.95"/></g><path class="cls-3" d="M685.23,19.5h7.51L689,10.6Zm3.86-14.79L699.16,28.2h-2.79s0-.14-.08-.2c-.81-2-1.63-3.93-2.44-5.9a.36.36,0,0,0-.39-.27h-9a.31.31,0,0,0-.35.22c-.83,2-2.51,5.94-2.51,5.94l-.1.2h-2.75Z"/><g class="cls-26"><rect class="cls-3" x="-375.25" y="-940.4" width="1903.91" height="1070.95"/></g><path class="cls-3" d="M742.57,5.8c0,.08-.06.15-.09.21-3.42,7.33-10.25,22-10.25,22l-.09.19h-4.43l.1-.22L738.07,6l.09-.2h4.3Z"/><g class="cls-27"><rect class="cls-3" x="-375.25" y="-940.4" width="1903.91" height="1070.95"/></g><path class="cls-3" d="M721.55,28.2l.86-1.85,9.45-20.29.15-.29h4.41c0,.11-.08.19-.12.26L726.09,28l-.1.23h-4.44Z"/><g class="cls-28"><rect class="cls-3" x="-375.25" y="-940.4" width="1903.91" height="1070.95"/></g><path class="cls-3" d="M707.9,28.2h-2.5v-.3q0-4.53,0-9.06a.88.88,0,0,0-.12-.44q-3.51-6.15-7-12.31a2.37,2.37,0,0,1-.15-.28h2.87l.15.22,5.4,9.47.16.26.16-.26L712.2,6l.14-.23h2.9l-.14.27q-3.54,6.15-7.07,12.32a1,1,0,0,0-.12.47q0,4.52,0,9Z"/><g class="cls-29"><rect class="cls-3" x="-375.25" y="-940.4" width="1903.91" height="1070.95"/></g><path class="cls-3" d="M6.44,129.75A27.52,27.52,0,0,1,6.79,127c.48-2,.94-4,1.51-6a3.26,3.26,0,0,1,2.89-2.28c.83-.14,1.34.23,1.28,1.08a32.06,32.06,0,0,1-.47,3.8,36.63,36.63,0,0,0-.45,11.63,11.13,11.13,0,0,0,.91,3.11c1.85,4,7,3.64,9,.66a13.21,13.21,0,0,0,1.85-5,17.07,17.07,0,0,0,.27-6.29,39.14,39.14,0,0,0-1.1-3.84,5.52,5.52,0,0,1-.06-3.41,3.31,3.31,0,0,1,1.58-1.9,1.49,1.49,0,0,1,2.31.78,13.51,13.51,0,0,1,.83,3.13,39.07,39.07,0,0,1-.19,10.36,14.61,14.61,0,0,1-3.34,7.62,8.85,8.85,0,0,1-5.79,3.05,2.42,2.42,0,0,0-.36.1H15.54c-.21,0-.42-.09-.63-.11a8.35,8.35,0,0,1-7.19-5.13,13,13,0,0,1-.82-2.52c-.22-1-.31-2-.46-3.06Z"/><g class="cls-30"><rect class="cls-3" x="-355.3" y="-835.65" width="1945.48" height="1094.33"/></g><path class="cls-3" d="M106.83,137.23a4.62,4.62,0,0,0,3.85-2.66,3,3,0,0,0,.16-.83,2.13,2.13,0,0,0-1.21-2.11,1.94,1.94,0,0,0-2.25.74A6.15,6.15,0,0,0,106.83,137.23Zm29.58-6.83a.77.77,0,0,0-.1.18,2,2,0,0,1-1.85,1.57A2.27,2.27,0,0,1,132,131c-.48-.9-.84-1-1.8-.61a4.67,4.67,0,0,0-2.24,2.06c-.93,1.58-1.79,3.21-2.6,4.86-.67,1.33-1.21,2.73-1.85,4.08a7,7,0,0,1-.83,1.42,1.15,1.15,0,0,1-2-.08,9.89,9.89,0,0,1-1-2.32c-.38-1.31-.66-2.66-1-4a1.76,1.76,0,0,0-.16-.45l-.3.58a14,14,0,0,1-4.28,5.22,8,8,0,0,1-6,1.46,4.82,4.82,0,0,1-4.43-4.36,9.82,9.82,0,0,1,1.91-7.81,5.94,5.94,0,0,1,4.07-2.44,4.49,4.49,0,0,1,4.7,4.5,4.23,4.23,0,0,1-2.11,3.79,29.14,29.14,0,0,1-3.1,1.45c-.31.15-.64.26-.94.41-.45.25-.53.6-.17,1a2.33,2.33,0,0,0,.83.52,4.79,4.79,0,0,0,4.62-.68,9.9,9.9,0,0,0,3.23-3.91c.66-1.38,1.12-2.84,1.67-4.26a14.19,14.19,0,0,1,.59-1.45,1.94,1.94,0,0,1,.58-.63c.7-.53,1.21-.38,1.38.48.24,1.2.38,2.41.58,3.62.16,1,.33,2,.56,3,.11.45.3,1,.84,1s.62-.54.78-.91c.64-1.37,1.2-2.78,1.86-4.17a11,11,0,0,1,3.07-4,6.17,6.17,0,0,1,4.6-1.34,3.49,3.49,0,0,1,3.34,2.57Z"/><g class="cls-31"><rect class="cls-3" x="-355.3" y="-835.65" width="1945.48" height="1094.33"/></g><path class="cls-3" d="M76.16,135.13a4.93,4.93,0,0,0,.66,2.51.53.53,0,0,0,.32.32.52.52,0,0,0,.45-.07A4,4,0,0,0,79.71,133a1.45,1.45,0,0,0-2.61-.61,3.41,3.41,0,0,0-.94,2.77Zm-7.33-10.85a6.42,6.42,0,0,0,0-1.24,7.9,7.9,0,0,0-.5-2.08,1.13,1.13,0,0,0-2.08,0,5.07,5.07,0,0,0-.56,1.41,26.53,26.53,0,0,0-.25,9.77,3.76,3.76,0,0,0,.35,1.17c.25.5.61.51.91.07a4.79,4.79,0,0,0,.52-.94A21.48,21.48,0,0,0,68.83,124.28Zm9.37,15.18a3.73,3.73,0,0,0,3.52.75,6.93,6.93,0,0,0,4-3.19,30.48,30.48,0,0,0,3-6.62,5.74,5.74,0,0,1,.84-1.56c.58-.74,1.32-.67,1.66.2.49,1.25.84,2.56,1.25,3.85.44,1.47.83,2.94,1.31,4.4a8,8,0,0,0,.88,1.85c.84,1.35,2,1.32,2.75-.07a6.56,6.56,0,0,0,.76-5.06,7.57,7.57,0,0,1,0-4.22,3.7,3.7,0,0,1,1.39-2.07c1.24-.83,2.46-.43,2.58,1.06a14.35,14.35,0,0,1-.24,3.7A17.68,17.68,0,0,1,99,139.64a16.54,16.54,0,0,1-2.43,2.59,4.08,4.08,0,0,1-2.5,1,2.69,2.69,0,0,1-2.74-1.37,25.79,25.79,0,0,1-1.19-2.76c-.25-.62-.4-1.28-.67-1.88s-.66-.69-1.15-.24-.83.91-1.23,1.36a39.62,39.62,0,0,1-2.81,2.84,9.45,9.45,0,0,1-6,2.15,4.55,4.55,0,0,1-3.41-1.35,1.7,1.7,0,0,1-.26-.38c-1.09.49-2,1-3,1.32a4.94,4.94,0,0,1-5.6-1.3,12.09,12.09,0,0,0-.92-.83,1.12,1.12,0,0,0-1.48-.12c-.55.36-1.07.74-1.61,1.11a8.4,8.4,0,0,1-4.86,1.56A3.36,3.36,0,0,1,54.29,142a22.64,22.64,0,0,1-1.67-2.46c-.84-1.37-1.24-1.4-2.2-.08-.55.74-1,1.52-1.58,2.26a6.69,6.69,0,0,1-1,1.07,1.42,1.42,0,0,1-1,.48,1.47,1.47,0,0,1-1.06-.42,6.42,6.42,0,0,1-1.3-1.67c-.6-1.11-1.07-2.28-1.63-3.41a13.57,13.57,0,0,0-1.1-2,1.58,1.58,0,0,0-2.5-.46,33.72,33.72,0,0,0-3.08,2.51c-1.44,1.26-2.81,2.59-4.25,3.86A15.61,15.61,0,0,1,30.14,143a1.07,1.07,0,0,1-1.27,0,1.09,1.09,0,0,1-.4-1.21c.31-1.3.66-2.58,1-3.87.56-2.1,1.12-4.18,1.67-6.27a2.25,2.25,0,0,1,1.3-1.67c.6-.25.84-.12,1,.51.26,1,.47,2.08.83,3.09.48,1.47.9,1.53,1.85.33s1.67-2.19,2.51-3.26a16.65,16.65,0,0,1,1.75-1.91c1-.95,1.84-.84,2.44.44.51,1.1.83,2.29,1.27,3.44s.7,2.37,1.21,3.51a7,7,0,0,0,1.16,1.91,1.52,1.52,0,0,0,1.19.59,1.49,1.49,0,0,0,1.19-.59,5.63,5.63,0,0,0,1.67-3.34,22.37,22.37,0,0,1,.78-3.79,3.66,3.66,0,0,1,1-1.47,1.4,1.4,0,0,1,2.42.44,6.54,6.54,0,0,1,.42,3.66,9,9,0,0,1-.27,1.45,4,4,0,0,0,3.54,5.05,5.08,5.08,0,0,0,4.69-2.58,1,1,0,0,0,0-.64,24.38,24.38,0,0,1-.13-16.13,25.28,25.28,0,0,1,1.54-3.08,4,4,0,0,1,.37-.54,3.08,3.08,0,0,1,5.13.25,6.91,6.91,0,0,1,1.21,3.48,24.46,24.46,0,0,1-2.92,14.42,18.5,18.5,0,0,0-.83,1.67.84.84,0,0,0-.08.6c.5,1.43,2.81,3.49,4.8,3.11l.27-.05c1-.26,1.08-.39,1-1.41a11.3,11.3,0,0,1,3-9.47A4.53,4.53,0,0,1,79,128.24a2.72,2.72,0,0,1,2.67,1.08c1.45,1.79,2.42,4.85-.17,7.4a37.21,37.21,0,0,1-3,2.46Z"/><g class="cls-32"><rect class="cls-3" x="-355.3" y="-835.65" width="1945.48" height="1094.33"/></g><path class="cls-3" d="M51.81,119.93a3.12,3.12,0,0,1,.89-2.3,2.36,2.36,0,0,1,2.73-.55,2.05,2.05,0,0,1,1.23,2.26A5.19,5.19,0,0,1,56,121.2a2.31,2.31,0,0,1-2.73,1.11A2.26,2.26,0,0,1,51.81,119.93Z"/><g class="cls-33"><rect class="cls-3" x="-355.3" y="-835.65" width="1945.48" height="1094.33"/></g></svg>