<svg width="60" height="61" viewBox="0 0 60 61" fill="none" xmlns="http://www.w3.org/2000/svg">
<g clip-path="url(#clip0_1341_3541)">
<circle opacity="0.2" cx="30" cy="30.5" r="29.5" stroke="white"/>
<path d="M30 44.5C37.732 44.5 44 38.232 44 30.5C44 22.768 37.732 16.5 30 16.5C22.268 16.5 16 22.768 16 30.5C16 38.232 22.268 44.5 30 44.5Z" stroke="white" stroke-linecap="round" stroke-linejoin="round"/>
<path d="M16 30.5H44" stroke="white" stroke-linecap="round" stroke-linejoin="round"/>
<path opacity="0.5" d="M29.9999 16.5C33.5017 20.3337 35.4918 25.3088 35.5999 30.5C35.4918 35.6912 33.5017 40.6663 29.9999 44.5C26.4981 40.6663 24.508 35.6912 24.3999 30.5C24.508 25.3088 26.4981 20.3337 29.9999 16.5V16.5Z" stroke="white" stroke-linecap="round" stroke-linejoin="round"/>
</g>
<defs>
<clipPath id="clip0_1341_3541">
<rect width="60" height="60" fill="white" transform="translate(0 0.5)"/>
</clipPath>
</defs>
</svg>
