<svg width="60" height="61" viewBox="0 0 60 61" fill="none" xmlns="http://www.w3.org/2000/svg">
<g clip-path="url(#clip0_1341_3494)">
<circle opacity="0.2" cx="30" cy="30.5" r="29.5" stroke="white"/>
<path d="M41.0002 29.417H37.9585C36.8539 29.417 35.9585 30.3124 35.9585 31.417V35.4587C35.9585 36.0109 35.5108 36.4587 34.9585 36.4587H23.3335C22.2289 36.4587 21.3335 37.3541 21.3335 38.4587V41.5003C21.3335 42.6049 22.2289 43.5003 23.3335 43.5003H41.0002C42.1047 43.5003 43.0002 42.6049 43.0002 41.5003V31.417C43.0002 30.3124 42.1047 29.417 41.0002 29.417Z" stroke="white"/>
<path d="M43 36.459H35.9583M34.875 36.459H35.9583M35.9583 36.459V43.5007M35.9583 36.459V34.834M28.375 36.459V43.5007" stroke="white"/>
<path opacity="0.5" d="M31.0833 17.5H26.0417C24.9371 17.5 24.0417 18.3954 24.0417 19.5V31.5833M31.0833 17.5H35.5833C36.6879 17.5 37.5833 18.3954 37.5833 19.5V22.5417C37.5833 23.6462 36.6879 24.5417 35.5833 24.5417H19C17.8954 24.5417 17 25.4371 17 26.5417V29.5833C17 30.6879 17.8954 31.5833 19 31.5833H24.0417M31.0833 17.5V30.5833C31.0833 31.1356 30.6356 31.5833 30.0833 31.5833H24.0417" stroke="white"/>
</g>
<defs>
<clipPath id="clip0_1341_3494">
<rect width="60" height="60" fill="white" transform="translate(0 0.5)"/>
</clipPath>
</defs>
</svg>
