<svg width="60" height="61" viewBox="0 0 60 61" fill="none" xmlns="http://www.w3.org/2000/svg">
<g clip-path="url(#clip0_1341_3551)">
<circle opacity="0.2" cx="30" cy="30.5" r="29.5" stroke="white"/>
<path opacity="0.5" d="M35.1795 25.375V19.0852C35.1795 18.5348 34.9608 18.0069 34.5716 17.6176C34.1824 17.2284 33.6545 17.0098 33.104 17.0098H18.5759C18.0255 17.0098 17.4976 17.2284 17.1084 17.6176C16.7192 18.0069 16.5005 18.5348 16.5005 19.0852V35.6888L20.6514 31.5379H25.2256" stroke="white" stroke-linecap="round" stroke-linejoin="round"/>
<path d="M25.3213 37.7642C25.3213 38.3146 25.5399 38.8425 25.9291 39.2317C26.3184 39.621 26.8463 39.8396 27.3967 39.8396H39.8494L44.0002 43.9905V27.387C44.0002 26.8365 43.7816 26.3086 43.3924 25.9194C43.0031 25.5302 42.4752 25.3115 41.9248 25.3115H27.3967C26.8463 25.3115 26.3184 25.5302 25.9291 25.9194C25.5399 26.3086 25.3213 26.8365 25.3213 27.387V37.7642Z" stroke="white" stroke-linecap="round" stroke-linejoin="round"/>
</g>
<defs>
<clipPath id="clip0_1341_3551">
<rect width="60" height="60" fill="white" transform="translate(0 0.5)"/>
</clipPath>
</defs>
</svg>
