<svg width="60" height="61" viewBox="0 0 60 61" fill="none" xmlns="http://www.w3.org/2000/svg">
<g clip-path="url(#clip0_1341_3523)">
<circle opacity="0.2" cx="30" cy="30.5" r="29.5" stroke="white"/>
<path opacity="0.5" d="M45.5 30.5C45.5 31.1859 45.1524 32.2522 44.4187 33.5027C43.6947 34.7368 42.6262 36.0965 41.2604 37.3603C38.5272 39.8894 34.6431 42 30 42C25.3569 42 21.4728 39.8894 18.7396 37.3603C17.3738 36.0965 16.3053 34.7368 15.5813 33.5027C14.8476 32.2522 14.5 31.1859 14.5 30.5C14.5 29.8141 14.8476 28.7478 15.5813 27.4973C16.3053 26.2632 17.3738 24.9035 18.7396 23.6397C21.4728 21.1106 25.3569 19 30 19C34.6431 19 38.5272 21.1106 41.2604 23.6397C42.6262 24.9035 43.6947 26.2632 44.4187 27.4973C45.1524 28.7478 45.5 29.8141 45.5 30.5Z" stroke="white"/>
<circle opacity="0.5" cx="30" cy="30.5" r="6.5" stroke="white"/>
<circle cx="30" cy="30.5" r="3" fill="white"/>
</g>
<defs>
<clipPath id="clip0_1341_3523">
<rect width="60" height="60" fill="white" transform="translate(0 0.5)"/>
</clipPath>
</defs>
</svg>
