<svg width="32" height="32" viewBox="0 0 32 32" fill="none" xmlns="http://www.w3.org/2000/svg">
    <rect width="32" height="32" rx="16" fill="#E1E1E1"></rect>
    <path d="M12.4074 22.5H9.71491V13.8144H12.4114V22.5H12.4074ZM11.0611 12.6281C10.1974 12.6281 9.5 11.9253 9.5 11.0641C9.5 10.2028 10.1974 9.5 11.0611 9.5C11.9208 9.5 12.6223 10.2028 12.6223 11.0641C12.6223 11.9294 11.9248 12.6281 11.0611 12.6281ZM22.5 22.5H19.8075V18.275C19.8075 17.2675 19.7873 15.9716 18.4086 15.9716C17.0056 15.9716 16.7907 17.0684 16.7907 18.2019V22.5H14.0983V13.8144H16.6812V15.0006H16.7177C17.0786 14.3181 17.9585 13.5991 19.2682 13.5991C21.9931 13.5991 22.5 15.3987 22.5 17.7387V22.5Z" fill="#0A0A04"></path>
</svg>