<svg id="Layer_1" data-name="Layer 1" xmlns="http://www.w3.org/2000/svg" viewBox="0 0 20 20"><defs><style>.cls-1{fill:#5a5859;}</style></defs><title>facebook</title><path class="cls-1" d="M17,0H3A3,3,0,0,0,0,3V17a3,3,0,0,0,3,3H6.78V11.33H4.5V9.05H6.61c.13,0,.17,0,.17-.17,0-.63,0-1.26.06-1.88a3.56,3.56,0,0,1,.27-1,2.39,2.39,0,0,1,2-1.47l.54-.07h.61l1.27.1V6.73l-.77,0h-.64a.93.93,0,0,0-1,.93c0,.13,0,.27,0,.4,0,.31,0,.61,0,.95h2.39c-.11.77-.21,1.52-.32,2.29H9.07V20H17a3,3,0,0,0,3-3V3A3,3,0,0,0,17,0Z"/></svg>