<svg xmlns="http://www.w3.org/2000/svg" width="20" height="20" viewBox="0 0 20 20">
  <path id="instagram" d="M17,20H3a3,3,0,0,1-3-3V3A3,3,0,0,1,3,0H17a3,3,0,0,1,3,3V17A3,3,0,0,1,17,20ZM10,4.363c-1,0-1.9.015-2.326.039a3.33,3.33,0,0,0-2.362.909A3.324,3.324,0,0,0,4.4,7.673c-.053.934-.053,3.717,0,4.652a3.311,3.311,0,0,0,.911,2.363,3.343,3.343,0,0,0,2.362.911c.431.025,1.322.04,2.326.04s1.9-.015,2.326-.04a3.319,3.319,0,0,0,2.363-.911,3.343,3.343,0,0,0,.911-2.363c.052-.935.052-3.716,0-4.649a3.32,3.32,0,0,0-.911-2.363A3.343,3.343,0,0,0,12.326,4.4C11.9,4.378,11,4.363,10,4.363Zm1,10.266c-.212,0-.415,0-.6,0l-.405,0-.392,0c-.181,0-.379,0-.586,0A8.072,8.072,0,0,1,6.678,14.4a1.906,1.906,0,0,1-1.072-1.072,10.167,10.167,0,0,1-.23-2.924c0-.149,0-.284,0-.4s0-.248,0-.394a10.244,10.244,0,0,1,.229-2.93A1.9,1.9,0,0,1,6.678,5.605a7.957,7.957,0,0,1,2.331-.233c.21,0,.411,0,.592,0l.4,0,.394,0c.178,0,.375,0,.582,0a8.06,8.06,0,0,1,2.347.233A1.9,1.9,0,0,1,14.4,6.677a10.162,10.162,0,0,1,.23,2.924c0,.149,0,.284,0,.4s0,.248,0,.395V10.4h0a10.157,10.157,0,0,1-.23,2.924A1.9,1.9,0,0,1,13.325,14.4,7.916,7.916,0,0,1,11,14.629ZM10,7.11A2.891,2.891,0,1,0,12.892,10,2.894,2.894,0,0,0,10,7.11Zm3.01-.793a.674.674,0,1,0,.674.674A.675.675,0,0,0,13.01,6.317ZM10,11.88A1.88,1.88,0,1,1,11.881,10,1.881,1.881,0,0,1,10,11.88Z" fill="#5a5859"/>
</svg>
