<svg id="Layer_1" data-name="Layer 1" xmlns="http://www.w3.org/2000/svg" viewBox="0 0 287.52 45"><defs><style>.cls-1{fill:#fff;}.cls-2{fill:#3f79ff;}</style></defs><title>intel-logo</title><path class="cls-1" d="M0,2.52H9.72v42H0Z"/><path class="cls-1" d="M48.33,15.36Q52,19,52,26V44.52H42.66v-17q0-3.84-1.68-5.73a6.16,6.16,0,0,0-4.86-1.89,7.45,7.45,0,0,0-5.64,2.19q-2.1,2.19-2.1,6.51v16H19V12.24H28V16a12.41,12.41,0,0,1,4.62-3.15,16.1,16.1,0,0,1,6.06-1.11A13.28,13.28,0,0,1,48.33,15.36Z"/><path class="cls-1" d="M81.3,43a9.62,9.62,0,0,1-3.39,1.53,17.14,17.14,0,0,1-4.23.51q-5.76,0-8.91-2.94t-3.15-8.64V20.16h-5V13h5V5.1H71V13h8v7.2H71V33.3a4.41,4.41,0,0,0,1,3.15,3.89,3.89,0,0,0,3,1.11,6,6,0,0,0,3.78-1.2Z"/><path class="cls-1" d="M117,31H92.58a7.61,7.61,0,0,0,3.12,4.74,10.33,10.33,0,0,0,6.12,1.74,12.39,12.39,0,0,0,4.47-.75,10.83,10.83,0,0,0,3.63-2.37l5,5.4Q110.34,45,101.58,45a21.07,21.07,0,0,1-9.66-2.13A15.61,15.61,0,0,1,85.44,37a16.28,16.28,0,0,1-2.28-8.58,16.5,16.5,0,0,1,2.25-8.55,15.76,15.76,0,0,1,6.18-5.94A19.13,19.13,0,0,1,109,13.8a14.89,14.89,0,0,1,6,5.85,17.44,17.44,0,0,1,2.19,8.85Q117.18,28.68,117,31ZM95.1,20.64a7.66,7.66,0,0,0-2.64,4.92h15.9a7.74,7.74,0,0,0-2.64-4.89,7.89,7.89,0,0,0-5.28-1.83A8.06,8.06,0,0,0,95.1,20.64Z"/><path class="cls-1" d="M123.42,0h9.36V44.52h-9.36Z"/><path class="cls-1" d="M141.48,0h9.36V44.52h-9.36Z"/><path class="cls-1" d="M191,31H166.56a7.61,7.61,0,0,0,3.12,4.74,10.33,10.33,0,0,0,6.12,1.74,12.39,12.39,0,0,0,4.47-.75,10.83,10.83,0,0,0,3.63-2.37l5,5.4Q184.32,45,175.56,45a21.07,21.07,0,0,1-9.66-2.13A15.61,15.61,0,0,1,159.42,37a16.28,16.28,0,0,1-2.28-8.58,16.5,16.5,0,0,1,2.25-8.55,15.76,15.76,0,0,1,6.18-5.94,19.13,19.13,0,0,1,17.37-.09,14.89,14.89,0,0,1,6,5.85,17.44,17.44,0,0,1,2.19,8.85Q191.16,28.68,191,31Zm-21.9-10.38a7.66,7.66,0,0,0-2.64,4.92h15.9a7.74,7.74,0,0,0-2.64-4.89,7.89,7.89,0,0,0-5.28-1.83A8.06,8.06,0,0,0,169.08,20.64Z"/><path class="cls-2" d="M203.61,42.87A15.83,15.83,0,0,1,197.28,37,16.28,16.28,0,0,1,195,28.38a16.28,16.28,0,0,1,2.28-8.58,15.83,15.83,0,0,1,6.33-5.91,20.65,20.65,0,0,1,18.27,0,15.88,15.88,0,0,1,6.3,5.91,16.28,16.28,0,0,1,2.28,8.58A16.28,16.28,0,0,1,228.18,37a15.88,15.88,0,0,1-6.3,5.91,20.65,20.65,0,0,1-18.27,0Zm15.06-8A9.06,9.06,0,0,0,221,28.38a9.06,9.06,0,0,0-2.31-6.51,7.8,7.8,0,0,0-5.91-2.43,7.89,7.89,0,0,0-5.94,2.43,9,9,0,0,0-2.34,6.51,9,9,0,0,0,2.34,6.51,7.89,7.89,0,0,0,5.94,2.43A7.8,7.8,0,0,0,218.67,34.89Z"/><path class="cls-2" d="M266,15.36Q269.7,19,269.7,26V44.52h-9.36v-17q0-3.84-1.68-5.73a6.16,6.16,0,0,0-4.86-1.89,7.45,7.45,0,0,0-5.64,2.19q-2.1,2.19-2.1,6.51v16H236.7V12.24h8.94V16a12.41,12.41,0,0,1,4.62-3.15,16.1,16.1,0,0,1,6.06-1.11A13.28,13.28,0,0,1,266,15.36Z"/><path class="cls-2" d="M277.56,43.32a5.7,5.7,0,0,1-1.68-4.2A5.48,5.48,0,0,1,277.56,35a6.18,6.18,0,0,1,8.28,0,5.48,5.48,0,0,1,1.68,4.17,5.7,5.7,0,0,1-1.68,4.2,5.94,5.94,0,0,1-8.28,0Z"/></svg>