<svg id="Layer_1" data-name="Layer 1" xmlns="http://www.w3.org/2000/svg" viewBox="0 0 20 20"><defs><style>.cls-1{fill:#5a5859;}</style></defs><title>linkedin</title><path class="cls-1" d="M17,0H3A3,3,0,0,0,0,3V17a3,3,0,0,0,3,3H17a3,3,0,0,0,3-3V3A3,3,0,0,0,17,0ZM7.26,14.05c0,.34-.11.46-.44.47H5.71c-.33,0-.45-.14-.45-.47V8.83c0-.33.14-.47.48-.47h1c.34,0,.47.14.47.47v5.22Zm-1-7a1.27,1.27,0,0,1,0-2.54A1.27,1.27,0,0,1,6.25,7Zm8.38,7.52c-.44,0-.88,0-1.31,0-.27,0-.36-.14-.36-.43,0-1,0-1.93,0-2.9a2,2,0,0,0-.1-.58.81.81,0,0,0-.72-.61.84.84,0,0,0-.89.4,2,2,0,0,0-.26.84c0,.92,0,1.85,0,2.77,0,.41-.11.52-.52.52H9.39c-.31,0-.42-.12-.42-.43V8.79c0-.31.11-.43.42-.43h.9c.59,0,.64,0,.7.66a3.09,3.09,0,0,1,2.31-.67l-.07,0,.21,0c.21,0,.26,0,0,0H13.3a1.88,1.88,0,0,1,1.59,1.82c.09,1.32.08,2.65.11,4A.35.35,0,0,1,14.63,14.52Z"/></svg>